<?xml version="1.0" standalone="no"?>
<!DOCTYPE svg PUBLIC "-//W3C//DTD SVG 1.1//EN" "http://www.w3.org/Graphics/SVG/1.1/DTD/svg11.dtd" >
<svg>
<metadata>
Created by FontForge 20090622 at Tue Mar 20 18:33:04 2018
 By deploy user
Copyright &#194;&#169; 2013 by Dino dos Santos. All rights reserved.
</metadata>
<defs>
<font id="BreveSlabTitle-SemiBold" horiz-adv-x="603" >
  <font-face 
    font-family="Breve Slab Title SemiBold"
    font-weight="600"
    font-stretch="normal"
    units-per-em="1000"
    panose-1="0 0 7 0 0 0 0 0 0 0"
    ascent="800"
    descent="-200"
    x-height="500"
    cap-height="720"
    bbox="-187 -281 1035 944"
    underline-thickness="50"
    underline-position="-50"
    unicode-range="U+0020-U+FB02"
  />
<missing-glyph horiz-adv-x="549" 
d="M65 0v500h419v-500h-419zM464 488h-378l190 -229zM268 249l-192 236v-469zM283 249l191 -231v465zM462 12l-186 228l-188 -228h374z" />
    <glyph glyph-name="fi" unicode="fi" horiz-adv-x="642" 
d="M84 500v27q0 50 13 85.5t34.5 56t57 32.5t72 15.5t88.5 3.5v-105l-7 -5q-28 8 -63 8q-62 0 -62 -74v-44h110v-93h-110v-263q0 -32 11.5 -41t68.5 -9v-94h-267v94q38 0 46 9t8 41v263h-54v55zM414 635q0 29 20.5 48.5t53.5 19.5t53.5 -19.5t20.5 -48.5t-20.5 -48
t-53.5 -19t-53.5 19t-20.5 48zM564 500v-356q0 -32 8 -41t47 -9v-94h-242v94q39 0 47 9t8 41v212q0 32 -8 41t-47 9v94h187z" />
    <glyph glyph-name="fl" unicode="fl" horiz-adv-x="632" 
d="M84 500v27q0 50 13 85.5t34.5 56t57 32.5t72 15.5t88.5 3.5v-105l-7 -5q-28 8 -63 8q-62 0 -62 -74v-44h110v-93h-110v-263q0 -32 11.5 -41t68.5 -9v-94h-267v94q38 0 46 9t8 41v263h-54v55zM554 720v-576q0 -32 8 -41t47 -9v-94h-241v94q38 0 46 9t8 41v432q0 32 -8 41
t-46 9v94h186z" />
    <glyph glyph-name=".notdef" horiz-adv-x="549" 
d="M65 0v500h419v-500h-419zM464 488h-378l190 -229zM268 249l-192 236v-469zM283 249l191 -231v465zM462 12l-186 228l-188 -228h374z" />
    <glyph glyph-name=".null" horiz-adv-x="0" 
 />
    <glyph glyph-name="nonmarkingreturn" horiz-adv-x="333" 
 />
    <glyph glyph-name="space" unicode=" " horiz-adv-x="198" 
 />
    <glyph glyph-name="exclam" unicode="!" horiz-adv-x="259" 
d="M58 720h142l-32 -541h-78zM69 53q0 25 18 43.5t44 18.5q25 0 43 -18.5t18 -43.5q0 -26 -18 -44.5t-43 -18.5q-26 0 -44 18.5t-18 44.5z" />
    <glyph glyph-name="quotedbl" unicode="&#x22;" horiz-adv-x="397" 
d="M39 720h127l-23 -230h-82zM231 720h127l-22 -230h-83z" />
    <glyph glyph-name="numbersign" unicode="#" horiz-adv-x="518" 
d="M372 296v-62h103v-80h-103v-114h-80v114h-66v-114h-80v114h-104v80h104v62h-104v80h104v114h80v-114h66v114h80v-114h103v-80h-103zM292 296h-66v-62h66v62z" />
    <glyph glyph-name="dollar" unicode="$" horiz-adv-x="532" 
d="M313 614l-14 -176q36 -19 55.5 -30.5t50.5 -35t47.5 -45.5t29.5 -55.5t13 -71.5q0 -98 -63.5 -154t-175.5 -56q-122 0 -217 48v123q102 -48 184 -56l15 195q-27 14 -39 21l-37 22.5t-38 27t-31 30.5t-26.5 37t-15.5 43t-7 52q0 95 64 146t160 51q112 0 210 -49v-136h-80
q0 57 -85 69zM187 544q0 -39 64 -78l11 150q-75 -6 -75 -72zM287 272l-13 -167q77 9 77 81q0 44 -64 86z" />
    <glyph glyph-name="percent" unicode="%" horiz-adv-x="731" 
d="M162 357q-72 0 -102.5 48t-30.5 139q0 90 30.5 135.5t102.5 45.5q73 0 103.5 -46t30.5 -135q0 -91 -31 -139t-103 -48zM533 720h109l-237 -345l-54 17zM162 668q-35 0 -48 -27.5t-13 -96.5t13 -99.5t48 -30.5t48 30.5t13 99.5t-13 96.5t-48 27.5zM570 -5q-73 0 -103.5 48
t-30.5 139q0 90 30.5 135.5t103.5 45.5t103.5 -46t30.5 -135q0 -91 -31 -139t-103 -48zM194 0h-109l241 353l55 -17zM570 306q-35 0 -48 -27.5t-13 -96.5t13 -99.5t48 -30.5t48 30.5t13 99.5t-13 96.5t-48 27.5z" />
    <glyph glyph-name="ampersand" unicode="&#x26;" horiz-adv-x="651" 
d="M635 10v-10h-155l-27 32q-75 -42 -174 -42q-118 0 -180.5 56t-62.5 144q0 116 117 200q-59 84 -59 155q0 91 58 138t163 47q109 0 161.5 -44.5t52.5 -109.5q0 -40 -19 -75.5t-52 -55.5h-99q47 45 47 96q0 35 -23.5 57t-65.5 22q-45 0 -68 -22t-23 -56q0 -17 5.5 -34
t20.5 -39t25.5 -35t37 -43t37.5 -44l116 -138q26 60 26 146h119q0 -146 -67 -239zM292 100q49 0 88 17l-150 177l-15 17q-47 -44 -47 -100q0 -47 34 -79t90 -32z" />
    <glyph glyph-name="quotesingle" unicode="'" horiz-adv-x="205" 
d="M39 720h127l-23 -230h-82z" />
    <glyph glyph-name="parenleft" unicode="(" horiz-adv-x="293" 
d="M31 360q0 136 49 253.5t134 186.5h67q-54 -81 -82 -197.5t-28 -242.5t28 -242.5t82 -197.5h-67q-85 69 -134 186.5t-49 253.5z" />
    <glyph glyph-name="parenright" unicode=")" horiz-adv-x="293" 
d="M262 360q0 -136 -49 -253.5t-134 -186.5h-67q54 81 82 197.5t28 242.5t-28.5 242.5t-82.5 197.5h68q85 -69 134 -186.5t49 -253.5z" />
    <glyph glyph-name="asterisk" unicode="*" horiz-adv-x="353" 
d="M75 688q8 8 19 9t20 -6q3 -3 54 -87q-3 17 -8.5 40.5l-9.5 40t-4 20.5q0 10 9.5 17t20.5 7t20 -7t9 -17q0 -4 -3.5 -20.5l-9 -40.5t-8.5 -39l19.5 32l22 36t12.5 18q8 7 19 6.5t19 -8.5t9 -19t-7 -20q-5 -5 -86 -55q17 3 40 8.5t39.5 10t20.5 4.5q10 0 17.5 -9.5
t7.5 -20.5t-7.5 -20t-17.5 -9q-4 0 -20 3.5l-39.5 8.5t-39.5 8l32.5 -19.5l35 -21t17.5 -11.5q7 -8 6.5 -19.5t-8.5 -19.5t-19.5 -9t-19.5 7q-3 2 -54 84q3 -16 9 -39l10 -39t4 -20q0 -10 -9.5 -17.5t-20.5 -7.5t-20 7.5t-9 17.5q0 4 3.5 20l8.5 39t8 39l-19.5 -32
l-21 -35.5t-11.5 -17.5q-8 -7 -19.5 -6t-19.5 9t-9 19t7 20q2 2 85 53q-17 -3 -40.5 -8.5l-39.5 -9.5t-20 -4q-10 0 -17 9.5t-7 20.5t7 20t17 9q4 0 20.5 -4t40 -9t39.5 -8q-82 49 -86 54q-7 8 -6.5 19t8.5 19z" />
    <glyph glyph-name="plus" unicode="+" horiz-adv-x="417" 
d="M377 225h-128v-128h-80v128h-128v80h128v128h80v-128h128v-80z" />
    <glyph glyph-name="comma" unicode="," horiz-adv-x="215" 
d="M46 -125l48 115q-20 0 -37 17t-17 46q0 26 19 44.5t47 18.5q33 0 51 -22t18 -53q0 -25 -12.5 -56.5t-22.5 -48.5t-38 -61h-56z" />
    <glyph glyph-name="hyphen" unicode="-" horiz-adv-x="434" 
d="M49 241v80h336v-80h-336z" />
    <glyph glyph-name="period" unicode="." horiz-adv-x="202" 
d="M39 53q0 25 18 43.5t44 18.5q25 0 43.5 -18.5t18.5 -43.5q0 -26 -18 -44.5t-44 -18.5t-44 18.5t-18 44.5z" />
    <glyph glyph-name="slash" unicode="/" horiz-adv-x="300" 
d="M275 720l-155 -720h-95l156 720h94z" />
    <glyph glyph-name="zero" unicode="0" horiz-adv-x="617" 
d="M309 -10q-144 0 -207 96t-63 279q0 181 62.5 273t207.5 92q144 0 206.5 -92t62.5 -273q0 -183 -62.5 -279t-206.5 -96zM309 616q-72 0 -99 -58t-27 -193q0 -137 27.5 -199t98.5 -62t98 62t27 199q0 136 -27 193.5t-98 57.5z" />
    <glyph glyph-name="one" unicode="1" horiz-adv-x="398" 
d="M279 725v-582q0 -23 4 -31t25 -13t71 -5v-94h-340v94q50 0 71 5t25 13t4 31v464h-100v93l155 25h85z" />
    <glyph glyph-name="two" unicode="2" horiz-adv-x="549" 
d="M509 117l-10 -117h-463v117q163 114 242.5 204.5t79.5 176.5q0 64 -33 91t-84 27q-107 0 -107 -71h-80v136q55 28 100.5 38.5t108.5 10.5q113 0 178 -53.5t65 -170.5q0 -53 -17.5 -101t-42.5 -84t-68.5 -74t-81 -64.5t-94.5 -61.5v-4h307z" />
    <glyph glyph-name="three" unicode="3" horiz-adv-x="559" 
d="M377 209q0 105 -167 105h-76v103h76q68 0 113 26t45 80q0 93 -123 93q-112 0 -112 -71h-80v136q97 49 213 49q112 0 177 -50t65 -135q0 -66 -38.5 -110t-109.5 -60v-4q77 -14 118.5 -58t41.5 -116q0 -102 -70.5 -154.5t-191.5 -52.5q-53 0 -113.5 13.5t-103.5 34.5v122
q93 -56 195 -56q65 0 103 26.5t38 78.5z" />
    <glyph glyph-name="four" unicode="4" horiz-adv-x="583" 
d="M553 131h-75v-131h-140v131h-315v125l328 469h127v-476h75v-118zM338 249v244l-171 -244h171z" />
    <glyph glyph-name="five" unicode="5" horiz-adv-x="537" 
d="M173 603v-145q42 8 79 8q108 0 180.5 -57t72.5 -173q0 -117 -68 -181.5t-185 -64.5t-213 48v122q98 -56 180 -56q142 0 142 122q0 125 -154 125q-60 0 -143 -20v389h416v-117h-307z" />
    <glyph glyph-name="six" unicode="6" horiz-adv-x="582" 
d="M321 730q103 0 201 -49v-136h-80q0 71 -100 71q-90 0 -123 -67.5t-33 -229.5q0 -109 25 -162t89 -53q103 0 103 133q0 68 -28 101t-92 33q-36 0 -61 -10l6 84q40 22 97 22q107 0 164.5 -62.5t57.5 -167.5q0 -108 -65.5 -177.5t-184.5 -69.5q-258 0 -258 340
q0 400 282 400z" />
    <glyph glyph-name="seven" unicode="7" horiz-adv-x="515" 
d="M501 720v-103q-101 -124 -157.5 -294t-56.5 -323h-168q0 151 68.5 314.5t190.5 288.5h-221q-33 0 -41.5 -8.5t-8.5 -49.5h-80v175h474z" />
    <glyph glyph-name="eight" unicode="8" horiz-adv-x="587" 
d="M293 730q126 0 184 -47.5t58 -114.5q0 -94 -97 -150l-83 46q43 38 43 88q0 31 -27.5 49.5t-64.5 18.5q-43 0 -68.5 -21.5t-25.5 -54.5q0 -36 35 -66t84.5 -54.5t99 -53t84.5 -74t35 -104.5q0 -93 -70.5 -147.5t-188.5 -54.5q-130 0 -192.5 48.5t-62.5 119.5q0 96 106 151
l81 -45q-45 -41 -45 -88q0 -32 28.5 -54t76.5 -22t77 22t29 62q0 32 -35 60t-84.5 53t-99 54t-84.5 77t-35 108q0 90 64 142t178 52z" />
    <glyph glyph-name="nine" unicode="9" horiz-adv-x="582" 
d="M260 -10q-103 0 -201 49v136h80q0 -71 101 -71q89 0 122 67.5t33 229.5q0 109 -24.5 162t-88.5 53q-104 0 -104 -133q0 -68 28 -101t93 -33q35 0 60 10l-5 -84q-42 -22 -97 -22q-108 0 -165 62t-57 168q0 108 65 177.5t184 69.5q258 0 258 -340q0 -400 -282 -400z" />
    <glyph glyph-name="colon" unicode=":" horiz-adv-x="221" 
d="M48 335q0 26 18.5 44.5t44.5 18.5q25 0 43 -18.5t18 -44.5t-18 -44t-43 -18q-26 0 -44.5 18t-18.5 44zM48 53q0 25 18.5 43.5t44.5 18.5q25 0 43 -18.5t18 -43.5q0 -26 -18 -44.5t-43 -18.5q-26 0 -44.5 18.5t-18.5 44.5z" />
    <glyph glyph-name="semicolon" unicode=";" horiz-adv-x="236" 
d="M53 335q0 26 18 44.5t44 18.5t44 -18.5t18 -44.5q0 -25 -18.5 -43.5t-43.5 -18.5q-26 0 -44 18t-18 44zM57 -125l48 115q-20 0 -37 17t-17 46q0 26 19 44.5t47 18.5q33 0 51 -22t18 -53q0 -25 -12.5 -56.5t-22.5 -48.5t-38 -61h-56z" />
    <glyph glyph-name="less" unicode="&#x3c;" horiz-adv-x="417" 
d="M363 207v-82l-323 121v88l323 121v-82l-221 -83z" />
    <glyph glyph-name="equal" unicode="=" horiz-adv-x="438" 
d="M51 302v80h336v-80h-336zM51 148v80h336v-80h-336z" />
    <glyph glyph-name="greater" unicode="&#x3e;" horiz-adv-x="417" 
d="M54 373v82l323 -121v-88l-323 -121v82l221 83z" />
    <glyph glyph-name="question" unicode="?" horiz-adv-x="487" 
d="M213 616q-103 0 -103 -71h-80v136q53 28 98 38.5t105 10.5q108 0 167.5 -58.5t59.5 -162.5q0 -64 -21.5 -111.5t-57 -72t-73 -35.5t-77.5 -11l-6 -100h-85l-12 187q92 0 141.5 29.5t49.5 103.5q0 117 -106 117zM119 53q0 25 18 43.5t43 18.5t43.5 -18.5t18.5 -43.5
q0 -26 -18 -44.5t-44 -18.5q-25 0 -43 18.5t-18 44.5z" />
    <glyph glyph-name="at" unicode="@" horiz-adv-x="796" 
d="M562 427q-36 -216 -36 -254q0 -24 12 -38t33 -14q95 0 95 187q0 115 -72 171.5t-180 56.5q-140 0 -216 -83t-76 -220q0 -140 81.5 -209t222.5 -69q128 0 228 62v-68q-94 -65 -251 -65q-164 0 -264 96.5t-100 258.5q0 156 102 263.5t274 107.5q143 0 238.5 -81t95.5 -224
q0 -108 -56 -181.5t-149 -73.5q-44 0 -71.5 18.5t-32.5 51.5l-57 -53q-24 -17 -58 -17q-45 0 -73 38.5t-28 102.5q0 127 44 193t147 66q71 0 147 -23zM431 169l28 202q-28 11 -55 11q-41 0 -63 -41t-22 -144q0 -68 44 -68q24 0 68 40z" />
    <glyph glyph-name="A" unicode="A" horiz-adv-x="636" 
d="M413 725l159 -601q5 -19 16.5 -24.5t36.5 -5.5v-94h-164l-45 174h-207l-45 -174h-157v94q27 0 38.5 7.5t17.5 32.5l161 591h189zM383 291l-36 145q-5 24 -16.5 71l-16.5 67h-2q-6 -27 -19 -78.5t-17 -70.5l-34 -134h141z" />
    <glyph glyph-name="B" unicode="B" horiz-adv-x="616" 
d="M468 374v-2q51 -18 85 -62.5t34 -111.5q0 -91 -58 -144.5t-158 -53.5h-335v94q42 0 50.5 9t8.5 41v432q0 32 -8.5 41t-50.5 9v94h318q97 0 152.5 -50.5t55.5 -136.5q0 -59 -26 -100t-68 -59zM235 428h107q38 0 59 22.5t21 65.5q0 87 -78 87h-109v-175zM235 117h119
q41 0 65 24t24 73q0 46 -26.5 71.5t-67.5 25.5h-114v-194z" />
    <glyph glyph-name="C" unicode="C" horiz-adv-x="567" 
d="M332 -10q-157 0 -228 93.5t-71 276.5q0 184 71 277t230 93q102 0 200 -49v-136h-80q0 71 -120 71q-90 0 -123.5 -63.5t-33.5 -192.5t33.5 -192.5t121.5 -63.5q115 0 212 58l-10 -124q-101 -48 -202 -48z" />
    <glyph glyph-name="D" unicode="D" horiz-adv-x="672" 
d="M36 0v94q42 0 50.5 9t8.5 41v432q0 32 -8.5 41t-50.5 9v94h312q153 0 222 -90.5t69 -264.5q0 -365 -291 -365h-312zM235 117h113q80 0 113.5 59.5t33.5 188.5q0 128 -33 183t-114 55h-113v-486z" />
    <glyph glyph-name="E" unicode="E" horiz-adv-x="579" 
d="M539 0h-503v94q42 0 50.5 9t8.5 41v432q0 32 -8.5 41t-50.5 9v94h505v-175h-80q0 41 -9 49.5t-42 8.5h-175v-176h222v-117h-222v-193h168q34 0 46.5 9t19.5 49h80z" />
    <glyph glyph-name="F" unicode="F" horiz-adv-x="569" 
d="M541 545h-80q0 41 -9 49.5t-42 8.5h-175v-197h222v-117h-222v-145q0 -33 13 -41.5t76 -8.5v-94h-288v94q42 0 50.5 9t8.5 41v432q0 32 -8.5 41t-50.5 9v94h505v-175z" />
    <glyph glyph-name="G" unicode="G" horiz-adv-x="580" 
d="M334 616q-90 0 -123.5 -63.5t-33.5 -192.5t33.5 -192.5t121.5 -63.5q30 0 63 5v228h139v-256v-43q-101 -48 -202 -48q-157 0 -228 93.5t-71 276.5q0 184 71 277t230 93q102 0 200 -49v-136h-80q0 71 -120 71z" />
    <glyph glyph-name="H" unicode="H" horiz-adv-x="701" 
d="M607 576v-432q0 -32 8.5 -41t49.5 -9v-94h-258v94q43 0 51.5 9t8.5 41v166h-232v-166q0 -32 8.5 -41t50.5 -9v-94h-258v94q42 0 50.5 9t8.5 41v432q0 32 -8.5 41t-50.5 9v94h258v-94q-42 0 -50.5 -9t-8.5 -41v-149h232v149q0 32 -8.5 41t-51.5 9v94h258v-94
q-41 0 -49.5 -9t-8.5 -41z" />
    <glyph glyph-name="I" unicode="I" horiz-adv-x="329" 
d="M235 576v-432q0 -32 8.5 -41t50.5 -9v-94h-258v94q42 0 50.5 9t8.5 41v432q0 32 -8.5 41t-50.5 9v94h258v-94q-42 0 -50.5 -9t-8.5 -41z" />
    <glyph glyph-name="J" unicode="J" horiz-adv-x="318" 
d="M292 720v-94q-42 0 -50.5 -9t-8.5 -41v-394q0 -49 -5 -77t-23.5 -56.5t-58.5 -42t-105 -16.5l-9 88q36 5 48.5 23t12.5 54v421q0 32 -8.5 41t-50.5 9v94h258z" />
    <glyph glyph-name="K" unicode="K" horiz-adv-x="653" 
d="M235 576v-432q0 -32 8.5 -41t50.5 -9v-94h-258v94q42 0 50.5 9t8.5 41v432q0 32 -8.5 41t-50.5 9v94h258v-94q-42 0 -50.5 -9t-8.5 -41zM414 369l145 -231q18 -29 30.5 -36.5t48.5 -7.5v-94h-164l-209 345v37l211 338h154v-94q-35 0 -46.5 -7t-28.5 -34z" />
    <glyph glyph-name="L" unicode="L" horiz-adv-x="549" 
d="M529 0h-493v94q42 0 50.5 9t8.5 41v432q0 32 -8.5 41t-50.5 9v94h258v-94q-42 0 -50.5 -9t-8.5 -41v-459h158q34 0 46.5 9t19.5 49h80z" />
    <glyph glyph-name="M" unicode="M" horiz-adv-x="824" 
d="M730 576v-432q0 -32 8.5 -41t50.5 -9v-94h-196v245q0 124 8 214h-5l-140 -459h-93l-142 459h-5q7 -90 7 -214v-245h-187v94q42 0 50.5 9t8.5 41v432q0 32 -8.5 41t-50.5 9v94h245l98 -330q19 -64 34 -129h4q18 87 30 129l96 330h246v-94q-42 0 -50.5 -9t-8.5 -41z" />
    <glyph glyph-name="N" unicode="N" horiz-adv-x="692" 
d="M665 720v-94q-41 0 -49.5 -9t-8.5 -41v-576h-141l-242 458h-5q8 -91 8 -214v-244h-191v94q42 0 50.5 9t8.5 41v432q0 32 -8.5 41t-50.5 9v94h200l241 -458h5q-8 91 -8 214v244h191z" />
    <glyph glyph-name="O" unicode="O" horiz-adv-x="644" 
d="M322 -10q-289 0 -289 375q0 365 289 365t289 -365q0 -375 -289 -375zM322 616q-81 0 -113.5 -57t-32.5 -194q0 -139 33 -200t113 -61t113 61t33 200q0 137 -32.5 194t-113.5 57z" />
    <glyph glyph-name="P" unicode="P" horiz-adv-x="602" 
d="M36 720h290q257 0 257 -234q0 -242 -257 -242h-51v117h51q60 0 86.5 31.5t26.5 93.5q0 60 -26 88.5t-87 28.5h-91v-459q0 -33 13 -41.5t76 -8.5v-94h-288v94q42 0 50.5 9t8.5 41v432q0 32 -8.5 41t-50.5 9v94z" />
    <glyph glyph-name="Q" unicode="Q" horiz-adv-x="647" 
d="M550 100q34 -24 77 -23v-77q-43 -10 -68 -10q-58 0 -101 28q-58 -28 -136 -28q-289 0 -289 375q0 365 289 365t289 -365q0 -171 -61 -265zM322 616q-81 0 -113.5 -57t-32.5 -194q0 -58 6 -103q40 10 73 10q115 0 194 -73q19 60 19 166q0 137 -32.5 194t-113.5 57z
M202 179q34 -75 120 -75q25 0 46 6q-31 34 -63.5 52.5t-80.5 18.5q-6 0 -22 -2z" />
    <glyph glyph-name="R" unicode="R" horiz-adv-x="639" 
d="M36 720h292q131 0 193 -58t62 -161q0 -149 -113 -191v-10q50 -17 81 -115l18 -54q8 -25 18 -31t45 -6v-94h-178l-70 221q-10 30 -27 44t-53 14h-29v117h53q111 0 111 105q0 102 -111 102h-93v-459q0 -32 8.5 -41t50.5 -9v-94h-258v94q42 0 50.5 9t8.5 41v432
q0 32 -8.5 41t-50.5 9v94z" />
    <glyph glyph-name="S" unicode="S" horiz-adv-x="520" 
d="M270 616q-88 0 -88 -72q0 -29 31.5 -55t77 -49.5t91 -52t77 -77t31.5 -110.5q0 -98 -63.5 -154t-175.5 -56q-122 0 -217 48v123q121 -57 213 -57q99 0 99 82q0 25 -17 46t-44 38t-60 34t-65.5 38t-59.5 46t-44 62.5t-17 82.5q0 95 64 146t160 51q112 0 210 -49v-136h-80
q0 71 -123 71z" />
    <glyph glyph-name="T" unicode="T" horiz-adv-x="559" 
d="M534 545h-80q0 41 -9 49.5t-42 8.5h-54v-459q0 -32 8.5 -41t50.5 -9v-94h-257v94q41 0 49.5 9t8.5 41v459h-54q-33 0 -41.5 -8.5t-8.5 -49.5h-80v175h509v-175z" />
    <glyph glyph-name="U" unicode="U" horiz-adv-x="671" 
d="M652 720v-94q-42 0 -50.5 -9t-8.5 -41v-345q0 -125 -70 -183t-187 -58q-116 0 -186.5 58t-70.5 183v345q0 32 -8.5 41t-50.5 9v94h257v-94q-41 0 -49.5 -9t-8.5 -41v-345q0 -55 28.5 -91t88.5 -36t88.5 36t28.5 91v345q0 32 -8.5 41t-50.5 9v94h258z" />
    <glyph glyph-name="V" unicode="V" horiz-adv-x="636" 
d="M174 720l111 -425q17 -64 36 -149h2q11 54 35 149l108 425h162v-94q-27 0 -38.5 -7.5t-17.5 -32.5l-158 -591h-196l-155 601q-5 19 -16.5 24.5t-36.5 5.5v94h164z" />
    <glyph glyph-name="W" unicode="W" horiz-adv-x="938" 
d="M929 720v-94q-26 0 -37 -6.5t-15 -23.5l-143 -601h-181l-84 406l-87 -406h-182l-137 602q-4 18 -15.5 23.5t-36.5 5.5v94h168l87 -421l9 -44l11 -54t9 -47h2q10 62 29 145l85 421h130l81 -421q22 -118 26 -145h2q8 45 30 145l91 421h158z" />
    <glyph glyph-name="X" unicode="X" horiz-adv-x="590" 
d="M377 372l127 -241q13 -24 26 -30.5t49 -6.5v-94h-165l-127 240l-114 -240h-161v94q37 0 49.5 6t25.5 31l125 247l-110 211q-13 24 -26 30.5t-50 6.5v94h166l111 -212l100 212h161v-94q-37 0 -49.5 -6t-25.5 -31z" />
    <glyph glyph-name="Y" unicode="Y" horiz-adv-x="586" 
d="M577 720v-94q-27 0 -38.5 -7.5t-22.5 -33.5l-154 -350v-91q0 -32 8.5 -41t50.5 -9v-94h-258v94q42 0 50.5 9t8.5 41v94l-154 358q-9 19 -19.5 24.5t-36.5 5.5v94h148l91 -216q24 -59 46 -121h2q15 46 45 121l92 216h141z" />
    <glyph glyph-name="Z" unicode="Z" horiz-adv-x="530" 
d="M490 0h-461v103l295 500h-152q-32 0 -41 -8.5t-9 -49.5h-80v175h448v-103l-292 -500h156q34 0 46.5 9t19.5 49h80z" />
    <glyph glyph-name="bracketleft" unicode="[" horiz-adv-x="329" 
d="M305 800v-74h-93v-732h93v-74h-233v880h233z" />
    <glyph glyph-name="backslash" unicode="\" horiz-adv-x="300" 
d="M275 0h-94l-156 720h95z" />
    <glyph glyph-name="bracketright" unicode="]" horiz-adv-x="329" 
d="M24 -80v74h92v732h-92v74h232v-880h-232z" />
    <glyph glyph-name="asciicircum" unicode="^" horiz-adv-x="384" 
d="M45 550l120 174h55l119 -174h-70l-76 85l-77 -85h-71z" />
    <glyph glyph-name="underscore" unicode="_" horiz-adv-x="529" 
d="M49 -118v80h433v-80h-433z" />
    <glyph glyph-name="grave" unicode="`" horiz-adv-x="365" 
d="M264 550l-140 51q-39 14 -39 49q0 18 13 30t33 12q19 0 48 -21l106 -80z" />
    <glyph glyph-name="a" unicode="a" horiz-adv-x="514" 
d="M442 365v-221q0 -32 8 -41t46 -9v-94h-182l-5 67l-58 -51q-40 -26 -92 -26q-62 0 -101 36.5t-39 93.5q0 115 142 144l148 31v40q0 86 -90 86q-75 0 -154 -34l-7 6l33 92q81 25 158 25q88 0 140.5 -38t52.5 -107zM309 233l-97 -28q-29 -8 -41.5 -20.5t-12.5 -38.5
q0 -27 17.5 -42.5t43.5 -15.5q50 0 90 42v103z" />
    <glyph glyph-name="b" unicode="b" horiz-adv-x="546" 
d="M190 437l60 49q39 24 87 24q85 0 132.5 -69.5t47.5 -190.5q0 -122 -60 -191t-167 -69q-82 0 -145 39l-26 -34h-62v581q0 32 -8 41t-46 9v94h187v-283zM190 381v-290q40 -20 82 -20q59 0 84 45.5t25 133.5q0 87 -26 126t-78 39q-46 0 -87 -34z" />
    <glyph glyph-name="c" unicode="c" horiz-adv-x="464" 
d="M436 355h-80q0 34 -17.5 46t-56.5 14q-61 0 -89.5 -45t-28.5 -120q0 -84 36 -124.5t100 -40.5q72 0 136 41v-96q-69 -40 -164 -40q-116 0 -180 70.5t-64 189.5q0 120 62.5 190t180.5 70q90 0 165 -35v-120z" />
    <glyph glyph-name="d" unicode="d" horiz-adv-x="567" 
d="M490 720v-576q0 -32 8 -41t46 -9v-94h-182l-5 63l-60 -49q-39 -24 -87 -24q-85 0 -132.5 69.5t-47.5 190.5t55.5 190.5t150.5 69.5q47 0 91 -22v-78q-22 12 -56 12q-105 0 -105 -172q0 -87 26 -126t78 -39q46 0 87 34v457q0 32 -8 41t-46 9v94h187z" />
    <glyph glyph-name="e" unicode="e" horiz-adv-x="511" 
d="M485 324q0 -38 -14 -102h-306q13 -137 138 -137q84 0 153 41v-96q-70 -40 -181 -40q-121 0 -184 70t-63 190t63.5 190t183.5 70q91 0 150.5 -42.5t59.5 -143.5zM165 287l190 6q4 16 4 39q0 51 -24.5 70.5t-55.5 19.5q-102 0 -114 -135z" />
    <glyph glyph-name="f" unicode="f" horiz-adv-x="345" 
d="M85 500v27q0 50 13 85.5t34.5 56t57 32.5t71.5 15.5t88 3.5v-105l-6 -5q-29 8 -64 8q-62 0 -62 -74v-44h110v-93h-110v-263q0 -32 11.5 -41t68.5 -9v-94h-267v94q39 0 47 9t8 41v263h-55v55z" />
    <glyph glyph-name="g" unicode="g" horiz-adv-x="508" 
d="M170 106l190 -21q66 -7 104 -42t38 -98q0 -76 -61 -125.5t-203 -49.5q-119 0 -175.5 30t-56.5 80q0 31 20 54.5t54 33.5l28 -6l-12 -43q0 -37 35 -52.5t103 -15.5q139 0 139 69q0 42 -60 48l-176 19q-44 4 -65 25.5t-21 51.5q0 58 79 107q-99 41 -99 163q0 82 54.5 129
t155.5 47q45 0 81 -9l164 9v-77l-68 10q32 -43 32 -109q0 -89 -54 -136t-155 -47q-23 0 -46 3zM240 426q-41 0 -62.5 -27t-21.5 -65q0 -46 22 -72t65 -26q42 0 62 27.5t20 70.5q0 41 -22 66.5t-63 25.5z" />
    <glyph glyph-name="h" unicode="h" horiz-adv-x="582" 
d="M507 364v-220q0 -32 8 -41t47 -9v-94h-187v338q0 68 -65 68q-43 0 -101 -35v-227q0 -32 8 -41t47 -9v-94h-241v94q38 0 46 9t8 41v432q0 32 -8 41t-46 9v94h186v-291h2l49 52q51 29 104 29q63 0 103 -37.5t40 -108.5z" />
    <glyph glyph-name="i" unicode="i" horiz-adv-x="296" 
d="M69 635q0 29 20.5 48.5t53.5 19.5t53.5 -19.5t20.5 -48.5t-20.5 -48t-53.5 -19t-53.5 19t-20.5 48zM219 500v-356q0 -32 8 -41t46 -9v-94h-241v94q38 0 46 9t8 41v212q0 32 -8 41t-46 9v94h187z" />
    <glyph glyph-name="j" unicode="j" horiz-adv-x="268" 
d="M57 635q0 29 20.5 48.5t53.5 19.5t53.5 -19.5t20.5 -48.5t-20.5 -48t-53.5 -19t-53.5 19t-20.5 48zM211 500v-489q0 -80 -33 -135.5t-122 -95.5l-54 79q48 31 62.5 60t14.5 92v345q0 32 -8 41t-46 9v94h186z" />
    <glyph glyph-name="k" unicode="k" horiz-adv-x="565" 
d="M210 720v-576q0 -32 8 -41t47 -9v-94h-242v94q39 0 47 9t8 41v432q0 32 -8 41t-47 9v94h187zM382 268l85 -125q13 -20 19.5 -27.5t21.5 -14.5t38 -7v-94h-153l-164 260l160 240h147v-94q-36 0 -53 -10t-32 -32z" />
    <glyph glyph-name="l" unicode="l" horiz-adv-x="286" 
d="M209 720v-576q0 -32 8 -41t47 -9v-94h-241v94q38 0 46 9t8 41v432q0 32 -8 41t-46 9v94h186z" />
    <glyph glyph-name="m" unicode="m" horiz-adv-x="882" 
d="M807 364v-220q0 -32 8 -41t46 -9v-94h-187v338q0 68 -65 68q-37 0 -96 -37v-225q0 -32 8 -41t46 -9v-94h-186v338q0 68 -65 68q-41 0 -97 -35v-227q0 -32 8 -41t47 -9v-94h-242v94q39 0 47 9t8 41v212q0 32 -8 41t-47 9v94h182l5 -71h2l49 52q51 29 104 29q101 0 128 -90
h2l56 61q51 29 104 29q63 0 103 -37.5t40 -108.5z" />
    <glyph glyph-name="n" unicode="n" horiz-adv-x="592" 
d="M517 364v-220q0 -32 8 -41t46 -9v-94h-187v338q0 68 -65 68q-44 0 -100 -35v-227q0 -32 8 -41t47 -9v-94h-242v94q39 0 47 9t8 41v212q0 32 -8 41t-47 9v94h182l5 -71h2l49 52q51 29 104 29q63 0 103 -37.5t40 -108.5z" />
    <glyph glyph-name="o" unicode="o" horiz-adv-x="533" 
d="M266 -10q-115 0 -176.5 68.5t-61.5 191.5t61.5 191.5t176.5 68.5q116 0 177 -68.5t61 -191.5t-61.5 -191.5t-176.5 -68.5zM266 422q-56 0 -79 -43.5t-23 -128.5t23 -128.5t79 -43.5q57 0 79.5 43.5t22.5 128.5t-23 128.5t-79 43.5z" />
    <glyph glyph-name="p" unicode="p" horiz-adv-x="566" 
d="M209 437l60 49q41 24 87 24q85 0 132.5 -69.5t47.5 -190.5t-55.5 -190.5t-149.5 -69.5q-46 0 -92 22v78q23 -12 56 -12q105 0 105 172q0 87 -26 126t-78 39q-44 0 -87 -34v-457q0 -32 8 -41t46 -9v-94h-241v94q38 0 46.5 9t8.5 41v432q0 32 -8 41t-47 9v94h182z" />
    <glyph glyph-name="q" unicode="q" horiz-adv-x="546" 
d="M489 505v-581q0 -32 8 -41t46 -9v-94h-241v94q38 0 46 9t8 41v139l-60 -49q-39 -24 -87 -24q-85 0 -132.5 69.5t-47.5 190.5q0 122 60 191t167 69q85 0 151 -42l42 37h40zM356 119v290q-40 20 -82 20q-59 0 -84 -45.5t-25 -133.5q0 -87 26 -126t78 -39q46 0 87 34z" />
    <glyph glyph-name="r" unicode="r" horiz-adv-x="408" 
d="M221 409l46 71q42 30 87 30q29 0 59 -9l-42 -116q-24 6 -47 6q-61 0 -105 -42v-205q0 -32 11.5 -41t68.5 -9v-94h-267v94q39 0 47 9t8 41v212q0 32 -8 41t-47 9v94h182l5 -91h2z" />
    <glyph glyph-name="s" unicode="s" horiz-adv-x="442" 
d="M390 355h-80q0 35 -22 47.5t-61 12.5q-61 0 -61 -43q0 -21 25.5 -36.5t62 -28.5t73.5 -30t62.5 -50t25.5 -79q0 -74 -53 -116t-145 -42q-88 0 -172 35l-12 101q95 -45 171 -45q36 0 56 14.5t20 37.5q0 22 -26 39t-62.5 30.5t-73 31.5t-62.5 51t-26 80q0 71 56 108t135 37
q94 0 169 -35v-120z" />
    <glyph glyph-name="t" unicode="t" horiz-adv-x="337" 
d="M20 407v55l51 38l84 111h48v-111h113v-93h-113v-264q0 -51 55 -51q34 0 60 11v-95q-42 -18 -101 -18q-76 0 -111 31t-35 103v283h-51z" />
    <glyph glyph-name="u" unicode="u" horiz-adv-x="582" 
d="M505 500v-356q0 -32 8 -41t46 -9v-94h-181l-5 71h-2l-49 -52q-51 -29 -104 -29q-63 0 -103 37.5t-40 108.5v220q0 32 -8 41t-47 9v94h187v-338q0 -68 65 -68q43 0 101 35v227q0 32 -8 41t-47 9v94h187z" />
    <glyph glyph-name="v" unicode="v" horiz-adv-x="543" 
d="M534 500v-94q-32 0 -42.5 -6t-17.5 -27l-120 -378h-167l-115 373q-7 24 -18 31t-41 7v94h163l100 -367h2l100 367h156z" />
    <glyph glyph-name="w" unicode="w" horiz-adv-x="818" 
d="M811 500v-94q-30 0 -41.5 -6t-16.5 -24l-107 -381h-170l-65 305l-81 -305h-170l-88 381q-4 19 -15 24.5t-40 5.5v94h161l76 -369h2l89 369h145l73 -369h2l91 369h155z" />
    <glyph glyph-name="x" unicode="x" horiz-adv-x="516" 
d="M330 261l75 -117q13 -21 20.5 -29.5t25 -14.5t47.5 -6v-94h-148l-97 153l-95 -153h-141v94q38 0 54.5 7.5t29.5 28.5l84 130l-67 106q-14 23 -31 31.5t-55 8.5v94h146l86 -135l86 135h138v-94q-40 0 -57 -8.5t-33 -31.5z" />
    <glyph glyph-name="y" unicode="y" horiz-adv-x="545" 
d="M535 500v-94q-31 0 -42 -6t-17 -27l-79 -243q-60 -193 -179 -350h-147v10q67 79 126 196l-123 382q-8 24 -18.5 31t-41.5 7v94h159l104 -368h2l102 368h154z" />
    <glyph glyph-name="z" unicode="z" horiz-adv-x="459" 
d="M431 0h-398v81l229 324h-96q-29 0 -41 -9t-12 -41h-80v145h388v-81l-226 -324h102q29 0 41.5 9t12.5 41h80v-145z" />
    <glyph glyph-name="braceleft" unicode="{" horiz-adv-x="311" 
d="M134 362v-3q48 -8 71.5 -32.5t23.5 -59.5q0 -36 -15 -97t-15 -89q0 -87 78 -87v-74q-114 0 -162.5 30t-48.5 100q0 41 15 106.5t15 83.5q0 43 -16 57.5t-54 14.5v96q38 0 54 14.5t16 57.5q0 18 -15 83.5t-15 106.5q0 70 48.5 100t162.5 30v-74q-78 0 -78 -87
q0 -28 15 -89t15 -97q0 -74 -95 -91z" />
    <glyph glyph-name="bar" unicode="|" horiz-adv-x="242" 
d="M166 740v-760h-90v760h90z" />
    <glyph glyph-name="braceright" unicode="}" horiz-adv-x="310" 
d="M33 726v74q114 0 163 -30t49 -100q0 -41 -15 -106.5t-15 -83.5q0 -43 15.5 -57.5t53.5 -14.5v-96q-38 0 -53.5 -14.5t-15.5 -57.5q0 -18 15 -83.5t15 -106.5q0 -70 -49 -100t-163 -30v74q79 0 79 87q0 28 -15 89t-15 97q0 76 94 92v3q-94 17 -94 91q0 36 15 97t15 89
q0 87 -79 87z" />
    <glyph glyph-name="asciitilde" unicode="~" horiz-adv-x="440" 
d="M114 553h-63q1 59 29.5 95.5t72.5 36.5q31 0 78 -24t64 -24q35 0 40 43h60q-6 -132 -89 -132q-28 0 -80.5 24t-69.5 24q-18 0 -28 -9.5t-14 -33.5z" />
    <glyph glyph-name="exclamdown" unicode="&#xa1;" horiz-adv-x="241" 
d="M61 447q0 26 17.5 44.5t43.5 18.5t44 -18.5t18 -44.5q0 -25 -18.5 -43.5t-43.5 -18.5q-26 0 -43.5 18.5t-17.5 43.5zM160 321l31 -541h-141l31 541h79z" />
    <glyph glyph-name="cent" unicode="&#xa2;" horiz-adv-x="587" 
d="M366 615v-510q101 6 184 57l-10 -124q-102 -48 -202 -48q-157 0 -228 93t-71 277t70.5 277t229.5 93q99 0 201 -48v-118q-89 45 -174 51zM183 360q0 -120 28.5 -183.5t103.5 -71.5v510q-76 -8 -104 -71t-28 -184z" />
    <glyph glyph-name="sterling" unicode="&#xa3;" horiz-adv-x="531" 
d="M494 117l-10 -117h-434v102q100 45 100 144q0 28 -11 56h-89v80h46q-50 86 -50 149q0 99 65.5 149t170.5 50q108 0 202 -49v-136h-80q0 71 -108 71q-99 0 -99 -80q0 -20 7.5 -42t15 -36t23.5 -39t23 -37h175v-80h-143q3 -16 3 -36q0 -93 -63 -144v-5h256z" />
    <glyph glyph-name="currency" unicode="&#xa4;" horiz-adv-x="647" 
d="M395 104q115 0 212 58l-10 -124q-101 -48 -202 -48q-131 0 -201.5 64.5t-89.5 191.5h-72v80h65l-1 34q0 26 1 39h-65v80h72q20 125 91 188t202 63q102 0 200 -49v-136h-80q0 71 -120 71q-67 0 -101.5 -34.5t-46.5 -102.5h196v-80h-204l-1 -39q0 -23 1 -34h204v-80h-197
q12 -70 46.5 -106t100.5 -36z" />
    <glyph glyph-name="yen" unicode="&#xa5;" horiz-adv-x="620" 
d="M593 720v-94q-28 0 -39.5 -7.5t-22.5 -33.5l-132 -300h128v-80h-150v-61q0 -32 8.5 -41t50.5 -9v-94h-257v94q41 0 49.5 9t8.5 41v61h-150v80h131l-134 311q-9 19 -19.5 24.5t-36.5 5.5v94h148l90 -216q23 -53 47 -121h2q22 66 45 121l91 216h142z" />
    <glyph glyph-name="brokenbar" unicode="&#xa6;" horiz-adv-x="243" 
d="M167 740v-340h-91v340h91zM167 320v-340h-91v340h91z" />
    <glyph glyph-name="section" unicode="&#xa7;" horiz-adv-x="523" 
d="M48 631q0 95 63 146.5t158 51.5q113 0 213 -48v-119q-108 53 -202 53q-88 0 -88 -73q0 -26 28.5 -53t69 -50l80.5 -47t68.5 -54t28.5 -61q0 -30 -17 -47.5t-51 -33.5q-32 34 -98 75.5l-118 72t-93.5 80t-41.5 107.5zM474 86q0 -91 -61.5 -142.5t-155.5 -51.5
q-117 0 -216 48v119q106 -53 205 -53q84 0 84 70q0 28 -28 55t-68.5 50l-81 46.5t-68.5 53t-28 61.5q0 30 16.5 47.5t49.5 33.5q32 -34 98 -75l118.5 -71.5t94 -81t41.5 -109.5z" />
    <glyph glyph-name="dieresis" unicode="&#xa8;" horiz-adv-x="473" 
d="M75 630q0 28 19 44.5t48 16.5t48.5 -16.5t19.5 -44.5t-19.5 -45t-48.5 -17t-48 17t-19 45zM262 630q0 28 19.5 44.5t48.5 16.5t48 -16.5t19 -44.5t-19 -45t-48 -17t-48.5 17t-19.5 45z" />
    <glyph glyph-name="copyright" unicode="&#xa9;" horiz-adv-x="809" 
d="M403 -10q-154 0 -262 108.5t-108 261.5t108 261.5t262 108.5q153 0 261.5 -108.5t108.5 -261.5t-108.5 -261.5t-261.5 -108.5zM403 45q131 0 223 92.5t92 222.5t-92 222.5t-223 92.5t-223 -92.5t-92 -222.5t92 -222.5t223 -92.5zM251 360q0 101 39 152.5t126 51.5
q55 0 110 -27v-64q-55 29 -110 29q-50 0 -68.5 -35.5t-18.5 -106.5t18.5 -106.5t67.5 -35.5q63 0 117 33l-6 -68q-55 -27 -111 -27q-86 0 -125 51.5t-39 152.5z" />
    <glyph glyph-name="ordfeminine" unicode="&#xaa;" horiz-adv-x="405" 
d="M318 639v-156q0 -21 5.5 -27t32.5 -6v-52h-107l-4 42l-37 -32q-29 -17 -60 -17q-40 0 -65 23.5t-25 60.5q0 69 91 91l96 20v33q0 60 -62 60q-50 0 -98 -20l-4 4l19 51q52 16 98 16q55 0 87.5 -24t32.5 -67zM245 550l-69 -19q-23 -6 -32 -15t-9 -29t12.5 -30.5t31.5 -10.5
q34 0 66 32v72zM48 284v52h315v-52h-315z" />
    <glyph glyph-name="guillemotleft" unicode="&#xab;" horiz-adv-x="541" 
d="M278 131l-55 -56l-190 169v52l190 169l55 -56l-130 -139zM506 131l-55 -56l-190 169v52l190 169l55 -56l-130 -139z" />
    <glyph glyph-name="logicalnot" unicode="&#xac;" horiz-adv-x="474" 
d="M342 93v147h-291v80h371v-227h-80z" />
    <glyph glyph-name="softhyphen" unicode="&#xad;" horiz-adv-x="434" 
d="M49 241v80h336v-80h-336z" />
    <glyph glyph-name="registered" unicode="&#xae;" horiz-adv-x="809" 
d="M403 -10q-154 0 -262 108.5t-108 261.5t108 261.5t262 108.5q153 0 261.5 -108.5t108.5 -261.5t-108.5 -261.5t-261.5 -108.5zM403 45q131 0 223 92.5t92 222.5t-92 222.5t-223 92.5t-223 -92.5t-92 -222.5t92 -222.5t223 -92.5zM278 162v396h128q140 0 140 -120
q0 -84 -65 -107v-4q31 -10 45 -55l33 -104v-6h-82l-40 122q-6 18 -15 25t-32 7h-14v64h30q62 0 62 58q0 56 -62 56h-52v-332h-76z" />
    <glyph glyph-name="macron" unicode="&#xaf;" horiz-adv-x="452" 
d="M76 564v73h300v-73h-300z" />
    <glyph glyph-name="degree" unicode="&#xb0;" horiz-adv-x="299" 
d="M31 612q0 52 34.5 85t83.5 33t84 -33t35 -85q0 -51 -35.5 -85t-83.5 -34q-49 0 -83.5 33.5t-34.5 85.5zM92 612q0 -23 15.5 -40.5t41.5 -17.5t42 17.5t16 40.5q0 24 -15.5 40.5t-42.5 16.5t-42 -16.5t-15 -40.5z" />
    <glyph glyph-name="plusminus" unicode="&#xb1;" horiz-adv-x="436" 
d="M386 337v-81h-127v-117h-81v117h-128v81h128v116h81v-116h127zM50 106h336v-82h-336v82z" />
    <glyph glyph-name="twosuperior" unicode="&#xb2;" horiz-adv-x="341" 
d="M306 451l-6 -64h-274v64q105 77 151.5 131.5t46.5 106.5q0 74 -78 74q-50 0 -107 -31v65q56 28 120 28q145 0 145 -132q0 -32 -10.5 -60.5t-25 -49.5t-43 -46t-50 -41t-61.5 -42v-3h192z" />
    <glyph glyph-name="threesuperior" unicode="&#xb3;" horiz-adv-x="347" 
d="M162 825q67 0 105 -30t38 -80q0 -84 -89 -103v-3q46 -8 72 -35t26 -70q0 -60 -42 -91.5t-113 -31.5q-69 0 -127 28v67q56 -33 116 -33q40 0 63.5 17t23.5 50q0 68 -104 68h-43v57h43q42 0 70 16.5t28 51.5q0 60 -78 60q-48 0 -110 -31v65q54 28 121 28z" />
    <glyph glyph-name="acute" unicode="&#xb4;" horiz-adv-x="365" 
d="M79 591l106 80q29 21 48 21q20 0 33 -12t13 -30q0 -34 -39 -49l-141 -51z" />
    <glyph glyph-name="paragraph" unicode="&#xb6;" horiz-adv-x="586" 
d="M367 0v589h-70v-306h-43q-112 0 -170 60t-58 163q0 101 57.5 157.5t170.5 56.5h253v-720h-140z" />
    <glyph glyph-name="periodcentered" unicode="&#xb7;" horiz-adv-x="210" 
d="M43 277q0 26 18 44.5t44 18.5t44 -18.5t18 -44.5q0 -25 -18.5 -43.5t-43.5 -18.5q-26 0 -44 18t-18 44z" />
    <glyph glyph-name="cedilla" unicode="&#xb8;" horiz-adv-x="355" 
d="M175 0v-31q45 0 71 -21t26 -58q0 -40 -25.5 -65t-72.5 -25t-80 15v44q26 -11 51 -11q51 0 51 42q0 43 -69 43v67h48z" />
    <glyph glyph-name="onesuperior" unicode="&#xb9;" horiz-adv-x="217" 
d="M82 390v366h-60v54l92 15h45v-435h-77z" />
    <glyph glyph-name="ordmasculine" unicode="&#xba;" horiz-adv-x="415" 
d="M205 391q-72 0 -110 44.5t-38 125.5q0 80 38 124.5t110 44.5q73 0 111 -44.5t38 -124.5q0 -81 -38 -125.5t-111 -44.5zM205 680q-74 0 -74 -119q0 -120 74 -120q41 0 57.5 30.5t16.5 89.5t-17 89t-57 30zM50 284v52h314v-52h-314z" />
    <glyph glyph-name="guillemotright" unicode="&#xbb;" horiz-adv-x="541" 
d="M35 409l55 56l190 -169v-52l-190 -169l-55 56l130 139zM263 409l55 56l190 -169v-52l-190 -169l-55 56l130 139z" />
    <glyph glyph-name="onequarter" unicode="&#xbc;" horiz-adv-x="732" 
d="M82 656h-60v54l91 15h45v-435h-76v366zM586 720l-235 -345l-56 17l182 328h109zM701 83h-45v-83h-76v83h-189v67l197 285h68v-288h45v-64zM271 353l56 -17l-189 -336h-108zM580 147v157l-113 -157h113z" />
    <glyph glyph-name="onehalf" unicode="&#xbd;" horiz-adv-x="740" 
d="M82 656h-60v54l91 15h45v-435h-76v366zM586 720l-235 -345l-56 17l182 328h109zM706 64l-6 -64h-274v64q105 77 151.5 131.5t46.5 106.5q0 74 -78 74q-50 0 -107 -31v65q56 28 120 28q145 0 145 -132q0 -32 -10.5 -60.5t-25 -49.5t-43 -46t-50 -41t-61.5 -42v-3h192z
M271 353l56 -17l-189 -336h-108z" />
    <glyph glyph-name="threequarters" unicode="&#xbe;" horiz-adv-x="862" 
d="M313 404q0 -61 -41.5 -92t-112.5 -31q-69 0 -127 28v67q56 -33 116 -33q40 0 63.5 17t23.5 50q0 68 -104 68h-43v57h43q41 0 69.5 16.5t28.5 51.5q0 60 -78 60q-50 0 -110 -31v65q54 28 121 28q66 0 104.5 -30.5t38.5 -79.5q0 -84 -89 -103v-3q46 -8 71.5 -34.5
t25.5 -70.5zM716 720l-235 -345l-56 17l182 328h109zM830 83h-45v-83h-76v83h-189v67l197 285h68v-288h45v-64zM401 353l56 -17l-189 -336h-108zM709 147v157l-113 -157h113z" />
    <glyph glyph-name="questiondown" unicode="&#xbf;" horiz-adv-x="480" 
d="M365 447q0 -25 -18 -43.5t-43 -18.5t-43.5 18.5t-18.5 43.5q0 26 18 44.5t44 18.5q25 0 43 -18.5t18 -44.5zM271 -116q103 0 103 71h80v-136q-53 -28 -98 -38.5t-105 -10.5q-108 0 -167.5 58.5t-59.5 162.5q0 64 21.5 111.5t57 72t73 35.5t77.5 11l6 100h85l12 -187
q-92 0 -141.5 -29.5t-49.5 -103.5q0 -117 106 -117z" />
    <glyph glyph-name="Agrave" unicode="&#xc0;" horiz-adv-x="636" 
d="M342 770l-140 51q-39 14 -39 49q0 18 13 30t33 12q19 0 48 -21l106 -80zM413 725l159 -601q6 -19 17 -24.5t37 -5.5v-94h-165l-45 174h-206l-46 -174h-157v94q27 0 38.5 7.5t18.5 32.5l160 591h189zM383 291l-36 145q-5 24 -16.5 71l-16.5 67h-2q-6 -27 -19 -78.5
t-17 -70.5l-34 -134h141z" />
    <glyph glyph-name="Aacute" unicode="&#xc1;" horiz-adv-x="636" 
d="M273 811l106 80q29 21 48 21q20 0 33 -12t13 -30q0 -34 -39 -49l-141 -51zM413 725l159 -601q6 -19 17 -24.5t37 -5.5v-94h-165l-45 174h-206l-46 -174h-157v94q27 0 38.5 7.5t18.5 32.5l160 591h189zM383 291l-36 145q-5 24 -16.5 71l-16.5 67h-2q-6 -27 -19 -78.5
t-17 -70.5l-34 -134h141z" />
    <glyph glyph-name="Acircumflex" unicode="&#xc2;" horiz-adv-x="636" 
d="M169 770l119 174h55l120 -174h-71l-76 85l-77 -85h-70zM413 725l159 -601q6 -19 17 -24.5t37 -5.5v-94h-165l-45 174h-206l-46 -174h-157v94q27 0 38.5 7.5t18.5 32.5l160 591h189zM383 291l-36 145q-5 24 -16.5 71l-16.5 67h-2q-6 -27 -19 -78.5t-17 -70.5l-34 -134h141
z" />
    <glyph glyph-name="Atilde" unicode="&#xc3;" horiz-adv-x="636" 
d="M207 773h-63q1 59 29.5 95.5t72.5 36.5q32 0 79 -24t63 -24q34 0 40 43h60q-6 -132 -89 -132q-29 0 -81 24t-69 24q-18 0 -28 -9.5t-14 -33.5zM413 725l159 -601q6 -19 17 -24.5t37 -5.5v-94h-165l-45 174h-206l-46 -174h-157v94q27 0 38.5 7.5t18.5 32.5l160 591h189z
M383 291l-36 145q-5 24 -16.5 71l-16.5 67h-2q-6 -27 -19 -78.5t-17 -70.5l-34 -134h141z" />
    <glyph glyph-name="Adieresis" unicode="&#xc4;" horiz-adv-x="636" 
d="M154 850q0 28 19 44.5t48 16.5t48.5 -16.5t19.5 -44.5t-19.5 -45t-48.5 -17t-48 17t-19 45zM341 850q0 28 19.5 44.5t48.5 16.5t48 -16.5t19 -44.5t-19 -45t-48 -17t-48.5 17t-19.5 45zM413 725l159 -601q6 -19 17 -24.5t37 -5.5v-94h-165l-45 174h-206l-46 -174h-157v94
q27 0 38.5 7.5t18.5 32.5l160 591h189zM383 291l-36 145q-5 24 -16.5 71l-16.5 67h-2q-6 -27 -19 -78.5t-17 -70.5l-34 -134h141z" />
    <glyph glyph-name="Aring" unicode="&#xc5;" horiz-adv-x="636" 
d="M228 842q0 37 25 60t63 23t62.5 -23t24.5 -60t-24.5 -59.5t-62.5 -22.5t-63 22.5t-25 59.5zM273 842q0 -19 11.5 -30t31.5 -11q19 0 30.5 11t11.5 30t-11.5 30.5t-30.5 11.5q-20 0 -31.5 -11.5t-11.5 -30.5zM413 725l159 -601q6 -19 17 -24.5t37 -5.5v-94h-165l-45 174
h-206l-46 -174h-157v94q27 0 38.5 7.5t18.5 32.5l160 591h189zM383 291l-36 145q-5 24 -16.5 71l-16.5 67h-2q-6 -27 -19 -78.5t-17 -70.5l-34 -134h141z" />
    <glyph glyph-name="AE" unicode="&#xc6;" horiz-adv-x="846" 
d="M816 175l-10 -175h-413v189h-160l-72 -189h-152v94q27 0 38 7.5t21 32.5l226 586h514v-175h-80q0 41 -9 49.5t-41 8.5h-145v-176h192v-117h-192v-193h137q34 0 46.5 9t19.5 49h80zM393 306v297h-8q-21 -67 -59 -167l-49 -130h116z" />
    <glyph glyph-name="Ccedilla" unicode="&#xc7;" horiz-adv-x="567" 
d="M544 162l-10 -124q-92 -43 -181 -48v-21q45 0 71 -21t26 -58q0 -40 -25.5 -65t-72.5 -25t-80 15v44q26 -11 51 -11q51 0 51 42q0 43 -69 43v58q-143 8 -207.5 100.5t-64.5 268.5q0 184 70.5 277t229.5 93q103 0 201 -49v-136h-80q0 71 -121 71q-90 0 -123 -63t-33 -193
q0 -129 33.5 -192.5t121.5 -63.5q115 0 212 58z" />
    <glyph glyph-name="Egrave" unicode="&#xc8;" horiz-adv-x="579" 
d="M335 770l-140 51q-39 14 -39 49q0 18 13 30t33 12q19 0 48 -21l106 -80zM539 0h-503v94q42 0 50.5 9t8.5 41v432q0 32 -8.5 41t-50.5 9v94h505v-175h-80q0 41 -9 49.5t-42 8.5h-175v-176h223v-117h-223v-193h168q34 0 46.5 9t19.5 49h80z" />
    <glyph glyph-name="Eacute" unicode="&#xc9;" horiz-adv-x="579" 
d="M266 811l106 80q29 21 48 21q20 0 33 -12t13 -30q0 -34 -39 -49l-141 -51zM539 0h-503v94q42 0 50.5 9t8.5 41v432q0 32 -8.5 41t-50.5 9v94h505v-175h-80q0 41 -9 49.5t-42 8.5h-175v-176h223v-117h-223v-193h168q34 0 46.5 9t19.5 49h80z" />
    <glyph glyph-name="Ecircumflex" unicode="&#xca;" horiz-adv-x="579" 
d="M161 770l119 174h55l120 -174h-71l-76 85l-77 -85h-70zM539 0h-503v94q42 0 50.5 9t8.5 41v432q0 32 -8.5 41t-50.5 9v94h505v-175h-80q0 41 -9 49.5t-42 8.5h-175v-176h223v-117h-223v-193h168q34 0 46.5 9t19.5 49h80z" />
    <glyph glyph-name="Edieresis" unicode="&#xcb;" horiz-adv-x="579" 
d="M147 850q0 28 19 44.5t48 16.5t48.5 -16.5t19.5 -44.5t-19.5 -45t-48.5 -17t-48 17t-19 45zM334 850q0 28 19.5 44.5t48.5 16.5t48 -16.5t19 -44.5t-19 -45t-48 -17t-48.5 17t-19.5 45zM539 0h-503v94q42 0 50.5 9t8.5 41v432q0 32 -8.5 41t-50.5 9v94h505v-175h-80
q0 41 -9 49.5t-42 8.5h-175v-176h223v-117h-223v-193h168q34 0 46.5 9t19.5 49h80z" />
    <glyph glyph-name="Igrave" unicode="&#xcc;" horiz-adv-x="329" 
d="M191 770l-140 51q-39 14 -39 49q0 18 13 30t33 12q19 0 48 -21l106 -80zM235 576v-432q0 -32 8.5 -41t50.5 -9v-94h-258v94q42 0 50.5 9t8.5 41v432q0 32 -8.5 41t-50.5 9v94h258v-94q-42 0 -50.5 -9t-8.5 -41z" />
    <glyph glyph-name="Iacute" unicode="&#xcd;" horiz-adv-x="329" 
d="M122 811l106 80q29 21 48 21q20 0 33 -12t13 -30q0 -34 -39 -49l-141 -51zM235 576v-432q0 -32 8.5 -41t50.5 -9v-94h-258v94q42 0 50.5 9t8.5 41v432q0 32 -8.5 41t-50.5 9v94h258v-94q-42 0 -50.5 -9t-8.5 -41z" />
    <glyph glyph-name="Icircumflex" unicode="&#xce;" horiz-adv-x="329" 
d="M18 770l119 174h55l120 -174h-71l-76 85l-77 -85h-70zM235 576v-432q0 -32 8.5 -41t50.5 -9v-94h-258v94q42 0 50.5 9t8.5 41v432q0 32 -8.5 41t-50.5 9v94h258v-94q-42 0 -50.5 -9t-8.5 -41z" />
    <glyph glyph-name="Idieresis" unicode="&#xcf;" horiz-adv-x="329" 
d="M3 850q0 28 19 44.5t48 16.5t48.5 -16.5t19.5 -44.5t-19.5 -45t-48.5 -17t-48 17t-19 45zM190 850q0 28 19.5 44.5t48.5 16.5t48 -16.5t19 -44.5t-19 -45t-48 -17t-48.5 17t-19.5 45zM235 576v-432q0 -32 8.5 -41t50.5 -9v-94h-258v94q42 0 50.5 9t8.5 41v432
q0 32 -8.5 41t-50.5 9v94h258v-94q-42 0 -50.5 -9t-8.5 -41z" />
    <glyph glyph-name="Eth" unicode="&#xd0;" horiz-adv-x="673" 
d="M37 720h312q152 0 221 -90.5t69 -264.5q0 -365 -290 -365h-312v94q41 0 49.5 9t8.5 41v167h-58v101h58v164q0 32 -8.5 41t-49.5 9v94zM235 117h114q80 0 113.5 59.5t33.5 188.5q0 128 -33 183t-114 55h-114v-191h141v-101h-141v-194z" />
    <glyph glyph-name="Ntilde" unicode="&#xd1;" horiz-adv-x="692" 
d="M296 816q-18 0 -28 -9.5t-14 -33.5h-63q1 59 29.5 95.5t72.5 36.5q31 0 78 -24t64 -24q34 0 40 43h60q-6 -132 -89 -132q-28 0 -81 24t-69 24zM665 720v-94q-32 0 -44 -5t-14 -20v-601h-141l-241 458h-5q7 -91 7 -214v-244h-191v94q42 0 50.5 9t8.5 41v432q0 32 -8.5 41
t-50.5 9v94h200l241 -458h5q-7 91 -7 214v244h190z" />
    <glyph glyph-name="Ograve" unicode="&#xd2;" horiz-adv-x="644" 
d="M349 770l-140 51q-39 14 -39 49q0 18 13 30t33 12q19 0 48 -21l106 -80zM322 -10q-289 0 -289 375q0 365 289 365q290 0 290 -365q0 -375 -290 -375zM322 616q-81 0 -113.5 -57t-32.5 -194q0 -139 33 -200t113 -61t112.5 61t32.5 200q0 137 -32.5 194t-112.5 57z" />
    <glyph glyph-name="Oacute" unicode="&#xd3;" horiz-adv-x="644" 
d="M280 811l106 80q29 21 48 21q20 0 33 -12t13 -30q0 -34 -39 -49l-141 -51zM322 -10q-289 0 -289 375q0 365 289 365q290 0 290 -365q0 -375 -290 -375zM322 616q-81 0 -113.5 -57t-32.5 -194q0 -139 33 -200t113 -61t112.5 61t32.5 200q0 137 -32.5 194t-112.5 57z" />
    <glyph glyph-name="Ocircumflex" unicode="&#xd4;" horiz-adv-x="644" 
d="M175 770l119 174h55l120 -174h-71l-76 85l-77 -85h-70zM322 -10q-289 0 -289 375q0 365 289 365q290 0 290 -365q0 -375 -290 -375zM322 616q-81 0 -113.5 -57t-32.5 -194q0 -139 33 -200t113 -61t112.5 61t32.5 200q0 137 -32.5 194t-112.5 57z" />
    <glyph glyph-name="Otilde" unicode="&#xd5;" horiz-adv-x="644" 
d="M213 773h-63q1 59 29.5 95.5t72.5 36.5q32 0 79 -24t63 -24q34 0 40 43h60q-6 -132 -89 -132q-29 0 -81 24t-69 24q-18 0 -28 -9.5t-14 -33.5zM322 -10q-289 0 -289 375q0 365 289 365q290 0 290 -365q0 -375 -290 -375zM322 616q-81 0 -113.5 -57t-32.5 -194
q0 -139 33 -200t113 -61t112.5 61t32.5 200q0 137 -32.5 194t-112.5 57z" />
    <glyph glyph-name="Odieresis" unicode="&#xd6;" horiz-adv-x="644" 
d="M161 850q0 28 19 44.5t48 16.5t48.5 -16.5t19.5 -44.5t-19.5 -45t-48.5 -17t-48 17t-19 45zM348 850q0 28 19.5 44.5t48.5 16.5t48 -16.5t19 -44.5t-19 -45t-48 -17t-48.5 17t-19.5 45zM322 -10q-289 0 -289 375q0 365 289 365q290 0 290 -365q0 -375 -290 -375zM322 616
q-81 0 -113.5 -57t-32.5 -194q0 -139 33 -200t113 -61t112.5 61t32.5 200q0 137 -32.5 194t-112.5 57z" />
    <glyph glyph-name="multiply" unicode="&#xd7;" horiz-adv-x="441" 
d="M220 208l-119 -118l-56 56l119 119l-119 119l56 56l119 -118l119 118l57 -56l-119 -119l119 -119l-57 -56z" />
    <glyph glyph-name="Oslash" unicode="&#xd8;" horiz-adv-x="644" 
d="M547 780l-46 -103q110 -85 110 -312q0 -375 -289 -375q-71 0 -122 22l-32 -72h-67l46 102q-114 87 -114 323q0 365 289 365q71 0 126 -22l33 72h66zM176 365q0 -133 30 -193l193 426q-32 18 -77 18q-81 0 -113.5 -57t-32.5 -194zM322 104q80 0 113 61t33 200
q0 124 -26 182l-192 -426q29 -17 72 -17z" />
    <glyph glyph-name="Ugrave" unicode="&#xd9;" horiz-adv-x="671" 
d="M361 770l-140 51q-39 14 -39 49q0 18 13 30t33 12q19 0 48 -21l106 -80zM652 720v-94q-42 0 -50.5 -9t-8.5 -41v-345q0 -125 -69.5 -183t-187.5 -58q-116 0 -186.5 58t-70.5 183v345q0 32 -8.5 41t-50.5 9v94h258v-94q-42 0 -50.5 -9t-8.5 -41v-345q0 -55 28.5 -91
t88.5 -36t88.5 36t28.5 91v345q0 32 -8.5 41t-49.5 9v94h257z" />
    <glyph glyph-name="Uacute" unicode="&#xda;" horiz-adv-x="671" 
d="M292 811l106 80q29 21 48 21q20 0 33 -12t13 -30q0 -34 -39 -49l-141 -51zM652 720v-94q-42 0 -50.5 -9t-8.5 -41v-345q0 -125 -69.5 -183t-187.5 -58q-116 0 -186.5 58t-70.5 183v345q0 32 -8.5 41t-50.5 9v94h258v-94q-42 0 -50.5 -9t-8.5 -41v-345q0 -55 28.5 -91
t88.5 -36t88.5 36t28.5 91v345q0 32 -8.5 41t-49.5 9v94h257z" />
    <glyph glyph-name="Ucircumflex" unicode="&#xdb;" horiz-adv-x="671" 
d="M187 770l119 174h55l120 -174h-71l-76 85l-77 -85h-70zM652 720v-94q-42 0 -50.5 -9t-8.5 -41v-345q0 -125 -69.5 -183t-187.5 -58q-116 0 -186.5 58t-70.5 183v345q0 32 -8.5 41t-50.5 9v94h258v-94q-42 0 -50.5 -9t-8.5 -41v-345q0 -55 28.5 -91t88.5 -36t88.5 36
t28.5 91v345q0 32 -8.5 41t-49.5 9v94h257z" />
    <glyph glyph-name="Udieresis" unicode="&#xdc;" horiz-adv-x="671" 
d="M173 850q0 28 19 44.5t48 16.5t48.5 -16.5t19.5 -44.5t-19.5 -45t-48.5 -17t-48 17t-19 45zM360 850q0 28 19.5 44.5t48.5 16.5t48 -16.5t19 -44.5t-19 -45t-48 -17t-48.5 17t-19.5 45zM652 720v-94q-42 0 -50.5 -9t-8.5 -41v-345q0 -125 -69.5 -183t-187.5 -58
q-116 0 -186.5 58t-70.5 183v345q0 32 -8.5 41t-50.5 9v94h258v-94q-42 0 -50.5 -9t-8.5 -41v-345q0 -55 28.5 -91t88.5 -36t88.5 36t28.5 91v345q0 32 -8.5 41t-49.5 9v94h257z" />
    <glyph glyph-name="Yacute" unicode="&#xdd;" horiz-adv-x="586" 
d="M275 770l-20 41l106 80q29 21 48 21q20 0 33 -12t13 -30q0 -34 -39 -49zM577 720v-94q-27 0 -38.5 -7.5t-22.5 -33.5l-154 -350v-91q0 -32 8.5 -41t50.5 -9v-94h-258v94q42 0 50.5 9t8.5 41v94l-154 358q-9 19 -19.5 24.5t-36.5 5.5v94h148l91 -216q24 -59 46 -121h2
q15 46 45 121l92 216h141z" />
    <glyph glyph-name="Thorn" unicode="&#xde;" horiz-adv-x="602" 
d="M235 599h91q257 0 257 -234q0 -242 -257 -242h-51v117h51q60 0 86.5 31.5t26.5 93.5q0 60 -26 88.5t-87 28.5h-91v-482h-199v94q42 0 50.5 9t8.5 41v432q0 32 -8.5 41t-50.5 9v94h199v-121z" />
    <glyph glyph-name="germandbls" unicode="&#xdf;" horiz-adv-x="594" 
d="M85 500v15q0 54 20.5 95.5t54.5 64.5t73 34t81 11q87 0 142.5 -36t55.5 -110q0 -37 -18.5 -68.5t-40 -48.5t-40 -36t-18.5 -35q0 -17 19.5 -33.5t47 -34t54.5 -39t46.5 -57t19.5 -78.5q0 -71 -51 -112.5t-130 -41.5q-68 0 -121 20l-12 101q60 -26 106 -26q37 0 54.5 16.5
t17.5 42.5q0 29 -26.5 56.5t-58 46t-58 48.5t-26.5 64q0 35 46 96t46 98q0 31 -20.5 48t-49.5 17q-40 0 -61 -29.5t-21 -81.5v-507h-187v94q39 0 47 9t8 41v263h-55v55z" />
    <glyph glyph-name="agrave" unicode="&#xe0;" horiz-adv-x="514" 
d="M278 550l-140 51q-39 14 -39 49q0 18 13 30t33 12q19 0 48 -21l106 -80zM442 365v-221q0 -32 8 -41t46 -9v-94h-182l-5 67l-58 -51q-40 -26 -92 -26q-62 0 -101 36.5t-39 93.5q0 115 142 144l148 31v40q0 86 -90 86q-75 0 -154 -34l-7 6l33 92q81 25 158 25
q88 0 140.5 -38t52.5 -107zM309 233l-97 -28q-29 -8 -41.5 -20.5t-12.5 -38.5q0 -27 17.5 -42.5t43.5 -15.5q48 0 90 42v103z" />
    <glyph glyph-name="aacute" unicode="&#xe1;" horiz-adv-x="514" 
d="M209 591l106 80q29 21 48 21q20 0 33 -12t13 -30q0 -34 -39 -49l-141 -51zM442 365v-221q0 -32 8 -41t46 -9v-94h-182l-5 67l-58 -51q-40 -26 -92 -26q-62 0 -101 36.5t-39 93.5q0 115 142 144l148 31v40q0 86 -90 86q-75 0 -154 -34l-7 6l33 92q81 25 158 25
q88 0 140.5 -38t52.5 -107zM309 233l-97 -28q-29 -8 -41.5 -20.5t-12.5 -38.5q0 -27 17.5 -42.5t43.5 -15.5q48 0 90 42v103z" />
    <glyph glyph-name="acircumflex" unicode="&#xe2;" horiz-adv-x="514" 
d="M105 550l119 174h55l120 -174h-71l-76 85l-77 -85h-70zM442 365v-221q0 -32 8 -41t46 -9v-94h-182l-5 67l-58 -51q-40 -26 -92 -26q-62 0 -101 36.5t-39 93.5q0 115 142 144l148 31v40q0 86 -90 86q-75 0 -154 -34l-7 6l33 92q81 25 158 25q88 0 140.5 -38t52.5 -107z
M309 233l-97 -28q-29 -8 -41.5 -20.5t-12.5 -38.5q0 -27 17.5 -42.5t43.5 -15.5q48 0 90 42v103z" />
    <glyph glyph-name="atilde" unicode="&#xe3;" horiz-adv-x="514" 
d="M143 553h-63q1 59 29.5 95.5t72.5 36.5q31 0 78.5 -24t63.5 -24q34 0 40 43h60q-6 -132 -89 -132q-29 0 -81 24t-69 24q-18 0 -28 -9.5t-14 -33.5zM442 365v-221q0 -32 8 -41t46 -9v-94h-182l-5 67l-58 -51q-40 -26 -92 -26q-62 0 -101 36.5t-39 93.5q0 115 142 144
l148 31v40q0 86 -90 86q-75 0 -154 -34l-7 6l33 92q81 25 158 25q88 0 140.5 -38t52.5 -107zM309 233l-97 -28q-29 -8 -41.5 -20.5t-12.5 -38.5q0 -27 17.5 -42.5t43.5 -15.5q48 0 90 42v103z" />
    <glyph glyph-name="adieresis" unicode="&#xe4;" horiz-adv-x="514" 
d="M90 630q0 28 19 44.5t48 16.5t48.5 -16.5t19.5 -44.5t-19.5 -45t-48.5 -17t-48 17t-19 45zM277 630q0 28 19.5 44.5t48.5 16.5t48 -16.5t19 -44.5t-19 -45t-48 -17t-48.5 17t-19.5 45zM442 365v-221q0 -32 8 -41t46 -9v-94h-182l-5 67l-58 -51q-40 -26 -92 -26
q-62 0 -101 36.5t-39 93.5q0 115 142 144l148 31v40q0 86 -90 86q-75 0 -154 -34l-7 6l33 92q81 25 158 25q88 0 140.5 -38t52.5 -107zM309 233l-97 -28q-29 -8 -41.5 -20.5t-12.5 -38.5q0 -27 17.5 -42.5t43.5 -15.5q48 0 90 42v103z" />
    <glyph glyph-name="aring" unicode="&#xe5;" horiz-adv-x="514" 
d="M163 622q0 37 25 60t63 23t62.5 -23t24.5 -60t-24.5 -59.5t-62.5 -22.5t-63 22.5t-25 59.5zM208 622q0 -19 11.5 -30t31.5 -11q19 0 30.5 11t11.5 30t-11.5 30.5t-30.5 11.5q-20 0 -31.5 -11.5t-11.5 -30.5zM442 365v-221q0 -32 8 -41t46 -9v-94h-182l-5 67l-58 -51
q-40 -26 -92 -26q-62 0 -101 36.5t-39 93.5q0 115 142 144l148 31v40q0 86 -90 86q-75 0 -154 -34l-7 6l33 92q81 25 158 25q88 0 140.5 -38t52.5 -107zM309 233l-97 -28q-29 -8 -41.5 -20.5t-12.5 -38.5q0 -27 17.5 -42.5t43.5 -15.5q48 0 90 42v103z" />
    <glyph glyph-name="ae" unicode="&#xe6;" horiz-adv-x="784" 
d="M758 324q0 -38 -14 -102h-305q6 -70 42.5 -103.5t94.5 -33.5q84 0 153 41v-96q-70 -40 -180 -40q-146 0 -205 105l-93 -79q-40 -26 -92 -26q-62 0 -101 36.5t-39 93.5q0 115 142 144l148 31v40q0 86 -90 86q-75 0 -154 -34l-7 6l33 92q81 25 158 25q97 0 145 -46
q58 46 154 46q91 0 150.5 -42.5t59.5 -143.5zM439 287l190 6q4 24 4 39q0 51 -25 70.5t-56 19.5q-101 0 -113 -135zM219 88q51 0 105 54q-13 44 -14 92l-98 -29q-29 -8 -41.5 -20.5t-12.5 -38.5q0 -27 17.5 -42.5t43.5 -15.5z" />
    <glyph glyph-name="ccedilla" unicode="&#xe7;" horiz-adv-x="464" 
d="M282 415q-60 0 -89 -45.5t-29 -119.5q0 -84 36 -124.5t100 -40.5q72 0 136 41v-96q-62 -36 -151 -40v-21q45 0 71 -21t26 -58q0 -40 -25.5 -65t-72.5 -25t-80 15v44q26 -11 51 -11q51 0 51 42q0 43 -69 43v59q-99 10 -154 79.5t-55 178.5q0 120 62.5 190t181.5 70
q89 0 164 -35v-120h-80q0 34 -17 46t-57 14z" />
    <glyph glyph-name="egrave" unicode="&#xe8;" horiz-adv-x="511" 
d="M303 550l-140 51q-39 14 -39 49q0 18 13 30t33 12q19 0 48 -21l106 -80zM484 324q0 -45 -14 -102h-305q6 -70 42.5 -103.5t94.5 -33.5q84 0 153 41v-96q-70 -40 -180 -40q-121 0 -184 70t-63 190t63 190t183 70q92 0 151 -42.5t59 -143.5zM165 287l190 6q4 24 4 39
q0 51 -24.5 70.5t-56.5 19.5q-101 0 -113 -135z" />
    <glyph glyph-name="eacute" unicode="&#xe9;" horiz-adv-x="511" 
d="M254 550l-20 41l106 80q29 21 48 21q20 0 33 -12t13 -30q0 -34 -39 -49zM484 324q0 -45 -14 -102h-305q6 -70 42.5 -103.5t94.5 -33.5q84 0 153 41v-96q-70 -40 -180 -40q-121 0 -184 70t-63 190t63 190t183 70q92 0 151 -42.5t59 -143.5zM165 287l190 6q4 24 4 39
q0 51 -24.5 70.5t-56.5 19.5q-101 0 -113 -135z" />
    <glyph glyph-name="ecircumflex" unicode="&#xea;" horiz-adv-x="511" 
d="M200 550h-70l119 174h55l120 -174h-71l-76 85zM484 324q0 -45 -14 -102h-305q6 -70 42.5 -103.5t94.5 -33.5q84 0 153 41v-96q-70 -40 -180 -40q-121 0 -184 70t-63 190t63 190t183 70q92 0 151 -42.5t59 -143.5zM165 287l190 6q4 24 4 39q0 51 -24.5 70.5t-56.5 19.5
q-101 0 -113 -135z" />
    <glyph glyph-name="edieresis" unicode="&#xeb;" horiz-adv-x="511" 
d="M182 568q-29 0 -48 17t-19 45t19 44.5t48 16.5t48.5 -16.5t19.5 -44.5t-19.5 -45t-48.5 -17zM370 568q-29 0 -48.5 17t-19.5 45t19.5 44.5t48.5 16.5t48 -16.5t19 -44.5t-19 -45t-48 -17zM484 324q0 -45 -14 -102h-305q6 -70 42.5 -103.5t94.5 -33.5q84 0 153 41v-96
q-70 -40 -180 -40q-121 0 -184 70t-63 190t63 190t183 70q92 0 151 -42.5t59 -143.5zM165 287l190 6q4 24 4 39q0 51 -24.5 70.5t-56.5 19.5q-101 0 -113 -135z" />
    <glyph glyph-name="igrave" unicode="&#xec;" horiz-adv-x="296" 
d="M170 550l-140 51q-39 14 -39 49q0 18 13 30t33 12q19 0 48 -21l106 -80zM219 500v-356q0 -32 8 -41t46 -9v-94h-241v94q38 0 46 9t8 41v212q0 32 -8 41t-46 9v94h187z" />
    <glyph glyph-name="iacute" unicode="&#xed;" horiz-adv-x="296" 
d="M101 591l106 80q29 21 48 21q20 0 33 -12t13 -30q0 -34 -39 -49l-141 -51zM219 500v-356q0 -32 8 -41t46 -9v-94h-241v94q38 0 46 9t8 41v212q0 32 -8 41t-46 9v94h187z" />
    <glyph glyph-name="icircumflex" unicode="&#xee;" horiz-adv-x="296" 
d="M-3 550l119 174h55l120 -174h-71l-76 85l-77 -85h-70zM219 500v-356q0 -32 8 -41t46 -9v-94h-241v94q38 0 46 9t8 41v212q0 32 -8 41t-46 9v94h187z" />
    <glyph glyph-name="idieresis" unicode="&#xef;" horiz-adv-x="296" 
d="M-18 630q0 28 19 44.5t48 16.5t48.5 -16.5t19.5 -44.5t-19.5 -45t-48.5 -17t-48 17t-19 45zM169 630q0 28 19.5 44.5t48.5 16.5t48 -16.5t19 -44.5t-19 -45t-48 -17t-48.5 17t-19.5 45zM219 500v-356q0 -32 8 -41t46 -9v-94h-241v94q38 0 46 9t8 41v212q0 32 -8 41t-46 9
v94h187z" />
    <glyph glyph-name="eth" unicode="&#xf0;" horiz-adv-x="543" 
d="M458 662l-87 -37q138 -136 138 -326q0 -309 -245 -309q-115 0 -174.5 69.5t-59.5 178.5q0 105 58 168.5t163 63.5q48 0 93 -15q-24 64 -75 127l-101 -43l-25 58l80 34q-48 46 -118 89h124q40 -16 88 -49l116 49zM264 78q63 0 86 48t23 173q0 39 -6 75q-43 15 -85 15
q-116 0 -116 -151q0 -160 98 -160z" />
    <glyph glyph-name="ntilde" unicode="&#xf1;" horiz-adv-x="592" 
d="M185 553h-63q1 59 29.5 95.5t72.5 36.5q31 0 78.5 -24t63.5 -24q34 0 40 43h60q-6 -132 -89 -132q-29 0 -81 24t-69 24q-18 0 -28 -9.5t-14 -33.5zM516 364v-220q0 -32 8 -41t47 -9v-94h-187v338q0 68 -65 68q-44 0 -100 -35v-227q0 -32 8 -41t46 -9v-94h-241v94
q38 0 46 9t8 41v212q0 32 -8 41t-46 9v94h182l5 -71h2l48 52q51 29 105 29q63 0 102.5 -37.5t39.5 -108.5z" />
    <glyph glyph-name="ograve" unicode="&#xf2;" horiz-adv-x="533" 
d="M293 550l-140 51q-39 14 -39 49q0 18 13 30t33 12q19 0 48 -21l106 -80zM266 -10q-116 0 -177 68.5t-61 191.5t61 191.5t177 68.5q115 0 176.5 -68.5t61.5 -191.5q0 -122 -61.5 -191t-176.5 -69zM266 422q-56 0 -79 -43.5t-23 -128.5t23 -128.5t79 -43.5t79 43.5
t23 128.5t-23 128.5t-79 43.5z" />
    <glyph glyph-name="oacute" unicode="&#xf3;" horiz-adv-x="533" 
d="M224 591l106 80q29 21 48 21q20 0 33 -12t13 -30q0 -34 -39 -49l-141 -51zM266 -10q-116 0 -177 68.5t-61 191.5t61 191.5t177 68.5q115 0 176.5 -68.5t61.5 -191.5q0 -122 -61.5 -191t-176.5 -69zM266 422q-56 0 -79 -43.5t-23 -128.5t23 -128.5t79 -43.5t79 43.5
t23 128.5t-23 128.5t-79 43.5z" />
    <glyph glyph-name="ocircumflex" unicode="&#xf4;" horiz-adv-x="533" 
d="M120 550l119 174h55l120 -174h-71l-76 85l-77 -85h-70zM266 -10q-116 0 -177 68.5t-61 191.5t61 191.5t177 68.5q115 0 176.5 -68.5t61.5 -191.5q0 -122 -61.5 -191t-176.5 -69zM266 422q-56 0 -79 -43.5t-23 -128.5t23 -128.5t79 -43.5t79 43.5t23 128.5t-23 128.5
t-79 43.5z" />
    <glyph glyph-name="otilde" unicode="&#xf5;" horiz-adv-x="533" 
d="M158 553h-63q1 59 29.5 95.5t72.5 36.5q31 0 78 -24t64 -24q34 0 40 43h60q-6 -132 -89 -132q-28 0 -81 24t-69 24q-18 0 -28 -9.5t-14 -33.5zM266 -10q-116 0 -177 68.5t-61 191.5t61 191.5t177 68.5q115 0 176.5 -68.5t61.5 -191.5q0 -122 -61.5 -191t-176.5 -69z
M266 422q-56 0 -79 -43.5t-23 -128.5t23 -128.5t79 -43.5t79 43.5t23 128.5t-23 128.5t-79 43.5z" />
    <glyph glyph-name="odieresis" unicode="&#xf6;" horiz-adv-x="533" 
d="M105 630q0 28 19 44.5t48 16.5t48.5 -16.5t19.5 -44.5t-19.5 -45t-48.5 -17t-48 17t-19 45zM292 630q0 28 19.5 44.5t48.5 16.5t48 -16.5t19 -44.5t-19 -45t-48 -17t-48.5 17t-19.5 45zM266 -10q-116 0 -177 68.5t-61 191.5t61 191.5t177 68.5q115 0 176.5 -68.5
t61.5 -191.5q0 -122 -61.5 -191t-176.5 -69zM266 422q-56 0 -79 -43.5t-23 -128.5t23 -128.5t79 -43.5t79 43.5t23 128.5t-23 128.5t-79 43.5z" />
    <glyph glyph-name="divide" unicode="&#xf7;" horiz-adv-x="442" 
d="M160 436q0 26 18 44.5t44 18.5q25 0 43 -18.5t18 -44.5t-18 -44t-43 -18q-26 0 -44 18t-18 44zM43 225v80h356v-80h-356zM160 94q0 26 18 44t44 18q25 0 43 -18t18 -44t-18 -44.5t-43 -18.5q-26 0 -44 18.5t-18 44.5z" />
    <glyph glyph-name="oslash" unicode="&#xf8;" horiz-adv-x="533" 
d="M471 530l-45 -72q78 -66 78 -208q0 -123 -61 -191.5t-177 -68.5q-69 0 -121 26l-29 -46h-60l47 75q-75 67 -75 205q0 123 61.5 191.5t176.5 68.5q69 0 117 -24l28 44h60zM164 250q0 -57 10 -94l155 244q-25 22 -63 22q-56 0 -79 -43.5t-23 -128.5zM266 78q57 0 79.5 43.5
t22.5 128.5q0 63 -11 100l-157 -247q25 -25 66 -25z" />
    <glyph glyph-name="ugrave" unicode="&#xf9;" horiz-adv-x="582" 
d="M317 550l-140 51q-39 14 -39 49q0 18 13 30t33 12q19 0 48 -21l106 -80zM505 500v-356q0 -32 8 -41t46 -9v-94h-182l-5 71h-2l-48 -52q-51 -29 -105 -29q-63 0 -102.5 37.5t-39.5 108.5v220q0 32 -8 41t-47 9v94h187v-338q0 -68 65 -68q44 0 100 35v227q0 32 -8 41t-46 9
v94h187z" />
    <glyph glyph-name="uacute" unicode="&#xfa;" horiz-adv-x="582" 
d="M248 591l106 80q29 21 48 21q20 0 33 -12t13 -30q0 -34 -39 -49l-141 -51zM505 500v-356q0 -32 8 -41t46 -9v-94h-182l-5 71h-2l-48 -52q-51 -29 -105 -29q-63 0 -102.5 37.5t-39.5 108.5v220q0 32 -8 41t-47 9v94h187v-338q0 -68 65 -68q44 0 100 35v227q0 32 -8 41
t-46 9v94h187z" />
    <glyph glyph-name="ucircumflex" unicode="&#xfb;" horiz-adv-x="582" 
d="M143 550l119 174h55l120 -174h-71l-76 85l-77 -85h-70zM505 500v-356q0 -32 8 -41t46 -9v-94h-182l-5 71h-2l-48 -52q-51 -29 -105 -29q-63 0 -102.5 37.5t-39.5 108.5v220q0 32 -8 41t-47 9v94h187v-338q0 -68 65 -68q44 0 100 35v227q0 32 -8 41t-46 9v94h187z" />
    <glyph glyph-name="udieresis" unicode="&#xfc;" horiz-adv-x="582" 
d="M129 630q0 28 19 44.5t48 16.5t48.5 -16.5t19.5 -44.5t-19.5 -45t-48.5 -17t-48 17t-19 45zM316 630q0 28 19.5 44.5t48.5 16.5t48 -16.5t19 -44.5t-19 -45t-48 -17t-48.5 17t-19.5 45zM505 500v-356q0 -32 8 -41t46 -9v-94h-182l-5 71h-2l-48 -52q-51 -29 -105 -29
q-63 0 -102.5 37.5t-39.5 108.5v220q0 32 -8 41t-47 9v94h187v-338q0 -68 65 -68q44 0 100 35v227q0 32 -8 41t-46 9v94h187z" />
    <glyph glyph-name="yacute" unicode="&#xfd;" horiz-adv-x="545" 
d="M234 591l106 80q29 21 48 21q20 0 33 -12t13 -30q0 -34 -39 -49l-141 -51zM535 500v-94q-31 0 -42 -6t-17 -27l-79 -243q-60 -193 -179 -350h-147v10q67 79 126 196l-123 382q-8 24 -18.5 31t-41.5 7v94h159l104 -368h2l102 368h154z" />
    <glyph glyph-name="thorn" unicode="&#xfe;" horiz-adv-x="544" 
d="M186 437l61 49q39 24 87 24q84 0 131.5 -69.5t47.5 -190.5t-55.5 -190.5t-149.5 -69.5q-46 0 -92 22v78q24 -12 56 -12q106 0 106 172q0 87 -26 126t-78 39q-45 0 -88 -34v-457q0 -32 8 -41t47 -9v-94h-241v94q38 0 46 9t8 41v652q0 32 -8 41t-47 9v94h187v-283z" />
    <glyph glyph-name="ydieresis" unicode="&#xff;" horiz-adv-x="545" 
d="M115 630q0 28 19 44.5t48 16.5t48.5 -16.5t19.5 -44.5t-19.5 -45t-48.5 -17t-48 17t-19 45zM302 630q0 28 19.5 44.5t48.5 16.5t48 -16.5t19 -44.5t-19 -45t-48 -17t-48.5 17t-19.5 45zM535 500v-94q-31 0 -42 -6t-17 -27l-79 -243q-60 -193 -179 -350h-147v10
q67 79 126 196l-123 382q-8 24 -18.5 31t-41.5 7v94h159l104 -368h2l102 368h154z" />
    <glyph glyph-name="Amacron" unicode="&#x100;" horiz-adv-x="636" 
d="M166 784v73h300v-73h-300zM413 725l159 -601q6 -19 17 -24.5t37 -5.5v-94h-165l-45 174h-206l-46 -174h-157v94q27 0 38.5 7.5t18.5 32.5l160 591h189zM383 291l-36 145q-5 24 -16.5 71l-16.5 67h-2q-6 -27 -19 -78.5t-17 -70.5l-34 -134h141z" />
    <glyph glyph-name="amacron" unicode="&#x101;" horiz-adv-x="514" 
d="M102 564v73h300v-73h-300zM442 365v-221q0 -32 8 -41t46 -9v-94h-182l-5 67l-58 -51q-40 -26 -92 -26q-62 0 -101 36.5t-39 93.5q0 115 142 144l148 31v40q0 86 -90 86q-75 0 -154 -34l-7 6l33 92q81 25 158 25q88 0 140.5 -38t52.5 -107zM309 233l-97 -28
q-29 -8 -41.5 -20.5t-12.5 -38.5q0 -27 17.5 -42.5t43.5 -15.5q48 0 90 42v103z" />
    <glyph glyph-name="Abreve" unicode="&#x102;" horiz-adv-x="636" 
d="M315 770q-60 0 -90 45.5t-30 111.5h52q9 -82 68 -82t68 82h52q0 -67 -29.5 -112t-90.5 -45zM413 725l159 -601q6 -19 17 -24.5t37 -5.5v-94h-165l-45 174h-206l-46 -174h-157v94q27 0 38.5 7.5t18.5 32.5l160 591h189zM383 291l-36 145q-5 24 -16.5 71l-16.5 67h-2
q-6 -27 -19 -78.5t-17 -70.5l-34 -134h141z" />
    <glyph glyph-name="abreve" unicode="&#x103;" horiz-adv-x="514" 
d="M251 550q-60 0 -90 45.5t-30 111.5h52q9 -82 68 -82t68 82h52q0 -67 -29.5 -112t-90.5 -45zM442 365v-221q0 -32 8 -41t46 -9v-94h-182l-5 67l-58 -51q-40 -26 -92 -26q-62 0 -101 36.5t-39 93.5q0 115 142 144l148 31v40q0 86 -90 86q-75 0 -154 -34l-7 6l33 92
q81 25 158 25q88 0 140.5 -38t52.5 -107zM309 233l-97 -28q-29 -8 -41.5 -20.5t-12.5 -38.5q0 -27 17.5 -42.5t43.5 -15.5q48 0 90 42v103z" />
    <glyph glyph-name="Aogonek" unicode="&#x104;" horiz-adv-x="636" 
d="M626 0h-64q-44 -43 -44 -92q0 -25 13.5 -39t39.5 -14q23 0 41 11v-41q-32 -25 -78 -25t-70.5 23t-24.5 57q0 70 87 120h-65l-45 174h-206l-46 -174h-157v94q27 0 38.5 7.5t18.5 32.5l160 591h189l159 -601q6 -19 17 -24.5t37 -5.5v-94zM383 291l-36 145q-5 24 -16.5 71
l-16.5 67h-2q-6 -27 -19 -78.5t-17 -70.5l-34 -134h141z" />
    <glyph glyph-name="aogonek" unicode="&#x105;" horiz-adv-x="514" 
d="M496 0h-82q-44 -43 -44 -92q0 -25 13.5 -39t39.5 -14q23 0 41 11v-41q-32 -25 -78 -25t-70.5 23t-24.5 57q0 70 87 120h-64l-5 67l-58 -51q-40 -26 -92 -26q-62 0 -101 36.5t-39 93.5q0 115 142 144l148 31v40q0 86 -90 86q-75 0 -154 -34l-7 6l33 92q81 25 158 25
q88 0 140.5 -38t52.5 -107v-221q0 -32 8 -41t46 -9v-94zM309 233l-97 -28q-29 -8 -41.5 -20.5t-12.5 -38.5q0 -27 17.5 -42.5t43.5 -15.5q48 0 90 42v103z" />
    <glyph glyph-name="Cacute" unicode="&#x106;" horiz-adv-x="567" 
d="M285 811l106 80q29 21 48 21q20 0 33 -12t13 -30q0 -34 -39 -49l-141 -51zM332 -10q-157 0 -228 93t-71 277t70.5 277t229.5 93q103 0 201 -49v-136h-80q0 71 -121 71q-90 0 -123 -63t-33 -193q0 -129 33.5 -192.5t121.5 -63.5q115 0 212 58l-10 -124q-102 -48 -202 -48z
" />
    <glyph glyph-name="cacute" unicode="&#x107;" horiz-adv-x="464" 
d="M224 591l106 80q29 21 48 21q20 0 33 -12t13 -30q0 -34 -39 -49l-141 -51zM436 355h-80q0 34 -17 46t-57 14q-60 0 -89 -45.5t-29 -119.5q0 -84 36 -124.5t100 -40.5q72 0 136 41v-96q-69 -40 -164 -40q-115 0 -179.5 70.5t-64.5 189.5q0 120 62.5 190t181.5 70
q89 0 164 -35v-120z" />
    <glyph glyph-name="Cdotaccent" unicode="&#x10a;" horiz-adv-x="567" 
d="M253 855q0 29 20.5 48.5t53.5 19.5t53.5 -19.5t20.5 -48.5t-20.5 -48t-53.5 -19t-53.5 19t-20.5 48zM332 -10q-157 0 -228 93t-71 277t70.5 277t229.5 93q103 0 201 -49v-136h-80q0 71 -121 71q-90 0 -123 -63t-33 -193q0 -129 33.5 -192.5t121.5 -63.5q115 0 212 58
l-10 -124q-102 -48 -202 -48z" />
    <glyph glyph-name="cdotaccent" unicode="&#x10b;" horiz-adv-x="464" 
d="M192 635q0 29 20.5 48.5t53.5 19.5t53.5 -19.5t20.5 -48.5t-20.5 -48t-53.5 -19t-53.5 19t-20.5 48zM436 355h-80q0 34 -17 46t-57 14q-60 0 -89 -45.5t-29 -119.5q0 -84 36 -124.5t100 -40.5q72 0 136 41v-96q-69 -40 -164 -40q-115 0 -179.5 70.5t-64.5 189.5
q0 120 62.5 190t181.5 70q89 0 164 -35v-120z" />
    <glyph glyph-name="Ccaron" unicode="&#x10c;" horiz-adv-x="567" 
d="M328 860l76 84h71l-120 -174h-55l-119 174h70zM332 -10q-157 0 -228 93t-71 277t70.5 277t229.5 93q103 0 201 -49v-136h-80q0 71 -121 71q-90 0 -123 -63t-33 -193q0 -129 33.5 -192.5t121.5 -63.5q115 0 212 58l-10 -124q-102 -48 -202 -48z" />
    <glyph glyph-name="ccaron" unicode="&#x10d;" horiz-adv-x="464" 
d="M266 640l76 84h71l-120 -174h-55l-119 174h70zM436 355h-80q0 34 -17 46t-57 14q-60 0 -89 -45.5t-29 -119.5q0 -84 36 -124.5t100 -40.5q72 0 136 41v-96q-69 -40 -164 -40q-115 0 -179.5 70.5t-64.5 189.5q0 120 62.5 190t181.5 70q89 0 164 -35v-120z" />
    <glyph glyph-name="Dcaron" unicode="&#x10e;" horiz-adv-x="672" 
d="M332 860l76 84h71l-120 -174h-55l-119 174h70zM36 0v94q42 0 50.5 9t8.5 41v432q0 32 -8.5 41t-50.5 9v94h312q153 0 222 -90.5t69 -264.5q0 -365 -291 -365h-312zM235 117h113q80 0 113.5 59.5t33.5 188.5q0 128 -33 183t-114 55h-113v-486z" />
    <glyph glyph-name="dcaron" unicode="&#x10f;" horiz-adv-x="594" 
d="M529 487l49 115q-20 0 -37 17t-17 46q0 27 18.5 45t46.5 18q33 0 51 -22.5t18 -52.5q0 -25 -12.5 -56.5t-22.5 -48.5t-38 -61h-56zM490 720v-576q0 -32 8 -41t46 -9v-94h-182l-5 63l-60 -49q-39 -24 -87 -24q-85 0 -132.5 69.5t-47.5 190.5t55.5 190.5t149.5 69.5
q48 0 92 -22v-78q-22 12 -56 12q-105 0 -105 -172q0 -87 26 -126t78 -39q44 0 87 34v457q0 32 -8 41t-46 9v94h187z" />
    <glyph glyph-name="Dcroat" unicode="&#x110;" horiz-adv-x="673" 
d="M37 720h312q152 0 221 -90.5t69 -264.5q0 -365 -290 -365h-312v94q41 0 49.5 9t8.5 41v167h-58v101h58v164q0 32 -8.5 41t-49.5 9v94zM235 117h114q80 0 113.5 59.5t33.5 188.5q0 128 -33 183t-114 55h-114v-191h141v-101h-141v-194z" />
    <glyph glyph-name="dcroat" unicode="&#x111;" horiz-adv-x="567" 
d="M490 720v-139h54v-37h-54v-400q0 -32 8 -41t46 -9v-94h-182l-5 63l-60 -49q-39 -24 -87 -24q-85 0 -132.5 69.5t-47.5 190.5t55.5 190.5t150.5 69.5q47 0 91 -22v-78q-22 12 -56 12q-105 0 -105 -172q0 -87 26 -126t78 -39q46 0 87 34v425h-120v37h120v16q0 18 -8.5 23.5
t-45.5 5.5v94h187z" />
    <glyph glyph-name="Emacron" unicode="&#x112;" horiz-adv-x="579" 
d="M158 784v73h300v-73h-300zM539 0h-503v94q42 0 50.5 9t8.5 41v432q0 32 -8.5 41t-50.5 9v94h505v-175h-80q0 41 -9 49.5t-42 8.5h-175v-176h223v-117h-223v-193h168q34 0 46.5 9t19.5 49h80z" />
    <glyph glyph-name="emacron" unicode="&#x113;" horiz-adv-x="511" 
d="M427 564h-300v73h300v-73zM484 324q0 -45 -14 -102h-305q6 -70 42.5 -103.5t94.5 -33.5q84 0 153 41v-96q-70 -40 -180 -40q-121 0 -184 70t-63 190t63 190t183 70q92 0 151 -42.5t59 -143.5zM165 287l190 6q4 24 4 39q0 51 -24.5 70.5t-56.5 19.5q-101 0 -113 -135z" />
    <glyph glyph-name="Edotaccent" unicode="&#x116;" horiz-adv-x="579" 
d="M233 855q0 29 20.5 48.5t53.5 19.5t53.5 -19.5t20.5 -48.5t-20.5 -48t-53.5 -19t-53.5 19t-20.5 48zM539 0h-503v94q42 0 50.5 9t8.5 41v432q0 32 -8.5 41t-50.5 9v94h505v-175h-80q0 41 -9 49.5t-42 8.5h-175v-176h223v-117h-223v-193h168q34 0 46.5 9t19.5 49h80z" />
    <glyph glyph-name="edotaccent" unicode="&#x117;" horiz-adv-x="511" 
d="M276 568q-33 0 -53.5 19t-20.5 48t20.5 48.5t53.5 19.5t53.5 -19.5t20.5 -48.5t-20.5 -48t-53.5 -19zM484 324q0 -45 -14 -102h-305q6 -70 42.5 -103.5t94.5 -33.5q84 0 153 41v-96q-70 -40 -180 -40q-121 0 -184 70t-63 190t63 190t183 70q92 0 151 -42.5t59 -143.5z
M165 287l190 6q4 24 4 39q0 51 -24.5 70.5t-56.5 19.5q-101 0 -113 -135z" />
    <glyph glyph-name="Eogonek" unicode="&#x118;" horiz-adv-x="579" 
d="M547 -145q23 0 41 11v-41q-32 -25 -78 -25t-70.5 23t-24.5 57q0 70 87 120h-466v94q42 0 50.5 9t8.5 41v432q0 32 -8.5 41t-50.5 9v94h505v-175h-80q0 41 -9 49.5t-42 8.5h-175v-176h223v-117h-223v-193h168q34 0 46.5 9t19.5 49h80l-10 -175h-1q-44 -43 -44 -92
q0 -25 13.5 -39t39.5 -14z" />
    <glyph glyph-name="eogonek" unicode="&#x119;" horiz-adv-x="511" 
d="M464 -115q23 0 41 11v-41q-32 -25 -78 -25t-70.5 23t-24.5 57q0 51 46 91q-51 -11 -103 -11q-121 0 -184 70t-63 190t63 190t183 70q92 0 151 -42.5t59 -143.5q0 -45 -14 -102h-305q6 -70 42.5 -103.5t94.5 -33.5q84 0 153 41v-96q-44 -43 -44 -92q0 -25 13.5 -39
t39.5 -14zM278 422q-101 0 -113 -135l190 6q4 24 4 39q0 51 -24.5 70.5t-56.5 19.5z" />
    <glyph glyph-name="Ecaron" unicode="&#x11a;" horiz-adv-x="579" 
d="M308 860l76 84h71l-120 -174h-55l-119 174h70zM539 0h-503v94q42 0 50.5 9t8.5 41v432q0 32 -8.5 41t-50.5 9v94h505v-175h-80q0 41 -9 49.5t-42 8.5h-175v-176h223v-117h-223v-193h168q34 0 46.5 9t19.5 49h80z" />
    <glyph glyph-name="ecaron" unicode="&#x11b;" horiz-adv-x="511" 
d="M249 550l-119 174h70l77 -84l76 84h71l-120 -174h-55zM484 324q0 -45 -14 -102h-305q6 -70 42.5 -103.5t94.5 -33.5q84 0 153 41v-96q-70 -40 -180 -40q-121 0 -184 70t-63 190t63 190t183 70q92 0 151 -42.5t59 -143.5zM165 287l190 6q4 24 4 39q0 51 -24.5 70.5
t-56.5 19.5q-101 0 -113 -135z" />
    <glyph glyph-name="Gbreve" unicode="&#x11e;" horiz-adv-x="580" 
d="M333 770q-60 0 -90 45.5t-30 111.5h52q9 -82 68 -82t68 82h52q0 -67 -29.5 -112t-90.5 -45zM333 616q-90 0 -123 -63t-33 -193q0 -129 33.5 -192.5t121.5 -63.5q30 0 63 5v228h139l-1 -256l1 -43q-102 -48 -202 -48q-157 0 -228 93t-71 277t70.5 277t229.5 93
q103 0 201 -49v-136h-80q0 71 -121 71z" />
    <glyph glyph-name="gbreve" unicode="&#x11f;" horiz-adv-x="508" 
d="M239 550q-60 0 -90 45.5t-30 111.5h52q9 -82 68 -82t68 82h52q0 -67 -29.5 -112t-90.5 -45zM171 106l190 -21q66 -7 104 -42t38 -98q0 -76 -61 -125.5t-203 -49.5q-119 0 -176 30t-57 80q0 31 20 54.5t54 33.5l28 -6l-12 -43q0 -68 138 -68q140 0 140 69q0 42 -60 48
l-177 19q-44 4 -64.5 25.5t-20.5 51.5q0 59 78 107q-99 41 -99 163q0 82 54.5 129t155.5 47q45 0 81 -9l163 9v-77l-67 10q32 -43 32 -109q0 -89 -54 -136t-155 -47q-24 0 -45 3zM240 426q-41 0 -62.5 -27t-21.5 -65q0 -98 87 -98q42 0 62 27.5t20 70.5q0 41 -22 66.5
t-63 25.5z" />
    <glyph glyph-name="Gdotaccent" unicode="&#x120;" horiz-adv-x="580" 
d="M333 788q-33 0 -53.5 19t-20.5 48t20.5 48.5t53.5 19.5t53.5 -19.5t20.5 -48.5t-20.5 -48t-53.5 -19zM333 616q-90 0 -123 -63t-33 -193q0 -129 33.5 -192.5t121.5 -63.5q30 0 63 5v228h139l-1 -256l1 -43q-102 -48 -202 -48q-157 0 -228 93t-71 277t70.5 277t229.5 93
q103 0 201 -49v-136h-80q0 71 -121 71z" />
    <glyph glyph-name="gdotaccent" unicode="&#x121;" horiz-adv-x="508" 
d="M239 568q-33 0 -53.5 19t-20.5 48t20.5 48.5t53.5 19.5t53.5 -19.5t20.5 -48.5t-20.5 -48t-53.5 -19zM171 106l190 -21q66 -7 104 -42t38 -98q0 -76 -61 -125.5t-203 -49.5q-119 0 -176 30t-57 80q0 31 20 54.5t54 33.5l28 -6l-12 -43q0 -68 138 -68q140 0 140 69
q0 42 -60 48l-177 19q-44 4 -64.5 25.5t-20.5 51.5q0 59 78 107q-99 41 -99 163q0 82 54.5 129t155.5 47q45 0 81 -9l163 9v-77l-67 10q32 -43 32 -109q0 -89 -54 -136t-155 -47q-24 0 -45 3zM240 426q-41 0 -62.5 -27t-21.5 -65q0 -98 87 -98q42 0 62 27.5t20 70.5
q0 41 -22 66.5t-63 25.5z" />
    <glyph glyph-name="Gcommaaccent" unicode="&#x122;" horiz-adv-x="580" 
d="M333 616q-90 0 -123 -63t-33 -193q0 -129 33.5 -192.5t121.5 -63.5q30 0 63 5v228h139l-1 -256l1 -43q-102 -48 -202 -48q-157 0 -228 93t-71 277t70.5 277t229.5 93q103 0 201 -49v-136h-80q0 71 -121 71zM324 -40q33 0 51 -22.5t18 -52.5q0 -25 -12.5 -56.5
t-22.5 -48.5t-38 -61h-56l49 115q-20 0 -37 17t-17 46q0 27 18.5 45t46.5 18z" />
    <glyph glyph-name="gcommaaccent" unicode="&#x123;" horiz-adv-x="508" 
d="M243 552q-33 0 -51 22t-18 53q0 25 12.5 56t23 49.5t37.5 60.5h56l-49 -115q20 0 37 -17t17 -46q0 -26 -18.5 -44.5t-46.5 -18.5zM171 106l190 -21q66 -7 104 -42t38 -98q0 -76 -61 -125.5t-203 -49.5q-119 0 -176 30t-57 80q0 31 20 54.5t54 33.5l28 -6l-12 -43
q0 -68 138 -68q140 0 140 69q0 42 -60 48l-177 19q-44 4 -64.5 25.5t-20.5 51.5q0 59 78 107q-99 41 -99 163q0 82 54.5 129t155.5 47q45 0 81 -9l163 9v-77l-67 10q32 -43 32 -109q0 -89 -54 -136t-155 -47q-24 0 -45 3zM240 426q-41 0 -62.5 -27t-21.5 -65q0 -98 87 -98
q42 0 62 27.5t20 70.5q0 41 -22 66.5t-63 25.5z" />
    <glyph glyph-name="Hbar" unicode="&#x126;" horiz-adv-x="702" 
d="M666 720v-93q-42 0 -50.5 -8.5t-8.5 -41.5v-37h59v-45h-59v-352q0 -33 8.5 -41.5t50.5 -8.5v-93h-258v93q42 0 50.5 8.5t8.5 41.5v167h-232v-167q0 -33 8.5 -41.5t50.5 -8.5v-93h-258v93q42 0 50.5 8.5t8.5 41.5v352h-59v45h59v37q0 33 -8.5 41.5t-50.5 8.5v93h258v-93
q-42 0 -50.5 -8.5t-8.5 -41.5v-37h232v37q0 33 -8.5 41.5t-50.5 8.5v93h258zM467 495h-232v-68h232v68z" />
    <glyph glyph-name="hbar" unicode="&#x127;" horiz-adv-x="582" 
d="M507 364v-220q0 -32 8 -41t47 -9v-94h-187v338q0 68 -65 68q-43 0 -101 -35v-227q0 -32 8 -41t47 -9v-94h-241v94q38 0 46 9t8 41v400h-54v37h54v13q0 20 -8 26t-46 6v94h186v-139h121v-37h-121v-115h2l49 52q51 29 104 29q63 0 103 -37.5t40 -108.5z" />
    <glyph glyph-name="Imacron" unicode="&#x12a;" horiz-adv-x="329" 
d="M15 784v73h300v-73h-300zM235 576v-432q0 -32 8.5 -41t50.5 -9v-94h-258v94q42 0 50.5 9t8.5 41v432q0 32 -8.5 41t-50.5 9v94h258v-94q-42 0 -50.5 -9t-8.5 -41z" />
    <glyph glyph-name="imacron" unicode="&#x12b;" horiz-adv-x="296" 
d="M-6 564v73h300v-73h-300zM219 500v-356q0 -32 8 -41t46 -9v-94h-241v94q38 0 46 9t8 41v212q0 32 -8 41t-46 9v94h187z" />
    <glyph glyph-name="Iogonek" unicode="&#x12e;" horiz-adv-x="329" 
d="M294 720v-94q-42 0 -50.5 -9t-8.5 -41v-432q0 -32 8.5 -41t50.5 -9v-94h-102q-44 -43 -44 -92q0 -25 13.5 -39t39.5 -14q23 0 41 11v-41q-32 -25 -78 -25t-70.5 23t-24.5 57q0 70 87 120h-120v94q42 0 50.5 9t8.5 41v432q0 32 -8.5 41t-50.5 9v94h258z" />
    <glyph glyph-name="iogonek" unicode="&#x12f;" horiz-adv-x="296" 
d="M143 568q-33 0 -53.5 19t-20.5 48t20.5 48.5t53.5 19.5t53.5 -19.5t20.5 -48.5t-20.5 -48t-53.5 -19zM273 0h-92q-44 -43 -44 -92q0 -25 13.5 -39t39.5 -14q23 0 41 11v-41q-32 -25 -78 -25t-70.5 23t-24.5 57q0 70 87 120h-113v94q38 0 46 9t8 41v212q0 32 -8 41t-46 9
v94h187v-356q0 -32 8 -41t46 -9v-94z" />
    <glyph glyph-name="Idotaccent" unicode="&#x130;" horiz-adv-x="329" 
d="M90 855q0 29 20.5 48.5t53.5 19.5t53.5 -19.5t20.5 -48.5t-20.5 -48t-53.5 -19t-53.5 19t-20.5 48zM235 576v-432q0 -32 8.5 -41t50.5 -9v-94h-258v94q42 0 50.5 9t8.5 41v432q0 32 -8.5 41t-50.5 9v94h258v-94q-42 0 -50.5 -9t-8.5 -41z" />
    <glyph glyph-name="dotlessi" unicode="&#x131;" horiz-adv-x="296" 
d="M219 500v-356q0 -32 8 -41t47 -9v-94h-242v94q39 0 47 9t8 41v212q0 32 -8 41t-47 9v94h187z" />
    <glyph glyph-name="IJ" unicode="&#x132;" horiz-adv-x="647" 
d="M235 576v-432q0 -32 8.5 -41t50.5 -9v-94h-258v94q42 0 50.5 9t8.5 41v432q0 32 -8.5 41t-50.5 9v94h258v-94q-42 0 -50.5 -9t-8.5 -41zM621 720v-94q-42 0 -50.5 -9t-8.5 -41v-394q0 -49 -5 -77t-23.5 -56.5t-58.5 -42t-105 -16.5l-9 88q36 5 48.5 23t12.5 54v421
q0 32 -8.5 41t-50.5 9v94h258z" />
    <glyph glyph-name="ij" unicode="&#x133;" horiz-adv-x="564" 
d="M69 635q0 29 20.5 48.5t53.5 19.5t53.5 -19.5t20.5 -48.5t-20.5 -48t-53.5 -19t-53.5 19t-20.5 48zM353 635q0 29 20.5 48.5t53.5 19.5t53.5 -19.5t20.5 -48.5t-20.5 -48t-53.5 -19t-53.5 19t-20.5 48zM219 500v-356q0 -32 8 -41t46 -9v-94h-241v94q38 0 46 9t8 41v212
q0 32 -8 41t-46 9v94h187zM507 500v-489q0 -80 -33 -135.5t-122 -95.5l-54 79q48 31 62.5 60t14.5 92v345q0 32 -8 41t-46 9v94h186z" />
    <glyph glyph-name="Kcommaaccent" unicode="&#x136;" horiz-adv-x="653" 
d="M294 0h-258v94q42 0 50.5 9t8.5 41v432q0 32 -8.5 41t-50.5 9v94h258v-94q-42 0 -50.5 -9t-8.5 -41v-432q0 -32 8.5 -41t50.5 -9v-94zM415 369l144 -231q18 -29 31 -36.5t48 -7.5v-94h-163l-210 345v37l211 338h155v-94q-35 0 -47 -7t-29 -34zM310 -40q33 0 51 -22.5
t18 -52.5q0 -25 -12.5 -56.5t-22.5 -48.5t-38 -61h-56l49 115q-20 0 -37 17t-17 46q0 27 18.5 45t46.5 18z" />
    <glyph glyph-name="kcommaaccent" unicode="&#x137;" horiz-adv-x="565" 
d="M210 720v-576q0 -32 8 -41t46 -9v-94h-241v94q38 0 46 9t8 41v432q0 32 -8 41t-46 9v94h187zM381 268l86 -125q13 -20 19 -27.5t21 -14.5t38 -7v-94h-153l-163 260l160 240h147v-94q-36 0 -53 -10t-33 -32zM242 -281l49 115q-20 0 -37 17t-17 46q0 27 18.5 45t46.5 18
q33 0 51 -22.5t18 -52.5q0 -25 -12.5 -56.5t-22.5 -48.5t-38 -61h-56z" />
    <glyph glyph-name="Lacute" unicode="&#x139;" horiz-adv-x="549" 
d="M122 811l106 80q29 21 48 21q20 0 33 -12t13 -30q0 -34 -39 -49l-141 -51zM529 0h-493v94q42 0 50.5 9t8.5 41v432q0 32 -8.5 41t-50.5 9v94h258v-94q-42 0 -50.5 -9t-8.5 -41v-459h158q34 0 46.5 9t19.5 49h80z" />
    <glyph glyph-name="lacute" unicode="&#x13a;" horiz-adv-x="286" 
d="M76 811l106 80q29 21 48 21q20 0 33 -12t13 -30q0 -34 -39 -49l-141 -51zM210 720v-576q0 -32 8 -41t46 -9v-94h-241v94q38 0 46 9t8 41v432q0 32 -8 41t-46 9v94h187z" />
    <glyph glyph-name="Lcommaaccent" unicode="&#x13b;" horiz-adv-x="549" 
d="M529 0h-493v94q42 0 50.5 9t8.5 41v432q0 32 -8.5 41t-50.5 9v94h258v-94q-42 0 -50.5 -9t-8.5 -41v-459h158q34 0 46.5 9t19.5 49h80zM231 -281l49 115q-20 0 -37 17t-17 46q0 27 18.5 45t46.5 18q33 0 51 -22.5t18 -52.5q0 -25 -12.5 -56.5t-22.5 -48.5t-38 -61h-56z
" />
    <glyph glyph-name="lcommaaccent" unicode="&#x13c;" horiz-adv-x="286" 
d="M210 720v-576q0 -32 8 -41t46 -9v-94h-241v94q38 0 46 9t8 41v432q0 32 -8 41t-46 9v94h187zM85 -281l49 115q-20 0 -37 17t-17 46q0 27 18.5 45t46.5 18q33 0 51 -22.5t18 -52.5q0 -25 -12.5 -56.5t-22.5 -48.5t-38 -61h-56z" />
    <glyph glyph-name="Lcaron" unicode="&#x13d;" horiz-adv-x="549" 
d="M344 487l48 115q-20 0 -37 17t-17 46q0 26 19 44.5t47 18.5q33 0 51 -22.5t18 -52.5q0 -25 -12.5 -56.5t-22.5 -48.5t-38 -61h-56zM529 0h-493v94q42 0 50.5 9t8.5 41v432q0 32 -8.5 41t-50.5 9v94h258v-94q-42 0 -50.5 -9t-8.5 -41v-459h158q34 0 46.5 9t19.5 49h80z
" />
    <glyph glyph-name="lcaron" unicode="&#x13e;" horiz-adv-x="314" 
d="M249 487l49 115q-20 0 -37 17t-17 46q0 27 18.5 45t46.5 18q33 0 51 -22.5t18 -52.5q0 -25 -12.5 -56.5t-22.5 -48.5t-38 -61h-56zM210 720v-576q0 -32 8 -41t46 -9v-94h-241v94q38 0 46 9t8 41v432q0 32 -8 41t-46 9v94h187z" />
    <glyph glyph-name="Ldot" unicode="&#x13f;" horiz-adv-x="549" 
d="M529 0h-493v94q42 0 50.5 9t8.5 41v432q0 32 -8.5 41t-50.5 9v94h258v-94q-42 0 -50.5 -9t-8.5 -41v-459h158q34 0 46.5 9t19.5 49h80zM297 377q0 26 18 44.5t44 18.5t44 -18.5t18 -44.5q0 -25 -18.5 -43.5t-43.5 -18.5q-26 0 -44 18t-18 44z" />
    <glyph glyph-name="ldot" unicode="&#x140;" horiz-adv-x="396" 
d="M210 720v-576q0 -32 8 -41t46 -9v-94h-241v94q38 0 46 9t8 41v432q0 32 -8 41t-46 9v94h187zM253 346q0 26 18 44.5t44 18.5q25 0 43 -18.5t18 -44.5t-18 -44.5t-43 -18.5q-26 0 -44 18.5t-18 44.5z" />
    <glyph glyph-name="Lslash" unicode="&#x141;" horiz-adv-x="550" 
d="M539 175l-10 -175h-492v94q41 0 49.5 9t8.5 41v145l-58 -19v107l58 19v180q0 32 -8.5 41t-49.5 9v94h257v-94q-41 0 -50 -9t-9 -41v-135l60 20v-106l-60 -20v-218h159q33 0 45.5 9t19.5 49h80z" />
    <glyph glyph-name="lslash" unicode="&#x142;" horiz-adv-x="287" 
d="M210 362v-218q0 -32 8 -41t47 -9v-94h-242v94q39 0 47 9t8 41v119l-51 -39v93l51 40v219q0 32 -8 41t-47 9v94h187v-264l55 43v-94z" />
    <glyph glyph-name="Nacute" unicode="&#x143;" horiz-adv-x="692" 
d="M340 770l-20 41l106 80q29 21 48 21q20 0 33 -12t13 -30q0 -34 -39 -49zM665 720v-94q-32 0 -44 -5t-14 -20v-601h-141l-241 458h-5q7 -91 7 -214v-244h-191v94q42 0 50.5 9t8.5 41v432q0 32 -8.5 41t-50.5 9v94h200l241 -458h5q-7 91 -7 214v244h190z" />
    <glyph glyph-name="nacute" unicode="&#x144;" horiz-adv-x="592" 
d="M251 591l106 80q29 21 48 21q20 0 33 -12t13 -30q0 -34 -39 -49l-141 -51zM516 364v-220q0 -32 8 -41t47 -9v-94h-187v338q0 68 -65 68q-44 0 -100 -35v-227q0 -32 8 -41t46 -9v-94h-241v94q38 0 46 9t8 41v212q0 32 -8 41t-46 9v94h182l5 -71h2l48 52q51 29 105 29
q63 0 102.5 -37.5t39.5 -108.5z" />
    <glyph glyph-name="Ncommaaccent" unicode="&#x145;" horiz-adv-x="692" 
d="M665 720v-94q-32 0 -44 -5t-14 -20v-601h-141l-241 458h-5q7 -91 7 -214v-244h-191v94q42 0 50.5 9t8.5 41v432q0 32 -8.5 41t-50.5 9v94h200l241 -458h5q-7 91 -7 214v244h190zM343 -40q33 0 51 -22.5t18 -52.5q0 -25 -12.5 -56.5t-22.5 -48.5t-38 -61h-56l49 115
q-20 0 -37 17t-17 46q0 27 18.5 45t46.5 18z" />
    <glyph glyph-name="ncommaaccent" unicode="&#x146;" horiz-adv-x="592" 
d="M516 364v-220q0 -32 8 -41t47 -9v-94h-187v338q0 68 -65 68q-44 0 -100 -35v-227q0 -32 8 -41t46 -9v-94h-241v94q38 0 46 9t8 41v212q0 32 -8 41t-46 9v94h182l5 -71h2l48 52q51 29 105 29q63 0 102.5 -37.5t39.5 -108.5zM235 -281l49 115q-20 0 -37 17t-17 46
q0 27 18.5 45t46.5 18q33 0 51 -22.5t18 -52.5q0 -25 -12.5 -56.5t-22.5 -48.5t-38 -61h-56z" />
    <glyph glyph-name="Ncaron" unicode="&#x147;" horiz-adv-x="692" 
d="M335 770l-119 174h70l77 -84l76 84h71l-120 -174h-55zM665 720v-94q-32 0 -44 -5t-14 -20v-601h-141l-241 458h-5q7 -91 7 -214v-244h-191v94q42 0 50.5 9t8.5 41v432q0 32 -8.5 41t-50.5 9v94h200l241 -458h5q-7 91 -7 214v244h190z" />
    <glyph glyph-name="ncaron" unicode="&#x148;" horiz-adv-x="592" 
d="M294 640l76 84h71l-120 -174h-55l-119 174h70zM516 364v-220q0 -32 8 -41t47 -9v-94h-187v338q0 68 -65 68q-44 0 -100 -35v-227q0 -32 8 -41t46 -9v-94h-241v94q38 0 46 9t8 41v212q0 32 -8 41t-46 9v94h182l5 -71h2l48 52q51 29 105 29q63 0 102.5 -37.5t39.5 -108.5z
" />
    <glyph glyph-name="Eng" unicode="&#x14a;" horiz-adv-x="692" 
d="M665 720v-94q-41 0 -49.5 -9t-8.5 -41v-591q-2 -36 -10 -64t-27 -56.5t-57.5 -49.5t-94.5 -32l-27 80q57 17 73.5 41t16.5 69v27l-257 465h-5q8 -91 8 -214v-251h-191v94q41 0 50 9t9 41v432q0 32 -9 41t-50 9v94h200l241 -443h5q-8 91 -8 214v229h191z" />
    <glyph glyph-name="eng" unicode="&#x14b;" horiz-adv-x="567" 
d="M221 429l49 52q51 29 104 29q63 0 103 -37.5t40 -108.5v-367q-2 -73 -36.5 -126t-119.5 -91l-54 79q48 31 62.5 60t14.5 92v327q0 68 -65 68q-44 0 -100 -35v-227q0 -32 8 -41t47 -9v-94h-242v94q39 0 47 9t8 41v212q0 32 -8 41t-47 9v94h182l5 -71h2z" />
    <glyph glyph-name="Omacron" unicode="&#x14c;" horiz-adv-x="644" 
d="M172 784v73h300v-73h-300zM322 -10q-289 0 -289 375q0 365 289 365q290 0 290 -365q0 -375 -290 -375zM322 616q-81 0 -113.5 -57t-32.5 -194q0 -139 33 -200t113 -61t112.5 61t32.5 200q0 137 -32.5 194t-112.5 57z" />
    <glyph glyph-name="omacron" unicode="&#x14d;" horiz-adv-x="533" 
d="M117 564v73h300v-73h-300zM266 -10q-116 0 -177 68.5t-61 191.5t61 191.5t177 68.5q115 0 176.5 -68.5t61.5 -191.5q0 -122 -61.5 -191t-176.5 -69zM266 422q-56 0 -79 -43.5t-23 -128.5t23 -128.5t79 -43.5t79 43.5t23 128.5t-23 128.5t-79 43.5z" />
    <glyph glyph-name="Ohungarumlaut" unicode="&#x150;" horiz-adv-x="644" 
d="M195 801l107 114q16 16 38 16q19 0 30.5 -12t11.5 -29q0 -26 -31 -43l-130 -77zM379 801l107 114q16 16 38 16q20 0 31 -11.5t11 -29.5q0 -26 -30 -43l-131 -77zM322 -10q-289 0 -289 375q0 365 289 365q290 0 290 -365q0 -375 -290 -375zM322 616q-81 0 -113.5 -57
t-32.5 -194q0 -139 33 -200t113 -61t112.5 61t32.5 200q0 137 -32.5 194t-112.5 57z" />
    <glyph glyph-name="ohungarumlaut" unicode="&#x151;" horiz-adv-x="533" 
d="M139 581l107 114q16 16 38 16q19 0 30.5 -12t11.5 -29q0 -26 -31 -43l-130 -77zM323 581l107 114q16 16 38 16q20 0 31 -11.5t11 -29.5q0 -26 -30 -43l-131 -77zM266 -10q-116 0 -177 68.5t-61 191.5t61 191.5t177 68.5q115 0 176.5 -68.5t61.5 -191.5q0 -122 -61.5 -191
t-176.5 -69zM266 422q-56 0 -79 -43.5t-23 -128.5t23 -128.5t79 -43.5t79 43.5t23 128.5t-23 128.5t-79 43.5z" />
    <glyph glyph-name="OE" unicode="&#x152;" horiz-adv-x="951" 
d="M911 0h-416v64q-61 -74 -173 -74q-289 0 -289 375q0 365 289 365q111 0 173 -73v63h418v-175h-80q0 41 -9 49.5t-42 8.5h-175v-176h223v-117h-223v-193h168q34 0 46.5 9t19.5 49h80zM322 104q80 0 112.5 61t32.5 200q0 137 -32.5 194t-112.5 57q-81 0 -113.5 -57
t-32.5 -194q0 -139 33 -200t113 -61z" />
    <glyph glyph-name="oe" unicode="&#x153;" horiz-adv-x="844" 
d="M788 126v-96q-70 -40 -180 -40q-117 0 -174 72q-56 -72 -168 -72q-115 0 -176.5 68.5t-61.5 191.5t61.5 191.5t176.5 68.5q112 0 168 -72q58 72 173 72q92 0 151 -42.5t59 -143.5q0 -45 -14 -102h-304q7 -69 43 -103t94 -34q83 0 152 41zM266 78q57 0 79.5 43.5
t22.5 128.5t-23 128.5t-79 43.5t-79 -43.5t-23 -128.5t23 -128.5t79 -43.5zM498 286l190 7q4 24 4 39q0 51 -24.5 70.5t-56.5 19.5q-101 0 -113 -136z" />
    <glyph glyph-name="Racute" unicode="&#x154;" horiz-adv-x="639" 
d="M278 811l106 80q29 21 48 21q20 0 33 -12t13 -30q0 -34 -39 -49l-141 -51zM36 720h292q131 0 193 -58t62 -161q0 -149 -113 -191v-10q49 -17 82 -115l18 -54q8 -25 17.5 -31t44.5 -6v-94h-178l-70 221q-10 30 -27 44t-53 14h-29v117h53q60 0 85.5 27t25.5 78
q0 102 -111 102h-93v-459q0 -32 8.5 -41t50.5 -9v-94h-258v94q42 0 50.5 9t8.5 41v432q0 32 -8.5 41t-50.5 9v94z" />
    <glyph glyph-name="racute" unicode="&#x155;" horiz-adv-x="408" 
d="M200 591l106 80q29 21 48 21q20 0 33 -12t13 -30q0 -34 -39 -49l-141 -51zM221 409l46 71q40 30 87 30q30 0 58 -9l-41 -116q-25 6 -48 6q-60 0 -104 -42v-205q0 -32 11.5 -41t68.5 -9v-94h-267v94q38 0 46 9t8 41v212q0 32 -8 41t-46 9v94h182l5 -91h2z" />
    <glyph glyph-name="Rcommaaccent" unicode="&#x156;" horiz-adv-x="639" 
d="M36 720h292q131 0 193 -58t62 -161q0 -149 -113 -191v-10q49 -17 82 -115l18 -54q8 -25 17.5 -31t44.5 -6v-94h-178l-70 221q-10 30 -27 44t-53 14h-29v117h53q60 0 85.5 27t25.5 78q0 102 -111 102h-93v-459q0 -32 8.5 -41t50.5 -9v-94h-258v94q42 0 50.5 9t8.5 41v432
q0 32 -8.5 41t-50.5 9v94zM292 -281l49 115q-20 0 -37 17t-17 46q0 27 18.5 45t46.5 18q33 0 51 -22.5t18 -52.5q0 -25 -12.5 -56.5t-22.5 -48.5t-38 -61h-56z" />
    <glyph glyph-name="rcommaaccent" unicode="&#x157;" horiz-adv-x="408" 
d="M221 409l46 71q40 30 87 30q30 0 58 -9l-41 -116q-25 6 -48 6q-60 0 -104 -42v-205q0 -32 11.5 -41t68.5 -9v-94h-267v94q38 0 46 9t8 41v212q0 32 -8 41t-46 9v94h182l5 -91h2zM97 -281l49 115q-20 0 -37 17t-17 46q0 27 18.5 45t46.5 18q33 0 51 -22.5t18 -52.5
q0 -25 -12.5 -56.5t-22.5 -48.5t-38 -61h-56z" />
    <glyph glyph-name="Rcaron" unicode="&#x158;" horiz-adv-x="639" 
d="M320 860l76 84h71l-120 -174h-55l-119 174h70zM36 720h292q131 0 193 -58t62 -161q0 -149 -113 -191v-10q49 -17 82 -115l18 -54q8 -25 17.5 -31t44.5 -6v-94h-178l-70 221q-10 30 -27 44t-53 14h-29v117h53q60 0 85.5 27t25.5 78q0 102 -111 102h-93v-459q0 -32 8.5 -41
t50.5 -9v-94h-258v94q42 0 50.5 9t8.5 41v432q0 32 -8.5 41t-50.5 9v94z" />
    <glyph glyph-name="rcaron" unicode="&#x159;" horiz-adv-x="408" 
d="M243 640l76 84h71l-120 -174h-55l-119 174h70zM221 409l46 71q40 30 87 30q30 0 58 -9l-41 -116q-25 6 -48 6q-60 0 -104 -42v-205q0 -32 11.5 -41t68.5 -9v-94h-267v94q38 0 46 9t8 41v212q0 32 -8 41t-46 9v94h182l5 -91h2z" />
    <glyph glyph-name="Sacute" unicode="&#x15a;" horiz-adv-x="520" 
d="M217 811l106 80q29 21 48 21q20 0 33 -12t13 -30q0 -34 -39 -49l-141 -51zM270 616q-87 0 -87 -72q0 -29 31.5 -55t76.5 -49.5t90.5 -52t77 -77t31.5 -110.5q0 -98 -63.5 -154t-175.5 -56q-122 0 -217 48v123q121 -57 213 -57q100 0 100 82q0 28 -23 53t-57 42t-74 41
t-74 49t-57 67.5t-23 94.5q0 95 64 146t160 51q112 0 210 -49v-136h-80q0 71 -123 71z" />
    <glyph glyph-name="sacute" unicode="&#x15b;" horiz-adv-x="442" 
d="M171 591l106 80q29 21 48 21q20 0 33 -12t13 -30q0 -34 -39 -49l-141 -51zM390 355h-80q0 35 -22 47.5t-61 12.5q-61 0 -61 -43q0 -21 25.5 -36.5t62 -28.5t73.5 -30t62.5 -50t25.5 -79q0 -74 -53 -116t-145 -42q-88 0 -172 35l-12 101q95 -45 171 -45q36 0 56 14.5
t20 37.5q0 22 -26 39t-62.5 30.5t-73 31.5t-62.5 51t-26 80q0 71 56 108t135 37q94 0 169 -35v-120z" />
    <glyph glyph-name="Scedilla" unicode="&#x15e;" horiz-adv-x="520" 
d="M490 200q0 -90 -55 -145.5t-153 -63.5v-22q45 0 71 -21t26 -58q0 -40 -25.5 -65t-72.5 -25t-80 15v44q26 -11 51 -11q51 0 51 42q0 43 -69 43v57q-111 3 -200 48v123q121 -57 213 -57q100 0 100 82q0 28 -23 53t-57 42t-74 41t-74 49t-57 67.5t-23 94.5q0 95 64 146
t160 51q112 0 210 -49v-136h-80q0 71 -123 71q-87 0 -87 -72q0 -29 31.5 -55t76.5 -49.5t90.5 -52t77 -77t31.5 -110.5z" />
    <glyph glyph-name="scedilla" unicode="&#x15f;" horiz-adv-x="442" 
d="M415 148q0 -70 -49 -112t-135 -46v-21q45 0 71 -21t26 -58q0 -40 -25.5 -65t-72.5 -25t-80 15v44q26 -11 51 -11q51 0 51 42q0 43 -69 43v58q-69 5 -138 34l-12 101q95 -45 171 -45q36 0 56 14.5t20 37.5q0 22 -26 39t-62.5 30.5t-73 31.5t-62.5 51t-26 80q0 71 56 108
t135 37q94 0 169 -35v-120h-80q0 35 -22 47.5t-61 12.5q-61 0 -61 -43q0 -21 25.5 -36.5t62 -28.5t73.5 -30t62.5 -50t25.5 -79z" />
    <glyph glyph-name="Scaron" unicode="&#x160;" horiz-adv-x="520" 
d="M260 860l76 84h71l-120 -174h-55l-119 174h70zM270 616q-87 0 -87 -72q0 -29 31.5 -55t76.5 -49.5t90.5 -52t77 -77t31.5 -110.5q0 -98 -63.5 -154t-175.5 -56q-122 0 -217 48v123q121 -57 213 -57q100 0 100 82q0 28 -23 53t-57 42t-74 41t-74 49t-57 67.5t-23 94.5
q0 95 64 146t160 51q112 0 210 -49v-136h-80q0 71 -123 71z" />
    <glyph glyph-name="scaron" unicode="&#x161;" horiz-adv-x="442" 
d="M214 640l76 84h71l-120 -174h-55l-119 174h70zM390 355h-80q0 35 -22 47.5t-61 12.5q-61 0 -61 -43q0 -21 25.5 -36.5t62 -28.5t73.5 -30t62.5 -50t25.5 -79q0 -74 -53 -116t-145 -42q-88 0 -172 35l-12 101q95 -45 171 -45q36 0 56 14.5t20 37.5q0 22 -26 39t-62.5 30.5
t-73 31.5t-62.5 51t-26 80q0 71 56 108t135 37q94 0 169 -35v-120z" />
    <glyph glyph-name="Tcedilla" unicode="&#x162;" horiz-adv-x="559" 
d="M534 720v-175h-80q0 41 -9 49.5t-42 8.5h-53v-459q0 -32 8.5 -41t49.5 -9v-94h-102v-31q45 0 71 -21t26 -58q0 -40 -25.5 -65t-72.5 -25t-80 15v44q26 -11 51 -11q51 0 51 42q0 43 -69 43v67h-107v94q42 0 50.5 9t8.5 41v459h-54q-33 0 -42 -8.5t-9 -49.5h-80v175h509z
" />
    <glyph glyph-name="tcedilla" unicode="&#x163;" horiz-adv-x="337" 
d="M228 -10v-21q45 0 71 -21t26 -58q0 -40 -25.5 -65t-72.5 -25t-80 15v44q26 -11 51 -11q51 0 51 42q0 43 -69 43v59q-55 7 -81.5 38.5t-26.5 93.5v283h-52v55l52 38l83 111h49v-111h113v-93h-113v-264q0 -51 54 -51q34 0 61 11v-95q-30 -13 -91 -18z" />
    <glyph glyph-name="Tcaron" unicode="&#x164;" horiz-adv-x="559" 
d="M280 860l76 84h71l-120 -174h-55l-119 174h70zM534 545h-80q0 41 -9 49.5t-42 8.5h-53v-459q0 -32 8.5 -41t49.5 -9v-94h-257v94q42 0 50.5 9t8.5 41v459h-54q-33 0 -42 -8.5t-9 -49.5h-80v175h509v-175z" />
    <glyph glyph-name="tcaron" unicode="&#x165;" horiz-adv-x="337" 
d="M229 541l48 115q-20 0 -37 17t-17 46q0 26 19 44.5t47 18.5q33 0 51 -22.5t18 -52.5q0 -25 -12.5 -56.5t-22.5 -48.5t-38 -61h-56zM20 407v55l52 38l83 111h49v-111h113v-93h-113v-264q0 -51 54 -51q34 0 61 11v-95q-42 -18 -101 -18q-76 0 -111 31t-35 103v283h-52z" />
    <glyph glyph-name="Tbar" unicode="&#x166;" horiz-adv-x="561" 
d="M535 545h-80q0 41 -8.5 49.5t-41.5 8.5h-54v-209h105v-102h-105v-148q0 -32 8.5 -41t50.5 -9v-94h-258v94q42 0 50.5 9t8.5 41v148h-105v102h105v209h-54q-33 0 -42 -8.5t-9 -49.5h-80v175h509v-175z" />
    <glyph glyph-name="tbar" unicode="&#x167;" horiz-adv-x="340" 
d="M259 92q34 0 61 11v-95q-42 -18 -101 -18q-76 0 -111 31t-35 103v94h-51v73h51v116h-52v55l52 38l83 111h49v-111h113v-93h-113v-116h113v-73h-113v-75q0 -51 54 -51z" />
    <glyph glyph-name="Umacron" unicode="&#x16a;" horiz-adv-x="671" 
d="M184 784v73h300v-73h-300zM652 720v-94q-42 0 -50.5 -9t-8.5 -41v-345q0 -125 -69.5 -183t-187.5 -58q-116 0 -186.5 58t-70.5 183v345q0 32 -8.5 41t-50.5 9v94h258v-94q-42 0 -50.5 -9t-8.5 -41v-345q0 -55 28.5 -91t88.5 -36t88.5 36t28.5 91v345q0 32 -8.5 41
t-49.5 9v94h257z" />
    <glyph glyph-name="umacron" unicode="&#x16b;" horiz-adv-x="582" 
d="M140 564v73h300v-73h-300zM505 500v-356q0 -32 8 -41t46 -9v-94h-182l-5 71h-2l-48 -52q-51 -29 -105 -29q-63 0 -102.5 37.5t-39.5 108.5v220q0 32 -8 41t-47 9v94h187v-338q0 -68 65 -68q44 0 100 35v227q0 32 -8 41t-46 9v94h187z" />
    <glyph glyph-name="Uring" unicode="&#x16e;" horiz-adv-x="671" 
d="M246 842q0 37 25 60t63 23t62.5 -23t24.5 -60t-24.5 -59.5t-62.5 -22.5t-63 22.5t-25 59.5zM291 842q0 -19 11.5 -30t31.5 -11q19 0 30.5 11t11.5 30t-11.5 30.5t-30.5 11.5q-20 0 -31.5 -11.5t-11.5 -30.5zM652 720v-94q-42 0 -50.5 -9t-8.5 -41v-345q0 -125 -69.5 -183
t-187.5 -58q-116 0 -186.5 58t-70.5 183v345q0 32 -8.5 41t-50.5 9v94h258v-94q-42 0 -50.5 -9t-8.5 -41v-345q0 -55 28.5 -91t88.5 -36t88.5 36t28.5 91v345q0 32 -8.5 41t-49.5 9v94h257z" />
    <glyph glyph-name="uring" unicode="&#x16f;" horiz-adv-x="582" 
d="M202 622q0 37 25 60t63 23t62.5 -23t24.5 -60t-24.5 -59.5t-62.5 -22.5t-63 22.5t-25 59.5zM247 622q0 -19 11.5 -30t31.5 -11q19 0 30.5 11t11.5 30t-11.5 30.5t-30.5 11.5q-20 0 -31.5 -11.5t-11.5 -30.5zM505 500v-356q0 -32 8 -41t46 -9v-94h-182l-5 71h-2l-48 -52
q-51 -29 -105 -29q-63 0 -102.5 37.5t-39.5 108.5v220q0 32 -8 41t-47 9v94h187v-338q0 -68 65 -68q44 0 100 35v227q0 32 -8 41t-46 9v94h187z" />
    <glyph glyph-name="Uhungarumlaut" unicode="&#x170;" horiz-adv-x="671" 
d="M207 801l107 114q16 16 38 16q19 0 30.5 -12t11.5 -29q0 -26 -31 -43l-130 -77zM391 801l107 114q16 16 38 16q20 0 31 -11.5t11 -29.5q0 -26 -30 -43l-131 -77zM652 720v-94q-42 0 -50.5 -9t-8.5 -41v-345q0 -125 -69.5 -183t-187.5 -58q-116 0 -186.5 58t-70.5 183v345
q0 32 -8.5 41t-50.5 9v94h258v-94q-42 0 -50.5 -9t-8.5 -41v-345q0 -55 28.5 -91t88.5 -36t88.5 36t28.5 91v345q0 32 -8.5 41t-49.5 9v94h257z" />
    <glyph glyph-name="uhungarumlaut" unicode="&#x171;" horiz-adv-x="582" 
d="M163 581l107 114q16 16 38 16q19 0 30.5 -12t11.5 -29q0 -26 -31 -43l-130 -77zM347 581l107 114q16 16 38 16q20 0 31 -11.5t11 -29.5q0 -26 -30 -43l-131 -77zM505 500v-356q0 -32 8 -41t46 -9v-94h-182l-5 71h-2l-48 -52q-51 -29 -105 -29q-63 0 -102.5 37.5
t-39.5 108.5v220q0 32 -8 41t-47 9v94h187v-338q0 -68 65 -68q44 0 100 35v227q0 32 -8 41t-46 9v94h187z" />
    <glyph glyph-name="Uogonek" unicode="&#x172;" horiz-adv-x="671" 
d="M652 720v-94q-42 0 -50.5 -9t-8.5 -41v-345q0 -118 -62.5 -176t-168.5 -64q-35 -41 -35 -83q0 -25 13.5 -39t39.5 -14q23 0 41 11v-41q-32 -25 -78 -25t-70.5 23t-24.5 57q0 64 71 110q-109 4 -174.5 62.5t-65.5 178.5v345q0 32 -8.5 41t-50.5 9v94h258v-94
q-42 0 -50.5 -9t-8.5 -41v-345q0 -55 28.5 -91t88.5 -36t88.5 36t28.5 91v345q0 32 -8.5 41t-49.5 9v94h257z" />
    <glyph glyph-name="uogonek" unicode="&#x173;" horiz-adv-x="582" 
d="M559 0h-82q-44 -43 -44 -92q0 -25 13.5 -39t39.5 -14q23 0 41 11v-41q-32 -25 -78 -25t-70.5 23t-24.5 57q0 70 87 120h-64l-5 71h-2l-48 -52q-51 -29 -105 -29q-63 0 -102.5 37.5t-39.5 108.5v220q0 32 -8 41t-47 9v94h187v-338q0 -68 65 -68q44 0 100 35v227
q0 32 -8 41t-46 9v94h187v-356q0 -32 8 -41t46 -9v-94z" />
    <glyph glyph-name="Wcircumflex" unicode="&#x174;" horiz-adv-x="938" 
d="M327 770l119 174h55l120 -174h-71l-76 85l-77 -85h-70zM928 720v-94q-26 0 -37 -6.5t-15 -23.5l-142 -601h-181l-85 406l-86 -406h-182l-138 602q-4 18 -14.5 23.5t-36.5 5.5v94h167l88 -421q24 -118 28 -145h2q6 32 29 145l86 421h129l82 -421q22 -118 26 -145h2
q5 29 16 82.5t13 62.5l92 421h157z" />
    <glyph glyph-name="wcircumflex" unicode="&#x175;" horiz-adv-x="818" 
d="M266 550l119 174h55l120 -174h-71l-76 85l-77 -85h-70zM811 500v-94q-30 0 -41.5 -6t-16.5 -24l-107 -381h-170l-66 305l-80 -305h-170l-88 381q-4 18 -15.5 24t-39.5 6v94h161l76 -369h2l89 369h145l73 -369h2l91 369h155z" />
    <glyph glyph-name="Ycircumflex" unicode="&#x176;" horiz-adv-x="586" 
d="M221 770h-70l119 174h55l120 -174h-71l-76 85zM577 720v-94q-27 0 -38.5 -7.5t-22.5 -33.5l-154 -350v-91q0 -32 8.5 -41t50.5 -9v-94h-258v94q42 0 50.5 9t8.5 41v94l-154 358q-9 19 -19.5 24.5t-36.5 5.5v94h148l91 -216q24 -59 46 -121h2q15 46 45 121l92 216h141z
" />
    <glyph glyph-name="ycircumflex" unicode="&#x177;" horiz-adv-x="545" 
d="M129 550l119 174h55l120 -174h-71l-76 85l-77 -85h-70zM535 500v-94q-31 0 -42 -6t-17 -27l-79 -243q-60 -193 -179 -350h-147v10q67 79 126 196l-123 382q-8 24 -18.5 31t-41.5 7v94h159l104 -368h2l102 368h154z" />
    <glyph glyph-name="Ydieresis" unicode="&#x178;" horiz-adv-x="586" 
d="M203 788q-29 0 -48 17t-19 45t19 44.5t48 16.5t48.5 -16.5t19.5 -44.5t-19.5 -45t-48.5 -17zM391 788q-29 0 -48.5 17t-19.5 45t19.5 44.5t48.5 16.5t48 -16.5t19 -44.5t-19 -45t-48 -17zM577 720v-94q-27 0 -38.5 -7.5t-22.5 -33.5l-154 -350v-91q0 -32 8.5 -41t50.5 -9
v-94h-258v94q42 0 50.5 9t8.5 41v94l-154 358q-9 19 -19.5 24.5t-36.5 5.5v94h148l91 -216q24 -59 46 -121h2q15 46 45 121l92 216h141z" />
    <glyph glyph-name="Zacute" unicode="&#x179;" horiz-adv-x="530" 
d="M218 811l106 80q29 21 48 21q20 0 33 -12t13 -30q0 -34 -39 -49l-141 -51zM490 0h-461v103l295 500h-152q-32 0 -41 -8.5t-9 -49.5h-80v175h448v-103l-292 -500h156q34 0 46.5 9t19.5 49h80z" />
    <glyph glyph-name="zacute" unicode="&#x17a;" horiz-adv-x="459" 
d="M190 591l106 80q29 21 48 21q20 0 33 -12t13 -30q0 -34 -39 -49l-141 -51zM431 0h-398v81l229 324h-95q-29 0 -41.5 -9t-12.5 -41h-80v145h388v-81l-226 -324h102q29 0 41.5 9t12.5 41h80v-145z" />
    <glyph glyph-name="Zdotaccent" unicode="&#x17b;" horiz-adv-x="530" 
d="M186 855q0 29 20.5 48.5t53.5 19.5t53.5 -19.5t20.5 -48.5t-20.5 -48t-53.5 -19t-53.5 19t-20.5 48zM490 0h-461v103l295 500h-152q-32 0 -41 -8.5t-9 -49.5h-80v175h448v-103l-292 -500h156q34 0 46.5 9t19.5 49h80z" />
    <glyph glyph-name="zdotaccent" unicode="&#x17c;" horiz-adv-x="459" 
d="M158 635q0 29 20.5 48.5t53.5 19.5t53.5 -19.5t20.5 -48.5t-20.5 -48t-53.5 -19t-53.5 19t-20.5 48zM431 0h-398v81l229 324h-95q-29 0 -41.5 -9t-12.5 -41h-80v145h388v-81l-226 -324h102q29 0 41.5 9t12.5 41h80v-145z" />
    <glyph glyph-name="Zcaron" unicode="&#x17d;" horiz-adv-x="530" 
d="M261 860l76 84h71l-120 -174h-55l-119 174h70zM490 0h-461v103l295 500h-152q-32 0 -41 -8.5t-9 -49.5h-80v175h448v-103l-292 -500h156q34 0 46.5 9t19.5 49h80z" />
    <glyph glyph-name="zcaron" unicode="&#x17e;" horiz-adv-x="459" 
d="M233 640l76 84h71l-120 -174h-55l-119 174h70zM431 0h-398v81l229 324h-95q-29 0 -41.5 -9t-12.5 -41h-80v145h388v-81l-226 -324h102q29 0 41.5 9t12.5 41h80v-145z" />
    <glyph glyph-name="florin" unicode="&#x192;" horiz-adv-x="420" 
d="M154 415l16 112q7 50 24.5 85.5t40.5 56t59 32.5t72 15.5t88 3.5l-14 -105l-8 -5q-27 8 -62 8q-61 0 -73 -74l-18 -129h137l-12 -80h-136l-45 -322q-7 -50 -24.5 -85.5t-40.5 -56t-59 -32.5t-72 -15.5t-88 -3.5l14 105l7 5q28 -8 62 -8q63 0 73 74l48 339h-135l12 80h134
z" />
    <glyph glyph-name="Scommaaccent" unicode="&#x218;" horiz-adv-x="520" 
d="M270 616q-87 0 -87 -72q0 -29 31.5 -55t76.5 -49.5t90.5 -52t77 -77t31.5 -110.5q0 -98 -63.5 -154t-175.5 -56q-122 0 -217 48v123q121 -57 213 -57q100 0 100 82q0 28 -23 53t-57 42t-74 41t-74 49t-57 67.5t-23 94.5q0 95 64 146t160 51q112 0 210 -49v-136h-80
q0 71 -123 71zM194 -281l49 115q-20 0 -37 17t-17 46q0 27 18.5 45t46.5 18q33 0 51 -22.5t18 -52.5q0 -25 -12.5 -56.5t-22.5 -48.5t-38 -61h-56z" />
    <glyph glyph-name="scommaaccent" unicode="&#x219;" horiz-adv-x="442" 
d="M390 355h-80q0 35 -22 47.5t-61 12.5q-61 0 -61 -43q0 -21 25.5 -36.5t62 -28.5t73.5 -30t62.5 -50t25.5 -79q0 -74 -53 -116t-145 -42q-88 0 -172 35l-12 101q95 -45 171 -45q36 0 56 14.5t20 37.5q0 22 -26 39t-62.5 30.5t-73 31.5t-62.5 51t-26 80q0 71 56 108t135 37
q94 0 169 -35v-120zM143 -281l49 115q-20 0 -37 17t-17 46q0 27 18.5 45t46.5 18q33 0 51 -22.5t18 -52.5q0 -25 -12.5 -56.5t-22.5 -48.5t-38 -61h-56z" />
    <glyph glyph-name="uni021A" unicode="&#x21a;" horiz-adv-x="559" 
d="M534 545h-80q0 41 -9 49.5t-42 8.5h-53v-459q0 -32 8.5 -41t49.5 -9v-94h-257v94q42 0 50.5 9t8.5 41v459h-54q-33 0 -42 -8.5t-9 -49.5h-80v175h509v-175zM218 -281l49 115q-20 0 -37 17t-17 46q0 27 18.5 45t46.5 18q33 0 51 -22.5t18 -52.5q0 -25 -12.5 -56.5
t-22.5 -48.5t-38 -61h-56z" />
    <glyph glyph-name="uni021B" unicode="&#x21b;" horiz-adv-x="337" 
d="M20 407v55l52 38l83 111h49v-111h113v-93h-113v-264q0 -51 54 -51q34 0 61 11v-95q-42 -18 -101 -18q-76 0 -111 31t-35 103v283h-52zM140 -281l49 115q-20 0 -37 17t-17 46q0 27 18.5 45t46.5 18q33 0 51 -22.5t18 -52.5q0 -25 -12.5 -56.5t-22.5 -48.5t-38 -61h-56z
" />
    <glyph glyph-name="dotlessj" unicode="&#x237;" horiz-adv-x="268" 
d="M211 500v-489q0 -80 -33 -135.5t-122 -95.5l-54 79q48 31 62.5 60t14.5 92v345q0 32 -8 41t-46 9v94h186z" />
    <glyph glyph-name="circumflex" unicode="&#x2c6;" horiz-adv-x="452" 
d="M79 550l119 174h55l120 -174h-71l-76 85l-77 -85h-70z" />
    <glyph glyph-name="caron" unicode="&#x2c7;" horiz-adv-x="452" 
d="M226 640l76 84h71l-120 -174h-55l-119 174h70z" />
    <glyph glyph-name="breve" unicode="&#x2d8;" horiz-adv-x="423" 
d="M211 550q-60 0 -90 45.5t-30 111.5h52q9 -82 68 -82t68 82h52q0 -67 -29.5 -112t-90.5 -45z" />
    <glyph glyph-name="dotaccent" unicode="&#x2d9;" horiz-adv-x="277" 
d="M64 635q0 29 20.5 48.5t53.5 19.5t53.5 -19.5t20.5 -48.5t-20.5 -48t-53.5 -19t-53.5 19t-20.5 48z" />
    <glyph glyph-name="ring" unicode="&#x2da;" horiz-adv-x="360" 
d="M92 622q0 37 25 60t63 23t62.5 -23t24.5 -60t-24.5 -59.5t-62.5 -22.5t-63 22.5t-25 59.5zM137 622q0 -19 11.5 -30t31.5 -11q19 0 30.5 11t11.5 30t-11.5 30.5t-30.5 11.5q-20 0 -31.5 -11.5t-11.5 -30.5z" />
    <glyph glyph-name="ogonek" unicode="&#x2db;" horiz-adv-x="346" 
d="M259 -134v-41q-32 -25 -78 -25t-70.5 23t-24.5 57q0 70 87 120h36q-44 -43 -44 -92q0 -25 13.5 -39t39.5 -14q23 0 41 11z" />
    <glyph glyph-name="tilde" unicode="&#x2dc;" horiz-adv-x="521" 
d="M152 553h-63q1 59 29.5 95.5t72.5 36.5q31 0 78 -24t64 -24q34 0 40 43h60q-6 -132 -89 -132q-28 0 -81 24t-69 24q-18 0 -28 -9.5t-14 -33.5z" />
    <glyph glyph-name="hungarumlaut" unicode="&#x2dd;" horiz-adv-x="542" 
d="M82 581l107 114q16 16 38 16q19 0 30.5 -12t11.5 -29q0 -26 -31 -43l-130 -77zM266 581l107 114q16 16 38 16q20 0 31 -11.5t11 -29.5q0 -26 -30 -43l-131 -77z" />
    <glyph glyph-name="commaaccentcomb" unicode="&#x326;" horiz-adv-x="0" 
d="M-154 -281l49 115q-20 0 -37 17t-17 46q0 27 18.5 45t46.5 18q33 0 51 -22.5t18 -52.5q0 -25 -12.5 -56.5t-22.5 -48.5t-38 -61h-56z" />
    <glyph glyph-name="Delta" unicode="&#x394;" horiz-adv-x="634" 
d="M643 0h-652v10l254 719h144l254 -719v-10zM316 535l-145 -418h286z" />
    <glyph glyph-name="Omega" unicode="&#x3a9;" horiz-adv-x="716" 
d="M358 730q139 0 229.5 -79t90.5 -211q0 -113 -49.5 -187.5t-140.5 -103.5v-39h193l-10 -110h-273v196q66 21 99.5 82t33.5 151q0 94 -46 148t-127 54t-127 -54t-46 -148q0 -90 34 -151t99 -82v-196h-273l-10 110h193v39q-91 29 -140.5 103.5t-49.5 187.5q0 132 90.5 211
t229.5 79z" />
    <glyph glyph-name="mu" unicode="&#x3bc;" horiz-adv-x="585" 
d="M507 500v-356q0 -32 8 -41t46 -9v-94h-181l-5 71h-2l-49 -67q-27 -14 -64 -14q-30 0 -51 12v-222h-132v576q0 32 -8 41t-46 9v94h186v-338q0 -68 66 -68q44 0 100 35v227q0 32 -8 41t-47 9v94h187z" />
    <glyph glyph-name="pi" unicode="&#x3c0;" 
d="M219 402v-258q0 -32 8 -41t47 -9v-94h-242v94q39 0 47 9t8 41v214q0 31 -8.5 39.5t-46.5 8.5v94h539v-94q-38 0 -46 -9t-8 -41v-212q0 -32 8 -41t46 -9v-94h-187v402h-165z" />
    <glyph glyph-name="Wgrave" unicode="&#x1e80;" horiz-adv-x="938" 
d="M501 770l-140 51q-39 14 -39 49q0 18 13 30t33 12q19 0 48 -21l106 -80zM928 720v-94q-26 0 -37 -6.5t-15 -23.5l-142 -601h-181l-85 406l-86 -406h-182l-138 602q-4 18 -14.5 23.5t-36.5 5.5v94h167l88 -421q24 -118 28 -145h2q6 32 29 145l86 421h129l82 -421
q22 -118 26 -145h2q5 29 16 82.5t13 62.5l92 421h157z" />
    <glyph glyph-name="wgrave" unicode="&#x1e81;" horiz-adv-x="818" 
d="M440 550l-140 51q-39 14 -39 49q0 18 13 30t33 12q19 0 48 -21l106 -80zM811 500v-94q-30 0 -41.5 -6t-16.5 -24l-107 -381h-170l-66 305l-80 -305h-170l-88 381q-4 18 -15.5 24t-39.5 6v94h161l76 -369h2l89 369h145l73 -369h2l91 369h155z" />
    <glyph glyph-name="Wacute" unicode="&#x1e82;" horiz-adv-x="938" 
d="M432 811l106 80q29 21 48 21q20 0 33 -12t13 -30q0 -34 -39 -49l-141 -51zM928 720v-94q-26 0 -37 -6.5t-15 -23.5l-142 -601h-181l-85 406l-86 -406h-182l-138 602q-4 18 -14.5 23.5t-36.5 5.5v94h167l88 -421q24 -118 28 -145h2q6 32 29 145l86 421h129l82 -421
q22 -118 26 -145h2q5 29 16 82.5t13 62.5l92 421h157z" />
    <glyph glyph-name="wacute" unicode="&#x1e83;" horiz-adv-x="818" 
d="M371 591l106 80q29 21 48 21q20 0 33 -12t13 -30q0 -34 -39 -49l-141 -51zM811 500v-94q-30 0 -41.5 -6t-16.5 -24l-107 -381h-170l-66 305l-80 -305h-170l-88 381q-4 18 -15.5 24t-39.5 6v94h161l76 -369h2l89 369h145l73 -369h2l91 369h155z" />
    <glyph glyph-name="Wdieresis" unicode="&#x1e84;" horiz-adv-x="938" 
d="M313 850q0 28 19 44.5t48 16.5t48.5 -16.5t19.5 -44.5t-19.5 -45t-48.5 -17t-48 17t-19 45zM500 850q0 28 19.5 44.5t48.5 16.5t48 -16.5t19 -44.5t-19 -45t-48 -17t-48.5 17t-19.5 45zM928 720v-94q-26 0 -37 -6.5t-15 -23.5l-142 -601h-181l-85 406l-86 -406h-182
l-138 602q-4 18 -14.5 23.5t-36.5 5.5v94h167l88 -421q24 -118 28 -145h2q6 32 29 145l86 421h129l82 -421q22 -118 26 -145h2q5 29 16 82.5t13 62.5l92 421h157z" />
    <glyph glyph-name="wdieresis" unicode="&#x1e85;" horiz-adv-x="818" 
d="M252 630q0 28 19 44.5t48 16.5t48.5 -16.5t19.5 -44.5t-19.5 -45t-48.5 -17t-48 17t-19 45zM439 630q0 28 19.5 44.5t48.5 16.5t48 -16.5t19 -44.5t-19 -45t-48 -17t-48.5 17t-19.5 45zM811 500v-94q-30 0 -41.5 -6t-16.5 -24l-107 -381h-170l-66 305l-80 -305h-170
l-88 381q-4 18 -15.5 24t-39.5 6v94h161l76 -369h2l89 369h145l73 -369h2l91 369h155z" />
    <glyph glyph-name="Ygrave" unicode="&#x1ef2;" horiz-adv-x="586" 
d="M324 770l-140 51q-39 14 -39 49q0 18 13 30t33 12q19 0 48 -21l106 -80zM577 720v-94q-27 0 -38.5 -7.5t-22.5 -33.5l-154 -350v-91q0 -32 8.5 -41t50.5 -9v-94h-258v94q42 0 50.5 9t8.5 41v94l-154 358q-9 19 -19.5 24.5t-36.5 5.5v94h148l91 -216q24 -59 46 -121h2
q15 46 45 121l92 216h141z" />
    <glyph glyph-name="ygrave" unicode="&#x1ef3;" horiz-adv-x="545" 
d="M303 550l-140 51q-39 14 -39 49q0 18 13 30t33 12q19 0 48 -21l106 -80zM535 500v-94q-31 0 -42 -6t-17 -27l-79 -243q-60 -193 -179 -350h-147v10q67 79 126 196l-123 382q-8 24 -18.5 31t-41.5 7v94h159l104 -368h2l102 368h154z" />
    <glyph glyph-name="figuredash" unicode="&#x2012;" horiz-adv-x="530" 
d="M49 241v80h433v-80h-433z" />
    <glyph glyph-name="endash" unicode="&#x2013;" horiz-adv-x="634" 
d="M49 241v80h536v-80h-536z" />
    <glyph glyph-name="emdash" unicode="&#x2014;" horiz-adv-x="834" 
d="M49 241v80h736v-80h-736z" />
    <glyph glyph-name="quoteleft" unicode="&#x2018;" horiz-adv-x="205" 
d="M162 718l-49 -115q19 0 36.5 -17.5t17.5 -45.5q0 -26 -18.5 -44.5t-46.5 -18.5q-33 0 -51 22t-18 53q0 25 12.5 56t23 49.5t37.5 60.5h56z" />
    <glyph glyph-name="quoteright" unicode="&#x2019;" horiz-adv-x="206" 
d="M47 487l48 115q-20 0 -37 17t-17 46q0 26 19 44.5t47 18.5q33 0 51 -22.5t18 -52.5q0 -25 -12.5 -56.5t-22.5 -48.5t-38 -61h-56z" />
    <glyph glyph-name="quotesinglbase" unicode="&#x201a;" horiz-adv-x="215" 
d="M46 -125l48 115q-20 0 -37 17t-17 46q0 26 19 44.5t47 18.5q33 0 51 -22t18 -53q0 -25 -12.5 -56.5t-22.5 -48.5t-38 -61h-56z" />
    <glyph glyph-name="quotedblleft" unicode="&#x201c;" horiz-adv-x="395" 
d="M162 718l-49 -115q19 0 36.5 -17.5t17.5 -45.5q0 -26 -18.5 -44.5t-46.5 -18.5q-33 0 -51 22t-18 53q0 25 12.5 56t23 49.5t37.5 60.5h56zM353 718l-48 -115q19 0 36.5 -17.5t17.5 -45.5q0 -26 -19 -44.5t-47 -18.5q-33 0 -51 22t-18 53q0 25 12.5 56t23 49.5t37.5 60.5
h56z" />
    <glyph glyph-name="quotedblright" unicode="&#x201d;" horiz-adv-x="397" 
d="M47 487l48 115q-20 0 -37 17t-17 46q0 26 19 44.5t47 18.5q33 0 51 -22.5t18 -52.5q0 -25 -12.5 -56.5t-22.5 -48.5t-38 -61h-56zM238 487l49 115q-20 0 -37 17t-17 46q0 27 18.5 45t46.5 18q33 0 51 -22.5t18 -52.5q0 -25 -12.5 -56.5t-22.5 -48.5t-38 -61h-56z" />
    <glyph glyph-name="quotedblbase" unicode="&#x201e;" horiz-adv-x="407" 
d="M46 -125l48 115q-20 0 -37 17t-17 46q0 26 19 44.5t47 18.5q33 0 51 -22t18 -53q0 -25 -12.5 -56.5t-22.5 -48.5t-38 -61h-56zM237 -125l49 115q-20 0 -37 17t-17 46q0 27 18.5 45t46.5 18q33 0 51 -22t18 -53q0 -25 -12.5 -56.5t-22.5 -48.5t-38 -61h-56z" />
    <glyph glyph-name="dagger" unicode="&#x2020;" horiz-adv-x="550" 
d="M304 421l31 -421h-117l30 421l-219 -30v122l217 -25l-28 232h117l-29 -232l215 25v-122z" />
    <glyph glyph-name="daggerdbl" unicode="&#x2021;" horiz-adv-x="575" 
d="M317 481l30 -121l-30 -121l216 30v-122l-214 25l28 -232h-117l29 232l-218 -25v122l220 -30l-31 121l31 121l-220 -30v122l218 -25l-29 232h117l-28 -232l214 25v-122z" />
    <glyph glyph-name="bullet" unicode="&#x2022;" horiz-adv-x="326" 
d="M66 232q0 43 28.5 71t68.5 28t68.5 -28t28.5 -71t-28.5 -70.5t-68.5 -27.5q-41 0 -69 27.5t-28 70.5z" />
    <glyph glyph-name="onedotenleader" unicode="&#x2024;" horiz-adv-x="202" 
d="M39 53q0 25 18 43.5t44 18.5q25 0 43.5 -18.5t18.5 -43.5q0 -26 -18 -44.5t-44 -18.5t-44 18.5t-18 44.5z" />
    <glyph glyph-name="ellipsis" unicode="&#x2026;" horiz-adv-x="587" 
d="M39 53q0 25 18 43.5t44 18.5q25 0 43.5 -18.5t18.5 -43.5q0 -26 -18 -44.5t-44 -18.5t-44 18.5t-18 44.5zM231 53q0 25 18.5 43.5t44.5 18.5q25 0 43 -18.5t18 -43.5q0 -26 -18 -44.5t-43 -18.5q-26 0 -44.5 18.5t-18.5 44.5zM423 53q0 25 18.5 43.5t44.5 18.5
q25 0 43 -18.5t18 -43.5q0 -26 -18 -44.5t-43 -18.5q-26 0 -44.5 18.5t-18.5 44.5z" />
    <glyph glyph-name="perthousand" unicode="&#x2030;" horiz-adv-x="1062" 
d="M162 357q-72 0 -102.5 48t-30.5 139q0 90 30.5 135.5t102.5 45.5q73 0 103.5 -46t30.5 -135q0 -91 -31 -139t-103 -48zM533 720h109l-237 -345l-54 17zM162 668q-35 0 -48 -27.5t-13 -96.5t13 -99.5t48 -30.5t48 30.5t13 99.5t-13 96.5t-48 27.5zM570 -5q-73 0 -103.5 48
t-30.5 139q0 90 30.5 135.5t103.5 45.5t103.5 -46t30.5 -135q0 -91 -31 -139t-103 -48zM901 -5q-72 0 -102.5 48t-30.5 139q0 90 30.5 135.5t102.5 45.5q73 0 103.5 -46t30.5 -135q0 -91 -31 -139t-103 -48zM194 0h-109l241 353l55 -17zM570 306q-35 0 -48 -27.5t-13 -96.5
t13 -99.5t48 -30.5t48 30.5t13 99.5t-13 96.5t-48 27.5zM901 306q-35 0 -48 -27.5t-13 -96.5t13 -99.5t48 -30.5q36 0 49 30t13 100q0 69 -13 96.5t-49 27.5z" />
    <glyph glyph-name="guilsinglleft" unicode="&#x2039;" horiz-adv-x="314" 
d="M278 131l-55 -56l-190 169v52l190 169l55 -56l-130 -139z" />
    <glyph glyph-name="guilsinglright" unicode="&#x203a;" horiz-adv-x="314" 
d="M35 409l55 56l190 -169v-52l-190 -169l-55 56l130 139z" />
    <glyph glyph-name="exclamdbl" unicode="&#x203c;" horiz-adv-x="461" 
d="M58 720h142l-32 -541h-78zM261 720h142l-32 -541h-78zM69 53q0 25 18 43.5t44 18.5q25 0 43 -18.5t18 -43.5q0 -26 -18 -44.5t-43 -18.5q-26 0 -44 18.5t-18 44.5zM272 53q0 25 18 43.5t44 18.5q25 0 43 -18.5t18 -43.5q0 -26 -18 -44.5t-43 -18.5q-26 0 -44 18.5
t-18 44.5z" />
    <glyph glyph-name="fraction" unicode="&#x2044;" horiz-adv-x="182" 
d="M260 720h109l-235 -345l-56 17zM-79 0h-108l241 353l56 -17z" />
    <glyph glyph-name="colonsign" unicode="&#x20a1;" horiz-adv-x="586" 
d="M338 104q115 0 212 58l-10 -124q-102 -48 -202 -48q-157 0 -228 93t-71 277t70.5 277t229.5 93q99 0 201 -48v-118q-26 14 -55 25l-213 -473q28 -12 66 -12zM360 615l-21 1q-90 0 -123 -63t-33 -193q0 -72 8 -116zM236 142l208 460q-3 1 -38 9l-195 -432q9 -21 25 -37z
" />
    <glyph glyph-name="uni20A8" unicode="&#x20a8;" horiz-adv-x="527" 
d="M491 654h-109q44 -44 52 -120h57v-66h-57q-12 -122 -115 -161v-7q57 -20 82 -100l58 -190v-10h-151l-72 221q-11 32 -27 45t-56 13h-110v117h138q94 0 108 72h-246v66h246q-16 69 -108 69h-138v117h448v-66z" />
    <glyph glyph-name="Euro" unicode="&#x20ac;" horiz-adv-x="647" 
d="M395 104q115 0 212 58l-10 -124q-101 -48 -202 -48q-131 0 -201.5 64.5t-89.5 191.5h-72v80h65l-1 34q0 26 1 39h-65v80h72q20 125 91 188t202 63q102 0 200 -49v-136h-80q0 71 -120 71q-67 0 -101.5 -34.5t-46.5 -102.5h196v-80h-204l-1 -39q0 -23 1 -34h204v-80h-197
q12 -70 46.5 -106t100.5 -36z" />
    <glyph glyph-name="uni2113" unicode="&#x2113;" horiz-adv-x="347" 
d="M83 266v243q0 88 31 144.5t93 56.5q38 0 61 -27t23 -72q0 -62 -36 -130.5t-105 -157.5v-168q0 -135 74 -135q69 0 103 132h16q-15 -72 -50 -117t-88 -45q-38 0 -63.5 15.5t-37.5 46t-16.5 61.5t-4.5 74v52l-72 -83l-11 11zM150 543v-193q118 154 118 242q0 41 -16.5 65
t-41.5 24q-35 0 -47.5 -37t-12.5 -101z" />
    <glyph glyph-name="uni2116" unicode="&#x2116;" horiz-adv-x="1054" 
d="M860 391q-73 0 -111 44.5t-38 125.5q0 80 38 124.5t111 44.5q72 0 110 -44.5t38 -124.5q0 -81 -38 -125.5t-110 -44.5zM673 720v-94q-42 0 -50.5 -9t-8.5 -41v-576h-141l-242 458h-5q8 -91 8 -214v-244h-191v94q42 0 50.5 9t8.5 41v432q0 32 -8.5 41t-50.5 9v94h200
l241 -458h5q-8 91 -8 214v244h192zM860 680q-74 0 -74 -119q0 -120 74 -120q41 0 57.5 30.5t16.5 89.5t-17 89t-57 30zM1019 336v-52h-315v52h315z" />
    <glyph glyph-name="trademark" unicode="&#x2122;" horiz-adv-x="773" 
d="M145 324v332h-93v64h263v-64h-93v-332h-77zM636 324v136q0 68 4 118h-3l-78 -254h-51l-78 254h-2q4 -50 4 -118v-136h-71v396h102l55 -184q9 -29 18 -70h2l7.5 34t8.5 36l54 184h102v-396h-74z" />
    <glyph glyph-name="estimated" unicode="&#x212e;" horiz-adv-x="664" 
d="M170 349v-235q69 -78 167 -78q143 0 222 157l40 -26q-57 -92 -116 -134.5t-146 -42.5q-133 0 -216 104.5t-83 254.5q0 157 84 259t215 102q126 0 208.5 -98t89.5 -263h-465zM505 397v189q-72 77 -169 77q-100 0 -166 -77v-189h335z" />
    <glyph glyph-name="oneeighth" unicode="&#x215b;" horiz-adv-x="768" 
d="M82 290v366h-60v54l91 15h45v-435h-76zM477 720h109l-235 -345l-56 17zM582 438q74 0 108.5 -28.5t34.5 -68.5q0 -57 -59 -92l-46 26q29 24 29 58q0 20 -17.5 32.5t-41.5 12.5q-28 0 -44.5 -14t-16.5 -36q0 -23 21 -41.5t51.5 -33.5t60.5 -32t51 -44.5t21 -63.5
q0 -55 -41.5 -87t-110.5 -32q-76 0 -113 29t-37 72q0 60 64 94l45 -26q-32 -26 -32 -59q0 -21 18.5 -35.5t50.5 -14.5q31 0 50 15t19 40q0 21 -21 39t-51.5 32.5t-61 32t-51.5 46t-21 65.5q0 53 37.5 83.5t103.5 30.5zM138 0h-108l241 353l56 -17z" />
    <glyph glyph-name="threeeighths" unicode="&#x215c;" horiz-adv-x="898" 
d="M162 725q66 0 104.5 -30.5t38.5 -79.5q0 -84 -89 -103v-3q46 -8 71.5 -34.5t25.5 -70.5q0 -61 -41.5 -92t-112.5 -31q-69 0 -127 28v67q56 -33 116 -33q40 0 63.5 17t23.5 50q0 68 -104 68h-43v57h43q41 0 69.5 16.5t28.5 51.5q0 60 -78 60q-50 0 -110 -31v65
q54 28 121 28zM607 720h109l-235 -345l-56 17zM711 438q74 0 108.5 -28.5t34.5 -68.5q0 -57 -59 -92l-46 26q29 24 29 58q0 20 -17.5 32.5t-41.5 12.5q-28 0 -44.5 -14t-16.5 -36q0 -23 21 -41.5t51 -33.5t60.5 -32t51.5 -44.5t21 -63.5q0 -55 -41.5 -87t-110.5 -32
q-76 0 -113 29t-37 72q0 60 64 94l45 -26q-32 -26 -32 -59q0 -21 18.5 -35.5t50.5 -14.5q31 0 50 15t19 40q0 21 -21 39t-51.5 32.5t-61 32t-51.5 46t-21 65.5q0 53 37.5 83.5t103.5 30.5zM268 0h-108l241 353l56 -17z" />
    <glyph glyph-name="fiveeighths" unicode="&#x215d;" horiz-adv-x="886" 
d="M109 656v-96q24 6 49 6q65 0 108 -34t43 -104q0 -69 -40.5 -107.5t-110.5 -38.5q-69 0 -124 28v67q61 -33 108 -33q88 0 88 79t-96 79q-38 0 -85 -12v230h245v-64h-185zM595 720h109l-235 -345l-56 17zM700 438q74 0 108.5 -28.5t34.5 -68.5q0 -57 -59 -92l-46 26
q29 24 29 58q0 20 -17.5 32.5t-41.5 12.5q-28 0 -44.5 -14t-16.5 -36q0 -23 21 -41.5t51.5 -33.5t60.5 -32t51 -44.5t21 -63.5q0 -55 -41.5 -87t-110.5 -32q-76 0 -113 29t-37 72q0 60 64 94l45 -26q-32 -26 -32 -59q0 -21 18.5 -35.5t50.5 -14.5q31 0 50 15t19 40
q0 21 -21 39t-51.5 32.5t-61 32t-51.5 46t-21 65.5q0 53 37.5 83.5t103.5 30.5zM256 0h-108l241 353l56 -17z" />
    <glyph glyph-name="seveneighths" unicode="&#x215e;" horiz-adv-x="844" 
d="M172 288h-92q0 97 40.5 193t114.5 175h-211v64h278v-56q-61 -78 -95.5 -178.5t-34.5 -197.5zM554 720h109l-235 -345l-56 17zM658 438q74 0 108.5 -28.5t34.5 -68.5q0 -57 -59 -92l-46 26q29 24 29 58q0 20 -17.5 32.5t-41.5 12.5q-28 0 -44.5 -14t-16.5 -36
q0 -23 21 -41.5t51.5 -33.5t60.5 -32t51 -44.5t21 -63.5q0 -55 -41.5 -87t-110.5 -32q-76 0 -113 29t-37 72q0 60 64 94l45 -26q-32 -26 -32 -59q0 -21 18.5 -35.5t50.5 -14.5q31 0 50 15t19 40q0 21 -21 39t-51.5 32.5t-61 32t-51.5 46t-21 65.5q0 53 37.5 83.5t103.5 30.5
zM215 0h-108l241 353l56 -17z" />
    <glyph glyph-name="partialdiff" unicode="&#x2202;" horiz-adv-x="531" 
d="M155 720h124q95 -41 157 -135.5t62 -219.5q0 -46 -6.5 -92t-26 -98.5t-49.5 -92t-83 -66t-121 -26.5q-100 0 -148 52.5t-48 141.5q0 38 7 75.5t25 76.5t45.5 68t72.5 47.5t101 18.5q48 0 91 -15q-41 162 -203 265zM224 78q46 0 77 29t44.5 77t18.5 89t5 87v14
q-41 15 -82 15q-43 0 -73.5 -21t-44.5 -55t-19.5 -65.5t-5.5 -64.5q0 -105 80 -105z" />
    <glyph glyph-name="product" unicode="&#x220f;" horiz-adv-x="717" 
d="M614 576v-432q0 -32 8.5 -41t50.5 -9v-94h-258v94q42 0 50.5 9t8.5 41v459h-231v-459q0 -32 8.5 -41t49.5 -9v-94h-257v94q42 0 50.5 9t8.5 41v432q0 32 -8.5 41t-50.5 9v94h629v-94q-42 0 -50.5 -9t-8.5 -41z" />
    <glyph glyph-name="summation" unicode="&#x2211;" horiz-adv-x="531" 
d="M479 0h-438v103l147 257l-147 257v103h446v-175h-80q0 41 -9 49.5t-42 8.5h-149l140 -243l-140 -243h136q34 0 46.5 9t19.5 49h80z" />
    <glyph glyph-name="minus" unicode="&#x2212;" horiz-adv-x="438" 
d="M51 225v80h336v-80h-336z" />
    <glyph glyph-name="radical" unicode="&#x221a;" horiz-adv-x="702" 
d="M422 -1h-133l-151 376h-111v80h213l142 -364l242 629h79z" />
    <glyph glyph-name="infinity" unicode="&#x221e;" horiz-adv-x="972" 
d="M763 85q-82 0 -158.5 37.5t-119.5 83.5q-42 -46 -118.5 -83.5t-157.5 -37.5q-76 0 -125 46t-49 114t49 114t125 46q81 0 157.5 -37.5t118.5 -82.5q43 46 119.5 83t158.5 37q76 0 124.5 -46t48.5 -114t-48.5 -114t-124.5 -46zM438 245q-39 37 -96.5 66.5t-122.5 29.5
q-49 0 -79.5 -26t-30.5 -70t30.5 -70.5t79.5 -26.5q65 0 123 30t96 67zM531 246q106 -98 222 -98q49 0 79 26.5t30 70.5t-30 70t-79 26q-66 0 -125 -29.5t-97 -65.5z" />
    <glyph glyph-name="integral" unicode="&#x222b;" horiz-adv-x="522" 
d="M159 -4l75 531q7 50 24 85.5t40 56t59.5 32.5t72.5 15.5t88 3.5l-14 -105l-8 -5q-27 8 -62 8q-63 0 -73 -74l-75 -531q-7 -50 -24 -85.5t-40 -56t-59.5 -32.5t-72.5 -15.5t-88 -3.5l14 105l8 5q27 -8 62 -8q61 0 73 74z" />
    <glyph glyph-name="approxequal" unicode="&#x2248;" horiz-adv-x="444" 
d="M114 298h-63q1 59 29.5 95.5t72.5 36.5q31 0 78 -24t64 -24q35 0 40 44h60q-6 -133 -89 -133q-28 0 -81 24.5t-69 24.5q-18 0 -28 -9.5t-14 -34.5zM114 132h-63q1 59 29.5 95.5t72.5 36.5q31 0 78 -24.5t64 -24.5q35 0 40 44h60q-6 -132 -89 -132q-28 0 -80.5 24
t-69.5 24q-18 0 -28 -9.5t-14 -33.5z" />
    <glyph glyph-name="notequal" unicode="&#x2260;" horiz-adv-x="487" 
d="M289 302l-24 -74h147v-80h-173l-61 -188h-67l61 188h-96v80h122l24 74h-146v80h172l65 198h67l-65 -198h97v-80h-123z" />
    <glyph glyph-name="lessequal" unicode="&#x2264;" horiz-adv-x="424" 
d="M371 207v-82l-323 121v88l323 121v-82l-220 -83zM48 28v73h324v-73h-324z" />
    <glyph glyph-name="greaterequal" unicode="&#x2265;" horiz-adv-x="424" 
d="M53 373v82l323 -121v-88l-323 -121v82l221 83zM376 101v-73h-324v73h324z" />
    <glyph glyph-name="lozenge" unicode="&#x25ca;" horiz-adv-x="445" 
d="M212 730h21l187 -366l-187 -374h-21l-188 374zM322 364l-100 203l-100 -203l100 -211z" />
    <glyph glyph-name="A.ss01" horiz-adv-x="839" 
d="M707 -10l-234 234q-68 -44 -148 -44q-114 0 -194.5 80.5t-80.5 194.5t80.5 194.5t194.5 80.5t194.5 -80.5t80.5 -194.5q0 -79 -44 -149l233 -233zM325 297q65 0 111.5 46.5t46.5 111.5t-46.5 111.5t-111.5 46.5t-111.5 -46.5t-46.5 -111.5t46.5 -111.5t111.5 -46.5z" />
    <glyph glyph-name="B.ss01" horiz-adv-x="840" 
d="M420 730q153 0 261.5 -108.5t108.5 -261.5t-108.5 -261.5t-261.5 -108.5q-154 0 -262 108.5t-108 261.5t108 261.5t262 108.5zM288 575l346 -346q39 58 39 131q0 105 -74 179t-179 74q-72 0 -132 -38zM551 146l-346 346q-38 -60 -38 -132q0 -105 73.5 -179t179.5 -74
q73 0 131 39z" />
    <glyph glyph-name="C.ss01" horiz-adv-x="840" 
d="M479 720v-360h-118v360h118zM159 622l82 -84q-74 -72 -74 -178q0 -105 73.5 -179t179.5 -74q105 0 179 74t74 179t-74 179l82 83q109 -109 109 -262t-108.5 -261.5t-261.5 -108.5q-154 0 -262 108.5t-108 261.5q0 155 109 262z" />
    <glyph glyph-name="D.ss01" horiz-adv-x="840" 
d="M420 -10q-154 0 -262 108.5t-108 261.5t108 261.5t262 108.5q153 0 261.5 -108.5t108.5 -261.5t-108.5 -261.5t-261.5 -108.5zM420 107q105 0 179 74t74 179t-74 179t-179 74q-106 0 -179.5 -74t-73.5 -179t73.5 -179t179.5 -74zM276 504l202 -86l86 -202l-202 86z" />
    <glyph glyph-name="E.ss01" horiz-adv-x="820" 
d="M454 720v-187h-88v187h88zM124 583l63 63l132 -132l-63 -63zM633 646l63 -63l-132 -132l-63 63zM50 316v88h187v-88h-187zM770 404v-88h-187v88h187zM187 74l-63 63l132 132l63 -63zM696 137l-63 -63l-132 132l63 63zM366 0v187h88v-187h-88z" />
    <glyph glyph-name="F.ss01" horiz-adv-x="860" 
d="M610 730q83 0 141.5 -58.5t58.5 -141.5q0 -76 -38 -158.5t-90 -146t-110 -118.5t-95 -83.5t-47 -33.5q-10 5 -47 33.5t-95 83.5t-110 118.5t-90 146t-38 158.5q0 82 59 141t141 59q59 0 107.5 -31t72.5 -82q25 51 73.5 82t106.5 31z" />
    <glyph glyph-name="G.ss01" horiz-adv-x="840" 
d="M420 -10q-154 0 -262 108.5t-108 261.5t108 261.5t262 108.5q153 0 261.5 -108.5t108.5 -261.5t-108.5 -261.5t-261.5 -108.5zM420 107q105 0 179 74t74 179t-74 179t-179 74q-106 0 -179.5 -74t-73.5 -179t73.5 -179t179.5 -74zM420 167q81 0 137 56t56 137t-56 137
t-137 56t-137 -56t-56 -137t56 -137t137 -56z" />
    <glyph glyph-name="H.ss01" horiz-adv-x="650" 
d="M325 -10q-133 141 -204 251t-71 214q0 114 81 194.5t194 80.5q114 0 194.5 -80.5t80.5 -194.5q0 -105 -71 -215t-204 -250zM325 153q158 191 158 302q0 65 -46.5 111.5t-111.5 46.5t-111.5 -46.5t-46.5 -111.5q0 -110 158 -302z" />
    <glyph glyph-name="I.ss01" horiz-adv-x="650" 
d="M325 -10q-133 141 -204 251t-71 214q0 114 81 194.5t194 80.5q114 0 194.5 -80.5t80.5 -194.5q0 -105 -71 -215t-204 -250zM325 298q65 0 111.5 46t46.5 112q0 65 -46.5 111t-111.5 46t-111 -46t-46 -111q0 -66 46 -112t111 -46z" />
    <glyph glyph-name="J.ss01" horiz-adv-x="840" 
d="M420 -10q153 0 261.5 108.5t108.5 261.5t-108.5 261.5t-261.5 108.5q-154 0 -262 -108.5t-108 -261.5t108 -261.5t262 -108.5zM420 650l233 -466h-466zM376 490h88l-10 -176h-68zM379 251q0 16 12 28t29 12q16 0 27.5 -11.5t11.5 -28.5t-11.5 -29.5t-27.5 -12.5
t-28.5 12.5t-12.5 29.5z" />
    <glyph glyph-name="K.ss01" horiz-adv-x="950" 
d="M320 480h-76v-363h395l62 -117h-573v480h-78l135 250zM630 239h76v362h-395l-62 119h573v-481h78l-135 -250z" />
    <glyph glyph-name="L.ss01" horiz-adv-x="840" 
d="M460 400v330q137 0 233.5 -96.5t96.5 -233.5h-330zM380 -10q-136 0 -233 97t-97 233t97 233t233 97v-330h330q0 -137 -96.5 -233.5t-233.5 -96.5z" />
    <glyph glyph-name="M.ss01" horiz-adv-x="820" 
d="M415 720v-117h-166l167 -167l-82 -82l-167 166v-165h-117v365h365zM405 0v117h166l-167 167l82 82l167 -166v165h117v-365h-365z" />
    <glyph glyph-name="N.ss01" horiz-adv-x="820" 
d="M653 355v165l-167 -166l-82 82l167 167h-166v117h365v-365h-117zM167 365v-165l167 166l82 -82l-167 -167h166v-117h-365v365h117z" />
    <glyph glyph-name="O.ss01" horiz-adv-x="820" 
d="M365 720v-117h-116l137 -137l-82 -82l-137 136v-115h-117v315h315zM653 405v115l-137 -136l-82 82l137 137h-116v117h315v-315h-117zM167 315v-115l137 136l82 -82l-137 -137h116v-117h-315v315h117zM455 0v117h116l-137 137l82 82l137 -136v115h117v-315h-315z" />
    <glyph glyph-name="P.ss01" horiz-adv-x="834" 
d="M57 405v117h116l-123 122l83 83l122 -123v116h117v-315h-315zM580 720v-116l121 123l83 -83l-123 -122h116v-117h-315v315h118zM255 0v116l-122 -123l-83 90l123 115h-116v117h315v-315h-117zM777 315v-117h-116l123 -122l-83 -83l-121 123v-116h-118v315h315z" />
    <glyph glyph-name="Q.ss01" horiz-adv-x="840" 
d="M420 730q153 0 261.5 -108.5t108.5 -261.5t-108.5 -261.5t-261.5 -108.5q-154 0 -262 108.5t-108 261.5t108 261.5t262 108.5zM479 235v-120q69 16 120 66.5t66 119.5h-119v118h119q-15 69 -66 119.5t-120 66.5v-119h-117v119q-70 -15 -121 -66t-66 -120h119v-118h-119
q15 -69 66 -120t121 -66v120h117z" />
    <glyph glyph-name="R.ss01" horiz-adv-x="830" 
d="M50 360l730 370v-740zM309 360l354 -179v358z" />
    <glyph glyph-name="S.ss01" horiz-adv-x="830" 
d="M780 360l-730 -370v740zM521 360l-354 179v-358z" />
    <glyph glyph-name="T.ss01" horiz-adv-x="830" 
d="M50 360l730 370v-740z" />
    <glyph glyph-name="U.ss01" horiz-adv-x="830" 
d="M780 360l-730 -370v740z" />
    <glyph glyph-name="V.ss01" horiz-adv-x="820" 
d="M261 0l-211 211v298l211 211h298l211 -211v-298l-211 -211h-298zM653 260v200l-143 143h-200l-143 -143v-200l143 -143h200z" />
    <glyph glyph-name="W.ss01" horiz-adv-x="820" 
d="M261 0l-211 211v298l211 211h298l211 -211v-298l-211 -211h-298z" />
    <glyph glyph-name="X.ss01" horiz-adv-x="840" 
d="M420 -10q-154 0 -262 108.5t-108 261.5t108 261.5t262 108.5q153 0 261.5 -108.5t108.5 -261.5t-108.5 -261.5t-261.5 -108.5zM420 107q105 0 179 74t74 179h-253v253q-106 0 -179.5 -74t-73.5 -179t73.5 -179t179.5 -74z" />
    <glyph glyph-name="Y.ss01" horiz-adv-x="840" 
d="M420 -10q-154 0 -262 108.5t-108 261.5t108 261.5t262 108.5q153 0 261.5 -108.5t108.5 -261.5t-108.5 -261.5t-261.5 -108.5zM420 107v506q-106 0 -179.5 -74t-73.5 -179t73.5 -179t179.5 -74z" />
    <glyph glyph-name="Z.ss01" horiz-adv-x="840" 
d="M420 -10q-154 0 -262 108.5t-108 261.5t108 261.5t262 108.5q153 0 261.5 -108.5t108.5 -261.5t-108.5 -261.5t-261.5 -108.5zM420 360v253q-106 0 -179.5 -74t-73.5 -179h253z" />
    <glyph glyph-name="zero.lf" horiz-adv-x="617" 
d="M309 -10q-144 0 -207 96t-63 279q0 181 62.5 273t207.5 92q144 0 206.5 -92t62.5 -273q0 -183 -62.5 -279t-206.5 -96zM309 616q-72 0 -99 -58t-27 -193q0 -137 27.5 -199t98.5 -62t98 62t27 199q0 136 -27 193.5t-98 57.5z" />
    <glyph glyph-name="one.lf" horiz-adv-x="398" 
d="M279 725v-582q0 -23 4 -31t25 -13t71 -5v-94h-340v94q50 0 71 5t25 13t4 31v464h-100v93l155 25h85z" />
    <glyph glyph-name="two.lf" horiz-adv-x="549" 
d="M509 117l-10 -117h-463v117q163 114 242.5 204.5t79.5 176.5q0 64 -33 91t-84 27q-107 0 -107 -71h-80v136q55 28 100.5 38.5t108.5 10.5q113 0 178 -53.5t65 -170.5q0 -53 -17.5 -101t-42.5 -84t-68.5 -74t-81 -64.5t-94.5 -61.5v-4h307z" />
    <glyph glyph-name="three.lf" horiz-adv-x="559" 
d="M377 209q0 105 -167 105h-76v103h76q68 0 113 26t45 80q0 93 -123 93q-112 0 -112 -71h-80v136q97 49 213 49q112 0 177 -50t65 -135q0 -66 -38.5 -110t-109.5 -60v-4q77 -14 118.5 -58t41.5 -116q0 -102 -70.5 -154.5t-191.5 -52.5q-53 0 -113.5 13.5t-103.5 34.5v122
q93 -56 195 -56q65 0 103 26.5t38 78.5z" />
    <glyph glyph-name="four.lf" horiz-adv-x="583" 
d="M553 131h-75v-131h-140v131h-315v125l328 469h127v-476h75v-118zM338 249v244l-171 -244h171z" />
    <glyph glyph-name="five.lf" horiz-adv-x="537" 
d="M173 603v-145q42 8 79 8q108 0 180.5 -57t72.5 -173q0 -117 -68 -181.5t-185 -64.5t-213 48v122q98 -56 180 -56q142 0 142 122q0 125 -154 125q-60 0 -143 -20v389h416v-117h-307z" />
    <glyph glyph-name="six.lf" horiz-adv-x="582" 
d="M321 730q103 0 201 -49v-136h-80q0 71 -100 71q-90 0 -123 -67.5t-33 -229.5q0 -109 25 -162t89 -53q103 0 103 133q0 68 -28 101t-92 33q-36 0 -61 -10l6 84q40 22 97 22q107 0 164.5 -62.5t57.5 -167.5q0 -108 -65.5 -177.5t-184.5 -69.5q-258 0 -258 340
q0 400 282 400z" />
    <glyph glyph-name="seven.lf" horiz-adv-x="515" 
d="M501 720v-103q-101 -124 -157.5 -294t-56.5 -323h-168q0 151 68.5 314.5t190.5 288.5h-221q-33 0 -41.5 -8.5t-8.5 -49.5h-80v175h474z" />
    <glyph glyph-name="eight.lf" horiz-adv-x="587" 
d="M293 730q126 0 184 -47.5t58 -114.5q0 -94 -97 -150l-83 46q43 38 43 88q0 31 -27.5 49.5t-64.5 18.5q-43 0 -68.5 -21.5t-25.5 -54.5q0 -36 35 -66t84.5 -54.5t99 -53t84.5 -74t35 -104.5q0 -93 -70.5 -147.5t-188.5 -54.5q-130 0 -192.5 48.5t-62.5 119.5q0 96 106 151
l81 -45q-45 -41 -45 -88q0 -32 28.5 -54t76.5 -22t77 22t29 62q0 32 -35 60t-84.5 53t-99 54t-84.5 77t-35 108q0 90 64 142t178 52z" />
    <glyph glyph-name="nine.lf" horiz-adv-x="582" 
d="M260 -10q-103 0 -201 49v136h80q0 -71 101 -71q89 0 122 67.5t33 229.5q0 109 -24.5 162t-88.5 53q-104 0 -104 -133q0 -68 28 -101t93 -33q35 0 60 10l-5 -84q-42 -22 -97 -22q-108 0 -165 62t-57 168q0 108 65 177.5t184 69.5q258 0 258 -340q0 -400 -282 -400z" />
    <glyph glyph-name="zero.osf" horiz-adv-x="609" 
d="M305 -10q-141 0 -205 78.5t-64 206.5q0 127 63.5 201t205.5 74t205.5 -74t63.5 -201q0 -128 -64 -206.5t-205 -78.5zM305 436q-70 0 -98 -40.5t-28 -120.5q0 -82 28.5 -126.5t97.5 -44.5t97.5 44.5t28.5 126.5q0 80 -28 120.5t-98 40.5z" />
    <glyph glyph-name="one.osf" horiz-adv-x="402" 
d="M281 545v-402q0 -23 4 -31t25 -13t71 -5v-94h-340v94q50 0 71 5t25 13t4 31v284h-100v93l155 25h85z" />
    <glyph glyph-name="two.osf" horiz-adv-x="548" 
d="M510 117l-10 -117h-463v117q192 93 257.5 137.5t65.5 99.5q0 82 -116 82q-108 0 -108 -71h-80v136q55 28 100.5 38.5t109.5 10.5q111 0 176 -43.5t65 -134.5q0 -39 -15.5 -72t-37.5 -56.5t-63 -47t-74 -38.5t-88 -37v-4h281z" />
    <glyph glyph-name="three.osf" horiz-adv-x="545" 
d="M372 29q0 105 -167 105h-76v103h76q68 0 113 26t45 80q0 93 -123 93q-112 0 -112 -71h-80v136q97 49 213 49q112 0 177 -50t65 -135q0 -66 -38.5 -110t-109.5 -60v-4q77 -14 118.5 -58t41.5 -116q0 -102 -70.5 -154.5t-191.5 -52.5q-53 0 -113.5 13.5t-103.5 34.5v122
q93 -56 195 -56q65 0 103 26.5t38 78.5z" />
    <glyph glyph-name="four.osf" horiz-adv-x="573" 
d="M549 0h-76v-170h-140v170h-315v124l328 420h127v-427h76v-117zM333 117v202l-160 -202h160z" />
    <glyph glyph-name="five.osf" horiz-adv-x="527" 
d="M170 433v-145q40 8 79 8q108 0 180 -57t72 -173q0 -117 -67.5 -181.5t-185.5 -64.5q-117 0 -213 48v122q50 -28 90.5 -42t90.5 -14q142 0 142 122q0 125 -154 125q-61 0 -144 -20v389h416v-117h-306z" />
    <glyph glyph-name="six.osf" horiz-adv-x="582" 
d="M321 730q103 0 201 -49v-136h-80q0 71 -100 71q-90 0 -123 -67.5t-33 -229.5q0 -109 25 -162t89 -53q103 0 103 133q0 68 -28 101t-92 33q-36 0 -61 -10l6 84q40 22 97 22q107 0 164.5 -62.5t57.5 -167.5q0 -108 -65.5 -177.5t-184.5 -69.5q-258 0 -258 340
q0 400 282 400z" />
    <glyph glyph-name="seven.osf" horiz-adv-x="507" 
d="M496 550v-103q-101 -124 -157 -294t-56 -323h-169q0 151 68.5 314.5t190.5 288.5h-220q-33 0 -42 -8.5t-9 -49.5h-80v175h474z" />
    <glyph glyph-name="eight.osf" horiz-adv-x="587" 
d="M293 730q126 0 184 -47.5t58 -114.5q0 -94 -97 -150l-83 46q42 37 42 88q0 31 -27 49.5t-65 18.5q-43 0 -68 -21.5t-25 -54.5q0 -36 35 -66t84.5 -54.5t99 -53t84.5 -74t35 -104.5q0 -93 -71 -147.5t-189 -54.5q-130 0 -192 48.5t-62 119.5q0 96 105 151l81 -45
q-45 -42 -45 -88q0 -32 28.5 -54t77.5 -22q48 0 76.5 22t28.5 62q0 32 -35 60t-84.5 53t-99 54t-84.5 77t-35 108q0 90 64.5 142t178.5 52z" />
    <glyph glyph-name="nine.osf" horiz-adv-x="567" 
d="M254 -190q-103 0 -200 49v136h80q0 -71 100 -71q90 0 123 68t33 229q0 109 -25 162t-89 53q-103 0 -103 -133q0 -68 27.5 -101t92.5 -33q36 0 61 10l-6 -84q-40 -22 -97 -22q-108 0 -165 62t-57 168q0 108 65.5 177.5t184.5 69.5q258 0 258 -340q0 -400 -283 -400z" />
    <glyph glyph-name="zero.subs" horiz-adv-x="386" 
d="M192 -106q-85 0 -121.5 58t-36.5 167q0 108 36.5 163.5t121.5 55.5t122 -55.5t37 -163.5q0 -109 -37 -167t-122 -58zM192 276q-45 0 -62.5 -37t-17.5 -120q0 -84 17.5 -123.5t62.5 -39.5t62.5 39.5t17.5 123.5q0 83 -17.5 120t-62.5 37z" />
    <glyph glyph-name="one.subs" horiz-adv-x="217" 
d="M82 -100v366h-60v54l92 15h45v-435h-77z" />
    <glyph glyph-name="two.subs" horiz-adv-x="341" 
d="M306 -36l-6 -64h-274v64q105 77 151.5 131.5t46.5 106.5q0 74 -78 74q-50 0 -107 -31v65q56 28 120 28q145 0 145 -132q0 -32 -10.5 -60.5t-25 -49.5t-43 -46t-50 -41t-61.5 -42v-3h192z" />
    <glyph glyph-name="three.subs" horiz-adv-x="347" 
d="M162 338q67 0 105 -30t38 -80q0 -84 -89 -103v-3q46 -8 72 -35t26 -70q0 -60 -42 -91.5t-113 -31.5q-69 0 -127 28v67q56 -33 116 -33q40 0 63.5 17t23.5 50q0 68 -104 68h-43v57h43q42 0 70 16.5t28 51.5q0 60 -78 60q-48 0 -110 -31v65q54 28 121 28z" />
    <glyph glyph-name="four.subs" horiz-adv-x="364" 
d="M332 -17h-45v-83h-76v83h-189v67l197 285h68v-288h45v-64zM211 47v157l-113 -157h113z" />
    <glyph glyph-name="five.subs" horiz-adv-x="335" 
d="M109 268v-96q22 6 48 6q65 0 108 -34t43 -104q0 -69 -40.5 -107.5t-109.5 -38.5t-124 28v67q60 -33 107 -33q89 0 89 79t-96 79q-38 0 -85 -12v230h244v-64h-184z" />
    <glyph glyph-name="six.subs" horiz-adv-x="363" 
d="M202 338q64 0 114 -28v-65q-49 31 -104 31t-77 -43.5t-22 -139.5q0 -68 16.5 -102.5t58.5 -34.5q67 0 67 86q0 42 -18 63.5t-60 21.5q-21 0 -41 -8l3 47q24 14 60 14q67 0 101 -37.5t34 -100.5q0 -64 -38 -106t-109 -42q-154 0 -154 204q0 240 169 240z" />
    <glyph glyph-name="seven.subs" horiz-adv-x="317" 
d="M172 -100h-92q0 96 40.5 192.5t113.5 175.5h-210v64h278v-56q-61 -78 -95.5 -178.5t-34.5 -197.5z" />
    <glyph glyph-name="eight.subs" horiz-adv-x="368" 
d="M182 338q74 0 108.5 -28.5t34.5 -68.5q0 -57 -59 -92l-46 26q29 24 29 58q0 20 -17.5 32.5t-41.5 12.5q-28 0 -44.5 -14t-16.5 -36q0 -23 21 -41.5t51.5 -33.5t60.5 -32t51 -44.5t21 -63.5q0 -55 -41.5 -87t-110.5 -32q-76 0 -113 29t-37 72q0 60 64 94l45 -26
q-32 -26 -32 -59q0 -21 18.5 -35.5t50.5 -14.5q31 0 50 15t19 40q0 21 -21 39t-51.5 32.5t-61 32t-51.5 46t-21 65.5q0 53 37.5 83.5t103.5 30.5z" />
    <glyph glyph-name="nine.subs" horiz-adv-x="363" 
d="M161 -106q-65 0 -114 28v65q49 -31 103 -31q56 0 78 43.5t22 139.5q0 68 -16.5 102.5t-58.5 34.5q-67 0 -67 -86q0 -85 77 -85q20 0 42 8l-3 -47q-26 -14 -61 -14q-66 0 -100 37.5t-34 100.5q0 64 38 106t109 42q154 0 154 -204q0 -240 -169 -240z" />
    <glyph glyph-name="zero.sups" horiz-adv-x="386" 
d="M192 381q-85 0 -121.5 58t-36.5 167q0 108 36.5 163.5t121.5 55.5t122 -55.5t37 -163.5q0 -109 -37 -167t-122 -58zM192 763q-45 0 -62.5 -37t-17.5 -120q0 -84 17.5 -123.5t62.5 -39.5t62.5 39.5t17.5 123.5q0 83 -17.5 120t-62.5 37z" />
    <glyph glyph-name="four.sups" horiz-adv-x="364" 
d="M332 473h-45v-83h-76v83h-189v67l197 285h68v-288h45v-64zM211 537v157l-113 -157h113z" />
    <glyph glyph-name="five.sups" horiz-adv-x="335" 
d="M109 756v-96q22 6 48 6q65 0 108 -34t43 -104q0 -69 -40.5 -107.5t-109.5 -38.5t-124 28v67q61 -33 107 -33q89 0 89 79t-96 79q-38 0 -85 -12v230h244v-64h-184z" />
    <glyph glyph-name="six.sups" horiz-adv-x="363" 
d="M202 825q64 0 114 -28v-65q-49 31 -104 31t-77 -43.5t-22 -139.5q0 -68 16.5 -102.5t58.5 -34.5q67 0 67 86q0 42 -18 63.5t-60 21.5q-21 0 -41 -8l3 47q24 14 60 14q67 0 101 -37.5t34 -100.5q0 -64 -38 -106t-109 -42q-154 0 -154 204q0 240 169 240z" />
    <glyph glyph-name="seven.sups" horiz-adv-x="317" 
d="M172 389h-92q0 96 40.5 192t113.5 176h-210v64h278v-57q-61 -77 -95.5 -177.5t-34.5 -197.5z" />
    <glyph glyph-name="eight.sups" horiz-adv-x="368" 
d="M182 825q74 0 108.5 -28.5t34.5 -68.5q0 -57 -59 -92l-46 26q29 24 29 58q0 20 -17.5 32.5t-41.5 12.5q-28 0 -44.5 -14t-16.5 -36q0 -23 21 -41.5t51.5 -33.5t60.5 -32t51 -44.5t21 -63.5q0 -55 -41.5 -87t-110.5 -32q-76 0 -113 29t-37 72q0 60 64 94l45 -26
q-32 -26 -32 -59q0 -21 18.5 -35.5t50.5 -14.5q31 0 50 15t19 40q0 21 -21 39t-51.5 32.5t-61 32t-51.5 46t-21 65.5q0 53 37.5 83.5t103.5 30.5z" />
    <glyph glyph-name="nine.sups" horiz-adv-x="363" 
d="M161 381q-65 0 -114 28v65q49 -31 103 -31q56 0 78 43.5t22 139.5q0 68 -16.5 102.5t-58.5 34.5q-67 0 -67 -86q0 -85 77 -85q20 0 42 8l-3 -47q-26 -14 -61 -14q-66 0 -100 37.5t-34 100.5q0 64 38 106t109 42q154 0 154 -204q0 -240 -169 -240z" />
    <glyph glyph-name="zero.tf" 
d="M302 -10q-142 0 -202.5 95.5t-60.5 279.5q0 181 60 273t203 92q142 0 202 -92t60 -273q0 -183 -60.5 -279t-201.5 -96zM302 616q-70 0 -95 -57t-25 -194q0 -138 25.5 -199.5t94.5 -61.5q68 0 93.5 61.5t25.5 199.5q0 137 -25 194t-94 57z" />
    <glyph glyph-name="one.tf" 
d="M385 725v-582q0 -23 6.5 -31t39.5 -13t112 -5v-94h-457v94q79 0 112.5 5t40 13t6.5 31v464h-159v93l214 25h85z" />
    <glyph glyph-name="two.tf" 
d="M535 117l-10 -117h-463v117q163 114 243 204.5t80 176.5q0 63 -33.5 90.5t-83.5 27.5q-107 0 -107 -71h-80v136q55 28 100 38.5t108 10.5q243 0 243 -224q0 -65 -23 -121t-71 -104t-92.5 -81.5t-116.5 -78.5v-4h306z" />
    <glyph glyph-name="three.tf" 
d="M397 209q0 105 -167 105h-76v103h76q68 0 113 26t45 80q0 93 -123 93q-112 0 -112 -71h-80v136q97 49 213 49q112 0 177 -50t65 -135q0 -66 -38.5 -110t-109.5 -60v-4q77 -14 118.5 -58t41.5 -116q0 -102 -70.5 -154.5t-191.5 -52.5q-53 0 -113.5 13.5t-103.5 34.5v122
q93 -56 195 -56q65 0 103 26.5t38 78.5z" />
    <glyph glyph-name="four.tf" 
d="M561 131h-76v-131h-140v131h-315v125l328 469h127v-476h76v-118zM345 249v240l-174 -240h174z" />
    <glyph glyph-name="five.tf" 
d="M205 603v-145q40 8 79 8q108 0 180 -57t72 -173q0 -117 -67.5 -181.5t-185.5 -64.5q-117 0 -213 48v122q50 -28 90.5 -42t90.5 -14q142 0 142 122q0 125 -154 125q-61 0 -144 -20v389h416v-117h-306z" />
    <glyph glyph-name="six.tf" 
d="M333 730q103 0 200 -49v-136h-80q0 71 -100 71q-90 0 -123 -68t-33 -229q0 -109 25 -162t89 -53q103 0 103 133q0 68 -27.5 101t-92.5 33q-36 0 -61 -10l6 84q40 22 97 22q108 0 165 -62t57 -168q0 -108 -65.5 -177.5t-184.5 -69.5q-258 0 -258 340q0 400 283 400z" />
    <glyph glyph-name="seven.tf" 
d="M546 720v-103q-101 -124 -157 -294t-56 -323h-169q0 152 69 315t191 288h-221q-33 0 -42 -8.5t-9 -49.5h-80v175h474z" />
    <glyph glyph-name="eight.tf" 
d="M301 730q126 0 184 -47.5t58 -114.5q0 -94 -97 -150l-83 46q42 37 42 88q0 31 -27 49.5t-64 18.5q-43 0 -68.5 -21.5t-25.5 -54.5q0 -36 35 -66t84.5 -54.5t99 -53t84.5 -74t35 -104.5q0 -93 -70.5 -147.5t-188.5 -54.5q-130 0 -192.5 48.5t-62.5 119.5q0 96 105 151
l82 -45q-46 -42 -46 -88q0 -32 28.5 -54t77.5 -22q48 0 76.5 22t28.5 62q0 27 -25 52t-62.5 43.5t-81 43.5t-81 51t-62.5 68.5t-25 93.5q0 90 64 142t178 52z" />
    <glyph glyph-name="nine.tf" 
d="M270 -10q-103 0 -200 49v136h80q0 -71 100 -71q90 0 123 68t33 229q0 109 -25 162t-89 53q-103 0 -103 -133q0 -68 27.5 -101t92.5 -33q36 0 61 10l-6 -84q-40 -22 -97 -22q-108 0 -165 62t-57 168q0 108 65.5 177.5t184.5 69.5q258 0 258 -340q0 -400 -283 -400z" />
    <glyph glyph-name="zero.tosf" 
d="M302 -10q-139 0 -201 78t-62 207q0 275 263 275q262 0 262 -275q0 -61 -13.5 -110.5t-43 -90t-82 -62.5t-123.5 -22zM302 436q-68 0 -94 -40t-26 -121q0 -83 26.5 -127t93.5 -44t93 44t26 127q0 81 -26 121t-93 40z" />
    <glyph glyph-name="one.tosf" 
d="M385 545v-402q0 -23 6.5 -31t39.5 -13t112 -5v-94h-457v94q79 0 112.5 5t40 13t6.5 31v284h-159v93l214 25h85z" />
    <glyph glyph-name="two.tosf" 
d="M537 117l-10 -117h-463v117q192 93 257.5 137.5t65.5 99.5q0 82 -116 82q-108 0 -108 -71h-80v136q55 28 100.5 38.5t109.5 10.5q111 0 176 -43.5t65 -134.5q0 -39 -15.5 -72t-37.5 -56.5t-63 -47t-74 -38.5t-88 -37v-4h281z" />
    <glyph glyph-name="three.tosf" 
d="M399 29q0 105 -167 105h-75v103h75q69 0 114 26t45 80q0 93 -123 93q-112 0 -112 -71h-80v136q97 49 213 49q112 0 177 -50t65 -135q0 -66 -38.5 -110t-109.5 -60v-4q76 -14 118 -58t42 -116q0 -102 -70.5 -154.5t-191.5 -52.5q-53 0 -113.5 13.5t-104.5 34.5v122
q94 -56 196 -56q65 0 102.5 26.5t37.5 78.5z" />
    <glyph glyph-name="four.tosf" 
d="M561 0h-76v-170h-140v170h-315v124l328 420h127v-427h76v-117zM345 117v201l-160 -201h160z" />
    <glyph glyph-name="five.tosf" 
d="M205 433v-145q40 8 79 8q108 0 180 -57t72 -173q0 -117 -67.5 -181.5t-185.5 -64.5q-117 0 -213 48v122q50 -28 90.5 -42t90.5 -14q142 0 142 122q0 125 -154 125q-61 0 -144 -20v389h416v-117h-306z" />
    <glyph glyph-name="six.tosf" 
d="M333 730q103 0 200 -49v-136h-80q0 71 -100 71q-90 0 -123 -68t-33 -229q0 -109 25 -162t89 -53q103 0 103 133q0 68 -27.5 101t-92.5 33q-36 0 -61 -10l6 84q40 22 97 22q108 0 165 -62t57 -168q0 -108 -65.5 -177.5t-184.5 -69.5q-258 0 -258 340q0 400 283 400z" />
    <glyph glyph-name="seven.tosf" 
d="M544 550v-103q-101 -124 -157 -294t-56 -323h-169q0 152 69 315t191 288h-221q-33 0 -41.5 -8.5t-8.5 -49.5h-80v175h473z" />
    <glyph glyph-name="eight.tosf" 
d="M302 730q126 0 184 -48t58 -114q0 -94 -97 -150l-83 46q42 38 42 88q0 31 -27.5 49.5t-64.5 18.5q-43 0 -68.5 -21.5t-25.5 -54.5q0 -36 35 -66t84.5 -54.5t99 -53t84.5 -74t35 -104.5q0 -93 -70.5 -147.5t-188.5 -54.5q-130 0 -192.5 48.5t-62.5 119.5q0 96 106 151
l81 -45q-45 -42 -45 -88q0 -32 28.5 -54t76.5 -22q49 0 77.5 22t28.5 62q0 32 -35 60t-84.5 53t-99 54t-84.5 77t-35 108q0 90 64 142t179 52z" />
    <glyph glyph-name="nine.tosf" 
d="M270 -190q-103 0 -200 49v136h80q0 -71 100 -71q90 0 123 68t33 229q0 109 -25 162t-89 53q-103 0 -103 -133q0 -68 27.5 -101t92.5 -33q36 0 61 10l-6 -84q-40 -22 -97 -22q-108 0 -165 62t-57 168q0 108 65.5 177.5t184.5 69.5q258 0 258 -340q0 -400 -283 -400z" />
    <glyph glyph-name="zero.dnom" horiz-adv-x="386" 
d="M192 -6q-85 0 -121.5 58t-36.5 167q0 108 36.5 163.5t121.5 55.5t122 -55.5t37 -163.5q0 -109 -37 -167t-122 -58zM192 376q-45 0 -62.5 -37t-17.5 -120q0 -84 17.5 -123.5t62.5 -39.5t62.5 39.5t17.5 123.5q0 83 -17.5 120t-62.5 37z" />
    <glyph glyph-name="one.dnom" horiz-adv-x="217" 
d="M82 0v366h-60v54l92 15h45v-435h-77z" />
    <glyph glyph-name="two.dnom" horiz-adv-x="341" 
d="M306 64l-6 -64h-274v64q105 77 151.5 131.5t46.5 106.5q0 74 -78 74q-50 0 -107 -31v65q56 28 120 28q145 0 145 -132q0 -32 -10.5 -60.5t-25 -49.5t-43 -46t-50 -41t-61.5 -42v-3h192z" />
    <glyph glyph-name="three.dnom" horiz-adv-x="347" 
d="M162 438q67 0 105 -30t38 -80q0 -84 -89 -103v-3q46 -8 72 -35t26 -70q0 -60 -42 -91.5t-113 -31.5q-69 0 -127 28v67q55 -33 116 -33q40 0 63.5 17t23.5 50q0 68 -104 68h-43v57h43q42 0 70 16.5t28 51.5q0 60 -78 60q-48 0 -110 -31v65q54 28 121 28z" />
    <glyph glyph-name="four.dnom" horiz-adv-x="364" 
d="M332 83h-45v-83h-76v83h-189v67l197 285h68v-288h45v-64zM211 147v157l-113 -157h113z" />
    <glyph glyph-name="five.dnom" horiz-adv-x="335" 
d="M109 368v-96q22 6 48 6q65 0 108 -34t43 -104q0 -69 -40.5 -107.5t-109.5 -38.5t-124 28v67q60 -33 107 -33q89 0 89 79t-96 79q-38 0 -85 -12v230h244v-64h-184z" />
    <glyph glyph-name="six.dnom" horiz-adv-x="363" 
d="M202 438q64 0 114 -28v-65q-49 31 -104 31t-77 -43.5t-22 -139.5q0 -68 16.5 -102.5t58.5 -34.5q67 0 67 86q0 42 -18 63.5t-60 21.5q-21 0 -41 -8l3 47q24 14 60 14q67 0 101 -37.5t34 -100.5q0 -64 -38 -106t-109 -42q-154 0 -154 204q0 240 169 240z" />
    <glyph glyph-name="seven.dnom" horiz-adv-x="317" 
d="M172 0h-92q0 96 40.5 192.5t113.5 175.5h-210v64h278v-56q-61 -78 -95.5 -178.5t-34.5 -197.5z" />
    <glyph glyph-name="eight.dnom" horiz-adv-x="368" 
d="M182 438q74 0 108.5 -28.5t34.5 -68.5q0 -57 -59 -92l-46 26q29 24 29 58q0 20 -17.5 32.5t-41.5 12.5q-28 0 -44.5 -14t-16.5 -36q0 -23 21 -41.5t51.5 -33.5t60.5 -32t51 -44.5t21 -63.5q0 -55 -41.5 -87t-110.5 -32q-76 0 -113 29t-37 72q0 60 64 94l45 -26
q-32 -26 -32 -59q0 -21 18.5 -35.5t50.5 -14.5q31 0 50 15t19 40q0 21 -21 39t-51.5 32.5t-61 32t-51.5 46t-21 65.5q0 53 37.5 83.5t103.5 30.5z" />
    <glyph glyph-name="nine.dnom" horiz-adv-x="363" 
d="M161 -6q-65 0 -114 28v65q49 -31 103 -31q56 0 78 43.5t22 139.5q0 68 -16.5 102.5t-58.5 34.5q-67 0 -67 -86q0 -85 77 -85q20 0 42 8l-3 -47q-26 -14 -61 -14q-66 0 -100 37.5t-34 100.5q0 64 38 106t109 42q154 0 154 -204q0 -240 -169 -240z" />
    <glyph glyph-name="zero.numr" horiz-adv-x="386" 
d="M192 281q-85 0 -121.5 58t-36.5 167q0 108 36.5 163.5t121.5 55.5t122 -55.5t37 -163.5q0 -109 -37 -167t-122 -58zM192 663q-45 0 -62.5 -37t-17.5 -120q0 -84 17.5 -123.5t62.5 -39.5t62.5 39.5t17.5 123.5q0 83 -17.5 120t-62.5 37z" />
    <glyph glyph-name="one.numr" horiz-adv-x="217" 
d="M82 290v366h-60v54l92 15h45v-435h-77z" />
    <glyph glyph-name="two.numr" horiz-adv-x="341" 
d="M306 351l-6 -64h-274v64q105 77 151.5 131.5t46.5 106.5q0 74 -78 74q-50 0 -107 -31v65q56 28 120 28q145 0 145 -132q0 -32 -10.5 -60.5t-25 -49.5t-43 -46t-50 -41t-61.5 -42v-3h192z" />
    <glyph glyph-name="three.numr" horiz-adv-x="347" 
d="M162 725q67 0 105 -30t38 -80q0 -84 -89 -103v-3q46 -8 72 -35t26 -70q0 -60 -42 -91.5t-113 -31.5q-69 0 -127 28v67q56 -33 116 -33q40 0 63.5 17t23.5 50q0 68 -104 68h-43v57h43q42 0 70 16.5t28 51.5q0 60 -78 60q-48 0 -110 -31v65q54 28 121 28z" />
    <glyph glyph-name="four.numr" horiz-adv-x="364" 
d="M332 373h-45v-83h-76v83h-189v67l197 285h68v-288h45v-64zM211 437v157l-113 -157h113z" />
    <glyph glyph-name="five.numr" horiz-adv-x="335" 
d="M109 656v-96q22 6 48 6q65 0 108 -34t43 -104q0 -69 -40.5 -107.5t-109.5 -38.5t-124 28v67q61 -33 107 -33q89 0 89 79t-96 79q-38 0 -85 -12v230h244v-64h-184z" />
    <glyph glyph-name="six.numr" horiz-adv-x="363" 
d="M202 725q64 0 114 -28v-65q-49 31 -104 31t-77 -43.5t-22 -139.5q0 -68 16.5 -102.5t58.5 -34.5q67 0 67 86q0 42 -18 63.5t-60 21.5q-21 0 -41 -8l3 47q24 14 60 14q67 0 101 -37.5t34 -100.5q0 -64 -38 -106t-109 -42q-154 0 -154 204q0 240 169 240z" />
    <glyph glyph-name="seven.numr" horiz-adv-x="317" 
d="M172 288h-92q0 96 40.5 192.5t113.5 175.5h-210v64h278v-56q-61 -78 -95.5 -178.5t-34.5 -197.5z" />
    <glyph glyph-name="eight.numr" horiz-adv-x="368" 
d="M182 725q74 0 108.5 -28.5t34.5 -68.5q0 -57 -59 -92l-46 26q29 24 29 58q0 20 -17.5 32.5t-41.5 12.5q-28 0 -44.5 -14t-16.5 -36q0 -23 21 -41.5t51.5 -33.5t60.5 -32t51 -44.5t21 -63.5q0 -55 -41.5 -87t-110.5 -32q-76 0 -113 29t-37 72q0 60 64 94l45 -26
q-32 -26 -32 -59q0 -21 18.5 -35.5t50.5 -14.5q31 0 50 15t19 40q0 21 -21 39t-51.5 32.5t-61 32t-51.5 46t-21 65.5q0 53 37.5 83.5t103.5 30.5z" />
    <glyph glyph-name="nine.numr" horiz-adv-x="363" 
d="M161 281q-65 0 -114 28v65q49 -31 103 -31q56 0 78 43.5t22 139.5q0 68 -16.5 102.5t-58.5 34.5q-67 0 -67 -86q0 -85 77 -85q20 0 42 8l-3 -47q-26 -14 -61 -14q-66 0 -100 37.5t-34 100.5q0 64 38 106t109 42q154 0 154 -204q0 -240 -169 -240z" />
    <glyph glyph-name="AT" horiz-adv-x="777" 
d="M562 540q-36 -218 -36 -254q0 -24 12 -38t33 -14q41 0 68 44.5t27 146.5q0 115 -72 171t-180 56q-140 0 -216 -82.5t-76 -220.5q0 -141 82 -213t222 -72q128 0 228 62v-68q-94 -65 -251 -65q-163 0 -263.5 99.5t-100.5 262.5q0 156 102 263.5t274 107.5
q143 0 238.5 -80.5t95.5 -224.5q0 -108 -56.5 -183t-148.5 -75q-44 0 -71.5 18.5t-32.5 51.5l-57 -54q-25 -16 -58 -16q-45 0 -73 38.5t-28 102.5q0 127 44 193t147 66q71 0 147 -23zM431 282l28 202q-28 11 -55 11q-41 0 -63 -41t-22 -144q0 -68 44 -68q24 0 68 40z" />
    <glyph glyph-name="Exclamdown" horiz-adv-x="263" 
d="M71 667q0 26 18 44.5t44 18.5q25 0 43 -18.5t18 -44.5q0 -25 -18 -43.5t-43 -18.5q-26 0 -44 18.5t-18 43.5zM170 541l32 -541h-142l32 541h78z" />
    <glyph glyph-name="Questiondown" horiz-adv-x="487" 
d="M369 667q0 -25 -18 -43.5t-44 -18.5q-25 0 -43 18.5t-18 43.5q0 26 18 44.5t43 18.5q26 0 44 -18.5t18 -44.5zM274 104q104 0 104 71h80v-136q-95 -49 -203 -49t-167.5 58t-59.5 163q0 64 21.5 111.5t56.5 72t72.5 35.5t77.5 11l6 100h86l11 -187q-92 0 -141.5 -29.5
t-49.5 -103.5q0 -117 106 -117z" />
    </font>
</defs>
</svg>
