<?xml version="1.0" standalone="no"?>
<!DOCTYPE svg PUBLIC "-//W3C//DTD SVG 1.1//EN" "http://www.w3.org/Graphics/SVG/1.1/DTD/svg11.dtd" >
<svg>
<metadata>
Created by FontForge 20090622 at Fri Mar 23 18:50:19 2018
 By deploy user
Copyright &#194;&#169; 2013 by Dino dos Santos. All rights reserved.
</metadata>
<defs>
<font id="BreveSlabTitle-Light" horiz-adv-x="564" >
  <font-face 
    font-family="Breve Slab Title Light"
    font-weight="300"
    font-stretch="normal"
    units-per-em="1000"
    panose-1="0 0 4 0 0 0 0 0 0 0"
    ascent="800"
    descent="-200"
    x-height="500"
    cap-height="720"
    bbox="-161 -232 969 936"
    underline-thickness="50"
    underline-position="-50"
    unicode-range="U+0020-U+FB02"
  />
<missing-glyph horiz-adv-x="534" 
d="M64 0v500h406v-500h-406zM449 488h-365l183 -229zM259 249l-186 236v-469zM275 249l184 -231v465zM447 12l-180 228l-181 -228h361z" />
    <glyph glyph-name="fi" unicode="fi" horiz-adv-x="561" 
d="M95 500v38q0 109 49.5 145.5t161.5 36.5v-65l-4 -3q-27 8 -55 8q-40 0 -58.5 -24t-18.5 -77v-59h110v-54h-110v-340q0 -32 11.5 -41t68.5 -9v-56h-216v56q43 0 52 9t9 41v340h-61v35zM376 629q0 21 14 34.5t37 13.5q21 0 35 -13.5t14 -34.5t-14 -35.5t-35 -14.5
q-23 0 -37 14.5t-14 35.5zM474 500v-394q0 -32 9 -41t52 -9v-56h-197v56q42 0 51 9t9 41v288q0 23 -2.5 31.5t-15 13.5t-42.5 5v56h136z" />
    <glyph glyph-name="fl" unicode="fl" horiz-adv-x="556" 
d="M95 500v38q0 109 49.5 145.5t161.5 36.5v-65l-4 -3q-27 8 -55 8q-40 0 -58.5 -24t-18.5 -77v-59h110v-54h-110v-340q0 -32 11.5 -41t68.5 -9v-56h-216v56q43 0 52 9t9 41v340h-61v35zM468 720v-614q0 -32 9 -41t52 -9v-56h-198v56q43 0 52 9t9 41v508q0 32 -9 41t-52 9
v56h137z" />
    <glyph glyph-name=".notdef" horiz-adv-x="534" 
d="M64 0v500h406v-500h-406zM449 488h-365l183 -229zM259 249l-186 236v-469zM275 249l184 -231v465zM447 12l-180 228l-181 -228h361z" />
    <glyph glyph-name=".null" horiz-adv-x="0" 
 />
    <glyph glyph-name="nonmarkingreturn" horiz-adv-x="333" 
 />
    <glyph glyph-name="space" unicode=" " horiz-adv-x="208" 
 />
    <glyph glyph-name="exclam" unicode="!" horiz-adv-x="229" 
d="M73 720h83l-18 -558h-47zM70 37q0 19 12.5 33t32.5 14q19 0 32 -14t13 -33q0 -20 -13 -33.5t-32 -13.5q-20 0 -32.5 13.5t-12.5 33.5z" />
    <glyph glyph-name="quotedbl" unicode="&#x22;" horiz-adv-x="361" 
d="M51 720h79l-12 -230h-56zM231 720h79l-11 -230h-56z" />
    <glyph glyph-name="numbersign" unicode="#" horiz-adv-x="502" 
d="M338 299v-68h116v-50h-116v-140h-50v140h-74v-140h-50v140h-116v50h116v68h-116v50h116v141h50v-141h74v141h50v-141h116v-50h-116zM288 299h-74v-68h74v68z" />
    <glyph glyph-name="dollar" unicode="$" horiz-adv-x="497" 
d="M278 663l-10 -251l45.5 -25.5t41.5 -26t41 -33t30 -37.5t23 -48t7 -57q0 -90 -57 -142.5t-159 -52.5q-115 0 -197 44v75q88 -46 172 -51l11 281q-43 23 -66 37.5t-53.5 41t-44.5 59.5t-14 75q0 84 56 131t143 47q103 0 188 -46v-103h-50q0 73 -107 82zM130 556
q0 -39 26 -67.5t74 -55.5l9 231q-109 -7 -109 -108zM264 318l-10 -260q121 7 121 121q0 46 -28.5 77.5t-82.5 61.5z" />
    <glyph glyph-name="percent" unicode="%" horiz-adv-x="681" 
d="M154 357q-68 0 -95.5 48.5t-27.5 138.5q0 88 27 134.5t96 46.5q67 0 94 -46.5t27 -134.5q0 -90 -27 -138.5t-94 -48.5zM512 720h63l-209 -345l-33 13zM154 691q-45 0 -61.5 -34.5t-16.5 -112.5q0 -80 16.5 -116.5t61.5 -36.5q44 0 61 37t17 116q0 77 -16.5 112t-61.5 35z
M528 -5q-68 0 -95 48.5t-27 138.5q0 88 27 134.5t95 46.5q67 0 94.5 -46.5t27.5 -134.5q0 -89 -27.5 -138t-94.5 -49zM161 0h-63l214 351l32 -13zM528 329q-45 0 -61.5 -34.5t-16.5 -112.5q0 -80 16.5 -116.5t61.5 -36.5t61.5 36.5t16.5 116.5q0 78 -16.5 112.5t-61.5 34.5z
" />
    <glyph glyph-name="ampersand" unicode="&#x26;" horiz-adv-x="592" 
d="M569 10v-10h-89l-36 44q-69 -54 -182 -54q-103 0 -158.5 53.5t-55.5 140.5q0 110 122 193q-41 52 -63 94.5t-22 89.5q0 86 53 127.5t140 41.5q95 0 142 -42t47 -103q0 -44 -21.5 -83t-62.5 -61h-66q36 26 56.5 60t20.5 67q0 42 -29.5 69.5t-80.5 27.5q-121 0 -121 -105
q0 -18 5.5 -36.5t12 -32.5t24 -38t29 -38l40 -48.5l45.5 -54.5l129 -156q34 68 34 193h71q0 -161 -58 -250zM271 55q80 0 131 40l-194 236q-45 -35 -64.5 -68t-19.5 -76q0 -61 43.5 -96.5t103.5 -35.5z" />
    <glyph glyph-name="quotesingle" unicode="'" horiz-adv-x="181" 
d="M51 720h79l-12 -230h-56z" />
    <glyph glyph-name="parenleft" unicode="(" horiz-adv-x="242" 
d="M37 360q0 127 38.5 244.5t97.5 195.5h49q-45 -79 -75 -198t-30 -242q0 -124 29.5 -242.5t74.5 -197.5h-49q-59 77 -97 195t-38 245z" />
    <glyph glyph-name="parenright" unicode=")" horiz-adv-x="242" 
d="M205 360q0 -127 -38 -245t-97 -195h-49q45 79 74.5 197.5t29.5 242.5q0 123 -30 241.5t-74 198.5h48q59 -78 97.5 -195.5t38.5 -244.5z" />
    <glyph glyph-name="asterisk" unicode="*" horiz-adv-x="368" 
d="M84 688q8 8 19 9t20 -6q3 -3 54 -87q-3 17 -8.5 40.5l-9.5 40t-4 20.5q0 10 9.5 17t20.5 7t20 -7t9 -17q0 -4 -3.5 -20.5l-9 -40.5t-8.5 -39l19.5 32l22 36t12.5 18q8 7 19 6.5t19 -8.5t9 -19t-7 -20q-5 -5 -86 -55q17 3 40 8.5t39.5 10t20.5 4.5q10 0 17.5 -9.5
t7.5 -20.5t-7.5 -20t-17.5 -9q-4 0 -20 3.5l-39.5 8.5t-39.5 8l32.5 -19.5l35 -21t17.5 -11.5q7 -8 6.5 -19.5t-8.5 -19.5t-19.5 -9t-19.5 7q-3 2 -54 84q3 -16 9 -39l10 -39t4 -20q0 -10 -9.5 -17.5t-20.5 -7.5t-20 7.5t-9 17.5q0 4 3.5 20l8.5 39t8 39l-19.5 -32
l-21 -35.5t-11.5 -17.5q-8 -7 -19.5 -6t-19.5 9t-9 19t7 20q2 2 85 53q-17 -3 -40.5 -8.5l-39.5 -9.5t-20 -4q-10 0 -17 9.5t-7 20.5t7 20t17 9q4 0 20.5 -4t40 -9t39.5 -8q-82 49 -86 54q-7 8 -6.5 19t8.5 19z" />
    <glyph glyph-name="plus" unicode="+" horiz-adv-x="414" 
d="M366 240h-133v-133h-50v133h-133v50h133v133h50v-133h133v-50z" />
    <glyph glyph-name="comma" unicode="," horiz-adv-x="203" 
d="M61 -107l39 97q-20 0 -34 13t-14 35q0 20 14 33.5t34 13.5q25 0 38 -16t13 -38q0 -11 -2 -21.5t-8.5 -25.5l-10.5 -24t-16 -32l-18 -35h-35z" />
    <glyph glyph-name="hyphen" unicode="-" horiz-adv-x="426" 
d="M55 249v50h316v-50h-316z" />
    <glyph glyph-name="period" unicode="." horiz-adv-x="190" 
d="M50 37q0 19 13 33t33 14q18 0 31 -14t13 -33q0 -20 -12.5 -33.5t-31.5 -13.5q-20 0 -33 13.5t-13 33.5z" />
    <glyph glyph-name="slash" unicode="/" horiz-adv-x="278" 
d="M249 720l-163 -720h-55l162 720h56z" />
    <glyph glyph-name="zero" unicode="0" horiz-adv-x="587" 
d="M293 -10q-131 0 -188 98t-57 277q0 177 57 271t188 94t188.5 -94.5t57.5 -270.5q0 -375 -246 -375zM293 664q-91 0 -127.5 -74.5t-36.5 -224.5q0 -152 37 -230.5t127 -78.5q62 0 99 39t51.5 104.5t14.5 165.5q0 150 -37 224.5t-128 74.5z" />
    <glyph glyph-name="one" unicode="1" horiz-adv-x="343" 
d="M221 725v-621q0 -22 4 -30t25 -13t71 -5v-56h-280v56q50 0 71 5t25 13t4 30v544h-100v52l140 25h40z" />
    <glyph glyph-name="two" unicode="2" horiz-adv-x="520" 
d="M135 68h338l-10 -68h-430v68q146 117 226 201.5t106 140t26 115.5q0 41 -14 70t-37.5 43t-47 20t-51.5 6q-56 0 -90.5 -17t-34.5 -66h-50v103q79 46 183 46q224 0 224 -207q0 -109 -75 -207t-263 -244v-4z" />
    <glyph glyph-name="three" unicode="3" horiz-adv-x="516" 
d="M389 194q0 70 -54 105t-146 35h-55v62h55q47 0 87 12.5t69.5 47.5t29.5 88q0 120 -142 120q-23 0 -40 -2t-38.5 -9.5t-33 -25.5t-11.5 -46h-50v103q81 46 182 46q105 0 159 -51t54 -127q0 -75 -39.5 -120t-109.5 -61v-3q73 -12 119 -57.5t46 -119.5q0 -97 -62 -149
t-174 -52q-92 0 -191 44v72q93 -50 183 -50q75 0 118.5 34.5t43.5 103.5z" />
    <glyph glyph-name="four" unicode="4" horiz-adv-x="526" 
d="M490 164h-70v-164h-80v164h-315v70l332 491h63v-494h70v-67zM340 231v341l-232 -341h232z" />
    <glyph glyph-name="five" unicode="5" horiz-adv-x="507" 
d="M136 652v-213q36 9 88 9q107 0 176 -53.5t69 -170.5q0 -105 -63 -169.5t-175 -64.5q-97 0 -185 44v72q37 -19 53 -26t50.5 -15.5t70.5 -8.5q83 0 125.5 46t42.5 117q0 162 -182 162q-63 0 -135 -18v357h373v-68h-308z" />
    <glyph glyph-name="six" unicode="6" horiz-adv-x="558" 
d="M310 730q98 0 179 -46v-103h-50q0 46 -31 64.5t-93 18.5q-102 0 -144 -83.5t-42 -248.5q0 -132 37 -204t127 -72q146 0 146 177q0 171 -166 171q-50 0 -102 -23l6 56q45 26 111 26q123 0 177.5 -65t54.5 -165q0 -47 -12.5 -88.5t-38 -77t-71 -56.5t-104.5 -21
q-248 0 -248 340q0 400 264 400z" />
    <glyph glyph-name="seven" unicode="7" horiz-adv-x="472" 
d="M456 720v-62q-104 -137 -168.5 -317t-64.5 -341h-92q0 160 67.5 332.5t183.5 319.5h-251q-33 0 -42.5 -10.5t-9.5 -60.5h-50v139h427z" />
    <glyph glyph-name="eight" unicode="8" horiz-adv-x="550" 
d="M272 730q105 0 160 -46.5t55 -112.5q0 -98 -100 -165l-50 28q70 52 70 130q0 47 -38.5 74t-90.5 27q-59 0 -93 -28.5t-34 -80.5q0 -46 37 -82t89.5 -61.5t104.5 -53.5t89 -73.5t37 -106.5q0 -90 -65.5 -139.5t-170.5 -49.5q-114 0 -172.5 46.5t-58.5 124.5q0 111 116 173
l50 -27q-49 -35 -67.5 -66t-18.5 -73q0 -49 39.5 -81t109.5 -32q67 0 108 32.5t41 88.5q0 33 -19.5 60.5t-51 47.5t-69.5 39.5l-76.5 40.5t-70 46t-51 62t-19.5 82q0 81 57 128.5t153 47.5z" />
    <glyph glyph-name="nine" unicode="9" horiz-adv-x="558" 
d="M248 -10q-98 0 -179 46v103h50q0 -46 30.5 -64.5t92.5 -18.5q102 0 144.5 83.5t42.5 248.5q0 132 -37.5 204t-127.5 72q-145 0 -145 -177q0 -171 165 -171q51 0 103 23l-7 -56q-43 -26 -111 -26q-64 0 -110.5 19t-72 52.5t-37.5 72.5t-12 86t12.5 88.5t38.5 77t71.5 56.5
t104.5 21q248 0 248 -340q0 -400 -264 -400z" />
    <glyph glyph-name="colon" unicode=":" horiz-adv-x="198" 
d="M54 329q0 19 12.5 32.5t32.5 13.5q19 0 32 -13.5t13 -32.5t-13.5 -33.5t-31.5 -14.5q-20 0 -32.5 14.5t-12.5 33.5zM54 37q0 19 12.5 33t32.5 14q19 0 32 -14t13 -33q0 -20 -13 -33.5t-32 -13.5q-20 0 -32.5 13.5t-12.5 33.5z" />
    <glyph glyph-name="semicolon" unicode=";" horiz-adv-x="223" 
d="M61 329q0 19 13 32.5t33 13.5q19 0 31.5 -13.5t12.5 -32.5t-13 -33.5t-31 -14.5q-20 0 -33 14.5t-13 33.5zM71 -107l39 97q-20 0 -34 13t-14 35q0 20 14 33.5t34 13.5q25 0 38 -16t13 -38q0 -11 -2 -21.5t-8.5 -25.5l-10.5 -24t-16 -32l-18 -35h-35z" />
    <glyph glyph-name="less" unicode="&#x3c;" horiz-adv-x="389" 
d="M327 182v-57l-282 139v52l282 139v-57l-217 -108z" />
    <glyph glyph-name="equal" unicode="=" horiz-adv-x="432" 
d="M58 313v50h316v-50h-316zM58 167v50h316v-50h-316z" />
    <glyph glyph-name="greater" unicode="&#x3e;" horiz-adv-x="389" 
d="M61 398v57l282 -139v-52l-282 -139v57l217 108z" />
    <glyph glyph-name="question" unicode="?" horiz-adv-x="427" 
d="M195 664q-118 0 -118 -83h-49v103q75 46 169 46q100 0 150.5 -57t50.5 -157q0 -62 -19.5 -108t-51.5 -70t-65.5 -35t-69.5 -11l-5 -130h-50l-6 185q90 0 138 35.5t48 129.5q0 152 -122 152zM116 37q0 19 13 33t33 14q18 0 31 -14t13 -33q0 -20 -12.5 -33.5t-31.5 -13.5
q-21 0 -33.5 13.5t-12.5 33.5z" />
    <glyph glyph-name="at" unicode="@" horiz-adv-x="805" 
d="M554 431q-38 -236 -38 -279q0 -24 14 -38t39 -14q48 0 84.5 52.5t36.5 159.5q0 120 -77 183.5t-190 63.5q-144 0 -230 -88.5t-86 -237.5q0 -141 89 -217t231 -76q62 0 128.5 19.5t115.5 52.5v-50q-104 -71 -264 -71q-150 0 -253.5 93t-103.5 251q0 163 102.5 269
t271.5 106q143 0 233 -82.5t90 -219.5q0 -108 -54 -183t-142 -75q-40 0 -66 21t-28 55l-65 -59q-22 -17 -55 -17q-44 0 -71 39.5t-27 99.5q0 261 185 261q61 0 130 -19zM455 169l30 219q-39 14 -80 14q-104 0 -104 -211q0 -88 55 -88q40 0 99 66z" />
    <glyph glyph-name="A" unicode="A" horiz-adv-x="592" 
d="M350 725l179 -639q6 -20 16 -25t36 -5v-56h-111l-58 211h-236l-59 -211h-108v56q27 0 37.5 5t16.5 27l179 637h108zM393 279l-58 210q-37 140 -40 152h-2q-8 -34 -41 -156l-57 -206h198z" />
    <glyph glyph-name="B" unicode="B" horiz-adv-x="592" 
d="M427 371v-2q52 -14 88 -62t36 -113q0 -91 -53.5 -142.5t-144.5 -51.5h-316v56q51 0 61.5 9t10.5 41v508q0 32 -10.5 41t-61.5 9v56h300q89 0 140 -49t51 -134q0 -61 -28 -105t-73 -61zM189 402h138q55 0 88 33t33 96q0 121 -119 121h-140v-250zM189 68h153q60 0 94 32.5
t34 101.5q0 60 -40.5 96t-101.5 36h-139v-266z" />
    <glyph glyph-name="C" unicode="C" horiz-adv-x="548" 
d="M319 -10q-274 0 -274 370q0 83 13.5 147.5t44 116t86 79t133.5 27.5q101 0 187 -46v-103h-50q0 83 -137 83q-75 0 -119.5 -39t-60.5 -103t-16 -162q0 -148 44 -226t149 -78q108 0 200 55l-10 -77q-95 -44 -190 -44z" />
    <glyph glyph-name="D" unicode="D" horiz-adv-x="652" 
d="M37 0v56q51 0 61.5 9t10.5 41v508q0 32 -10.5 41t-61.5 9v56h300q269 0 269 -355q0 -365 -269 -365h-300zM189 68h148q101 0 144.5 75t43.5 222q0 145 -43 216t-145 71h-148v-584z" />
    <glyph glyph-name="E" unicode="E" horiz-adv-x="555" 
d="M506 0h-469v56q51 0 61.5 9t10.5 41v508q0 32 -10.5 41t-61.5 9v56h475v-139h-50q0 50 -9 60.5t-42 10.5h-222v-251h265v-68h-265v-265h217q33 0 43 10.5t17 60.5h50z" />
    <glyph glyph-name="F" unicode="F" horiz-adv-x="552" 
d="M512 581h-50q0 50 -9 60.5t-42 10.5h-222v-260h265v-68h-265v-219q0 -32 15 -40.5t87 -8.5v-56h-254v56q51 0 61.5 9t10.5 41v508q0 32 -10.5 41t-61.5 9v56h475v-139z" />
    <glyph glyph-name="G" unicode="G" horiz-adv-x="565" 
d="M322 664q-75 0 -119.5 -39t-60.5 -103t-16 -162q0 -148 44 -226t149 -78q57 0 111 16v244h79l-1 -265l1 -17q-95 -44 -190 -44q-274 0 -274 370q0 83 13.5 147.5t44 116t86 79t133.5 27.5q101 0 187 -46v-103h-50q0 83 -137 83z" />
    <glyph glyph-name="H" unicode="H" horiz-adv-x="681" 
d="M571 614v-508q0 -32 10.5 -41t62.5 -9v-56h-225v56q51 0 61.5 9t10.5 41v227h-302v-227q0 -32 10.5 -41t61.5 -9v-56h-224v56q51 0 61.5 9t10.5 41v508q0 32 -10.5 41t-61.5 9v56h224v-56q-51 0 -61.5 -9t-10.5 -41v-213h302v213q0 32 -10.5 41t-61.5 9v56h225v-56
q-52 0 -62.5 -9t-10.5 -41z" />
    <glyph glyph-name="I" unicode="I" horiz-adv-x="299" 
d="M189 614v-508q0 -32 10.5 -41t61.5 -9v-56h-224v56q51 0 61.5 9t10.5 41v508q0 32 -10.5 41t-61.5 9v56h224v-56q-51 0 -61.5 -9t-10.5 -41z" />
    <glyph glyph-name="J" unicode="J" horiz-adv-x="291" 
d="M263 720v-56q-51 0 -61.5 -9t-10.5 -41v-453q0 -31 -2 -51t-10.5 -43t-24.5 -37.5t-44.5 -25.5t-69.5 -14l-7 54q48 7 63 32t15 79v459q0 32 -10.5 41t-61.5 9v56h224z" />
    <glyph glyph-name="K" unicode="K" horiz-adv-x="584" 
d="M189 614v-508q0 -32 10.5 -41t61.5 -9v-56h-224v56q51 0 61.5 9t10.5 41v508q0 32 -10.5 41t-61.5 9v56h224v-56q-51 0 -61.5 -9t-10.5 -41zM300 369l190 -265q23 -32 36.5 -40t47.5 -8v-56h-108l-247 345v41l242 334h103v-56q-33 0 -45 -7t-32 -35z" />
    <glyph glyph-name="L" unicode="L" horiz-adv-x="525" 
d="M496 0h-459v56q51 0 61.5 9t10.5 41v508q0 32 -10.5 41t-61.5 9v56h224v-56q-50 0 -61 -9t-11 -41v-546h207q33 0 43 10.5t17 60.5h50z" />
    <glyph glyph-name="M" unicode="M" horiz-adv-x="794" 
d="M684 614v-508q0 -32 10.5 -41t61.5 -9v-56h-150v338q0 133 4 218h-5l-179 -556h-59l-183 556h-5q5 -85 5 -218v-338h-147v56q51 0 61.5 9t10.5 41v508q0 32 -10.5 41t-61.5 9v56h179l151 -468l30 -108h4q5 19 15.5 56l14.5 52l146 468h179v-56q-51 0 -61.5 -9t-10.5 -41z
" />
    <glyph glyph-name="N" unicode="N" horiz-adv-x="673" 
d="M644 720v-56q-52 0 -62.5 -9t-10.5 -41v-614h-82l-303 567h-5q4 -84 4 -218v-349h-148v56q51 0 61.5 9t10.5 41v508q0 32 -10.5 41t-61.5 9v56h154l304 -567h5q-4 84 -4 218v349h148z" />
    <glyph glyph-name="O" unicode="O" horiz-adv-x="620" 
d="M310 -10q-138 0 -202 99.5t-64 275.5q0 365 266 365t266 -365q0 -176 -64 -275.5t-202 -99.5zM310 664q-99 0 -141.5 -74.5t-42.5 -224.5q0 -152 42.5 -230.5t141.5 -78.5t141.5 78.5t42.5 230.5q0 150 -42.5 224.5t-141.5 74.5z" />
    <glyph glyph-name="P" unicode="P" horiz-adv-x="587" 
d="M37 720h292q121 0 174.5 -57.5t53.5 -153.5q0 -99 -54 -161t-174 -62h-100v68h100q147 0 147 155q0 74 -35.5 108.5t-111.5 34.5h-140v-546q0 -23 4.5 -31.5t25.5 -13.5t72 -5v-56h-254v56q51 0 61.5 9t10.5 41v508q0 32 -10.5 41t-61.5 9v56z" />
    <glyph glyph-name="Q" unicode="Q" horiz-adv-x="624" 
d="M492 64q50 -26 102 -21v-42q-42 -11 -65 -11q-52 0 -96 28q-53 -28 -123 -28q-138 0 -202 99.5t-64 275.5q0 365 266 365t266 -365q0 -207 -84 -301zM310 664q-99 0 -141.5 -74.5t-42.5 -224.5q0 -109 20 -176q40 10 68 10q38 0 69.5 -7t61 -24t43.5 -27t44 -34
q62 73 62 258q0 150 -42.5 224.5t-141.5 74.5zM310 56q34 0 61 9q-29 25 -48.5 38.5t-54 26t-71.5 12.5q-15 0 -31 -3q45 -83 144 -83z" />
    <glyph glyph-name="R" unicode="R" horiz-adv-x="618" 
d="M37 720h296q117 0 170.5 -57t53.5 -142q0 -161 -146 -190v-5q35 -10 54.5 -38.5t37.5 -81.5l39 -118q7 -22 15 -27t39 -5v-56h-113l-72 220q-10 30 -20.5 47.5t-38.5 33t-72 15.5h-51v68h104q76 0 109.5 35t33.5 102q0 131 -143 131h-144v-546q0 -32 10.5 -41t61.5 -9
v-56h-224v56q51 0 61.5 9t10.5 41v508q0 32 -10.5 41t-61.5 9v56z" />
    <glyph glyph-name="S" unicode="S" horiz-adv-x="493" 
d="M250 664q-63 0 -92.5 -29.5t-29.5 -78.5q0 -43 33.5 -75.5t81.5 -57t96 -52.5t81.5 -75t33.5 -111q0 -90 -57 -142.5t-159 -52.5q-115 0 -197 44v75q98 -52 194 -52q138 0 138 122q0 47 -33.5 82.5t-81.5 60.5l-96.5 52t-82 72t-33.5 106q0 84 56 131t143 47
q103 0 188 -46v-103h-50q0 83 -133 83z" />
    <glyph glyph-name="T" unicode="T" horiz-adv-x="526" 
d="M494 581h-50q0 50 -9 60.5t-42 10.5h-89v-546q0 -32 10.5 -41t61.5 -9v-56h-225v56q52 0 62.5 9t10.5 41v546h-90q-33 0 -42.5 -10.5t-9.5 -60.5h-50v139h462v-139z" />
    <glyph glyph-name="U" unicode="U" horiz-adv-x="650" 
d="M628 720v-56q-51 0 -61.5 -9t-10.5 -41v-380q0 -244 -231 -244t-231 244v380q0 32 -10.5 41t-61.5 9v56h225v-56q-52 0 -62.5 -9t-10.5 -41v-380q0 -178 151 -178t151 178v380q0 32 -10.5 41t-61.5 9v56h224z" />
    <glyph glyph-name="V" unicode="V" horiz-adv-x="590" 
d="M120 720l134 -485q32 -117 41 -156h2q14 61 40 156l134 485h110v-56q-27 0 -37.5 -5t-16.5 -27l-178 -637h-110l-178 639q-6 20 -16 25t-36 5v56h111z" />
    <glyph glyph-name="W" unicode="W" horiz-adv-x="855" 
d="M841 720v-56q-26 0 -35 -5.5t-13 -24.5l-149 -639h-104l-112 539l-109 -539h-106l-154 640q-4 19 -13 24t-35 5v56h109l116 -489q1 -3 13.5 -59.5t17.5 -85.5h2l27 145l97 489h76l99 -489q12 -56 26 -145h2q7 41 29 145l112 489h104z" />
    <glyph glyph-name="X" unicode="X" horiz-adv-x="539" 
d="M316 375l147 -286q11 -22 22 -27.5t45 -5.5v-56h-113l-151 298l-151 -298h-109v56q35 0 45 5t22 28l151 288l-129 254q-11 23 -21.5 28t-46.5 5v56h113l134 -267l131 267h111v-56q-35 0 -46 -5t-23 -28z" />
    <glyph glyph-name="Y" unicode="Y" horiz-adv-x="552" 
d="M541 720v-56q-26 0 -35 -5.5t-20 -28.5l-170 -374v-150q0 -32 10.5 -41t61.5 -9v-56h-224v56q51 0 61.5 9t10.5 41v152l-173 376q-9 20 -17.5 25t-33.5 5v56h98l116 -254l52 -124h2q36 90 52 124l113 254h96z" />
    <glyph glyph-name="Z" unicode="Z" horiz-adv-x="500" 
d="M454 0h-418v62l326 590h-216q-33 0 -42 -10.5t-9 -60.5h-50v139h409v-62l-325 -590h225q33 0 43 10.5t17 60.5h50z" />
    <glyph glyph-name="bracketleft" unicode="[" horiz-adv-x="282" 
d="M253 800v-51h-95v-778h95v-51h-175v880h175z" />
    <glyph glyph-name="backslash" unicode="\" horiz-adv-x="278" 
d="M250 0h-56l-163 720h55z" />
    <glyph glyph-name="bracketright" unicode="]" horiz-adv-x="282" 
d="M29 -80v51h96v778h-96v51h176v-880h-176z" />
    <glyph glyph-name="asciicircum" unicode="^" horiz-adv-x="382" 
d="M57 550l120 166h30l120 -166h-54l-80 99l-82 -99h-54z" />
    <glyph glyph-name="underscore" unicode="_" horiz-adv-x="517" 
d="M58 -92v50h406v-50h-406z" />
    <glyph glyph-name="grave" unicode="`" horiz-adv-x="344" 
d="M250 550l-136 55q-29 12 -29 36q0 13 9 21.5t23 8.5q17 0 36 -14l111 -78z" />
    <glyph glyph-name="a" unicode="a" horiz-adv-x="472" 
d="M390 379v-273q0 -32 9 -41t53 -9v-56h-132l-5 64l-57 -48q-41 -26 -94 -26q-58 0 -95.5 33.5t-37.5 90.5q0 103 135 133l149 32v70q0 48 -22 76.5t-86 28.5q-72 0 -143 -26l-5 5l23 58q71 19 140 19q77 0 122.5 -34t45.5 -97zM315 238l-123 -33q-46 -12 -64 -28.5
t-18 -52.5t22 -55.5t57 -19.5q63 0 126 63v126z" />
    <glyph glyph-name="b" unicode="b" horiz-adv-x="516" 
d="M145 445l62 44q44 21 90 21q87 0 133 -69t46 -191q0 -125 -54.5 -192.5t-152.5 -67.5q-80 0 -141 45l-25 -40h-33v619q0 32 -9 41t-53 9v56h137v-275zM145 404v-325q51 -38 117 -38q137 0 137 209q0 107 -33 155t-99 48q-52 0 -122 -49z" />
    <glyph glyph-name="c" unicode="c" horiz-adv-x="451" 
d="M414 379h-50q0 40 -25 56.5t-76 17.5q-77 0 -112 -56t-35 -147q0 -203 154 -203q78 0 144 42v-59q-70 -40 -154 -40q-107 0 -164 68t-57 192q0 123 57.5 191.5t162.5 68.5q87 0 155 -35v-96z" />
    <glyph glyph-name="d" unicode="d" horiz-adv-x="535" 
d="M447 720v-614q0 -32 9 -41t53 -9v-56h-132l-5 55l-62 -44q-44 -21 -90 -21q-87 0 -133 69t-46 191q0 124 53 192t145 68q56 0 103 -29v-50q-43 25 -88 25q-136 0 -136 -206q0 -107 33 -155t99 -48q52 0 122 49v518q0 32 -9 41t-53 9v56h137z" />
    <glyph glyph-name="e" unicode="e" horiz-adv-x="493" 
d="M452 324q0 -41 -9 -91h-326q4 -94 46 -139t114 -45q86 0 155 42v-61q-74 -40 -165 -40q-112 0 -169.5 67.5t-57.5 192.5q0 124 58.5 192t166.5 68q28 0 52.5 -4.5t50 -17t43.5 -32.5t29.5 -54t11.5 -78zM118 279l259 3q3 33 3 42q0 132 -113 132q-140 0 -149 -177z" />
    <glyph glyph-name="f" unicode="f" horiz-adv-x="303" 
d="M94 500v38q0 57 13 93.5t42 55.5t65 26t92 7v-65l-5 -3q-26 8 -54 8q-40 0 -58.5 -24t-18.5 -77v-59h110v-54h-110v-340q0 -32 11.5 -41t68.5 -9v-56h-216v56q42 0 51 9t9 41v340h-60v35z" />
    <glyph glyph-name="g" unicode="g" horiz-adv-x="477" 
d="M138 85l193 -23q138 -17 138 -131q0 -70 -58.5 -115.5t-175.5 -45.5q-109 0 -161.5 35t-52.5 87q0 30 18 55.5t47 38.5l16 -6l-21 -61q0 -98 153 -98q78 0 118.5 28.5t40.5 70.5q0 60 -80 71l-174 20q-66 9 -66 59q0 44 63 88q-95 44 -95 168q0 82 50 133t136 51
q36 0 66 -9l148 9v-56l-79 9q52 -50 52 -137q0 -86 -50 -136.5t-137 -50.5q-27 0 -53 6zM227 457q-54 0 -83.5 -37.5t-29.5 -93.5q0 -60 29.5 -97.5t84.5 -37.5q54 0 83.5 38.5t29.5 96.5q0 57 -30 94t-84 37z" />
    <glyph glyph-name="h" unicode="h" horiz-adv-x="540" 
d="M458 371v-265q0 -32 9 -41t52 -9v-56h-137v357q0 89 -88 89q-62 0 -130 -45v-295q0 -32 9 -41t52 -9v-56h-198v56q43 0 52 9t9 41v508q0 32 -9 41t-52 9v56h137v-278h2l49 42q51 26 104 26q63 0 101 -35t38 -104z" />
    <glyph glyph-name="i" unicode="i" horiz-adv-x="259" 
d="M73 629q0 21 14 34.5t37 13.5q22 0 35.5 -13.5t13.5 -34.5t-14 -35.5t-35 -14.5q-23 0 -37 14.5t-14 35.5zM171 500v-394q0 -32 9 -41t53 -9v-56h-198v56q43 0 52 9t9 41v288q0 32 -9 41t-52 9v56h136z" />
    <glyph glyph-name="j" unicode="j" horiz-adv-x="236" 
d="M65 629q0 21 14 34.5t37 13.5q22 0 35.5 -13.5t13.5 -34.5t-14 -35.5t-35 -14.5q-23 0 -37 14.5t-14 35.5zM166 500v-502q0 -80 -27 -130.5t-108 -87.5l-29 46q56 33 72 66.5t16 105.5v396q0 32 -9 41t-53 9v56h138z" />
    <glyph glyph-name="k" unicode="k" horiz-adv-x="495" 
d="M165 720v-614q0 -32 9 -41t52 -9v-56h-197v56q43 0 51.5 9t8.5 41v508q0 32 -8.5 41t-51.5 9v56h136zM272 265l123 -161q23 -31 35 -37q18 -11 56 -11v-56h-112l-190 260l182 240h104v-56q-36 0 -55.5 -11t-39.5 -36z" />
    <glyph glyph-name="l" unicode="l" horiz-adv-x="254" 
d="M165 720v-614q0 -32 9 -41t52 -9v-56h-198v56q43 0 52 9t9 41v508q0 32 -9 41t-52 9v56h137z" />
    <glyph glyph-name="m" unicode="m" horiz-adv-x="837" 
d="M755 371v-265q0 -32 9 -41t53 -9v-56h-137v357q0 89 -88 89q-50 0 -129 -52v-288q0 -32 9 -41t53 -9v-56h-138v357q0 89 -87 89q-59 0 -129 -45v-295q0 -32 9 -41t52 -9v-56h-197v56q43 0 51.5 9t8.5 41v288q0 32 -8.5 41t-51.5 9v56h131l5 -58h2l49 42q51 26 104 26
q98 0 126 -78h3l57 52q51 26 104 26q63 0 101 -35t38 -104z" />
    <glyph glyph-name="n" unicode="n" horiz-adv-x="547" 
d="M465 371v-265q0 -32 9 -41t53 -9v-56h-137v357q0 89 -88 89q-61 0 -131 -45v-295q0 -32 9 -41t52 -9v-56h-197v56q43 0 51.5 9t8.5 41v288q0 32 -8.5 41t-51.5 9v56h131l5 -58h2l49 42q51 26 104 26q63 0 101 -35t38 -104z" />
    <glyph glyph-name="o" unicode="o" horiz-adv-x="503" 
d="M252 -10q-106 0 -159 67.5t-53 192.5t53 192.5t159 67.5t159 -67.5t53 -192.5t-54 -192.5t-158 -67.5zM252 456q-135 0 -135 -206q0 -101 31 -153.5t104 -52.5q72 0 103.5 52.5t31.5 153.5q0 206 -135 206z" />
    <glyph glyph-name="p" unicode="p" horiz-adv-x="534" 
d="M162 445l62 44q42 21 90 21q87 0 133 -69t46 -191q0 -124 -53 -192t-146 -68q-57 0 -102 29v50q43 -25 88 -25q136 0 136 206q0 107 -33 155t-99 48q-54 0 -122 -49v-518q0 -32 9 -41t53 -9v-56h-198v56q42 0 51 9t9 41v508q0 32 -9 41t-52 9v56h132z" />
    <glyph glyph-name="q" unicode="q" horiz-adv-x="516" 
d="M446 505v-619q0 -32 9 -41t53 -9v-56h-198v56q43 0 52 9t9 41v169l-62 -44q-44 -21 -90 -21q-87 0 -133 69t-46 191q0 125 54.5 192.5t152.5 67.5q84 0 144 -47l30 42h25zM371 96v325q-51 38 -117 38q-137 0 -137 -209q0 -107 33 -155t99 -48q52 0 122 49z" />
    <glyph glyph-name="r" unicode="r" horiz-adv-x="351" 
d="M173 422l43 57q36 31 84 31q21 0 48 -6l-27 -71q-18 5 -39 5q-58 0 -111 -62v-270q0 -32 11.5 -41t68.5 -9v-56h-216v56q43 0 51.5 9t8.5 41v288q0 32 -8.5 41t-51.5 9v56h131l5 -78h2z" />
    <glyph glyph-name="s" unicode="s" horiz-adv-x="425" 
d="M366 379h-50q0 74 -103 74q-49 0 -71.5 -19.5t-22.5 -50.5q0 -32 28 -53t68 -34.5t80 -29.5t68 -48.5t28 -80.5q0 -69 -50.5 -108t-130.5 -39q-90 0 -159 35l-10 65q79 -44 165 -44q52 0 79.5 24.5t27.5 60.5q0 33 -28 55t-67.5 36t-79.5 30t-68 48t-28 80q0 62 49 96
t122 34q85 0 153 -35v-96z" />
    <glyph glyph-name="t" unicode="t" horiz-adv-x="291" 
d="M20 446v35l62 19l44 98h32v-98h109v-54h-109v-339q0 -29 11.5 -43t41.5 -14q34 0 62 12v-58q-39 -14 -76 -14q-58 0 -86.5 25.5t-28.5 83.5v347h-62z" />
    <glyph glyph-name="u" unicode="u" horiz-adv-x="540" 
d="M452 500v-394q0 -32 9 -41t52 -9v-56h-132l-5 58h-2l-49 -42q-51 -26 -104 -26q-63 0 -101 35t-38 104v265q0 32 -9 41t-52 9v56h137v-357q0 -89 88 -89q62 0 130 45v295q0 32 -9 41t-52 9v56h137z" />
    <glyph glyph-name="v" unicode="v" horiz-adv-x="510" 
d="M494 500v-56q-31 0 -41.5 -7.5t-18.5 -30.5l-135 -411h-91l-126 397q-11 34 -21 43t-45 9v56h113l127 -416h2l129 416h107z" />
    <glyph glyph-name="w" unicode="w" horiz-adv-x="767" 
d="M755 500v-56q-29 0 -40.5 -5.5t-16.5 -22.5l-124 -421h-97l-90 389l-109 -389h-96l-104 410q-6 25 -15.5 32t-40.5 7v56h109l104 -421h2l112 421h85l94 -421h2l117 421h108z" />
    <glyph glyph-name="x" unicode="x" horiz-adv-x="466" 
d="M275 261l97 -155q21 -33 34 -41.5t45 -8.5v-56h-98l-123 196l-127 -196h-90v56q30 0 42.5 7.5t31.5 35.5l104 160l-85 137q-20 31 -34 39.5t-44 8.5v56h97l111 -178l114 178h91v-56q-33 0 -45.5 -8t-30.5 -36z" />
    <glyph glyph-name="y" unicode="y" horiz-adv-x="509" 
d="M495 500v-56q-32 0 -42 -7t-19 -31l-103 -312q-57 -171 -170 -314h-83v10q74 88 133 204l-128 398q-8 24 -12.5 33t-16.5 14t-37 5v56h111l129 -416h2l129 416h107z" />
    <glyph glyph-name="z" unicode="z" horiz-adv-x="441" 
d="M404 0h-364v54l264 388h-147q-18 0 -28 -1.5t-20 -7.5t-14.5 -19.5t-4.5 -34.5h-50v121h354v-54l-264 -388h157q18 0 28 1.5t20 7.5t14.5 19.5t4.5 34.5h50v-121z" />
    <glyph glyph-name="braceleft" unicode="{" horiz-adv-x="276" 
d="M92 362v-3q43 -10 63 -37.5t20 -57.5q0 -35 -15 -101t-15 -94q0 -51 24.5 -74.5t76.5 -23.5v-51q-89 0 -133.5 30.5t-44.5 99.5q0 41 15 106.5t15 83.5q0 44 -16 63.5t-50 19.5v74q34 0 50 19.5t16 63.5q0 18 -15 83.5t-15 106.5q0 69 44.5 99.5t133.5 30.5v-51
q-52 0 -76.5 -23.5t-24.5 -74.5q0 -28 15 -94t15 -101q0 -30 -20 -56.5t-63 -37.5z" />
    <glyph glyph-name="bar" unicode="|" horiz-adv-x="219" 
d="M137 740v-760h-55v760h55z" />
    <glyph glyph-name="braceright" unicode="}" horiz-adv-x="277" 
d="M31 749v51q89 0 133 -30.5t44 -99.5q0 -41 -15 -106.5t-15 -83.5q0 -83 67 -83v-74q-67 0 -67 -83q0 -18 15 -83.5t15 -106.5q0 -69 -44 -99.5t-133 -30.5v51q52 0 76 23.5t24 74.5q0 28 -15 94t-15 101q0 29 20.5 57t63.5 38v3q-43 11 -63.5 37.5t-20.5 56.5
q0 35 15 101t15 94q0 51 -24 74.5t-76 23.5z" />
    <glyph glyph-name="asciitilde" unicode="~" horiz-adv-x="422" 
d="M107 557h-45q4 52 29 78.5t61 26.5q25 0 69 -23t63 -23q33 0 40 50h43q-8 -106 -78 -106q-26 0 -72 23t-64 23q-21 0 -31.5 -12t-14.5 -37z" />
    <glyph glyph-name="exclamdown" unicode="&#xa1;" horiz-adv-x="211" 
d="M61 463q0 20 13 33.5t33 13.5q19 0 31.5 -13.5t12.5 -33.5q0 -19 -13 -33t-31 -14q-20 0 -33 14t-13 33zM129 338l19 -558h-84l19 558h46z" />
    <glyph glyph-name="cent" unicode="&#xa2;" horiz-adv-x="562" 
d="M337 664v-608q100 5 184 55l-10 -77q-93 -44 -190 -44q-274 0 -274 370q0 83 13.5 147.5t44 116t86 79t134.5 27.5q93 0 186 -44v-72q-87 47 -174 50zM128 360q0 -140 38.5 -217t131.5 -86v606q-94 -10 -132 -86.5t-38 -216.5z" />
    <glyph glyph-name="sterling" unicode="&#xa3;" horiz-adv-x="495" 
d="M449 68l-10 -68h-387v54q101 57 101 170q0 43 -29 105h-72v50h46q-46 92 -46 155q0 102 60 149t161 47q96 0 175 -46v-103h-50q0 83 -119 83q-27 0 -50 -5.5t-45 -18t-35 -38.5t-13 -63q0 -31 9.5 -62.5t17.5 -47t28 -50.5h194v-50h-169q21 -51 21 -99q0 -53 -16.5 -88
t-50.5 -70v-4h279z" />
    <glyph glyph-name="currency" unicode="&#xa4;" horiz-adv-x="628" 
d="M382 56q108 0 200 55l-10 -77q-95 -44 -190 -44q-238 0 -269 279h-75v50h71q-1 13 -1 41q0 34 1 51h-71v50h76q32 269 271 269q101 0 187 -46v-103h-50q0 83 -137 83q-89 0 -133.5 -51.5t-57.5 -151.5h215v-50h-219q-1 -16 -1 -51l1 -41h219v-50h-215
q11 -104 55.5 -158.5t132.5 -54.5z" />
    <glyph glyph-name="yen" unicode="&#xa5;" horiz-adv-x="581" 
d="M556 720v-56q-25 0 -34 -5.5t-20 -28.5l-157 -346h134v-50h-147v-128q0 -32 10.5 -41t61.5 -9v-56h-225v56q52 0 62.5 9t10.5 41v128h-153v50h140l-161 350q-9 20 -17.5 25t-33.5 5v56h98l117 -254l51 -124h2l52 124l114 254h95z" />
    <glyph glyph-name="brokenbar" unicode="&#xa6;" horiz-adv-x="220" 
d="M137 740v-340h-54v340h54zM137 320v-340h-54v340h54z" />
    <glyph glyph-name="section" unicode="&#xa7;" horiz-adv-x="486" 
d="M62 604q0 84 56 130.5t143 46.5q100 0 189 -44v-71q-98 49 -185 49q-63 0 -92.5 -29.5t-29.5 -77.5q0 -34 26 -65t63.5 -53.5l75 -43t63.5 -42.5t26 -43q0 -27 -37 -44q-29 25 -88 58.5l-101 58.5t-75.5 70t-33.5 100zM421 110q0 -75 -52 -123t-137 -48q-112 0 -197 44
v74q92 -51 192 -51q58 0 85.5 28t27.5 71q0 38 -26 70.5t-63 53.5l-74 40.5t-63 41t-26 45.5q0 26 33 44q29 -24 88 -57l101.5 -58t76.5 -71t34 -104z" />
    <glyph glyph-name="dieresis" unicode="&#xa8;" horiz-adv-x="431" 
d="M81 626q0 20 13.5 33.5t35.5 13.5q20 0 33 -13.5t13 -33.5t-13.5 -33.5t-32.5 -13.5q-21 0 -35 13.5t-14 33.5zM254 626q0 20 13 33.5t35 13.5q20 0 33.5 -13.5t13.5 -33.5t-13.5 -33.5t-33.5 -13.5q-21 0 -34.5 13.5t-13.5 33.5z" />
    <glyph glyph-name="copyright" unicode="&#xa9;" horiz-adv-x="822" 
d="M412 -10q-154 0 -262 108.5t-108 261.5t108 261.5t262 108.5q153 0 261.5 -108.5t108.5 -261.5t-108.5 -261.5t-261.5 -108.5zM412 30q136 0 233 97t97 233t-97 233t-233 97q-137 0 -233.5 -96.5t-96.5 -233.5t96.5 -233.5t233.5 -96.5zM270 360q0 204 155 204
q49 0 103 -25v-43q-50 27 -103 27q-60 0 -83 -41t-23 -122q0 -80 23.5 -121.5t79.5 -41.5q61 0 111 30l-5 -46q-54 -25 -106 -25q-152 0 -152 204z" />
    <glyph glyph-name="ordfeminine" unicode="&#xaa;" horiz-adv-x="392" 
d="M297 645v-180q0 -15 1.5 -20.5t10 -9t28.5 -3.5v-34h-83l-3 42l-37 -31q-26 -18 -61 -18q-37 0 -61.5 22t-24.5 58q0 68 88 87l96 21v46q0 32 -14.5 51t-56.5 19q-49 0 -93 -17l-3 3l15 37q48 12 90 12q50 0 79 -22t29 -63zM251 553l-81 -22q-31 -8 -43.5 -19t-12.5 -34
q0 -24 15 -37t38 -13q44 0 84 42v83zM52 298v38h292v-38h-292z" />
    <glyph glyph-name="guillemotleft" unicode="&#xab;" horiz-adv-x="493" 
d="M253 109l-40 -34l-175 181v28l175 181l40 -34l-145 -161zM448 109l-40 -34l-175 181v28l175 181l40 -34l-145 -161z" />
    <glyph glyph-name="logicalnot" unicode="&#xac;" horiz-adv-x="464" 
d="M357 93v177h-299v50h349v-227h-50z" />
    <glyph glyph-name="softhyphen" unicode="&#xad;" horiz-adv-x="426" 
d="M55 249v50h316v-50h-316z" />
    <glyph glyph-name="registered" unicode="&#xae;" horiz-adv-x="822" 
d="M412 -10q-154 0 -262 108.5t-108 261.5t108 261.5t262 108.5q153 0 261.5 -108.5t108.5 -261.5t-108.5 -261.5t-261.5 -108.5zM412 30q136 0 233 97t97 233t-97 233t-233 97q-137 0 -233.5 -96.5t-96.5 -233.5t96.5 -233.5t233.5 -96.5zM296 162v396h124q65 0 95 -31.5
t30 -79.5q0 -88 -78 -105v-2q33 -11 49 -63l35 -109v-6h-50l-40 121q-6 17 -11 25.5t-20 16.5t-38 8h-25v41h53q76 0 76 73q0 70 -76 70h-75v-355h-49z" />
    <glyph glyph-name="macron" unicode="&#xaf;" horiz-adv-x="424" 
d="M70 571v47h284v-47h-284z" />
    <glyph glyph-name="degree" unicode="&#xb0;" horiz-adv-x="301" 
d="M39 619q0 48 33 79.5t78 31.5q46 0 79 -31.5t33 -79.5t-33 -80t-79 -32q-45 0 -78 32t-33 80zM82 619q0 -29 19.5 -49t48.5 -20q30 0 49.5 20t19.5 49t-19.5 48.5t-49.5 19.5t-49 -19.5t-19 -48.5z" />
    <glyph glyph-name="plusminus" unicode="&#xb1;" horiz-adv-x="432" 
d="M374 309v-53h-131v-132h-53v132h-132v53h132v135h53v-135h131zM58 91h316v-52h-316v52z" />
    <glyph glyph-name="twosuperior" unicode="&#xb2;" horiz-adv-x="326" 
d="M87 428h204l-6 -41h-258v41q127 101 170.5 160.5t43.5 113.5q0 82 -92 82q-53 0 -102 -29v43q52 27 109 27q136 0 136 -124q0 -67 -45.5 -124.5t-159.5 -146.5v-2z" />
    <glyph glyph-name="threesuperior" unicode="&#xb3;" horiz-adv-x="328" 
d="M151 825q63 0 96.5 -30.5t33.5 -76.5q0 -87 -89 -109v-1q44 -7 71 -34.5t27 -71.5q0 -59 -37.5 -90t-104.5 -31q-56 0 -114 27v44q53 -30 109 -30q45 0 71.5 20.5t26.5 61.5q0 42 -32.5 62.5t-87.5 20.5h-33v38h33q45 0 78 21t33 67q0 71 -86 71q-50 0 -103 -29v43
q50 27 108 27z" />
    <glyph glyph-name="acute" unicode="&#xb4;" horiz-adv-x="344" 
d="M78 579l111 78q19 14 36 14q14 0 23 -8.5t9 -21.5q0 -25 -29 -36l-135 -55z" />
    <glyph glyph-name="paragraph" unicode="&#xb6;" horiz-adv-x="524" 
d="M362 0v646h-71v-344h-47q-113 0 -165 61t-52 155q0 90 52 146t165 56h198v-720h-80z" />
    <glyph glyph-name="periodcentered" unicode="&#xb7;" horiz-adv-x="196" 
d="M52 269q0 19 13 32.5t33 13.5q19 0 31.5 -13.5t12.5 -32.5t-13 -33.5t-31 -14.5q-20 0 -33 14.5t-13 33.5z" />
    <glyph glyph-name="cedilla" unicode="&#xb8;" horiz-adv-x="329" 
d="M151 0v-32q41 0 65.5 -21t24.5 -60q0 -42 -25.5 -64.5t-66.5 -22.5q-36 0 -63 12v32q33 -9 50 -9q54 0 54 53q0 51 -76 51v61h37z" />
    <glyph glyph-name="onesuperior" unicode="&#xb9;" horiz-adv-x="193" 
d="M83 390v387h-60v33l84 15h24v-435h-48z" />
    <glyph glyph-name="ordmasculine" unicode="&#xba;" horiz-adv-x="403" 
d="M199 391q-137 0 -137 170q0 81 34.5 125t102.5 44t102 -44t34 -125q0 -82 -34 -126t-102 -44zM199 696q-89 0 -89 -135q0 -67 20.5 -101.5t68.5 -34.5q89 0 89 136q0 135 -89 135zM56 298v38h293v-38h-293z" />
    <glyph glyph-name="guillemotright" unicode="&#xbb;" horiz-adv-x="493" 
d="M45 431l40 34l175 -181v-28l-175 -181l-40 34l145 161zM240 431l40 34l175 -181v-28l-175 -181l-40 34l145 161z" />
    <glyph glyph-name="onequarter" unicode="&#xbc;" horiz-adv-x="664" 
d="M83 677h-60v33l85 15h24v-435h-49v387zM508 720l-206 -345l-34 13l179 332h61zM630 98h-42v-98h-49v98h-189v43l200 294h38v-296h42v-41zM246 351l34 -13l-186 -338h-62zM539 139v203l-139 -203h139z" />
    <glyph glyph-name="onehalf" unicode="&#xbd;" horiz-adv-x="675" 
d="M83 677h-60v33l85 15h24v-435h-49v387zM508 720l-206 -345l-34 13l179 332h61zM435 41h204l-6 -41h-258v41q127 101 170.5 160.5t43.5 113.5q0 82 -92 82q-53 0 -102 -29v43q52 27 109 27q136 0 136 -124q0 -67 -45.5 -124.5t-159.5 -146.5v-2zM246 351l34 -13l-186 -338
h-62z" />
    <glyph glyph-name="threequarters" unicode="&#xbe;" horiz-adv-x="799" 
d="M291 402q0 -59 -37.5 -90t-105.5 -31q-56 0 -114 27v44q53 -30 109 -30q45 0 71.5 20.5t26.5 61.5q0 42 -32.5 62.5t-87.5 20.5h-33v38h33q46 0 78.5 21t32.5 67q0 71 -86 71q-48 0 -103 -29v43q50 27 108 27q64 0 97 -30.5t33 -76.5q0 -87 -89 -109v-1q44 -7 71.5 -34.5
t27.5 -71.5zM643 720l-206 -345l-34 13l179 332h61zM766 98h-42v-98h-49v98h-189v43l200 294h38v-296h42v-41zM381 351l34 -13l-186 -338h-62zM675 139v203l-139 -203h139z" />
    <glyph glyph-name="questiondown" unicode="&#xbf;" horiz-adv-x="417" 
d="M308 463q0 -19 -13 -33t-33 -14q-18 0 -31 14t-13 33q0 20 12.5 33.5t31.5 13.5q21 0 33.5 -13.5t12.5 -33.5zM229 -164q118 0 118 83h49v-103q-75 -46 -169 -46q-100 0 -150.5 57t-50.5 157q0 62 19.5 108t51.5 70t65.5 35t69.5 11l5 130h50l6 -185q-90 0 -138 -35.5
t-48 -129.5q0 -152 122 -152z" />
    <glyph glyph-name="Agrave" unicode="&#xc0;" horiz-adv-x="592" 
d="M322 770l-136 55q-29 12 -29 36q0 13 9 21.5t23 8.5q17 0 36 -14l111 -78zM350 725l179 -639q5 -20 15 -25t36 -5v-56h-110l-59 211h-236l-58 -211h-108v56q27 0 37 5t16 27l180 637h108zM393 279l-58 210q-37 140 -40 152h-2q-8 -34 -41 -156l-57 -206h198z" />
    <glyph glyph-name="Aacute" unicode="&#xc1;" horiz-adv-x="592" 
d="M266 799l111 78q19 14 36 14q14 0 23 -8.5t9 -21.5q0 -25 -29 -36l-135 -55zM350 725l179 -639q5 -20 15 -25t36 -5v-56h-110l-59 211h-236l-58 -211h-108v56q27 0 37 5t16 27l180 637h108zM393 279l-58 210q-37 140 -40 152h-2q-8 -34 -41 -156l-57 -206h198z" />
    <glyph glyph-name="Acircumflex" unicode="&#xc2;" horiz-adv-x="592" 
d="M159 770l121 166h30l119 -166h-53l-80 99l-82 -99h-55zM350 725l179 -639q5 -20 15 -25t36 -5v-56h-110l-59 211h-236l-58 -211h-108v56q27 0 37 5t16 27l180 637h108zM393 279l-58 210q-37 140 -40 152h-2q-8 -34 -41 -156l-57 -206h198z" />
    <glyph glyph-name="Atilde" unicode="&#xc3;" horiz-adv-x="592" 
d="M186 777h-45q4 52 29 78.5t61 26.5q25 0 69 -23t63 -23q35 0 40 50h43q-8 -106 -78 -106q-26 0 -72 23t-64 23q-21 0 -31.5 -12t-14.5 -37zM350 725l179 -639q5 -20 15 -25t36 -5v-56h-110l-59 211h-236l-58 -211h-108v56q27 0 37 5t16 27l180 637h108zM393 279l-58 210
q-37 140 -40 152h-2q-8 -34 -41 -156l-57 -206h198z" />
    <glyph glyph-name="Adieresis" unicode="&#xc4;" horiz-adv-x="592" 
d="M160 846q0 20 13.5 33.5t35.5 13.5q20 0 33 -13.5t13 -33.5t-13.5 -33.5t-32.5 -13.5q-21 0 -35 13.5t-14 33.5zM333 846q0 20 13.5 33.5t34.5 13.5q20 0 33.5 -13.5t13.5 -33.5t-14 -33.5t-33 -13.5q-21 0 -34.5 13.5t-13.5 33.5zM350 725l179 -639q5 -20 15 -25t36 -5
v-56h-110l-59 211h-236l-58 -211h-108v56q27 0 37 5t16 27l180 637h108zM393 279l-58 210q-37 140 -40 152h-2q-8 -34 -41 -156l-57 -206h198z" />
    <glyph glyph-name="Aring" unicode="&#xc5;" horiz-adv-x="592" 
d="M214 842q0 34 22.5 55.5t57.5 21.5q34 0 57 -21.5t23 -55.5t-23 -55t-57 -21t-57 21t-23 55zM247 842q0 -23 13 -35t34 -12q20 0 33.5 12.5t13.5 34.5q0 23 -13.5 35.5t-33.5 12.5q-21 0 -34 -12.5t-13 -35.5zM350 725l179 -639q5 -20 15 -25t36 -5v-56h-110l-59 211
h-236l-58 -211h-108v56q27 0 37 5t16 27l180 637h108zM393 279l-58 210q-37 140 -40 152h-2q-8 -34 -41 -156l-57 -206h198z" />
    <glyph glyph-name="AE" unicode="&#xc6;" horiz-adv-x="792" 
d="M753 139l-10 -139h-366v216h-178l-87 -216h-102v56q27 0 36 5t18 27l252 632h433v-139h-50q0 50 -9.5 60.5t-42.5 10.5h-190v-251h233v-68h-233v-265h186q33 0 43 10.5t17 60.5h50zM377 284v368h-8q-22 -63 -61 -163l-82 -205h151z" />
    <glyph glyph-name="Ccedilla" unicode="&#xc7;" horiz-adv-x="548" 
d="M519 111l-10 -77q-88 -41 -174 -44v-22q41 0 65.5 -21t24.5 -60q0 -42 -25.5 -64.5t-66.5 -22.5q-36 0 -63 12v32q33 -9 50 -9q54 0 54 53q0 51 -76 51v52q-253 13 -253 369q0 83 13.5 147.5t44 116t86 79t134.5 27.5q100 0 186 -46v-103h-50q0 83 -136 83
q-110 0 -153.5 -77.5t-43.5 -226.5q0 -148 44 -226t149 -78q108 0 200 55z" />
    <glyph glyph-name="Egrave" unicode="&#xc8;" horiz-adv-x="555" 
d="M324 770l-136 55q-29 12 -29 36q0 13 9 21.5t23 8.5q17 0 36 -14l111 -78zM506 0h-469v56q51 0 61.5 9t10.5 41v508q0 32 -10.5 41t-61.5 9v56h475v-139h-50q0 50 -9 60.5t-42 10.5h-222v-251h264v-68h-264v-265h217q33 0 43 10.5t17 60.5h50z" />
    <glyph glyph-name="Eacute" unicode="&#xc9;" horiz-adv-x="555" 
d="M268 799l111 78q19 14 36 14q14 0 23 -8.5t9 -21.5q0 -25 -29 -36l-135 -55zM506 0h-469v56q51 0 61.5 9t10.5 41v508q0 32 -10.5 41t-61.5 9v56h475v-139h-50q0 50 -9 60.5t-42 10.5h-222v-251h264v-68h-264v-265h217q33 0 43 10.5t17 60.5h50z" />
    <glyph glyph-name="Ecircumflex" unicode="&#xca;" horiz-adv-x="555" 
d="M162 770l121 166h30l119 -166h-53l-80 99l-82 -99h-55zM506 0h-469v56q51 0 61.5 9t10.5 41v508q0 32 -10.5 41t-61.5 9v56h475v-139h-50q0 50 -9 60.5t-42 10.5h-222v-251h264v-68h-264v-265h217q33 0 43 10.5t17 60.5h50z" />
    <glyph glyph-name="Edieresis" unicode="&#xcb;" horiz-adv-x="555" 
d="M162 846q0 20 13.5 33.5t35.5 13.5q20 0 33 -13.5t13 -33.5t-13.5 -33.5t-32.5 -13.5q-21 0 -35 13.5t-14 33.5zM335 846q0 20 13.5 33.5t34.5 13.5q20 0 33.5 -13.5t13.5 -33.5t-14 -33.5t-33 -13.5q-21 0 -34.5 13.5t-13.5 33.5zM506 0h-469v56q51 0 61.5 9t10.5 41
v508q0 32 -10.5 41t-61.5 9v56h475v-139h-50q0 50 -9 60.5t-42 10.5h-222v-251h264v-68h-264v-265h217q33 0 43 10.5t17 60.5h50z" />
    <glyph glyph-name="Igrave" unicode="&#xcc;" horiz-adv-x="299" 
d="M177 770l-136 55q-29 12 -29 36q0 13 9 21.5t23 8.5q17 0 36 -14l111 -78zM189 614v-508q0 -32 10.5 -41t61.5 -9v-56h-224v56q51 0 61.5 9t10.5 41v508q0 32 -10.5 41t-61.5 9v56h224v-56q-51 0 -61.5 -9t-10.5 -41z" />
    <glyph glyph-name="Iacute" unicode="&#xcd;" horiz-adv-x="299" 
d="M121 799l111 78q19 14 36 14q14 0 23 -8.5t9 -21.5q0 -25 -29 -36l-135 -55zM189 614v-508q0 -32 10.5 -41t61.5 -9v-56h-224v56q51 0 61.5 9t10.5 41v508q0 32 -10.5 41t-61.5 9v56h224v-56q-51 0 -61.5 -9t-10.5 -41z" />
    <glyph glyph-name="Icircumflex" unicode="&#xce;" horiz-adv-x="299" 
d="M14 770l121 166h30l119 -166h-53l-80 99l-82 -99h-55zM189 614v-508q0 -32 10.5 -41t61.5 -9v-56h-224v56q51 0 61.5 9t10.5 41v508q0 32 -10.5 41t-61.5 9v56h224v-56q-51 0 -61.5 -9t-10.5 -41z" />
    <glyph glyph-name="Idieresis" unicode="&#xcf;" horiz-adv-x="299" 
d="M15 846q0 20 13.5 33.5t35.5 13.5q20 0 33 -13.5t13 -33.5t-13.5 -33.5t-32.5 -13.5q-21 0 -35 13.5t-14 33.5zM188 846q0 20 13 33.5t35 13.5q20 0 33.5 -13.5t13.5 -33.5t-13.5 -33.5t-33.5 -13.5q-21 0 -34.5 13.5t-13.5 33.5zM189 614v-508q0 -32 10.5 -41t61.5 -9
v-56h-224v56q51 0 61.5 9t10.5 41v508q0 32 -10.5 41t-61.5 9v56h224v-56q-51 0 -61.5 -9t-10.5 -41z" />
    <glyph glyph-name="Eth" unicode="&#xd0;" horiz-adv-x="652" 
d="M37 720h300q270 0 270 -355q0 -365 -270 -365h-300v56q52 0 62.5 9t10.5 41v228h-72v59h72v221q0 32 -10.5 41t-62.5 9v56zM190 68h147q101 0 144.5 75t43.5 222q0 145 -43 216t-145 71h-147v-259h170v-59h-170v-266z" />
    <glyph glyph-name="Ntilde" unicode="&#xd1;" horiz-adv-x="673" 
d="M285 826q-21 0 -31.5 -12t-14.5 -37h-45q4 52 29 78.5t61 26.5q25 0 69 -23t63 -23q35 0 40 50h43q-8 -106 -78 -106q-26 0 -72 23t-64 23zM644 720v-56q-51 0 -61.5 -9t-10.5 -41h-1v-614h-82l-304 567h-5q5 -84 5 -218v-349h-148v56q51 0 61.5 9t10.5 41v508
q0 32 -10.5 41t-61.5 9v56h154l304 -567h5q-5 84 -5 218v349h149z" />
    <glyph glyph-name="Ograve" unicode="&#xd2;" horiz-adv-x="620" 
d="M337 770l-136 55q-29 12 -29 36q0 13 9 21.5t23 8.5q17 0 36 -14l111 -78zM310 -10q-266 0 -266 375q0 365 266 365q265 0 265 -365q0 -375 -265 -375zM310 664q-99 0 -141.5 -74.5t-42.5 -224.5q0 -152 42.5 -230.5t141.5 -78.5t142 79t43 230q0 150 -43 224.5
t-142 74.5z" />
    <glyph glyph-name="Oacute" unicode="&#xd3;" horiz-adv-x="620" 
d="M281 799l111 78q19 14 36 14q14 0 23 -8.5t9 -21.5q0 -25 -29 -36l-135 -55zM310 -10q-266 0 -266 375q0 365 266 365q265 0 265 -365q0 -375 -265 -375zM310 664q-99 0 -141.5 -74.5t-42.5 -224.5q0 -152 42.5 -230.5t141.5 -78.5t142 79t43 230q0 150 -43 224.5
t-142 74.5z" />
    <glyph glyph-name="Ocircumflex" unicode="&#xd4;" horiz-adv-x="620" 
d="M175 770l121 166h30l119 -166h-53l-80 99l-82 -99h-55zM310 -10q-266 0 -266 375q0 365 266 365q265 0 265 -365q0 -375 -265 -375zM310 664q-99 0 -141.5 -74.5t-42.5 -224.5q0 -152 42.5 -230.5t141.5 -78.5t142 79t43 230q0 150 -43 224.5t-142 74.5z" />
    <glyph glyph-name="Otilde" unicode="&#xd5;" horiz-adv-x="620" 
d="M202 777h-45q4 52 29 78.5t61 26.5q25 0 69 -23t63 -23q35 0 40 50h43q-8 -106 -78 -106q-26 0 -72 23t-64 23q-21 0 -31.5 -12t-14.5 -37zM310 -10q-266 0 -266 375q0 365 266 365q265 0 265 -365q0 -375 -265 -375zM310 664q-99 0 -141.5 -74.5t-42.5 -224.5
q0 -152 42.5 -230.5t141.5 -78.5t142 79t43 230q0 150 -43 224.5t-142 74.5z" />
    <glyph glyph-name="Odieresis" unicode="&#xd6;" horiz-adv-x="620" 
d="M175 846q0 20 13.5 33.5t35.5 13.5q20 0 33 -13.5t13 -33.5t-13.5 -33.5t-32.5 -13.5q-21 0 -35 13.5t-14 33.5zM348 846q0 20 13 33.5t35 13.5q20 0 33.5 -13.5t13.5 -33.5t-13.5 -33.5t-33.5 -13.5q-21 0 -34.5 13.5t-13.5 33.5zM310 -10q-266 0 -266 375
q0 365 266 365q265 0 265 -365q0 -375 -265 -375zM310 664q-99 0 -141.5 -74.5t-42.5 -224.5q0 -152 42.5 -230.5t141.5 -78.5t142 79t43 230q0 150 -43 224.5t-142 74.5z" />
    <glyph glyph-name="multiply" unicode="&#xd7;" horiz-adv-x="429" 
d="M215 230l-122 -123l-36 36l122 122l-122 122l36 36l122 -123l122 123l35 -36l-122 -122l122 -122l-35 -36z" />
    <glyph glyph-name="Oslash" unicode="&#xd8;" horiz-adv-x="620" 
d="M529 780l-49 -109q96 -88 96 -306q0 -176 -64 -275.5t-202 -99.5q-71 0 -125 28l-35 -78h-48l47 103q-105 91 -105 322q0 365 266 365q79 0 134 -32l37 82h48zM126 365q0 -176 55 -249l233 517q-40 31 -104 31q-99 0 -141.5 -74.5t-42.5 -224.5zM310 56q99 0 141.5 78.5
t42.5 230.5q0 161 -47 232l-232 -514q37 -27 95 -27z" />
    <glyph glyph-name="Ugrave" unicode="&#xd9;" horiz-adv-x="650" 
d="M350 770l-136 55q-29 12 -29 36q0 13 9 21.5t23 8.5q17 0 36 -14l111 -78zM628 720v-56q-51 0 -61.5 -9t-10.5 -41v-380q0 -125 -60.5 -184.5t-170.5 -59.5q-231 0 -231 244v380q0 32 -10.5 41t-61.5 9v56h224v-56q-51 0 -61.5 -9t-10.5 -41v-380q0 -178 151 -178
t151 178v380q0 32 -10.5 41t-62.5 9v56h225z" />
    <glyph glyph-name="Uacute" unicode="&#xda;" horiz-adv-x="650" 
d="M294 799l111 78q19 14 36 14q14 0 23 -8.5t9 -21.5q0 -25 -29 -36l-135 -55zM628 720v-56q-51 0 -61.5 -9t-10.5 -41v-380q0 -125 -60.5 -184.5t-170.5 -59.5q-231 0 -231 244v380q0 32 -10.5 41t-61.5 9v56h224v-56q-51 0 -61.5 -9t-10.5 -41v-380q0 -178 151 -178
t151 178v380q0 32 -10.5 41t-62.5 9v56h225z" />
    <glyph glyph-name="Ucircumflex" unicode="&#xdb;" horiz-adv-x="650" 
d="M188 770l121 166h30l119 -166h-53l-80 99l-82 -99h-55zM628 720v-56q-51 0 -61.5 -9t-10.5 -41v-380q0 -125 -60.5 -184.5t-170.5 -59.5q-231 0 -231 244v380q0 32 -10.5 41t-61.5 9v56h224v-56q-51 0 -61.5 -9t-10.5 -41v-380q0 -178 151 -178t151 178v380
q0 32 -10.5 41t-62.5 9v56h225z" />
    <glyph glyph-name="Udieresis" unicode="&#xdc;" horiz-adv-x="650" 
d="M188 846q0 20 13.5 33.5t35.5 13.5q20 0 33 -13.5t13 -33.5t-13.5 -33.5t-32.5 -13.5q-21 0 -35 13.5t-14 33.5zM361 846q0 20 13.5 33.5t34.5 13.5q20 0 33.5 -13.5t13.5 -33.5t-14 -33.5t-33 -13.5q-21 0 -34.5 13.5t-13.5 33.5zM628 720v-56q-51 0 -61.5 -9t-10.5 -41
v-380q0 -125 -60.5 -184.5t-170.5 -59.5q-231 0 -231 244v380q0 32 -10.5 41t-61.5 9v56h224v-56q-51 0 -61.5 -9t-10.5 -41v-380q0 -178 151 -178t151 178v380q0 32 -10.5 41t-62.5 9v56h225z" />
    <glyph glyph-name="Yacute" unicode="&#xdd;" horiz-adv-x="552" 
d="M262 770l-15 29l111 78q19 14 36 14q14 0 23 -8.5t9 -21.5q0 -25 -29 -36zM541 720v-56q-26 0 -35 -5.5t-20 -28.5l-170 -374v-150q0 -32 10.5 -41t61.5 -9v-56h-224v56q51 0 61.5 9t10.5 41v152l-173 376q-9 20 -17.5 25t-33.5 5v56h98l116 -254l52 -124h2q36 90 52 124
l113 254h96z" />
    <glyph glyph-name="Thorn" unicode="&#xde;" horiz-adv-x="587" 
d="M189 576h140q121 0 174.5 -57.5t53.5 -153.5q0 -99 -54 -161t-174 -62h-100v68h100q147 0 147 155q0 74 -35.5 108.5t-111.5 34.5h-140v-508h-152v56q51 0 61.5 9t10.5 41v508q0 32 -10.5 41t-61.5 9v56h152v-144z" />
    <glyph glyph-name="germandbls" unicode="&#xdf;" horiz-adv-x="558" 
d="M94 500v21q0 100 58.5 149.5t141.5 49.5q77 0 124 -35t47 -104q0 -31 -12.5 -58t-29.5 -45.5t-34.5 -34t-30 -30.5t-12.5 -28q0 -18 19.5 -36.5t47.5 -37.5t56 -42t47.5 -57.5t19.5 -75.5q0 -70 -50 -108t-118 -38q-63 0 -114 20l-10 64q58 -27 113 -27q53 0 77.5 26.5
t24.5 62.5q0 31 -19 58t-45.5 47l-53.5 38.5t-46 42.5t-19 50q0 23 17 48t37.5 43.5t37.5 47.5t17 61q0 46 -30.5 67t-68.5 21q-116 0 -116 -150v-510h-136v56q42 0 51 9t9 41v340h-60v35z" />
    <glyph glyph-name="agrave" unicode="&#xe0;" horiz-adv-x="472" 
d="M252 550l-136 55q-29 12 -29 36q0 13 9 21.5t23 8.5q17 0 36 -14l111 -78zM390 379v-273q0 -32 9 -41t53 -9v-56h-132l-5 64l-57 -48q-41 -26 -94 -26q-58 0 -95.5 33.5t-37.5 90.5q0 103 135 133l149 32v70q0 48 -22 76.5t-86 28.5q-72 0 -143 -26l-5 5l23 58
q71 19 140 19q77 0 122.5 -34t45.5 -97zM315 238l-123 -33q-45 -12 -63.5 -29t-18.5 -52q0 -36 22 -55.5t57 -19.5q65 0 126 63v126z" />
    <glyph glyph-name="aacute" unicode="&#xe1;" horiz-adv-x="472" 
d="M196 579l111 78q19 14 36 14q14 0 23 -8.5t9 -21.5q0 -25 -29 -36l-135 -55zM390 379v-273q0 -32 9 -41t53 -9v-56h-132l-5 64l-57 -48q-41 -26 -94 -26q-58 0 -95.5 33.5t-37.5 90.5q0 103 135 133l149 32v70q0 48 -22 76.5t-86 28.5q-72 0 -143 -26l-5 5l23 58
q71 19 140 19q77 0 122.5 -34t45.5 -97zM315 238l-123 -33q-45 -12 -63.5 -29t-18.5 -52q0 -36 22 -55.5t57 -19.5q65 0 126 63v126z" />
    <glyph glyph-name="acircumflex" unicode="&#xe2;" horiz-adv-x="472" 
d="M89 550l121 166h30l119 -166h-53l-80 99l-82 -99h-55zM390 379v-273q0 -32 9 -41t53 -9v-56h-132l-5 64l-57 -48q-41 -26 -94 -26q-58 0 -95.5 33.5t-37.5 90.5q0 103 135 133l149 32v70q0 48 -22 76.5t-86 28.5q-72 0 -143 -26l-5 5l23 58q71 19 140 19q77 0 122.5 -34
t45.5 -97zM315 238l-123 -33q-45 -12 -63.5 -29t-18.5 -52q0 -36 22 -55.5t57 -19.5q65 0 126 63v126z" />
    <glyph glyph-name="atilde" unicode="&#xe3;" horiz-adv-x="472" 
d="M116 557h-45q4 52 29 78.5t61 26.5q25 0 69 -23t63 -23q35 0 40 50h43q-8 -106 -78 -106q-26 0 -72 23t-64 23q-21 0 -31.5 -12t-14.5 -37zM390 379v-273q0 -32 9 -41t53 -9v-56h-132l-5 64l-57 -48q-41 -26 -94 -26q-58 0 -95.5 33.5t-37.5 90.5q0 103 135 133l149 32
v70q0 48 -22 76.5t-86 28.5q-72 0 -143 -26l-5 5l23 58q71 19 140 19q77 0 122.5 -34t45.5 -97zM315 238l-123 -33q-45 -12 -63.5 -29t-18.5 -52q0 -36 22 -55.5t57 -19.5q65 0 126 63v126z" />
    <glyph glyph-name="adieresis" unicode="&#xe4;" horiz-adv-x="472" 
d="M90 626q0 20 13.5 33.5t35.5 13.5q20 0 33 -13.5t13 -33.5t-13.5 -33.5t-32.5 -13.5q-21 0 -35 13.5t-14 33.5zM263 626q0 20 13.5 33.5t34.5 13.5q20 0 33.5 -13.5t13.5 -33.5t-14 -33.5t-33 -13.5q-21 0 -34.5 13.5t-13.5 33.5zM390 379v-273q0 -32 9 -41t53 -9v-56
h-132l-5 64l-57 -48q-41 -26 -94 -26q-58 0 -95.5 33.5t-37.5 90.5q0 103 135 133l149 32v70q0 48 -22 76.5t-86 28.5q-72 0 -143 -26l-5 5l23 58q71 19 140 19q77 0 122.5 -34t45.5 -97zM315 238l-123 -33q-45 -12 -63.5 -29t-18.5 -52q0 -36 22 -55.5t57 -19.5
q65 0 126 63v126z" />
    <glyph glyph-name="aring" unicode="&#xe5;" horiz-adv-x="472" 
d="M145 622q0 34 22.5 55.5t57.5 21.5q34 0 57 -21.5t23 -55.5t-23 -55t-57 -21t-57 21t-23 55zM178 622q0 -23 13 -35t34 -12q20 0 33.5 12.5t13.5 34.5q0 23 -13 35.5t-34 12.5t-34 -12.5t-13 -35.5zM390 379v-273q0 -32 9 -41t53 -9v-56h-132l-5 64l-57 -48
q-41 -26 -94 -26q-58 0 -95.5 33.5t-37.5 90.5q0 103 135 133l149 32v70q0 48 -22 76.5t-86 28.5q-72 0 -143 -26l-5 5l23 58q71 19 140 19q77 0 122.5 -34t45.5 -97zM315 238l-123 -33q-45 -12 -63.5 -29t-18.5 -52q0 -36 22 -55.5t57 -19.5q65 0 126 63v126z" />
    <glyph glyph-name="ae" unicode="&#xe6;" horiz-adv-x="764" 
d="M723 324q0 -41 -9 -91h-324q7 -184 158 -184q86 0 155 42v-61q-74 -40 -166 -40q-135 0 -189 101l-90 -75q-41 -26 -94 -26q-58 0 -95.5 33.5t-37.5 90.5q0 103 135 133l149 32v70q0 48 -22 76.5t-86 28.5q-72 0 -143 -26l-5 5l23 58q71 19 140 19q112 0 149 -69
q57 69 165 69q28 0 52.5 -4.5t50 -17t43.5 -32.5t29.5 -54t11.5 -78zM391 279l256 3q3 16 3 42q0 132 -112 132q-73 0 -107.5 -44.5t-39.5 -132.5zM189 49q70 0 143 79q-16 50 -17 111l-123 -34q-46 -12 -64 -28.5t-18 -52.5t22 -55.5t57 -19.5z" />
    <glyph glyph-name="ccedilla" unicode="&#xe7;" horiz-adv-x="451" 
d="M263 453q-77 0 -112 -56t-35 -147q0 -203 154 -203q78 0 144 42v-59q-64 -37 -141 -40v-22q41 0 65.5 -21t24.5 -60q0 -42 -25.5 -64.5t-66.5 -22.5q-36 0 -63 12v32q33 -9 50 -9q54 0 54 53q0 51 -76 51v52q-96 7 -146.5 74.5t-50.5 184.5q0 123 57 191.5t162 68.5
q88 0 156 -35v-96h-50q0 40 -25 56.5t-76 17.5z" />
    <glyph glyph-name="egrave" unicode="&#xe8;" horiz-adv-x="493" 
d="M293 550l-136 55q-29 12 -29 36q0 13 9 21.5t23 8.5q17 0 36 -14l111 -78zM453 324q0 -32 -9 -91h-327q7 -184 161 -184q86 0 155 42v-61q-74 -40 -166 -40q-112 0 -169.5 67.5t-57.5 192.5q0 124 58.5 192t167.5 68q35 0 65 -8t59 -27t46 -57.5t17 -93.5zM118 279l259 3
q3 17 3 42q0 43 -12 72t-32.5 40.5t-35.5 15.5t-32 4q-141 0 -150 -177z" />
    <glyph glyph-name="eacute" unicode="&#xe9;" horiz-adv-x="493" 
d="M252 550l-15 29l111 78q19 14 36 14q14 0 23 -8.5t9 -21.5q0 -25 -29 -36zM453 324q0 -32 -9 -91h-327q7 -184 161 -184q86 0 155 42v-61q-74 -40 -166 -40q-112 0 -169.5 67.5t-57.5 192.5q0 124 58.5 192t167.5 68q35 0 65 -8t59 -27t46 -57.5t17 -93.5zM118 279l259 3
q3 17 3 42q0 43 -12 72t-32.5 40.5t-35.5 15.5t-32 4q-141 0 -150 -177z" />
    <glyph glyph-name="ecircumflex" unicode="&#xea;" horiz-adv-x="493" 
d="M185 550h-55l121 166h30l119 -166h-53l-80 99zM453 324q0 -32 -9 -91h-327q7 -184 161 -184q86 0 155 42v-61q-74 -40 -166 -40q-112 0 -169.5 67.5t-57.5 192.5q0 124 58.5 192t167.5 68q35 0 65 -8t59 -27t46 -57.5t17 -93.5zM118 279l259 3q3 17 3 42q0 43 -12 72
t-32.5 40.5t-35.5 15.5t-32 4q-141 0 -150 -177z" />
    <glyph glyph-name="edieresis" unicode="&#xeb;" horiz-adv-x="493" 
d="M180 579q-21 0 -35 13.5t-14 33.5t13.5 33.5t35.5 13.5q20 0 33 -13.5t13 -33.5t-13.5 -33.5t-32.5 -13.5zM352 579q-21 0 -34.5 13.5t-13.5 33.5t13 33.5t35 13.5q20 0 33.5 -13.5t13.5 -33.5t-13.5 -33.5t-33.5 -13.5zM453 324q0 -32 -9 -91h-327q7 -184 161 -184
q86 0 155 42v-61q-74 -40 -166 -40q-112 0 -169.5 67.5t-57.5 192.5q0 124 58.5 192t167.5 68q35 0 65 -8t59 -27t46 -57.5t17 -93.5zM118 279l259 3q3 17 3 42q0 43 -12 72t-32.5 40.5t-35.5 15.5t-32 4q-141 0 -150 -177z" />
    <glyph glyph-name="igrave" unicode="&#xec;" horiz-adv-x="259" 
d="M151 550l-136 55q-29 12 -29 36q0 13 9 21.5t23 8.5q17 0 36 -14l111 -78zM171 500v-394q0 -32 9 -41t53 -9v-56h-198v56q43 0 52 9t9 41v288q0 32 -9 41t-52 9v56h136z" />
    <glyph glyph-name="iacute" unicode="&#xed;" horiz-adv-x="259" 
d="M95 579l111 78q19 14 36 14q14 0 23 -8.5t9 -21.5q0 -25 -29 -36l-135 -55zM171 500v-394q0 -32 9 -41t53 -9v-56h-198v56q43 0 52 9t9 41v288q0 32 -9 41t-52 9v56h136z" />
    <glyph glyph-name="icircumflex" unicode="&#xee;" horiz-adv-x="259" 
d="M-12 550l121 166h30l119 -166h-53l-80 99l-82 -99h-55zM171 500v-394q0 -32 9 -41t53 -9v-56h-198v56q43 0 52 9t9 41v288q0 32 -9 41t-52 9v56h136z" />
    <glyph glyph-name="idieresis" unicode="&#xef;" horiz-adv-x="259" 
d="M-11 626q0 20 13.5 33.5t35.5 13.5q20 0 33 -13.5t13 -33.5t-13.5 -33.5t-32.5 -13.5q-21 0 -35 13.5t-14 33.5zM162 626q0 20 13 33.5t35 13.5q20 0 33.5 -13.5t13.5 -33.5t-13.5 -33.5t-33.5 -13.5q-21 0 -34.5 13.5t-13.5 33.5zM171 500v-394q0 -32 9 -41t53 -9v-56
h-198v56q43 0 52 9t9 41v288q0 32 -9 41t-52 9v56h136z" />
    <glyph glyph-name="eth" unicode="&#xf0;" horiz-adv-x="522" 
d="M435 679l-105 -45q143 -132 143 -322q0 -70 -9 -123t-32 -100.5t-68.5 -73t-111.5 -25.5q-55 0 -97.5 21t-66.5 57t-36 78t-12 88q0 99 51 167.5t158 68.5q65 0 125 -24q-31 91 -103 163l-126 -53l-16 41l106 45q-49 41 -118 78h83q43 -18 92 -54l127 54zM252 44
q84 0 114 61.5t30 206.5q0 43 -7 77q-60 30 -122 30q-150 0 -150 -185q0 -81 33.5 -135.5t101.5 -54.5z" />
    <glyph glyph-name="ntilde" unicode="&#xf1;" horiz-adv-x="547" 
d="M174 557h-45q4 52 29 78.5t61 26.5q25 0 69 -23t63 -23q35 0 40 50h43q-8 -106 -78 -106q-26 0 -72 23t-64 23q-21 0 -31.5 -12t-14.5 -37zM466 371v-265q0 -32 9 -41t52 -9v-56h-137v357q0 89 -88 89q-61 0 -131 -45v-295q0 -32 9 -41t53 -9v-56h-198v56q43 0 52 9t9 41
v288q0 32 -9 41t-52 9v56h131l5 -58h2l50 42q51 26 103 26q63 0 101.5 -35t38.5 -104z" />
    <glyph glyph-name="ograve" unicode="&#xf2;" horiz-adv-x="503" 
d="M279 550l-136 55q-29 12 -29 36q0 13 9 21.5t23 8.5q17 0 36 -14l111 -78zM252 -10q-106 0 -159 67.5t-53 192.5t53 192.5t159 67.5t159 -67.5t53 -192.5t-53.5 -192.5t-158.5 -67.5zM252 456q-135 0 -135 -206q0 -101 31 -153.5t104 -52.5t104 52.5t31 153.5
q0 206 -135 206z" />
    <glyph glyph-name="oacute" unicode="&#xf3;" horiz-adv-x="503" 
d="M223 579l111 78q19 14 36 14q14 0 23 -8.5t9 -21.5q0 -25 -29 -36l-135 -55zM252 -10q-106 0 -159 67.5t-53 192.5t53 192.5t159 67.5t159 -67.5t53 -192.5t-53.5 -192.5t-158.5 -67.5zM252 456q-135 0 -135 -206q0 -101 31 -153.5t104 -52.5t104 52.5t31 153.5
q0 206 -135 206z" />
    <glyph glyph-name="ocircumflex" unicode="&#xf4;" horiz-adv-x="503" 
d="M116 550l121 166h30l119 -166h-53l-80 99l-82 -99h-55zM252 -10q-106 0 -159 67.5t-53 192.5t53 192.5t159 67.5t159 -67.5t53 -192.5t-53.5 -192.5t-158.5 -67.5zM252 456q-135 0 -135 -206q0 -101 31 -153.5t104 -52.5t104 52.5t31 153.5q0 206 -135 206z" />
    <glyph glyph-name="otilde" unicode="&#xf5;" horiz-adv-x="503" 
d="M143 557h-45q4 52 29 78.5t61 26.5q25 0 69 -23t63 -23q35 0 40 50h43q-8 -106 -78 -106q-26 0 -72 23t-64 23q-21 0 -31.5 -12t-14.5 -37zM252 -10q-106 0 -159 67.5t-53 192.5t53 192.5t159 67.5t159 -67.5t53 -192.5t-53.5 -192.5t-158.5 -67.5zM252 456
q-135 0 -135 -206q0 -101 31 -153.5t104 -52.5t104 52.5t31 153.5q0 206 -135 206z" />
    <glyph glyph-name="odieresis" unicode="&#xf6;" horiz-adv-x="503" 
d="M117 626q0 20 13.5 33.5t35.5 13.5q20 0 33 -13.5t13 -33.5t-13.5 -33.5t-32.5 -13.5q-21 0 -35 13.5t-14 33.5zM290 626q0 20 13 33.5t35 13.5q20 0 33.5 -13.5t13.5 -33.5t-13.5 -33.5t-33.5 -13.5q-21 0 -34.5 13.5t-13.5 33.5zM252 -10q-106 0 -159 67.5t-53 192.5
t53 192.5t159 67.5t159 -67.5t53 -192.5t-53.5 -192.5t-158.5 -67.5zM252 456q-135 0 -135 -206q0 -101 31 -153.5t104 -52.5t104 52.5t31 153.5q0 206 -135 206z" />
    <glyph glyph-name="divide" unicode="&#xf7;" horiz-adv-x="454" 
d="M181 419q0 19 13 32.5t33 13.5q19 0 32 -13.5t13 -32.5t-13.5 -33.5t-31.5 -14.5q-20 0 -33 14.5t-13 33.5zM60 240v50h334v-50h-334zM181 112q0 20 13 33.5t33 13.5q19 0 32 -13.5t13 -33.5q0 -19 -13 -33t-32 -14q-20 0 -33 14t-13 33z" />
    <glyph glyph-name="oslash" unicode="&#xf8;" horiz-adv-x="503" 
d="M457 530l-52 -81q59 -65 59 -199q0 -125 -53 -192.5t-159 -67.5q-75 0 -123 33l-34 -53h-48l52 80q-59 66 -59 200q0 125 53 192.5t159 67.5q74 0 123 -34l35 54h47zM117 250q0 -87 22 -137l201 309q-32 34 -88 34q-135 0 -135 -206zM252 44q72 0 103.5 52.5t31.5 153.5
q0 87 -23 136l-200 -310q32 -32 88 -32z" />
    <glyph glyph-name="ugrave" unicode="&#xf9;" horiz-adv-x="540" 
d="M294 550l-136 55q-29 12 -29 36q0 13 9 21.5t23 8.5q17 0 36 -14l111 -78zM452 500v-394q0 -32 9 -41t52 -9v-56h-131l-5 58h-2l-50 -42q-51 -26 -103 -26q-63 0 -101.5 35t-38.5 104v265q0 32 -9 41t-52 9v56h137v-357q0 -89 88 -89q61 0 131 45v295q0 32 -9 41t-53 9
v56h137z" />
    <glyph glyph-name="uacute" unicode="&#xfa;" horiz-adv-x="540" 
d="M238 579l111 78q19 14 36 14q14 0 23 -8.5t9 -21.5q0 -25 -29 -36l-135 -55zM452 500v-394q0 -32 9 -41t52 -9v-56h-131l-5 58h-2l-50 -42q-51 -26 -103 -26q-63 0 -101.5 35t-38.5 104v265q0 32 -9 41t-52 9v56h137v-357q0 -89 88 -89q61 0 131 45v295q0 32 -9 41t-53 9
v56h137z" />
    <glyph glyph-name="ucircumflex" unicode="&#xfb;" horiz-adv-x="540" 
d="M132 550l121 166h30l119 -166h-53l-80 99l-82 -99h-55zM452 500v-394q0 -32 9 -41t52 -9v-56h-131l-5 58h-2l-50 -42q-51 -26 -103 -26q-63 0 -101.5 35t-38.5 104v265q0 32 -9 41t-52 9v56h137v-357q0 -89 88 -89q61 0 131 45v295q0 32 -9 41t-53 9v56h137z" />
    <glyph glyph-name="udieresis" unicode="&#xfc;" horiz-adv-x="540" 
d="M132 626q0 20 13.5 33.5t35.5 13.5q20 0 33 -13.5t13 -33.5t-13.5 -33.5t-32.5 -13.5q-21 0 -35 13.5t-14 33.5zM305 626q0 20 13.5 33.5t34.5 13.5q20 0 33.5 -13.5t13.5 -33.5t-14 -33.5t-33 -13.5q-21 0 -34.5 13.5t-13.5 33.5zM452 500v-394q0 -32 9 -41t52 -9v-56
h-131l-5 58h-2l-50 -42q-51 -26 -103 -26q-63 0 -101.5 35t-38.5 104v265q0 32 -9 41t-52 9v56h137v-357q0 -89 88 -89q61 0 131 45v295q0 32 -9 41t-53 9v56h137z" />
    <glyph glyph-name="yacute" unicode="&#xfd;" horiz-adv-x="509" 
d="M223 579l111 78q19 14 36 14q14 0 23 -8.5t9 -21.5q0 -25 -29 -36l-135 -55zM495 500v-56q-32 0 -42 -7t-19 -31l-103 -312q-57 -171 -170 -314h-83v10q74 88 133 204l-128 398q-8 24 -12.5 33t-16.5 14t-37 5v56h111l129 -416h2l129 416h107z" />
    <glyph glyph-name="thorn" unicode="&#xfe;" horiz-adv-x="514" 
d="M143 445l61 44q44 21 90 21q88 0 134 -69t46 -191q0 -124 -53 -192t-146 -68q-57 0 -102 29v50q42 -25 88 -25q135 0 135 206q0 107 -33 155t-99 48q-53 0 -121 -49v-518q0 -32 9 -41t52 -9v-56h-198v56q43 0 52 9t9 41v728q0 32 -9 41t-52 9v56h137v-275z" />
    <glyph glyph-name="ydieresis" unicode="&#xff;" horiz-adv-x="509" 
d="M117 626q0 20 13.5 33.5t35.5 13.5q20 0 33 -13.5t13 -33.5t-13.5 -33.5t-32.5 -13.5q-21 0 -35 13.5t-14 33.5zM290 626q0 20 13 33.5t35 13.5q20 0 33.5 -13.5t13.5 -33.5t-13.5 -33.5t-33.5 -13.5q-21 0 -34.5 13.5t-13.5 33.5zM495 500v-56q-32 0 -42 -7t-19 -31
l-103 -312q-57 -171 -170 -314h-83v10q74 88 133 204l-128 398q-8 24 -12.5 33t-16.5 14t-37 5v56h111l129 -416h2l129 416h107z" />
    <glyph glyph-name="Amacron" unicode="&#x100;" horiz-adv-x="592" 
d="M153 791v47h284v-47h-284zM350 725l179 -639q5 -20 15 -25t36 -5v-56h-110l-59 211h-236l-58 -211h-108v56q27 0 37 5t16 27l180 637h108zM393 279l-58 210q-37 140 -40 152h-2q-8 -34 -41 -156l-57 -206h198z" />
    <glyph glyph-name="amacron" unicode="&#x101;" horiz-adv-x="472" 
d="M83 571v47h284v-47h-284zM390 379v-273q0 -32 9 -41t53 -9v-56h-132l-5 64l-57 -48q-41 -26 -94 -26q-58 0 -95.5 33.5t-37.5 90.5q0 103 135 133l149 32v70q0 48 -22 76.5t-86 28.5q-72 0 -143 -26l-5 5l23 58q71 19 140 19q77 0 122.5 -34t45.5 -97zM315 238l-123 -33
q-45 -12 -63.5 -29t-18.5 -52q0 -36 22 -55.5t57 -19.5q65 0 126 63v126z" />
    <glyph glyph-name="Abreve" unicode="&#x102;" horiz-adv-x="592" 
d="M295 770q-59 0 -89.5 41.5t-30.5 112.5h40q4 -53 22 -78t58 -25q39 0 57 25t22 78h40q0 -71 -30 -112.5t-89 -41.5zM350 725l179 -639q5 -20 15 -25t36 -5v-56h-110l-59 211h-236l-58 -211h-108v56q27 0 37 5t16 27l180 637h108zM393 279l-58 210q-37 140 -40 152h-2
q-8 -34 -41 -156l-57 -206h198z" />
    <glyph glyph-name="abreve" unicode="&#x103;" horiz-adv-x="472" 
d="M225 550q-59 0 -89.5 41.5t-30.5 112.5h40q4 -53 22 -78t58 -25q39 0 57 25t22 78h40q0 -71 -30 -112.5t-89 -41.5zM390 379v-273q0 -32 9 -41t53 -9v-56h-132l-5 64l-57 -48q-41 -26 -94 -26q-58 0 -95.5 33.5t-37.5 90.5q0 103 135 133l149 32v70q0 48 -22 76.5
t-86 28.5q-72 0 -143 -26l-5 5l23 58q71 19 140 19q77 0 122.5 -34t45.5 -97zM315 238l-123 -33q-45 -12 -63.5 -29t-18.5 -52q0 -36 22 -55.5t57 -19.5q65 0 126 63v126z" />
    <glyph glyph-name="Aogonek" unicode="&#x104;" horiz-adv-x="592" 
d="M538 -160q25 0 44 13v-28q-25 -25 -67 -25q-39 0 -61 23t-22 57q0 64 72 120h-34l-59 211h-236l-58 -211h-108v56q27 0 37 5t16 27l180 637h108l179 -639q5 -20 15 -25t36 -5v-56h-46q-47 -48 -47 -102q0 -58 51 -58zM393 279l-58 210q-37 140 -40 152h-2
q-8 -34 -41 -156l-57 -206h198z" />
    <glyph glyph-name="aogonek" unicode="&#x105;" horiz-adv-x="472" 
d="M452 0h-54q-47 -48 -47 -102q0 -58 51 -58q25 0 44 13v-28q-25 -25 -67 -25q-39 0 -61 23t-22 57q0 64 72 120h-48l-5 64l-57 -48q-41 -26 -94 -26q-58 0 -95.5 33.5t-37.5 90.5q0 103 135 133l149 32v70q0 48 -22 76.5t-86 28.5q-72 0 -143 -26l-5 5l23 58q71 19 140 19
q77 0 122.5 -34t45.5 -97v-273q0 -32 9 -41t53 -9v-56zM315 238l-123 -33q-45 -12 -63.5 -29t-18.5 -52q0 -36 22 -55.5t57 -19.5q65 0 126 63v126z" />
    <glyph glyph-name="Cacute" unicode="&#x106;" horiz-adv-x="548" 
d="M285 799l111 78q19 14 36 14q14 0 23 -8.5t9 -21.5q0 -25 -29 -36l-135 -55zM319 -10q-274 0 -274 370q0 83 13.5 147.5t44 116t86 79t134.5 27.5q100 0 186 -46v-103h-50q0 83 -136 83q-110 0 -153.5 -77.5t-43.5 -226.5q0 -148 44 -226t149 -78q108 0 200 55l-10 -77
q-93 -44 -190 -44z" />
    <glyph glyph-name="cacute" unicode="&#x107;" horiz-adv-x="451" 
d="M231 579l111 78q19 14 36 14q14 0 23 -8.5t9 -21.5q0 -25 -29 -36l-135 -55zM414 379h-50q0 40 -25 56.5t-76 17.5q-77 0 -112 -56t-35 -147q0 -203 154 -203q78 0 144 42v-59q-70 -40 -154 -40q-108 0 -164.5 68t-56.5 192q0 123 57 191.5t162 68.5q88 0 156 -35v-96z
" />
    <glyph glyph-name="Cdotaccent" unicode="&#x10a;" horiz-adv-x="548" 
d="M263 849q0 21 14 34.5t37 13.5q22 0 35.5 -13.5t13.5 -34.5t-14 -35.5t-35 -14.5q-23 0 -37 14.5t-14 35.5zM319 -10q-274 0 -274 370q0 83 13.5 147.5t44 116t86 79t134.5 27.5q100 0 186 -46v-103h-50q0 83 -136 83q-110 0 -153.5 -77.5t-43.5 -226.5q0 -148 44 -226
t149 -78q108 0 200 55l-10 -77q-93 -44 -190 -44z" />
    <glyph glyph-name="cdotaccent" unicode="&#x10b;" horiz-adv-x="451" 
d="M209 629q0 21 14 34.5t37 13.5q22 0 35.5 -13.5t13.5 -34.5t-14 -35.5t-35 -14.5q-23 0 -37 14.5t-14 35.5zM414 379h-50q0 40 -25 56.5t-76 17.5q-77 0 -112 -56t-35 -147q0 -203 154 -203q78 0 144 42v-59q-70 -40 -154 -40q-108 0 -164.5 68t-56.5 192q0 123 57 191.5
t162 68.5q88 0 156 -35v-96z" />
    <glyph glyph-name="Ccaron" unicode="&#x10c;" horiz-adv-x="548" 
d="M315 836l80 100h53l-119 -166h-30l-121 166h55zM319 -10q-274 0 -274 370q0 83 13.5 147.5t44 116t86 79t134.5 27.5q100 0 186 -46v-103h-50q0 83 -136 83q-110 0 -153.5 -77.5t-43.5 -226.5q0 -148 44 -226t149 -78q108 0 200 55l-10 -77q-93 -44 -190 -44z" />
    <glyph glyph-name="ccaron" unicode="&#x10d;" horiz-adv-x="451" 
d="M262 616l80 100h53l-119 -166h-30l-121 166h55zM414 379h-50q0 40 -25 56.5t-76 17.5q-77 0 -112 -56t-35 -147q0 -203 154 -203q78 0 144 42v-59q-70 -40 -154 -40q-108 0 -164.5 68t-56.5 192q0 123 57 191.5t162 68.5q88 0 156 -35v-96z" />
    <glyph glyph-name="Dcaron" unicode="&#x10e;" horiz-adv-x="652" 
d="M319 836l80 100h53l-119 -166h-30l-121 166h55zM37 0v56q51 0 61.5 9t10.5 41v508q0 32 -10.5 41t-61.5 9v56h300q269 0 269 -355q0 -365 -269 -365h-300zM189 68h148q101 0 144.5 75t43.5 222q0 145 -43 216t-145 71h-148v-584z" />
    <glyph glyph-name="dcaron" unicode="&#x10f;" horiz-adv-x="545" 
d="M497 537l38 97q-20 0 -34 13t-14 35q0 19 14.5 33t34.5 14q25 0 38 -15.5t13 -38.5q0 -11 -2 -21.5t-8.5 -25.5l-10.5 -24t-16 -32l-18 -35h-35zM447 720v-614q0 -32 9 -41t53 -9v-56h-132l-5 55l-62 -44q-44 -21 -90 -21q-87 0 -133 69t-46 191q0 124 53 192t146 68
q55 0 102 -29v-50q-43 25 -88 25q-136 0 -136 -206q0 -107 33 -155t99 -48q54 0 122 49v518q0 32 -9 41t-53 9v56h137z" />
    <glyph glyph-name="Dcroat" unicode="&#x110;" horiz-adv-x="652" 
d="M37 720h300q270 0 270 -355q0 -365 -270 -365h-300v56q52 0 62.5 9t10.5 41v228h-72v59h72v221q0 32 -10.5 41t-62.5 9v56zM190 68h147q101 0 144.5 75t43.5 222q0 145 -43 216t-145 71h-147v-259h170v-59h-170v-266z" />
    <glyph glyph-name="dcroat" unicode="&#x111;" horiz-adv-x="535" 
d="M447 720v-121h61v-33h-61v-460q0 -32 9 -41t53 -9v-56h-132l-5 55l-62 -44q-44 -21 -90 -21q-87 0 -133 69t-46 191q0 124 53 192t145 68q56 0 103 -29v-50q-43 25 -88 25q-136 0 -136 -206q0 -107 33 -155t99 -48q52 0 122 49v470h-153v33h153v24q0 26 -9.5 33.5
t-52.5 7.5v56h137z" />
    <glyph glyph-name="Emacron" unicode="&#x112;" horiz-adv-x="555" 
d="M156 791v47h284v-47h-284zM506 0h-469v56q51 0 61.5 9t10.5 41v508q0 32 -10.5 41t-61.5 9v56h475v-139h-50q0 50 -9 60.5t-42 10.5h-222v-251h264v-68h-264v-265h217q33 0 43 10.5t17 60.5h50z" />
    <glyph glyph-name="emacron" unicode="&#x113;" horiz-adv-x="493" 
d="M408 571h-284v47h284v-47zM453 324q0 -32 -9 -91h-327q7 -184 161 -184q86 0 155 42v-61q-74 -40 -166 -40q-112 0 -169.5 67.5t-57.5 192.5q0 124 58.5 192t167.5 68q35 0 65 -8t59 -27t46 -57.5t17 -93.5zM118 279l259 3q3 17 3 42q0 43 -12 72t-32.5 40.5t-35.5 15.5
t-32 4q-141 0 -150 -177z" />
    <glyph glyph-name="Edotaccent" unicode="&#x116;" horiz-adv-x="555" 
d="M247 849q0 21 14 34.5t37 13.5q22 0 35.5 -13.5t13.5 -34.5t-14 -35.5t-35 -14.5q-23 0 -37 14.5t-14 35.5zM506 0h-469v56q51 0 61.5 9t10.5 41v508q0 32 -10.5 41t-61.5 9v56h475v-139h-50q0 50 -9 60.5t-42 10.5h-222v-251h264v-68h-264v-265h217q33 0 43 10.5
t17 60.5h50z" />
    <glyph glyph-name="edotaccent" unicode="&#x117;" horiz-adv-x="493" 
d="M266 579q-23 0 -37 14.5t-14 35.5t14 34.5t37 13.5q22 0 35.5 -13.5t13.5 -34.5t-14 -35.5t-35 -14.5zM453 324q0 -32 -9 -91h-327q7 -184 161 -184q86 0 155 42v-61q-74 -40 -166 -40q-112 0 -169.5 67.5t-57.5 192.5q0 124 58.5 192t167.5 68q35 0 65 -8t59 -27
t46 -57.5t17 -93.5zM118 279l259 3q3 17 3 42q0 43 -12 72t-32.5 40.5t-35.5 15.5t-32 4q-141 0 -150 -177z" />
    <glyph glyph-name="Eogonek" unicode="&#x118;" horiz-adv-x="555" 
d="M511 -160q25 0 44 13v-28q-25 -25 -67 -25q-39 0 -61 23t-22 57q0 64 72 120h-440v56q51 0 61.5 9t10.5 41v508q0 32 -10.5 41t-61.5 9v56h475v-139h-50q0 50 -9 60.5t-42 10.5h-222v-251h264v-68h-264v-265h217q33 0 43 10.5t17 60.5h50l-10 -139h1q-47 -48 -47 -102
q0 -58 51 -58z" />
    <glyph glyph-name="eogonek" unicode="&#x119;" horiz-adv-x="493" 
d="M437 -130q25 0 44 13v-28q-25 -25 -67 -25q-39 0 -61 23t-22 57q0 50 45 96q-52 -16 -109 -16q-112 0 -169.5 67.5t-57.5 192.5q0 124 58.5 192t167.5 68q35 0 65 -8t59 -27t46 -57.5t17 -93.5q0 -32 -9 -91h-327q7 -184 161 -184q86 0 155 42v-61q-47 -48 -47 -102
q0 -58 51 -58zM268 456q-141 0 -150 -177l259 3q3 17 3 42q0 43 -12 72t-32.5 40.5t-35.5 15.5t-32 4z" />
    <glyph glyph-name="Ecaron" unicode="&#x11a;" horiz-adv-x="555" 
d="M299 836l80 100h53l-119 -166h-30l-121 166h55zM506 0h-469v56q51 0 61.5 9t10.5 41v508q0 32 -10.5 41t-61.5 9v56h475v-139h-50q0 50 -9 60.5t-42 10.5h-222v-251h264v-68h-264v-265h217q33 0 43 10.5t17 60.5h50z" />
    <glyph glyph-name="ecaron" unicode="&#x11b;" horiz-adv-x="493" 
d="M251 550l-121 166h55l82 -100l80 100h53l-119 -166h-30zM453 324q0 -32 -9 -91h-327q7 -184 161 -184q86 0 155 42v-61q-74 -40 -166 -40q-112 0 -169.5 67.5t-57.5 192.5q0 124 58.5 192t167.5 68q35 0 65 -8t59 -27t46 -57.5t17 -93.5zM118 279l259 3q3 17 3 42
q0 43 -12 72t-32.5 40.5t-35.5 15.5t-32 4q-141 0 -150 -177z" />
    <glyph glyph-name="Gbreve" unicode="&#x11e;" horiz-adv-x="565" 
d="M321 770q-59 0 -89.5 41.5t-30.5 112.5h40q4 -53 22 -78t58 -25q39 0 57 25t22 78h40q0 -71 -30 -112.5t-89 -41.5zM323 664q-110 0 -153.5 -77.5t-43.5 -226.5q0 -148 44 -226t149 -78q56 0 111 16v244h79l-1 -265l1 -17q-93 -44 -190 -44q-274 0 -274 370
q0 83 13.5 147.5t44 116t86 79t134.5 27.5q100 0 186 -46v-103h-50q0 83 -136 83z" />
    <glyph glyph-name="gbreve" unicode="&#x11f;" horiz-adv-x="477" 
d="M224 550q-59 0 -89.5 41.5t-30.5 112.5h40q4 -53 22 -78t58 -25q39 0 57 25t22 78h40q0 -71 -30 -112.5t-89 -41.5zM137 85l193 -23q138 -17 138 -131q0 -70 -58.5 -115.5t-175.5 -45.5q-109 0 -161 35t-52 87q0 30 18 55.5t47 38.5l16 -6l-21 -61q0 -98 153 -98
q78 0 118 28.5t40 70.5q0 60 -80 71l-173 20q-67 9 -67 59q0 43 64 88q-95 44 -95 168q0 82 50 133t136 51q36 0 66 -9l149 9v-56l-80 9q52 -49 52 -137q0 -86 -50 -136.5t-137 -50.5q-29 0 -53 6zM227 457q-54 0 -83.5 -37.5t-29.5 -93.5q0 -59 30 -97t84 -38t83.5 38.5
t29.5 96.5q0 57 -30 94t-84 37z" />
    <glyph glyph-name="Gdotaccent" unicode="&#x120;" horiz-adv-x="565" 
d="M321 799q-23 0 -37 14.5t-14 35.5t14 34.5t37 13.5q21 0 35 -13.5t14 -34.5t-14 -35.5t-35 -14.5zM323 664q-110 0 -153.5 -77.5t-43.5 -226.5q0 -148 44 -226t149 -78q56 0 111 16v244h79l-1 -265l1 -17q-93 -44 -190 -44q-274 0 -274 370q0 83 13.5 147.5t44 116t86 79
t134.5 27.5q100 0 186 -46v-103h-50q0 83 -136 83z" />
    <glyph glyph-name="gdotaccent" unicode="&#x121;" horiz-adv-x="477" 
d="M224 579q-23 0 -37 14.5t-14 35.5t14 34.5t37 13.5q22 0 35.5 -13.5t13.5 -34.5t-14 -35.5t-35 -14.5zM137 85l193 -23q138 -17 138 -131q0 -70 -58.5 -115.5t-175.5 -45.5q-109 0 -161 35t-52 87q0 30 18 55.5t47 38.5l16 -6l-21 -61q0 -98 153 -98q78 0 118 28.5
t40 70.5q0 60 -80 71l-173 20q-67 9 -67 59q0 43 64 88q-95 44 -95 168q0 82 50 133t136 51q36 0 66 -9l149 9v-56l-80 9q52 -49 52 -137q0 -86 -50 -136.5t-137 -50.5q-29 0 -53 6zM227 457q-54 0 -83.5 -37.5t-29.5 -93.5q0 -59 30 -97t84 -38t83.5 38.5t29.5 96.5
q0 57 -30 94t-84 37z" />
    <glyph glyph-name="Gcommaaccent" unicode="&#x122;" horiz-adv-x="565" 
d="M323 664q-110 0 -153.5 -77.5t-43.5 -226.5q0 -148 44 -226t149 -78q56 0 111 16v244h79l-1 -265l1 -17q-93 -44 -190 -44q-274 0 -274 370q0 83 13.5 147.5t44 116t86 79t134.5 27.5q100 0 186 -46v-103h-50q0 83 -136 83zM313 -40q25 0 38 -15.5t13 -38.5
q0 -11 -2 -21.5t-8.5 -25.5l-10.5 -24t-16 -32l-18 -35h-35l38 97q-20 0 -34 13t-14 35q0 19 14.5 33t34.5 14z" />
    <glyph glyph-name="gcommaaccent" unicode="&#x123;" horiz-adv-x="477" 
d="M236 548q-25 0 -38 16t-13 38q0 11 2 22t8 25.5t11 24l16.5 31.5t17.5 35h35l-38 -97q20 0 34 -13t14 -35q0 -20 -14 -33.5t-35 -13.5zM137 85l193 -23q138 -17 138 -131q0 -70 -58.5 -115.5t-175.5 -45.5q-109 0 -161 35t-52 87q0 30 18 55.5t47 38.5l16 -6l-21 -61
q0 -98 153 -98q78 0 118 28.5t40 70.5q0 60 -80 71l-173 20q-67 9 -67 59q0 43 64 88q-95 44 -95 168q0 82 50 133t136 51q36 0 66 -9l149 9v-56l-80 9q52 -49 52 -137q0 -86 -50 -136.5t-137 -50.5q-29 0 -53 6zM227 457q-54 0 -83.5 -37.5t-29.5 -93.5q0 -59 30 -97
t84 -38t83.5 38.5t29.5 96.5q0 57 -30 94t-84 37z" />
    <glyph glyph-name="Hbar" unicode="&#x126;" horiz-adv-x="683" 
d="M644 720v-54q-51 0 -61.5 -9t-10.5 -41v-70h72v-35h-72v-407q0 -32 10.5 -41t61.5 -9v-54h-224v54q51 0 61.5 9t10.5 41v230h-301v-230q0 -32 10.5 -41t61.5 -9v-54h-224v54q51 0 61.5 9t10.5 41v407h-72v35h72v70q0 32 -10.5 41t-61.5 9v54h224v-54q-51 0 -61.5 -9
t-10.5 -41v-70h301v70q0 32 -10.5 41t-61.5 9v54h224zM492 511h-301v-110h301v110z" />
    <glyph glyph-name="hbar" unicode="&#x127;" horiz-adv-x="540" 
d="M458 371v-265q0 -32 9 -41t52 -9v-56h-137v357q0 89 -88 89q-62 0 -130 -45v-295q0 -32 9 -41t52 -9v-56h-198v56q43 0 52 9t9 41v460h-62v33h62v22q0 28 -9 35.5t-52 7.5v56h137v-121h151v-33h-151v-124h2l49 42q51 26 104 26q63 0 101 -35t38 -104z" />
    <glyph glyph-name="Imacron" unicode="&#x12a;" horiz-adv-x="299" 
d="M8 791v47h284v-47h-284zM189 614v-508q0 -32 10.5 -41t61.5 -9v-56h-224v56q51 0 61.5 9t10.5 41v508q0 32 -10.5 41t-61.5 9v56h224v-56q-51 0 -61.5 -9t-10.5 -41z" />
    <glyph glyph-name="imacron" unicode="&#x12b;" horiz-adv-x="259" 
d="M-18 571v47h284v-47h-284zM171 500v-394q0 -32 9 -41t53 -9v-56h-198v56q43 0 52 9t9 41v288q0 32 -9 41t-52 9v56h136z" />
    <glyph glyph-name="Iogonek" unicode="&#x12e;" horiz-adv-x="299" 
d="M261 720v-56q-51 0 -61.5 -9t-10.5 -41v-508q0 -32 10.5 -41t61.5 -9v-56h-95q-47 -48 -47 -102q0 -58 51 -58q25 0 44 13v-28q-25 -25 -67 -25q-39 0 -61 23t-22 57q0 64 72 120h-99v56q51 0 61.5 9t10.5 41v508q0 32 -10.5 41t-61.5 9v56h224z" />
    <glyph glyph-name="iogonek" unicode="&#x12f;" horiz-adv-x="259" 
d="M124 579q-23 0 -37 14.5t-14 35.5t14 34.5t37 13.5q22 0 35.5 -13.5t13.5 -34.5t-14 -35.5t-35 -14.5zM233 0h-80q-47 -48 -47 -102q0 -58 51 -58q25 0 44 13v-28q-25 -25 -67 -25q-39 0 -61 23t-22 57q0 64 72 120h-88v56q43 0 52 9t9 41v288q0 32 -9 41t-52 9v56h136
v-394q0 -32 9 -41t53 -9v-56z" />
    <glyph glyph-name="Idotaccent" unicode="&#x130;" horiz-adv-x="299" 
d="M99 849q0 21 14 34.5t37 13.5q22 0 35.5 -13.5t13.5 -34.5t-14 -35.5t-35 -14.5q-23 0 -37 14.5t-14 35.5zM189 614v-508q0 -32 10.5 -41t61.5 -9v-56h-224v56q51 0 61.5 9t10.5 41v508q0 32 -10.5 41t-61.5 9v56h224v-56q-51 0 -61.5 -9t-10.5 -41z" />
    <glyph glyph-name="dotlessi" unicode="&#x131;" horiz-adv-x="259" 
d="M171 500v-394q0 -32 9 -41t52 -9v-56h-197v56q43 0 51.5 9t8.5 41v288q0 32 -8.5 41t-51.5 9v56h136z" />
    <glyph glyph-name="IJ" unicode="&#x132;" horiz-adv-x="590" 
d="M189 614v-508q0 -32 10.5 -41t61.5 -9v-56h-224v56q51 0 61.5 9t10.5 41v508q0 32 -10.5 41t-61.5 9v56h224v-56q-51 0 -61.5 -9t-10.5 -41zM562 720v-56q-51 0 -61.5 -9t-10.5 -41v-453q0 -31 -2 -51t-10.5 -43t-24.5 -37.5t-44.5 -25.5t-69.5 -14l-7 54q48 7 63 32
t15 79v459q0 32 -10.5 41t-61.5 9v56h224z" />
    <glyph glyph-name="ij" unicode="&#x133;" horiz-adv-x="495" 
d="M73 629q0 21 14 34.5t37 13.5q22 0 35.5 -13.5t13.5 -34.5t-14 -35.5t-35 -14.5q-23 0 -37 14.5t-14 35.5zM324 629q0 21 14 34.5t37 13.5q21 0 35 -13.5t14 -34.5t-14 -35.5t-35 -14.5q-23 0 -37 14.5t-14 35.5zM171 500v-394q0 -32 9 -41t53 -9v-56h-198v56q43 0 52 9
t9 41v288q0 32 -9 41t-52 9v56h136zM425 500v-502q0 -80 -27 -130.5t-108 -87.5l-29 46q56 33 72 66.5t16 105.5v396q0 32 -9 41t-53 9v56h138z" />
    <glyph glyph-name="Kcommaaccent" unicode="&#x136;" horiz-adv-x="584" 
d="M261 0h-224v56q51 0 61.5 9t10.5 41v508q0 32 -10.5 41t-61.5 9v56h224v-56q-51 0 -61.5 -9t-10.5 -41v-508q0 -32 10.5 -41t61.5 -9v-56zM299 369l191 -265q24 -33 37 -40.5t47 -7.5v-56h-109l-246 345v41l242 334h102v-56q-32 0 -44 -7t-32 -35zM308 -40q25 0 38 -15.5
t13 -38.5q0 -11 -2 -21.5t-8.5 -25.5l-10.5 -24t-16 -32l-18 -35h-35l38 97q-20 0 -34 13t-14 35q0 19 14.5 33t34.5 14z" />
    <glyph glyph-name="kcommaaccent" unicode="&#x137;" horiz-adv-x="495" 
d="M165 720v-614q0 -32 9 -41t53 -9v-56h-198v56q43 0 52 9t9 41v508q0 32 -9 41t-52 9v56h136zM273 265l122 -161q15 -21 21.5 -27.5t24 -13.5t46.5 -7v-56h-112l-191 260l182 240h104v-56q-36 0 -55.5 -11t-38.5 -36zM222 -232l38 97q-20 0 -34 13t-14 35q0 19 14.5 33
t34.5 14q25 0 38 -15.5t13 -38.5q0 -11 -2 -21.5t-8.5 -25.5l-10.5 -24t-16 -32l-18 -35h-35z" />
    <glyph glyph-name="Lacute" unicode="&#x139;" horiz-adv-x="525" 
d="M121 799l111 78q19 14 36 14q14 0 23 -8.5t9 -21.5q0 -25 -29 -36l-135 -55zM496 0h-459v56q51 0 61.5 9t10.5 41v508q0 32 -10.5 41t-61.5 9v56h224v-56q-51 0 -61.5 -9t-10.5 -41v-546h207q33 0 43 10.5t17 60.5h50z" />
    <glyph glyph-name="lacute" unicode="&#x13a;" horiz-adv-x="254" 
d="M70 799l111 78q19 14 36 14q14 0 23 -8.5t9 -21.5q0 -25 -29 -36l-135 -55zM164 720v-614q0 -32 9 -41t53 -9v-56h-198v56q43 0 52 9t9 41v508q0 32 -9 41t-52 9v56h136z" />
    <glyph glyph-name="Lcommaaccent" unicode="&#x13b;" horiz-adv-x="525" 
d="M496 0h-459v56q51 0 61.5 9t10.5 41v508q0 32 -10.5 41t-61.5 9v56h224v-56q-51 0 -61.5 -9t-10.5 -41v-546h207q33 0 43 10.5t17 60.5h50zM238 -232l38 97q-20 0 -34 13t-14 35q0 19 14.5 33t34.5 14q25 0 38 -15.5t13 -38.5q0 -11 -2 -21.5t-8.5 -25.5l-10.5 -24
t-16 -32l-18 -35h-35z" />
    <glyph glyph-name="lcommaaccent" unicode="&#x13c;" horiz-adv-x="254" 
d="M164 720v-614q0 -32 9 -41t53 -9v-56h-198v56q43 0 52 9t9 41v508q0 32 -9 41t-52 9v56h136zM86 -232l38 97q-20 0 -34 13t-14 35q0 19 14.5 33t34.5 14q25 0 38 -15.5t13 -38.5q0 -11 -2 -21.5t-8.5 -25.5l-10.5 -24t-16 -32l-18 -35h-35z" />
    <glyph glyph-name="Lcaron" unicode="&#x13d;" horiz-adv-x="525" 
d="M316 537l39 97q-20 0 -34 13t-14 35q0 20 14 33.5t34 13.5q25 0 38 -15.5t13 -38.5q0 -11 -2 -21.5t-8.5 -25.5l-10.5 -24t-16 -32l-18 -35h-35zM496 0h-459v56q51 0 61.5 9t10.5 41v508q0 32 -10.5 41t-61.5 9v56h224v-56q-51 0 -61.5 -9t-10.5 -41v-546h207
q33 0 43 10.5t17 60.5h50z" />
    <glyph glyph-name="lcaron" unicode="&#x13e;" horiz-adv-x="265" 
d="M215 537l38 97q-19 0 -33.5 13t-14.5 35q0 19 14.5 33t34.5 14q25 0 38 -15.5t13 -38.5q0 -11 -2 -21.5t-8.5 -25.5l-10.5 -24t-16 -32l-18 -35h-35zM164 720v-614q0 -32 9 -41t53 -9v-56h-198v56q43 0 52 9t9 41v508q0 32 -9 41t-52 9v56h136z" />
    <glyph glyph-name="Ldot" unicode="&#x13f;" horiz-adv-x="525" 
d="M496 0h-459v56q51 0 61.5 9t10.5 41v508q0 32 -10.5 41t-61.5 9v56h224v-56q-51 0 -61.5 -9t-10.5 -41v-546h207q33 0 43 10.5t17 60.5h50zM263 369q0 19 13 32.5t33 13.5q19 0 31.5 -13.5t12.5 -32.5t-13 -33.5t-31 -14.5q-20 0 -33 14.5t-13 33.5z" />
    <glyph glyph-name="ldot" unicode="&#x140;" horiz-adv-x="339" 
d="M164 720v-614q0 -32 9 -41t53 -9v-56h-198v56q43 0 52 9t9 41v508q0 32 -9 41t-52 9v56h136zM228 351q0 20 13 33t33 13q19 0 32 -13.5t13 -32.5t-13 -33t-32 -14q-20 0 -33 14t-13 33z" />
    <glyph glyph-name="Lslash" unicode="&#x141;" horiz-adv-x="526" 
d="M507 139l-10 -139h-460v56q52 0 62.5 9t10.5 41v217l-71 -29v63l71 29v228q0 32 -10.5 41t-62.5 9v56h225v-56q-51 0 -61.5 -9t-10.5 -41v-195l73 30v-64l-73 -30v-287h207q33 0 43 10.5t17 60.5h50z" />
    <glyph glyph-name="lslash" unicode="&#x142;" horiz-adv-x="254" 
d="M165 356v-250q0 -32 9 -41t52 -9v-56h-197v56q43 0 51.5 9t8.5 41v193l-59 -48v62l59 47v254q0 32 -8.5 41t-51.5 9v56h136v-302l61 48v-61z" />
    <glyph glyph-name="Nacute" unicode="&#x143;" horiz-adv-x="673" 
d="M334 770l-15 29l111 78q19 14 36 14q14 0 23 -8.5t9 -21.5q0 -25 -29 -36zM644 720v-56q-51 0 -61.5 -9t-10.5 -41h-1v-614h-82l-304 567h-5q5 -84 5 -218v-349h-148v56q51 0 61.5 9t10.5 41v508q0 32 -10.5 41t-61.5 9v56h154l304 -567h5q-5 84 -5 218v349h149z" />
    <glyph glyph-name="nacute" unicode="&#x144;" horiz-adv-x="547" 
d="M254 579l111 78q19 14 36 14q14 0 23 -8.5t9 -21.5q0 -25 -29 -36l-135 -55zM466 371v-265q0 -32 9 -41t52 -9v-56h-137v357q0 89 -88 89q-61 0 -131 -45v-295q0 -32 9 -41t53 -9v-56h-198v56q43 0 52 9t9 41v288q0 32 -9 41t-52 9v56h131l5 -58h2l50 42q51 26 103 26
q63 0 101.5 -35t38.5 -104z" />
    <glyph glyph-name="Ncommaaccent" unicode="&#x145;" horiz-adv-x="673" 
d="M644 720v-56q-51 0 -61.5 -9t-10.5 -41h-1v-614h-82l-304 567h-5q5 -84 5 -218v-349h-148v56q51 0 61.5 9t10.5 41v508q0 32 -10.5 41t-61.5 9v56h154l304 -567h5q-5 84 -5 218v349h149zM336 -40q25 0 38 -15.5t13 -38.5q0 -11 -2 -21.5t-8.5 -25.5l-10.5 -24t-16 -32
l-18 -35h-35l38 97q-20 0 -34 13t-14 35q0 19 14.5 33t34.5 14z" />
    <glyph glyph-name="ncommaaccent" unicode="&#x146;" horiz-adv-x="547" 
d="M466 371v-265q0 -32 9 -41t52 -9v-56h-137v357q0 89 -88 89q-61 0 -131 -45v-295q0 -32 9 -41t53 -9v-56h-198v56q43 0 52 9t9 41v288q0 32 -9 41t-52 9v56h131l5 -58h2l50 42q51 26 103 26q63 0 101.5 -35t38.5 -104zM239 -232l38 97q-20 0 -34 13t-14 35q0 19 14.5 33
t34.5 14q25 0 38 -15.5t13 -38.5q0 -11 -2 -21.5t-8.5 -25.5l-10.5 -24t-16 -32l-18 -35h-35z" />
    <glyph glyph-name="Ncaron" unicode="&#x147;" horiz-adv-x="673" 
d="M333 770l-121 166h55l82 -100l80 100h53l-119 -166h-30zM644 720v-56q-51 0 -61.5 -9t-10.5 -41h-1v-614h-82l-304 567h-5q5 -84 5 -218v-349h-148v56q51 0 61.5 9t10.5 41v508q0 32 -10.5 41t-61.5 9v56h154l304 -567h5q-5 84 -5 218v349h149z" />
    <glyph glyph-name="ncaron" unicode="&#x148;" horiz-adv-x="547" 
d="M284 616l80 100h53l-119 -166h-30l-121 166h55zM466 371v-265q0 -32 9 -41t52 -9v-56h-137v357q0 89 -88 89q-61 0 -131 -45v-295q0 -32 9 -41t53 -9v-56h-198v56q43 0 52 9t9 41v288q0 32 -9 41t-52 9v56h131l5 -58h2l50 42q51 26 103 26q63 0 101.5 -35t38.5 -104z" />
    <glyph glyph-name="Eng" unicode="&#x14a;" horiz-adv-x="673" 
d="M644 720v-56q-51 0 -62 -8.5t-11 -40.5v-652q0 -34 -5.5 -58.5t-20 -50.5t-45.5 -43t-78 -24l-14 52q56 12 72.5 39t16.5 84v38l-311 570h-5q4 -84 4 -218v-352h-148v56q51 0 61.5 8.5t10.5 40.5v510q0 32 -10.5 40.5t-61.5 8.5v56h154l304 -560h5q-4 84 -4 218v342h148z
" />
    <glyph glyph-name="eng" unicode="&#x14b;" horiz-adv-x="529" 
d="M173 442l49 42q51 26 104 26q63 0 101 -35t38 -104v-379q-1 -78 -27.5 -127t-106.5 -85l-29 46q56 33 72 66.5t16 105.5v359q0 89 -88 89q-61 0 -131 -45v-295q0 -32 9 -41t52 -9v-56h-197v56q43 0 51.5 9t8.5 41v288q0 32 -8.5 41t-51.5 9v56h131l5 -58h2z" />
    <glyph glyph-name="Omacron" unicode="&#x14c;" horiz-adv-x="620" 
d="M169 791v47h284v-47h-284zM310 -10q-266 0 -266 375q0 365 266 365q265 0 265 -365q0 -375 -265 -375zM310 664q-99 0 -141.5 -74.5t-42.5 -224.5q0 -152 42.5 -230.5t141.5 -78.5t142 79t43 230q0 150 -43 224.5t-142 74.5z" />
    <glyph glyph-name="omacron" unicode="&#x14d;" horiz-adv-x="503" 
d="M110 571v47h284v-47h-284zM252 -10q-106 0 -159 67.5t-53 192.5t53 192.5t159 67.5t159 -67.5t53 -192.5t-53.5 -192.5t-158.5 -67.5zM252 456q-135 0 -135 -206q0 -101 31 -153.5t104 -52.5t104 52.5t31 153.5q0 206 -135 206z" />
    <glyph glyph-name="Ohungarumlaut" unicode="&#x150;" horiz-adv-x="620" 
d="M198 792l104 105q14 16 33 16q14 0 22 -8.5t8 -20.5q0 -18 -19 -31l-130 -83zM374 792l104 105q14 16 33 16q13 0 21.5 -8.5t8.5 -20.5q0 -19 -20 -31l-129 -83zM310 -10q-266 0 -266 375q0 365 266 365q265 0 265 -365q0 -375 -265 -375zM310 664q-99 0 -141.5 -74.5
t-42.5 -224.5q0 -152 42.5 -230.5t141.5 -78.5t142 79t43 230q0 150 -43 224.5t-142 74.5z" />
    <glyph glyph-name="ohungarumlaut" unicode="&#x151;" horiz-adv-x="503" 
d="M140 572l104 105q14 16 33 16q14 0 22 -8.5t8 -20.5q0 -18 -19 -31l-130 -83zM316 572l104 105q14 16 33 16q13 0 21.5 -8.5t8.5 -20.5q0 -19 -20 -31l-129 -83zM252 -10q-106 0 -159 67.5t-53 192.5t53 192.5t159 67.5t159 -67.5t53 -192.5t-53.5 -192.5t-158.5 -67.5z
M252 456q-135 0 -135 -206q0 -101 31 -153.5t104 -52.5t104 52.5t31 153.5q0 206 -135 206z" />
    <glyph glyph-name="OE" unicode="&#x152;" horiz-adv-x="938" 
d="M889 0h-385v105q-59 -115 -194 -115q-138 0 -202 99.5t-64 275.5q0 365 266 365q135 0 194 -111v101h391v-139h-50q0 50 -9 60.5t-42 10.5h-222v-251h264v-68h-264v-265h217q33 0 43 10.5t17 60.5h50zM310 56q98 0 140 78.5t42 230.5q0 151 -41.5 225t-140.5 74
t-141.5 -74.5t-42.5 -224.5q0 -152 42.5 -230.5t141.5 -78.5z" />
    <glyph glyph-name="oe" unicode="&#x153;" horiz-adv-x="837" 
d="M777 91v-61q-74 -40 -166 -40q-136 0 -186 105q-46 -105 -173 -105q-106 0 -159 67.5t-53 192.5t53 192.5t159 67.5q126 0 173 -106q52 106 185 106q35 0 65 -8t59 -27t46 -57.5t17 -93.5q0 -32 -9 -91h-327q4 -94 46 -139t114 -45q87 0 156 42zM252 44q72 0 103.5 52.5
t31.5 153.5q0 206 -135 206t-135 -206q0 -101 31 -153.5t104 -52.5zM462 280l259 2q3 16 3 42q0 43 -12 72t-32.5 40.5t-35.5 15.5t-32 4q-142 0 -150 -176z" />
    <glyph glyph-name="Racute" unicode="&#x154;" horiz-adv-x="618" 
d="M276 799l111 78q19 14 36 14q14 0 23 -8.5t9 -21.5q0 -25 -29 -36l-135 -55zM37 720h296q117 0 170.5 -57t53.5 -142q0 -161 -146 -190v-5q35 -10 54.5 -39t36.5 -81l39 -118q8 -22 16.5 -27t38.5 -5v-56h-113l-72 220q-10 30 -20.5 47.5t-38.5 33t-72 15.5h-51v68h104
q143 0 143 137q0 60 -34.5 95.5t-108.5 35.5h-144v-546q0 -32 10.5 -41t61.5 -9v-56h-224v56q51 0 61.5 9t10.5 41v508q0 32 -10.5 41t-61.5 9v56z" />
    <glyph glyph-name="racute" unicode="&#x155;" horiz-adv-x="351" 
d="M171 579l111 78q19 14 36 14q14 0 23 -8.5t9 -21.5q0 -25 -29 -36l-135 -55zM173 422l43 57q38 31 84 31q20 0 49 -6l-28 -71q-17 5 -38 5q-59 0 -112 -62v-270q0 -32 11.5 -41t68.5 -9v-56h-216v56q43 0 52 9t9 41v288q0 32 -9 41t-52 9v56h131l5 -78h2z" />
    <glyph glyph-name="Rcommaaccent" unicode="&#x156;" horiz-adv-x="618" 
d="M37 720h296q117 0 170.5 -57t53.5 -142q0 -161 -146 -190v-5q35 -10 54.5 -39t36.5 -81l39 -118q8 -22 16.5 -27t38.5 -5v-56h-113l-72 220q-10 30 -20.5 47.5t-38.5 33t-72 15.5h-51v68h104q143 0 143 137q0 60 -34.5 95.5t-108.5 35.5h-144v-546q0 -32 10.5 -41
t61.5 -9v-56h-224v56q51 0 61.5 9t10.5 41v508q0 32 -10.5 41t-61.5 9v56zM307 -232l38 97q-20 0 -34 13t-14 35q0 19 14.5 33t34.5 14q25 0 38 -15.5t13 -38.5q0 -11 -2 -21.5t-8.5 -25.5l-10.5 -24t-16 -32l-18 -35h-35z" />
    <glyph glyph-name="rcommaaccent" unicode="&#x157;" horiz-adv-x="351" 
d="M173 422l43 57q38 31 84 31q20 0 49 -6l-28 -71q-17 5 -38 5q-59 0 -112 -62v-270q0 -32 11.5 -41t68.5 -9v-56h-216v56q43 0 52 9t9 41v288q0 32 -9 41t-52 9v56h131l5 -78h2zM97 -232l38 97q-20 0 -34 13t-14 35q0 19 14.5 33t34.5 14q25 0 38 -15.5t13 -38.5
q0 -11 -2 -21.5t-8.5 -25.5l-10.5 -24t-16 -32l-18 -35h-35z" />
    <glyph glyph-name="Rcaron" unicode="&#x158;" horiz-adv-x="618" 
d="M307 836l80 100h53l-119 -166h-30l-121 166h55zM37 720h296q117 0 170.5 -57t53.5 -142q0 -161 -146 -190v-5q35 -10 54.5 -39t36.5 -81l39 -118q8 -22 16.5 -27t38.5 -5v-56h-113l-72 220q-10 30 -20.5 47.5t-38.5 33t-72 15.5h-51v68h104q143 0 143 137
q0 60 -34.5 95.5t-108.5 35.5h-144v-546q0 -32 10.5 -41t61.5 -9v-56h-224v56q51 0 61.5 9t10.5 41v508q0 32 -10.5 41t-61.5 9v56z" />
    <glyph glyph-name="rcaron" unicode="&#x159;" horiz-adv-x="351" 
d="M201 616l80 100h53l-119 -166h-30l-121 166h55zM173 422l43 57q38 31 84 31q20 0 49 -6l-28 -71q-17 5 -38 5q-59 0 -112 -62v-270q0 -32 11.5 -41t68.5 -9v-56h-216v56q43 0 52 9t9 41v288q0 32 -9 41t-52 9v56h131l5 -78h2z" />
    <glyph glyph-name="Sacute" unicode="&#x15a;" horiz-adv-x="493" 
d="M217 799l111 78q19 14 36 14q14 0 23 -8.5t9 -21.5q0 -25 -29 -36l-135 -55zM250 664q-63 0 -93 -29.5t-30 -78.5q0 -43 33.5 -75.5t81.5 -57t96.5 -52.5t82 -75t33.5 -111q0 -90 -57 -142.5t-159 -52.5q-115 0 -197 44v75q98 -52 194 -52q137 0 137 122q0 47 -33.5 82.5
t-81.5 60.5l-96 52t-81.5 72t-33.5 106q0 84 56 131t143 47q103 0 188 -46v-103h-50q0 83 -133 83z" />
    <glyph glyph-name="sacute" unicode="&#x15b;" horiz-adv-x="425" 
d="M181 579l111 78q19 14 36 14q14 0 23 -8.5t9 -21.5q0 -25 -29 -36l-135 -55zM365 379h-50q0 74 -103 74q-48 0 -70.5 -19.5t-22.5 -50.5q0 -32 28 -53t67.5 -34.5t79.5 -29.5t68 -48.5t28 -80.5q0 -69 -50 -108t-130 -39q-90 0 -160 35l-9 65q79 -44 165 -44
q52 0 79.5 24.5t27.5 60.5q0 33 -28 55t-67.5 36t-79.5 30t-68 48t-28 80q0 62 48.5 96t121.5 34q85 0 153 -35v-96z" />
    <glyph glyph-name="Scedilla" unicode="&#x15e;" horiz-adv-x="493" 
d="M454 185q0 -85 -51.5 -137t-144.5 -57v-23q41 0 65.5 -21t24.5 -60q0 -42 -25.5 -64.5t-66.5 -22.5q-36 0 -63 12v32q33 -9 50 -9q54 0 54 53q0 51 -76 51v51q-104 3 -180 44v75q98 -52 194 -52q137 0 137 122q0 47 -33.5 82.5t-81.5 60.5l-96 52t-81.5 72t-33.5 106
q0 84 56 131t143 47q103 0 188 -46v-103h-50q0 83 -133 83q-63 0 -93 -29.5t-30 -78.5q0 -43 33.5 -75.5t81.5 -57t96.5 -52.5t82 -75t33.5 -111z" />
    <glyph glyph-name="scedilla" unicode="&#x15f;" horiz-adv-x="425" 
d="M390 137q0 -66 -45.5 -104.5t-119.5 -42.5v-22q41 0 65.5 -21t24.5 -60q0 -42 -25.5 -64.5t-66.5 -22.5q-36 0 -63 12v32q33 -9 50 -9q54 0 54 53q0 51 -76 51v52q-76 3 -138 34l-9 65q79 -44 165 -44q52 0 79.5 24.5t27.5 60.5q0 33 -28 55t-67.5 36t-79.5 30t-68 48
t-28 80q0 62 48.5 96t121.5 34q85 0 153 -35v-96h-50q0 74 -103 74q-48 0 -70.5 -19.5t-22.5 -50.5q0 -32 28 -53t67.5 -34.5t79.5 -29.5t68 -48.5t28 -80.5z" />
    <glyph glyph-name="Scaron" unicode="&#x160;" horiz-adv-x="493" 
d="M247 836l80 100h53l-119 -166h-30l-121 166h55zM250 664q-63 0 -93 -29.5t-30 -78.5q0 -43 33.5 -75.5t81.5 -57t96.5 -52.5t82 -75t33.5 -111q0 -90 -57 -142.5t-159 -52.5q-115 0 -197 44v75q98 -52 194 -52q137 0 137 122q0 47 -33.5 82.5t-81.5 60.5l-96 52t-81.5 72
t-33.5 106q0 84 56 131t143 47q103 0 188 -46v-103h-50q0 83 -133 83z" />
    <glyph glyph-name="scaron" unicode="&#x161;" horiz-adv-x="425" 
d="M211 616l80 100h53l-119 -166h-30l-121 166h55zM365 379h-50q0 74 -103 74q-48 0 -70.5 -19.5t-22.5 -50.5q0 -32 28 -53t67.5 -34.5t79.5 -29.5t68 -48.5t28 -80.5q0 -69 -50 -108t-130 -39q-90 0 -160 35l-9 65q79 -44 165 -44q52 0 79.5 24.5t27.5 60.5q0 33 -28 55
t-67.5 36t-79.5 30t-68 48t-28 80q0 62 48.5 96t121.5 34q85 0 153 -35v-96z" />
    <glyph glyph-name="Tcedilla" unicode="&#x162;" horiz-adv-x="526" 
d="M494 720v-139h-50q0 50 -9 60.5t-42 10.5h-90v-546q0 -32 10.5 -41t62.5 -9v-56h-94v-32q41 0 65.5 -21t24.5 -60q0 -42 -25.5 -64.5t-66.5 -22.5q-36 0 -63 12v32q33 -9 50 -9q54 0 54 53q0 51 -76 51v61h-94v56q51 0 61.5 9t10.5 41v546h-90q-33 0 -42 -10.5t-9 -60.5
h-50v139h462z" />
    <glyph glyph-name="tcedilla" unicode="&#x163;" horiz-adv-x="291" 
d="M195 -10v-22q41 0 65.5 -21t24.5 -60q0 -42 -25.5 -64.5t-66.5 -22.5q-36 0 -63 12v32q33 -9 50 -9q54 0 54 53q0 51 -76 51v54q-77 14 -77 106v347h-61v35l61 19l45 98h31v-98h109v-54h-109v-339q0 -29 12 -43t42 -14q34 0 61 12v-58q-38 -14 -76 -14h-1z" />
    <glyph glyph-name="Tcaron" unicode="&#x164;" horiz-adv-x="526" 
d="M265 836l80 100h53l-119 -166h-30l-121 166h55zM494 581h-50q0 50 -9 60.5t-42 10.5h-90v-546q0 -32 10.5 -41t62.5 -9v-56h-225v56q51 0 61.5 9t10.5 41v546h-90q-33 0 -42 -10.5t-9 -60.5h-50v139h462v-139z" />
    <glyph glyph-name="tcaron" unicode="&#x165;" horiz-adv-x="291" 
d="M188 542l39 97q-20 0 -34 13t-14 35q0 20 14 33.5t34 13.5q25 0 38 -15.5t13 -38.5q0 -11 -2 -21.5t-8.5 -25.5l-10.5 -24t-16 -32l-18 -35h-35zM20 446v35l61 19l45 98h31v-98h109v-54h-109v-339q0 -29 12 -43t42 -14q34 0 61 12v-58q-38 -14 -76 -14q-58 0 -86.5 25.5
t-28.5 83.5v347h-61z" />
    <glyph glyph-name="Tbar" unicode="&#x166;" horiz-adv-x="534" 
d="M498 581h-50q0 50 -9.5 60.5t-42.5 10.5h-89v-261h134v-58h-134v-227q0 -32 10.5 -41t61.5 -9v-56h-224v56q51 0 61.5 9t10.5 41v227h-136v58h136v261h-90q-33 0 -42 -10.5t-9 -60.5h-50v139h462v-139z" />
    <glyph glyph-name="tbar" unicode="&#x167;" horiz-adv-x="296" 
d="M212 50q34 0 61 12v-58q-39 -14 -76 -14q-58 0 -86.5 25.5t-28.5 83.5v133h-60v47h60v167h-61v35l61 19l45 98h31v-98h109v-54h-109v-167h111v-47h-111v-125q0 -29 12 -43t42 -14z" />
    <glyph glyph-name="Umacron" unicode="&#x16a;" horiz-adv-x="650" 
d="M182 791v47h284v-47h-284zM628 720v-56q-51 0 -61.5 -9t-10.5 -41v-380q0 -125 -60.5 -184.5t-170.5 -59.5q-231 0 -231 244v380q0 32 -10.5 41t-61.5 9v56h224v-56q-51 0 -61.5 -9t-10.5 -41v-380q0 -178 151 -178t151 178v380q0 32 -10.5 41t-62.5 9v56h225z" />
    <glyph glyph-name="umacron" unicode="&#x16b;" horiz-adv-x="540" 
d="M126 571v47h284v-47h-284zM452 500v-394q0 -32 9 -41t52 -9v-56h-131l-5 58h-2l-50 -42q-51 -26 -103 -26q-63 0 -101.5 35t-38.5 104v265q0 32 -9 41t-52 9v56h137v-357q0 -89 88 -89q61 0 131 45v295q0 32 -9 41t-53 9v56h137z" />
    <glyph glyph-name="Uring" unicode="&#x16e;" horiz-adv-x="650" 
d="M243 842q0 34 22.5 55.5t57.5 21.5q34 0 57 -21.5t23 -55.5t-23 -55t-57 -21t-57 21t-23 55zM276 842q0 -23 13 -35t34 -12q20 0 33.5 12.5t13.5 34.5q0 23 -13 35.5t-34 12.5t-34 -12.5t-13 -35.5zM628 720v-56q-51 0 -61.5 -9t-10.5 -41v-380q0 -125 -60.5 -184.5
t-170.5 -59.5q-231 0 -231 244v380q0 32 -10.5 41t-61.5 9v56h224v-56q-51 0 -61.5 -9t-10.5 -41v-380q0 -178 151 -178t151 178v380q0 32 -10.5 41t-62.5 9v56h225z" />
    <glyph glyph-name="uring" unicode="&#x16f;" horiz-adv-x="540" 
d="M187 622q0 34 22.5 55.5t57.5 21.5q34 0 57 -21.5t23 -55.5t-23 -55t-57 -21t-57 21t-23 55zM220 622q0 -23 13 -35t34 -12q20 0 33.5 12.5t13.5 34.5q0 23 -13 35.5t-34 12.5t-34 -12.5t-13 -35.5zM452 500v-394q0 -32 9 -41t52 -9v-56h-131l-5 58h-2l-50 -42
q-51 -26 -103 -26q-63 0 -101.5 35t-38.5 104v265q0 32 -9 41t-52 9v56h137v-357q0 -89 88 -89q61 0 131 45v295q0 32 -9 41t-53 9v56h137z" />
    <glyph glyph-name="Uhungarumlaut" unicode="&#x170;" horiz-adv-x="650" 
d="M211 792l104 105q14 16 33 16q14 0 22 -8.5t8 -20.5q0 -18 -19 -31l-130 -83zM387 792l104 105q14 16 33 16q13 0 21.5 -8.5t8.5 -20.5q0 -19 -20 -31l-129 -83zM628 720v-56q-51 0 -61.5 -9t-10.5 -41v-380q0 -125 -60.5 -184.5t-170.5 -59.5q-231 0 -231 244v380
q0 32 -10.5 41t-61.5 9v56h224v-56q-51 0 -61.5 -9t-10.5 -41v-380q0 -178 151 -178t151 178v380q0 32 -10.5 41t-62.5 9v56h225z" />
    <glyph glyph-name="uhungarumlaut" unicode="&#x171;" horiz-adv-x="540" 
d="M155 572l104 105q14 16 33 16q14 0 22 -8.5t8 -20.5q0 -18 -19 -31l-130 -83zM331 572l104 105q14 16 33 16q13 0 21.5 -8.5t8.5 -20.5q0 -19 -20 -31l-129 -83zM452 500v-394q0 -32 9 -41t52 -9v-56h-131l-5 58h-2l-50 -42q-51 -26 -103 -26q-63 0 -101.5 35t-38.5 104
v265q0 32 -9 41t-52 9v56h137v-357q0 -89 88 -89q61 0 131 45v295q0 32 -9 41t-53 9v56h137z" />
    <glyph glyph-name="Uogonek" unicode="&#x172;" horiz-adv-x="650" 
d="M628 720v-56q-51 0 -61.5 -9t-10.5 -41v-380q0 -119 -55 -178.5t-155 -64.5q-38 -47 -38 -93q0 -58 51 -58q25 0 44 13v-28q-25 -25 -67 -25q-39 0 -61 23t-22 57q0 59 60 110q-219 6 -219 244v380q0 32 -10.5 41t-61.5 9v56h224v-56q-51 0 -61.5 -9t-10.5 -41v-380
q0 -178 151 -178t151 178v380q0 32 -10.5 41t-62.5 9v56h225z" />
    <glyph glyph-name="uogonek" unicode="&#x173;" horiz-adv-x="540" 
d="M513 0h-59q-47 -48 -47 -102q0 -58 51 -58q25 0 44 13v-28q-25 -25 -67 -25q-39 0 -61 23t-22 57q0 64 72 120h-42l-5 58h-2l-50 -42q-51 -26 -103 -26q-63 0 -101.5 35t-38.5 104v265q0 32 -9 41t-52 9v56h137v-357q0 -89 88 -89q61 0 131 45v295q0 32 -9 41t-53 9v56
h137v-394q0 -32 9 -41t52 -9v-56z" />
    <glyph glyph-name="Wcircumflex" unicode="&#x174;" horiz-adv-x="855" 
d="M297 770l121 166h30l119 -166h-53l-80 99l-82 -99h-55zM842 720v-56q-26 0 -35 -5.5t-13 -24.5l-150 -639h-104l-111 539l-110 -539h-106l-153 640q-5 19 -14 24t-35 5v56h110l115 -489q3 -15 14.5 -66.5l17.5 -78.5h2q12 75 27 145l96 489h77l98 -489q12 -56 26 -145h2
q15 83 30 145l111 489h105z" />
    <glyph glyph-name="wcircumflex" unicode="&#x175;" horiz-adv-x="767" 
d="M254 550l121 166h30l119 -166h-53l-80 99l-82 -99h-55zM755 500v-56q-29 0 -40.5 -5.5t-16.5 -22.5l-124 -421h-97l-89 389l-110 -389h-96l-104 410q-6 25 -15.5 32t-40.5 7v56h109l104 -421h2l112 421h85l94 -421h2l117 421h108z" />
    <glyph glyph-name="Ycircumflex" unicode="&#x176;" horiz-adv-x="552" 
d="M195 770h-55l121 166h30l119 -166h-53l-80 99zM541 720v-56q-26 0 -35 -5.5t-20 -28.5l-170 -374v-150q0 -32 10.5 -41t61.5 -9v-56h-224v56q51 0 61.5 9t10.5 41v152l-173 376q-9 20 -17.5 25t-33.5 5v56h98l116 -254l52 -124h2q36 90 52 124l113 254h96z" />
    <glyph glyph-name="ycircumflex" unicode="&#x177;" horiz-adv-x="509" 
d="M117 550l121 166h30l119 -166h-53l-80 99l-82 -99h-55zM495 500v-56q-32 0 -42 -7t-19 -31l-103 -312q-57 -171 -170 -314h-83v10q74 88 133 204l-128 398q-8 24 -12.5 33t-16.5 14t-37 5v56h111l129 -416h2l129 416h107z" />
    <glyph glyph-name="Ydieresis" unicode="&#x178;" horiz-adv-x="552" 
d="M190 799q-21 0 -35 13.5t-14 33.5t13.5 33.5t35.5 13.5q20 0 33 -13.5t13 -33.5t-13.5 -33.5t-32.5 -13.5zM362 799q-21 0 -34.5 13.5t-13.5 33.5t13 33.5t35 13.5q20 0 33.5 -13.5t13.5 -33.5t-13.5 -33.5t-33.5 -13.5zM541 720v-56q-26 0 -35 -5.5t-20 -28.5l-170 -374
v-150q0 -32 10.5 -41t61.5 -9v-56h-224v56q51 0 61.5 9t10.5 41v152l-173 376q-9 20 -17.5 25t-33.5 5v56h98l116 -254l52 -124h2q36 90 52 124l113 254h96z" />
    <glyph glyph-name="Zacute" unicode="&#x179;" horiz-adv-x="500" 
d="M220 799l111 78q19 14 36 14q14 0 23 -8.5t9 -21.5q0 -25 -29 -36l-135 -55zM454 0h-418v62l326 590h-216q-33 0 -42 -10.5t-9 -60.5h-50v139h409v-62l-325 -590h225q33 0 43 10.5t17 60.5h50z" />
    <glyph glyph-name="zacute" unicode="&#x17a;" horiz-adv-x="441" 
d="M190 579l111 78q19 14 36 14q14 0 23 -8.5t9 -21.5q0 -25 -29 -36l-135 -55zM404 0h-364v54l264 388h-148q-35 0 -50.5 -11t-15.5 -52h-50v121h354v-54l-264 -388h157q18 0 28 1.5t20 7.5t14.5 19.5t4.5 34.5h50v-121z" />
    <glyph glyph-name="Zdotaccent" unicode="&#x17b;" horiz-adv-x="500" 
d="M198 849q0 21 14 34.5t37 13.5q21 0 35 -13.5t14 -34.5t-14 -35.5t-35 -14.5q-23 0 -37 14.5t-14 35.5zM454 0h-418v62l326 590h-216q-33 0 -42 -10.5t-9 -60.5h-50v139h409v-62l-325 -590h225q33 0 43 10.5t17 60.5h50z" />
    <glyph glyph-name="zdotaccent" unicode="&#x17c;" horiz-adv-x="441" 
d="M168 629q0 21 14 34.5t37 13.5q21 0 35 -13.5t14 -34.5t-14 -35.5t-35 -14.5q-23 0 -37 14.5t-14 35.5zM404 0h-364v54l264 388h-148q-35 0 -50.5 -11t-15.5 -52h-50v121h354v-54l-264 -388h157q18 0 28 1.5t20 7.5t14.5 19.5t4.5 34.5h50v-121z" />
    <glyph glyph-name="Zcaron" unicode="&#x17d;" horiz-adv-x="500" 
d="M250 836l80 100h53l-119 -166h-30l-121 166h55zM454 0h-418v62l326 590h-216q-33 0 -42 -10.5t-9 -60.5h-50v139h409v-62l-325 -590h225q33 0 43 10.5t17 60.5h50z" />
    <glyph glyph-name="zcaron" unicode="&#x17e;" horiz-adv-x="441" 
d="M220 616l80 100h53l-119 -166h-30l-121 166h55zM404 0h-364v54l264 388h-148q-35 0 -50.5 -11t-15.5 -52h-50v121h354v-54l-264 -388h157q18 0 28 1.5t20 7.5t14.5 19.5t4.5 34.5h50v-121z" />
    <glyph glyph-name="florin" unicode="&#x192;" horiz-adv-x="390" 
d="M160 400l19 138q15 110 68.5 146t165.5 36l-9 -65l-5 -3q-26 8 -53 8q-41 0 -62.5 -24.5t-28.5 -76.5l-23 -159h146l-7 -50h-146l-49 -348q-15 -110 -68.5 -146t-165.5 -36l9 65l5 3q26 -8 54 -8q40 0 61.5 24t29.5 77l52 369h-135l7 50h135z" />
    <glyph glyph-name="Scommaaccent" unicode="&#x218;" horiz-adv-x="493" 
d="M250 664q-63 0 -93 -29.5t-30 -78.5q0 -43 33.5 -75.5t81.5 -57t96.5 -52.5t82 -75t33.5 -111q0 -90 -57 -142.5t-159 -52.5q-115 0 -197 44v75q98 -52 194 -52q137 0 137 122q0 47 -33.5 82.5t-81.5 60.5l-96 52t-81.5 72t-33.5 106q0 84 56 131t143 47q103 0 188 -46
v-103h-50q0 83 -133 83zM198 -232l38 97q-20 0 -34 13t-14 35q0 19 14.5 33t34.5 14q25 0 38 -15.5t13 -38.5q0 -11 -2 -21.5t-8.5 -25.5l-10.5 -24t-16 -32l-18 -35h-35z" />
    <glyph glyph-name="scommaaccent" unicode="&#x219;" horiz-adv-x="425" 
d="M365 379h-50q0 74 -103 74q-48 0 -70.5 -19.5t-22.5 -50.5q0 -32 28 -53t67.5 -34.5t79.5 -29.5t68 -48.5t28 -80.5q0 -69 -50 -108t-130 -39q-90 0 -160 35l-9 65q79 -44 165 -44q52 0 79.5 24.5t27.5 60.5q0 33 -28 55t-67.5 36t-79.5 30t-68 48t-28 80q0 62 48.5 96
t121.5 34q85 0 153 -35v-96zM165 -232l38 97q-20 0 -34 13t-14 35q0 19 14.5 33t34.5 14q25 0 38 -15.5t13 -38.5q0 -11 -2 -21.5t-8.5 -25.5l-10.5 -24t-16 -32l-18 -35h-35z" />
    <glyph glyph-name="uni021A" unicode="&#x21a;" horiz-adv-x="526" 
d="M494 581h-50q0 50 -9 60.5t-42 10.5h-90v-546q0 -32 10.5 -41t62.5 -9v-56h-225v56q51 0 61.5 9t10.5 41v546h-90q-33 0 -42 -10.5t-9 -60.5h-50v139h462v-139zM222 -232l38 97q-20 0 -34 13t-14 35q0 19 14.5 33t34.5 14q25 0 38 -15.5t13 -38.5q0 -11 -2 -21.5
t-8.5 -25.5l-10.5 -24t-16 -32l-18 -35h-35z" />
    <glyph glyph-name="uni021B" unicode="&#x21b;" horiz-adv-x="291" 
d="M20 446v35l61 19l45 98h31v-98h109v-54h-109v-339q0 -29 12 -43t42 -14q34 0 61 12v-58q-38 -14 -76 -14q-58 0 -86.5 25.5t-28.5 83.5v347h-61zM135 -232l38 97q-20 0 -34 13t-14 35q0 19 14.5 33t34.5 14q25 0 38 -15.5t13 -38.5q0 -11 -2 -21.5t-8.5 -25.5l-10.5 -24
t-16 -32l-18 -35h-35z" />
    <glyph glyph-name="dotlessj" unicode="&#x237;" horiz-adv-x="236" 
d="M166 500v-502q0 -80 -27 -130.5t-108 -87.5l-29 46q56 33 72 66.5t16 105.5v396q0 32 -9 41t-53 9v56h138z" />
    <glyph glyph-name="circumflex" unicode="&#x2c6;" horiz-adv-x="424" 
d="M76 550l121 166h30l119 -166h-53l-80 99l-82 -99h-55z" />
    <glyph glyph-name="caron" unicode="&#x2c7;" horiz-adv-x="424" 
d="M213 616l80 100h53l-119 -166h-30l-121 166h55z" />
    <glyph glyph-name="breve" unicode="&#x2d8;" horiz-adv-x="396" 
d="M199 550q-59 0 -89.5 41.5t-30.5 112.5h40q4 -53 22 -78t58 -25q39 0 57 25t22 78h40q0 -71 -30 -112.5t-89 -41.5z" />
    <glyph glyph-name="dotaccent" unicode="&#x2d9;" horiz-adv-x="256" 
d="M78 629q0 21 14 34.5t37 13.5q21 0 35 -13.5t14 -34.5t-14 -35.5t-35 -14.5q-23 0 -37 14.5t-14 35.5z" />
    <glyph glyph-name="ring" unicode="&#x2da;" horiz-adv-x="339" 
d="M89 622q0 34 22.5 55.5t57.5 21.5q34 0 57 -21.5t23 -55.5t-23 -55t-57 -21t-57 21t-23 55zM122 622q0 -23 13 -35t34 -12q20 0 33.5 12.5t13.5 34.5q0 23 -13 35.5t-34 12.5t-34 -12.5t-13 -35.5z" />
    <glyph glyph-name="ogonek" unicode="&#x2db;" horiz-adv-x="324" 
d="M236 -147v-28q-25 -25 -67 -25q-39 0 -61 23t-22 57q0 64 72 120h30q-47 -48 -47 -102q0 -58 51 -58q25 0 44 13z" />
    <glyph glyph-name="tilde" unicode="&#x2dc;" horiz-adv-x="479" 
d="M131 557h-45q4 52 29 78.5t61 26.5q25 0 69 -23t63 -23q35 0 40 50h43q-8 -106 -78 -106q-26 0 -72 23t-64 23q-21 0 -31.5 -12t-14.5 -37z" />
    <glyph glyph-name="hungarumlaut" unicode="&#x2dd;" horiz-adv-x="510" 
d="M78 572l104 105q14 16 33 16q14 0 22 -8.5t8 -20.5q0 -18 -19 -31l-130 -83zM254 572l104 105q14 16 33 16q13 0 21.5 -8.5t8.5 -20.5q0 -19 -20 -31l-129 -83z" />
    <glyph glyph-name="commaaccentcomb" unicode="&#x326;" horiz-adv-x="0" 
d="M-24 -232l38 97q-20 0 -34 13t-14 35q0 19 14.5 33t34.5 14q25 0 38 -15.5t13 -38.5q0 -11 -2 -21.5t-8.5 -25.5l-10.5 -24t-16 -32l-18 -35h-35z" />
    <glyph glyph-name="Delta" unicode="&#x394;" horiz-adv-x="584" 
d="M581 0h-578v10l244 716h90l244 -716v-10zM291 622l-186 -554h370z" />
    <glyph glyph-name="Omega" unicode="&#x3a9;" horiz-adv-x="666" 
d="M333 730q129 0 209 -78.5t80 -211.5q0 -116 -51.5 -195t-139.5 -105v-75h183l-10 -65h-233v174q79 20 123.5 91t44.5 176q0 109 -56 168.5t-150 59.5t-151 -59.5t-57 -168.5q0 -105 45 -176t124 -91v-174h-234l-10 65h184v75q-88 26 -140 105t-52 195q0 133 81 211.5
t210 78.5z" />
    <glyph glyph-name="mu" unicode="&#x3bc;" horiz-adv-x="547" 
d="M458 500v-394q0 -32 9 -41t52 -9v-56h-132l-5 58h-2l-49 -47q-42 -21 -88 -21q-51 0 -79 24v-234h-76v614q0 32 -9 41t-53 9v56h138v-357q0 -89 87 -89q61 0 131 45v295q0 32 -9 41t-52 9v56h137z" />
    <glyph glyph-name="pi" unicode="&#x3c0;" horiz-adv-x="561" 
d="M171 436v-330q0 -32 9 -41t52 -9v-56h-197v56q43 0 51.5 9t8.5 41v289q0 32 -8.5 40.5t-51.5 8.5v56h491v-56q-43 0 -52 -8.5t-9 -40.5v-289q0 -32 9 -41t53 -9v-56h-137v436h-219z" />
    <glyph glyph-name="Wgrave" unicode="&#x1e80;" horiz-adv-x="855" 
d="M459 770l-136 55q-29 12 -29 36q0 13 9 21.5t23 8.5q17 0 36 -14l111 -78zM842 720v-56q-26 0 -35 -5.5t-13 -24.5l-150 -639h-104l-111 539l-110 -539h-106l-153 640q-5 19 -14 24t-35 5v56h110l115 -489q3 -15 14.5 -66.5l17.5 -78.5h2q12 75 27 145l96 489h77l98 -489
q12 -56 26 -145h2q15 83 30 145l111 489h105z" />
    <glyph glyph-name="wgrave" unicode="&#x1e81;" horiz-adv-x="767" 
d="M416 550l-136 55q-29 12 -29 36q0 13 9 21.5t23 8.5q17 0 36 -14l111 -78zM755 500v-56q-29 0 -40.5 -5.5t-16.5 -22.5l-124 -421h-97l-89 389l-110 -389h-96l-104 410q-6 25 -15.5 32t-40.5 7v56h109l104 -421h2l112 421h85l94 -421h2l117 421h108z" />
    <glyph glyph-name="Wacute" unicode="&#x1e82;" horiz-adv-x="855" 
d="M403 799l111 78q19 14 36 14q14 0 23 -8.5t9 -21.5q0 -25 -29 -36l-135 -55zM842 720v-56q-26 0 -35 -5.5t-13 -24.5l-150 -639h-104l-111 539l-110 -539h-106l-153 640q-5 19 -14 24t-35 5v56h110l115 -489q3 -15 14.5 -66.5l17.5 -78.5h2q12 75 27 145l96 489h77
l98 -489q12 -56 26 -145h2q15 83 30 145l111 489h105z" />
    <glyph glyph-name="wacute" unicode="&#x1e83;" horiz-adv-x="767" 
d="M360 579l111 78q19 14 36 14q14 0 23 -8.5t9 -21.5q0 -25 -29 -36l-135 -55zM755 500v-56q-29 0 -40.5 -5.5t-16.5 -22.5l-124 -421h-97l-89 389l-110 -389h-96l-104 410q-6 25 -15.5 32t-40.5 7v56h109l104 -421h2l112 421h85l94 -421h2l117 421h108z" />
    <glyph glyph-name="Wdieresis" unicode="&#x1e84;" horiz-adv-x="855" 
d="M297 846q0 20 13.5 33.5t35.5 13.5q20 0 33 -13.5t13 -33.5t-13.5 -33.5t-32.5 -13.5q-21 0 -35 13.5t-14 33.5zM470 846q0 20 13 33.5t35 13.5q20 0 33.5 -13.5t13.5 -33.5t-13.5 -33.5t-33.5 -13.5q-21 0 -34.5 13.5t-13.5 33.5zM842 720v-56q-26 0 -35 -5.5t-13 -24.5
l-150 -639h-104l-111 539l-110 -539h-106l-153 640q-5 19 -14 24t-35 5v56h110l115 -489q3 -15 14.5 -66.5l17.5 -78.5h2q12 75 27 145l96 489h77l98 -489q12 -56 26 -145h2q15 83 30 145l111 489h105z" />
    <glyph glyph-name="wdieresis" unicode="&#x1e85;" horiz-adv-x="767" 
d="M254 626q0 20 13.5 33.5t35.5 13.5q20 0 33 -13.5t13 -33.5t-13.5 -33.5t-32.5 -13.5q-21 0 -35 13.5t-14 33.5zM427 626q0 20 13.5 33.5t34.5 13.5q20 0 33.5 -13.5t13.5 -33.5t-14 -33.5t-33 -13.5q-21 0 -34.5 13.5t-13.5 33.5zM755 500v-56q-29 0 -40.5 -5.5
t-16.5 -22.5l-124 -421h-97l-89 389l-110 -389h-96l-104 410q-6 25 -15.5 32t-40.5 7v56h109l104 -421h2l112 421h85l94 -421h2l117 421h108z" />
    <glyph glyph-name="Ygrave" unicode="&#x1ef2;" horiz-adv-x="552" 
d="M303 770l-136 55q-29 12 -29 36q0 13 9 21.5t23 8.5q17 0 36 -14l111 -78zM541 720v-56q-26 0 -35 -5.5t-20 -28.5l-170 -374v-150q0 -32 10.5 -41t61.5 -9v-56h-224v56q51 0 61.5 9t10.5 41v152l-173 376q-9 20 -17.5 25t-33.5 5v56h98l116 -254l52 -124h2q36 90 52 124
l113 254h96z" />
    <glyph glyph-name="ygrave" unicode="&#x1ef3;" horiz-adv-x="509" 
d="M279 550l-136 55q-29 12 -29 36q0 13 9 21.5t23 8.5q17 0 36 -14l111 -78zM495 500v-56q-32 0 -42 -7t-19 -31l-103 -312q-57 -171 -170 -314h-83v10q74 88 133 204l-128 398q-8 24 -12.5 33t-16.5 14t-37 5v56h111l129 -416h2l129 416h107z" />
    <glyph glyph-name="figuredash" unicode="&#x2012;" horiz-adv-x="516" 
d="M56 249v50h405v-50h-405z" />
    <glyph glyph-name="endash" unicode="&#x2013;" horiz-adv-x="626" 
d="M55 249v50h516v-50h-516z" />
    <glyph glyph-name="emdash" unicode="&#x2014;" horiz-adv-x="826" 
d="M55 249v50h716v-50h-716z" />
    <glyph glyph-name="quoteleft" unicode="&#x2018;" horiz-adv-x="187" 
d="M132 719l-38 -97q20 0 34 -13t14 -35q0 -20 -14 -33.5t-35 -13.5q-25 0 -38 16t-13 38q0 11 2 22t8 25.5t11 24l16.5 31.5t17.5 35h35z" />
    <glyph glyph-name="quoteright" unicode="&#x2019;" horiz-adv-x="187" 
d="M57 537l39 97q-20 0 -34 13t-14 35q0 20 14 33.5t34 13.5q25 0 38 -15.5t13 -38.5q0 -11 -2 -21.5t-8.5 -25.5l-10.5 -24t-16 -32l-18 -35h-35z" />
    <glyph glyph-name="quotesinglbase" unicode="&#x201a;" horiz-adv-x="203" 
d="M61 -107l39 97q-20 0 -34 13t-14 35q0 20 14 33.5t34 13.5q25 0 38 -16t13 -38q0 -11 -2 -21.5t-8.5 -25.5l-10.5 -24t-16 -32l-18 -35h-35z" />
    <glyph glyph-name="quotedblleft" unicode="&#x201c;" horiz-adv-x="365" 
d="M132 719l-38 -97q20 0 34 -13t14 -35q0 -18 -14 -32.5t-35 -14.5q-25 0 -38 16t-13 38q0 11 2 22t8 25.5t11 24l16.5 31.5t17.5 35h35zM311 719l-39 -97q20 0 34 -13t14 -35q0 -20 -14 -33.5t-34 -13.5q-25 0 -38 16t-13 38q0 11 2 22t8 25.5t11 24l16.5 31.5t17.5 35h35
z" />
    <glyph glyph-name="quotedblright" unicode="&#x201d;" horiz-adv-x="365" 
d="M57 537l39 97q-20 0 -34 13t-14 35q0 20 14 33.5t34 13.5q25 0 38 -15.5t13 -38.5q0 -11 -2 -21.5t-8.5 -25.5l-10.5 -24t-16 -32l-18 -35h-35zM236 537l38 97q-20 0 -34 13t-14 35q0 19 14.5 33t34.5 14q25 0 38 -15.5t13 -38.5q0 -11 -2 -21.5t-8.5 -25.5l-10.5 -24
t-16 -32l-18 -35h-35z" />
    <glyph glyph-name="quotedblbase" unicode="&#x201e;" horiz-adv-x="380" 
d="M61 -107l39 97q-20 0 -34 13t-14 35q0 20 14 33.5t34 13.5q25 0 38 -16t13 -38q0 -11 -2 -21.5t-8.5 -25.5l-10.5 -24t-16 -32l-18 -35h-35zM239 -107l38 97q-19 0 -33.5 13t-14.5 35q0 19 14.5 33t34.5 14q25 0 38 -16t13 -38q0 -11 -2 -21.5t-8.5 -25.5l-10.5 -24
t-16 -32l-18 -35h-35z" />
    <glyph glyph-name="dagger" unicode="&#x2020;" horiz-adv-x="528" 
d="M286 443l25 -443h-91l26 443l-215 -26v96l213 -25l-24 232h91l-23 -232l209 25v-96z" />
    <glyph glyph-name="daggerdbl" unicode="&#x2021;" 
d="M304 503l25 -143l-25 -143l211 26v-96l-209 25l23 -232h-90l22 232l-211 -25v96l213 -26l-24 143l24 143l-213 -26v96l211 -25l-22 232h90l-23 -232l209 25v-96z" />
    <glyph glyph-name="bullet" unicode="&#x2022;" horiz-adv-x="339" 
d="M74 232q0 45 28.5 72t66.5 27q40 0 68 -27t28 -72t-28 -71.5t-68 -26.5q-38 0 -66.5 26.5t-28.5 71.5z" />
    <glyph glyph-name="onedotenleader" unicode="&#x2024;" horiz-adv-x="190" 
d="M50 37q0 19 13 33t33 14q18 0 31 -14t13 -33q0 -20 -12.5 -33.5t-31.5 -13.5q-20 0 -33 13.5t-13 33.5z" />
    <glyph glyph-name="ellipsis" unicode="&#x2026;" horiz-adv-x="552" 
d="M50 37q0 19 13 33t33 14q18 0 31 -14t13 -33q0 -20 -12.5 -33.5t-31.5 -13.5q-20 0 -33 13.5t-13 33.5zM231 37q0 19 12.5 33t32.5 14q19 0 32 -14t13 -33q0 -20 -13 -33.5t-32 -13.5q-20 0 -32.5 13.5t-12.5 33.5zM411 37q0 19 12.5 33t32.5 14q19 0 32 -14t13 -33
q0 -20 -13 -33.5t-32 -13.5q-20 0 -32.5 13.5t-12.5 33.5z" />
    <glyph glyph-name="perthousand" unicode="&#x2030;" horiz-adv-x="996" 
d="M154 357q-68 0 -95.5 48.5t-27.5 138.5q0 88 27 134.5t96 46.5q67 0 94 -46.5t27 -134.5q0 -90 -27 -138.5t-94 -48.5zM512 720h63l-209 -345l-33 13zM154 691q-45 0 -61.5 -34.5t-16.5 -112.5q0 -80 16.5 -116.5t61.5 -36.5q44 0 61 37t17 116q0 77 -16.5 112t-61.5 35z
M528 -5q-68 0 -95 48.5t-27 138.5q0 88 27 134.5t95 46.5q67 0 94.5 -46.5t27.5 -134.5q0 -89 -27.5 -138t-94.5 -49zM847 -5q-68 0 -95.5 48.5t-27.5 138.5q0 88 27 134.5t96 46.5q67 0 94.5 -46.5t27.5 -134.5q0 -89 -27.5 -138t-94.5 -49zM161 0h-63l214 351l32 -13z
M528 329q-45 0 -61.5 -34.5t-16.5 -112.5q0 -80 16.5 -116.5t61.5 -36.5t61.5 36.5t16.5 116.5q0 78 -16.5 112.5t-61.5 34.5zM847 329q-45 0 -61.5 -34.5t-16.5 -112.5q0 -80 16.5 -116.5t61.5 -36.5q44 0 60.5 36.5t16.5 116.5q0 78 -16 112.5t-61 34.5z" />
    <glyph glyph-name="guilsinglleft" unicode="&#x2039;" horiz-adv-x="298" 
d="M253 109l-40 -34l-175 181v28l175 181l40 -34l-145 -161z" />
    <glyph glyph-name="guilsinglright" unicode="&#x203a;" horiz-adv-x="298" 
d="M45 431l40 34l175 -181v-28l-175 -181l-40 34l145 161z" />
    <glyph glyph-name="exclamdbl" unicode="&#x203c;" horiz-adv-x="405" 
d="M73 720h83l-18 -558h-47zM250 720h83l-18 -558h-47zM70 37q0 19 12.5 33t32.5 14q19 0 32 -14t13 -33q0 -20 -13 -33.5t-32 -13.5q-20 0 -32.5 13.5t-12.5 33.5zM247 37q0 19 12.5 33t32.5 14q19 0 32 -14t13 -33q0 -20 -13 -33.5t-32 -13.5q-20 0 -32.5 13.5t-12.5 33.5
z" />
    <glyph glyph-name="fraction" unicode="&#x2044;" horiz-adv-x="156" 
d="M254 720h61l-206 -345l-34 13zM-99 0h-62l214 351l34 -13z" />
    <glyph glyph-name="colonsign" unicode="&#x20a1;" horiz-adv-x="562" 
d="M321 56q108 0 200 55l-10 -77q-93 -44 -190 -44q-274 0 -274 370q0 83 13.5 147.5t44 116t86 79t134.5 27.5q93 0 186 -44v-72q-22 13 -56 26l-247 -548q42 -36 113 -36zM325 664q-110 0 -153.5 -77.5t-43.5 -226.5q0 -92 16 -156l207 459q-8 1 -26 1zM182 120l238 531
q-18 6 -32 8l-226 -506q7 -17 20 -33z" />
    <glyph glyph-name="uni20A8" unicode="&#x20a8;" horiz-adv-x="500" 
d="M465 676h-126q61 -46 68 -133h58v-44h-58q-9 -142 -146 -168v-5q35 -11 55 -37.5t36 -77.5l63 -201v-10h-79l-74 220q-11 32 -21 49t-38 32t-74 15h-80v68h135q132 0 142 115h-277v44h277q-12 109 -142 109h-135v68h416v-44z" />
    <glyph glyph-name="Euro" unicode="&#x20ac;" horiz-adv-x="628" 
d="M382 56q108 0 200 55l-10 -77q-95 -44 -190 -44q-238 0 -269 279h-75v50h71q-1 13 -1 41q0 34 1 51h-71v50h76q32 269 271 269q101 0 187 -46v-103h-50q0 83 -137 83q-89 0 -133.5 -51.5t-57.5 -151.5h215v-50h-219q-1 -16 -1 -51l1 -41h219v-50h-215
q11 -104 55.5 -158.5t132.5 -54.5z" />
    <glyph glyph-name="uni2113" unicode="&#x2113;" horiz-adv-x="364" 
d="M94 266v243q0 88 29.5 144.5t89.5 56.5q38 0 60.5 -27t22.5 -72q0 -105 -138 -288v-168q0 -135 72 -135q67 0 101 132h16q-16 -72 -50 -117t-85 -45q-31 0 -53 11.5t-34.5 28.5t-19.5 44.5t-9 52.5t-2 60v52l-71 -83l-10 11zM158 543v-193q115 154 115 242q0 42 -16 65.5
t-41 23.5q-58 0 -58 -138z" />
    <glyph glyph-name="uni2116" unicode="&#x2116;" horiz-adv-x="997" 
d="M806 391q-68 0 -102 44t-34 126q0 81 34 125t102 44t102.5 -44t34.5 -125q0 -170 -137 -170zM646 720v-56q-51 0 -61.5 -9t-10.5 -41v-614h-82l-303 567h-5q4 -84 4 -218v-349h-148v56q51 0 61.5 9t10.5 41v508q0 32 -10.5 41t-61.5 9v56h154l304 -567h5q-4 84 -4 218
v349h147zM809 696q-89 0 -89 -135q0 -67 20.5 -101.5t68.5 -34.5q89 0 89 136q0 135 -89 135zM956 336v-38h-292v38h292z" />
    <glyph glyph-name="trademark" unicode="&#x2122;" horiz-adv-x="730" 
d="M150 324v355h-99v41h247v-41h-100v-355h-48zM616 324v179q0 73 2 119h-3l-95 -298h-35l-98 298h-2q2 -46 2 -119v-179h-44v396h64l79 -247q10 -34 17 -62h3q5 26 16 62l77 247h64v-396h-47z" />
    <glyph glyph-name="estimated" unicode="&#x212e;" horiz-adv-x="652" 
d="M170 349v-235q69 -78 162 -78q139 0 216 157l39 -26q-57 -92 -114 -134.5t-141 -42.5q-129 0 -209 104.5t-80 254.5q0 157 81 259t208 102q123 0 203.5 -98t86.5 -263h-452zM495 397v189q-71 77 -164 77q-95 0 -161 -77v-189h325z" />
    <glyph glyph-name="oneeighth" unicode="&#x215b;" horiz-adv-x="701" 
d="M83 290v387h-60v33l85 15h24v-435h-49zM447 720h61l-206 -345l-34 13zM521 438q63 0 96 -27.5t33 -67.5q0 -59 -60 -99l-30 16q42 32 42 79q0 28 -23 44t-54 16q-35 0 -55.5 -17.5t-20.5 -47.5q0 -28 22 -49.5t53.5 -37l63 -32t53.5 -44t22 -63.5q0 -55 -39 -84.5
t-103 -29.5q-68 0 -103.5 28t-35.5 75q0 65 70 103l31 -16q-30 -21 -41 -39.5t-11 -43.5q0 -29 23.5 -48t65.5 -19q40 0 64.5 19.5t24.5 52.5q0 27 -22 48t-53.5 36.5l-63 32.5t-53.5 44.5t-22 64.5q0 49 34 77.5t92 28.5zM94 0h-62l214 351l34 -13z" />
    <glyph glyph-name="threeeighths" unicode="&#x215c;" horiz-adv-x="836" 
d="M151 725q64 0 97 -30.5t33 -76.5q0 -87 -89 -109v-1q44 -7 71.5 -34.5t27.5 -71.5q0 -59 -37.5 -90t-105.5 -31q-56 0 -114 27v44q53 -30 109 -30q45 0 71.5 20.5t26.5 61.5q0 42 -32.5 62.5t-87.5 20.5h-33v38h33q46 0 78.5 21t32.5 67q0 71 -86 71q-48 0 -103 -29v43
q50 27 108 27zM582 720h61l-206 -345l-34 13zM657 438q63 0 96 -27.5t33 -67.5q0 -59 -60 -99l-30 16q42 32 42 79q0 28 -23 44t-54 16q-35 0 -55.5 -17.5t-20.5 -47.5q0 -28 22 -49.5t53.5 -37l63 -32t53.5 -44t22 -63.5q0 -55 -39 -84.5t-103 -29.5q-68 0 -103.5 28
t-35.5 75q0 65 70 103l31 -16q-30 -21 -41 -39.5t-11 -43.5q0 -29 23.5 -48t65.5 -19q40 0 64.5 19.5t24.5 52.5q0 27 -22 48t-53.5 36.5l-63 32.5t-53.5 44.5t-22 64.5q0 49 34 77.5t92 28.5zM229 0h-62l214 351l34 -13z" />
    <glyph glyph-name="fiveeighths" unicode="&#x215d;" horiz-adv-x="831" 
d="M91 679v-127q28 5 53 5q64 0 105.5 -32t41.5 -103q0 -63 -37.5 -101.5t-104.5 -38.5q-59 0 -112 27v44q58 -30 104 -30q50 0 75.5 27.5t25.5 69.5q0 97 -109 97q-31 0 -81 -11v214h224v-41h-185zM577 720h61l-206 -345l-34 13zM651 438q63 0 96 -27.5t33 -67.5
q0 -59 -60 -99l-30 16q42 32 42 79q0 28 -23 44t-54 16q-35 0 -55.5 -17.5t-20.5 -47.5q0 -28 22 -49.5t53.5 -37l63 -32t53.5 -44t22 -63.5q0 -55 -39 -84.5t-103 -29.5q-68 0 -103.5 28t-35.5 75q0 65 70 103l31 -16q-30 -21 -41 -39.5t-11 -43.5q0 -29 23.5 -48t65.5 -19
q40 0 64.5 19.5t24.5 52.5q0 27 -22 48t-53.5 36.5l-63 32.5t-53.5 44.5t-22 64.5q0 49 34 77.5t92 28.5zM224 0h-62l214 351l34 -13z" />
    <glyph glyph-name="seveneighths" unicode="&#x215e;" horiz-adv-x="772" 
d="M142 288h-56q0 98 40 200t110 191h-211v41h257v-38q-64 -82 -102 -188.5t-38 -205.5zM517 720h61l-206 -345l-34 13zM592 438q63 0 96 -27.5t33 -67.5q0 -59 -60 -99l-30 16q42 32 42 79q0 28 -23 44t-54 16q-35 0 -55.5 -17.5t-20.5 -47.5q0 -28 22 -49.5t53.5 -37
l63 -32t53.5 -44t22 -63.5q0 -55 -39 -84.5t-103 -29.5q-68 0 -103.5 28t-35.5 75q0 65 70 103l31 -16q-30 -21 -41 -39.5t-11 -43.5q0 -29 23.5 -48t65.5 -19q40 0 64.5 19.5t24.5 52.5q0 27 -22 48t-53.5 36.5l-63 32.5t-53.5 44.5t-22 64.5q0 49 34 77.5t92 28.5zM164 0
h-62l214 351l34 -13z" />
    <glyph glyph-name="partialdiff" unicode="&#x2202;" horiz-adv-x="507" 
d="M168 720h83q92 -43 154.5 -133.5t62.5 -211.5q0 -43 -5 -87.5t-22.5 -100.5t-45.5 -97.5t-78 -70.5t-116 -29q-93 0 -136 54.5t-43 139.5q0 33 6.5 68.5t23.5 75.5t43 70.5t70 51t99 20.5q64 0 122 -24q-35 171 -218 274zM208 44q58 0 98 34.5t57.5 91.5t23.5 104t6 98
v17q-56 30 -118 30q-44 0 -77.5 -17t-52 -42.5t-30.5 -59t-15.5 -61.5t-3.5 -55q0 -62 27.5 -101t84.5 -39z" />
    <glyph glyph-name="product" unicode="&#x220f;" horiz-adv-x="687" 
d="M575 614v-508q0 -32 10.5 -41t61.5 -9v-56h-225v56q52 0 62.5 9t10.5 41v546h-303v-546q0 -32 10.5 -41t62.5 -9v-56h-225v56q51 0 61.5 9t10.5 41v508q0 32 -10.5 41t-61.5 9v56h607v-56q-51 0 -61.5 -9t-10.5 -41z" />
    <glyph glyph-name="summation" unicode="&#x2211;" horiz-adv-x="490" 
d="M437 0h-396v62l163 299l-163 297v62h401v-139h-50q0 50 -9 60.5t-41 10.5h-209l160 -291l-161 -293h205q33 0 43 10.5t17 60.5h50z" />
    <glyph glyph-name="minus" unicode="&#x2212;" horiz-adv-x="432" 
d="M58 240v50h316v-50h-316z" />
    <glyph glyph-name="radical" unicode="&#x221a;" horiz-adv-x="672" 
d="M401 -4h-86l-152 403h-129v50h190l145 -391l243 662h56z" />
    <glyph glyph-name="infinity" unicode="&#x221e;" horiz-adv-x="933" 
d="M731 85q-76 0 -149.5 41.5t-116.5 90.5q-40 -48 -113.5 -90t-148.5 -42q-71 0 -115 45.5t-44 114.5t44 114.5t115 45.5q75 0 148 -41t113 -88q43 48 117 88.5t150 40.5q70 0 114 -45.5t44 -114.5t-44 -114.5t-114 -45.5zM433 245q-41 43 -103.5 80t-121.5 37
q-53 0 -85 -32.5t-32 -84.5t32 -84.5t85 -32.5q60 0 122 37t103 80zM494 248q44 -45 107.5 -82.5t124.5 -37.5q52 0 84 32.5t32 84.5t-32 84.5t-84 32.5q-61 0 -125 -35.5t-107 -78.5z" />
    <glyph glyph-name="integral" unicode="&#x222b;" horiz-adv-x="482" 
d="M162 -19l78 557q16 110 69.5 146t164.5 36l-9 -65l-5 -3q-26 8 -53 8q-40 0 -61.5 -24t-29.5 -77l-78 -557q-16 -110 -69.5 -146t-164.5 -36l9 65l4 3q27 -8 54 -8q40 0 61.5 24t29.5 77z" />
    <glyph glyph-name="approxequal" unicode="&#x2248;" horiz-adv-x="422" 
d="M104 296h-45q4 52 29 78.5t61 26.5q25 0 69 -23t63 -23q33 0 40 49h43q-8 -105 -78 -105q-26 0 -72 22.5t-64 22.5q-38 0 -46 -48zM104 149h-45q4 52 29 78.5t61 26.5q25 0 69 -22.5t63 -22.5q33 0 40 49h43q-8 -106 -78 -106q-26 0 -72 23t-64 23q-21 0 -31.5 -12
t-14.5 -37z" />
    <glyph glyph-name="notequal" unicode="&#x2260;" horiz-adv-x="492" 
d="M281 313l-28 -96h150v-50h-166l-62 -207h-48l63 207h-102v50h117l29 96h-146v50h161l66 217h47l-65 -217h106v-50h-122z" />
    <glyph glyph-name="lessequal" unicode="&#x2264;" horiz-adv-x="400" 
d="M339 182v-57l-282 139v52l282 139v-57l-218 -108zM57 47v47h284v-47h-284z" />
    <glyph glyph-name="greaterequal" unicode="&#x2265;" horiz-adv-x="400" 
d="M61 398v57l282 -139v-52l-282 -139v57l217 108zM343 94v-47h-284v47h284z" />
    <glyph glyph-name="lozenge" unicode="&#x25ca;" horiz-adv-x="424" 
d="M202 730h20l175 -366l-175 -374h-20l-175 374zM338 364l-126 270l-127 -270l127 -277z" />
    <glyph glyph-name="A.ss01" horiz-adv-x="839" 
d="M730 -10l-243 243q-72 -53 -162 -53q-114 0 -194.5 80.5t-80.5 194.5t80.5 194.5t194.5 80.5t194.5 -80.5t80.5 -194.5q0 -92 -55 -163l244 -244zM325 263q79 0 135.5 56.5t56.5 135.5t-56.5 135.5t-135.5 56.5t-135.5 -56.5t-56.5 -135.5t56.5 -135.5t135.5 -56.5z" />
    <glyph glyph-name="B.ss01" horiz-adv-x="840" 
d="M420 730q153 0 261.5 -108.5t108.5 -261.5t-108.5 -261.5t-261.5 -108.5q-154 0 -262 108.5t-108 261.5t108 261.5t262 108.5zM249 590l400 -401q58 77 58 171q0 118 -84.5 202.5t-202.5 84.5q-95 0 -171 -57zM591 131l-400 401q-58 -77 -58 -172q0 -119 84 -203t203 -84
q95 0 171 58z" />
    <glyph glyph-name="C.ss01" horiz-adv-x="840" 
d="M461 720v-360h-82v360h82zM159 622l57 -59q-83 -83 -83 -203q0 -119 84 -203t203 -84q118 0 202.5 84.5t84.5 202.5t-84 202l59 59q108 -108 108 -261t-108.5 -261.5t-261.5 -108.5q-154 0 -262 108.5t-108 261.5q0 155 109 262z" />
    <glyph glyph-name="D.ss01" horiz-adv-x="840" 
d="M420 -10q-154 0 -262 108.5t-108 261.5t108 261.5t262 108.5q153 0 261.5 -108.5t108.5 -261.5t-108.5 -261.5t-261.5 -108.5zM420 73q118 0 202.5 84.5t84.5 202.5t-84.5 202.5t-202.5 84.5q-119 0 -203 -84t-84 -203t84 -203t203 -84zM261 519l208 -110l110 -208
l-208 110z" />
    <glyph glyph-name="E.ss01" horiz-adv-x="820" 
d="M446 720v-211h-72v211h72zM130 589l51 51l149 -150l-50 -50zM639 640l51 -51l-150 -149l-50 50zM50 324v72h211v-72h-211zM770 396v-72h-211v72h211zM181 80l-51 51l150 149l50 -50zM690 131l-51 -51l-149 150l50 50zM374 0v211h72v-211h-72z" />
    <glyph glyph-name="F.ss01" horiz-adv-x="860" 
d="M610 730q83 0 141.5 -58.5t58.5 -141.5q0 -76 -38 -158.5t-90 -146t-110 -118.5t-95 -83.5t-47 -33.5q-10 5 -47 33.5t-95 83.5t-110 118.5t-90 146t-38 158.5q0 82 59 141t141 59q59 0 107.5 -31t72.5 -82q25 51 73.5 82t106.5 31z" />
    <glyph glyph-name="G.ss01" horiz-adv-x="840" 
d="M420 -10q-154 0 -262 108.5t-108 261.5t108 261.5t262 108.5q153 0 261.5 -108.5t108.5 -261.5t-108.5 -261.5t-261.5 -108.5zM420 73q118 0 202.5 84.5t84.5 202.5t-84.5 202.5t-202.5 84.5q-119 0 -203 -84t-84 -203t84 -203t203 -84zM420 133q94 0 160.5 66.5
t66.5 160.5t-66.5 160.5t-160.5 66.5t-160.5 -66.5t-66.5 -160.5t66.5 -160.5t160.5 -66.5z" />
    <glyph glyph-name="H.ss01" horiz-adv-x="650" 
d="M325 -10q-133 141 -204 251t-71 214q0 114 81 194.5t194 80.5q114 0 194.5 -80.5t80.5 -194.5q0 -105 -71 -215t-204 -250zM325 104q192 220 192 351q0 79 -56.5 135.5t-135.5 56.5t-135.5 -56.5t-56.5 -135.5q0 -129 192 -351z" />
    <glyph glyph-name="I.ss01" horiz-adv-x="650" 
d="M325 -10q-133 141 -204 251t-71 214q0 114 81 194.5t194 80.5q114 0 194.5 -80.5t80.5 -194.5q0 -105 -71 -215t-204 -250zM325 264q79 0 135.5 56.5t56.5 135.5t-56.5 135t-135.5 56t-135 -56t-56 -135t56 -135.5t135 -56.5z" />
    <glyph glyph-name="J.ss01" horiz-adv-x="840" 
d="M420 -10q153 0 261.5 108.5t108.5 261.5t-108.5 261.5t-261.5 108.5q-154 0 -262 -108.5t-108 -261.5t108 -261.5t262 -108.5zM420 650l233 -466h-466zM384 490h72l-10 -184h-52zM388 250q0 12 9.5 21t22.5 9q12 0 21 -9t9 -21q0 -13 -9 -22.5t-21 -9.5q-13 0 -22.5 9.5
t-9.5 22.5z" />
    <glyph glyph-name="K.ss01" horiz-adv-x="950" 
d="M320 480h-94v-397h431l43 -83h-556v480h-94l135 250zM630 240h94v397h-432l-43 83h557v-480h94l-135 -251z" />
    <glyph glyph-name="L.ss01" horiz-adv-x="840" 
d="M460 400v330q137 0 233.5 -96.5t96.5 -233.5h-330zM380 -10q-136 0 -233 97t-97 233t97 233t233 97v-330h330q0 -137 -96.5 -233.5t-233.5 -96.5z" />
    <glyph glyph-name="M.ss01" horiz-adv-x="820" 
d="M415 720v-83h-225l214 -213l-58 -58l-212 214v-226h-84v366h365zM405 0v83h225l-214 213l58 58l212 -214v226h84v-366h-365z" />
    <glyph glyph-name="N.ss01" horiz-adv-x="820" 
d="M686 354v226l-212 -214l-58 58l214 213h-225v83h365v-366h-84zM134 366v-226l212 214l58 -58l-214 -213h225v-83h-365v366h84z" />
    <glyph glyph-name="O.ss01" horiz-adv-x="820" 
d="M365 720v-83h-175l184 -183l-58 -58l-182 184v-176h-84v316h315zM686 404v176l-182 -184l-58 58l184 183h-175v83h315v-316h-84zM134 316v-176l182 184l58 -58l-184 -183h175v-83h-315v316h84zM455 0v83h175l-184 183l58 58l182 -184v176h84v-316h-315z" />
    <glyph glyph-name="P.ss01" horiz-adv-x="826" 
d="M53 404v83h175l-178 178l57 57l177 -177v175h84v-316h-315zM541 720v-175l178 177l57 -57l-178 -178h175v-83h-315v316h83zM284 0v175l-177 -177l-57 60l178 175h-175v83h315v-316h-84zM773 316v-83h-175l178 -178l-57 -57l-178 177v-175h-83v316h315z" />
    <glyph glyph-name="Q.ss01" horiz-adv-x="840" 
d="M420 730q153 0 261.5 -108.5t108.5 -261.5t-108.5 -261.5t-261.5 -108.5q-154 0 -262 108.5t-108 261.5t108 261.5t262 108.5zM461 225v-148q94 12 161.5 80t80.5 162h-149v82h149q-13 94 -80.5 162t-161.5 80v-147h-83v147q-94 -13 -161.5 -80.5t-79.5 -161.5h147v-82
h-147q12 -94 79.5 -161.5t161.5 -80.5v148h83z" />
    <glyph glyph-name="R.ss01" horiz-adv-x="830" 
d="M50 360l730 370v-740zM234 360l463 -235v470z" />
    <glyph glyph-name="S.ss01" horiz-adv-x="830" 
d="M780 360l-730 -370v740zM596 360l-463 235v-470z" />
    <glyph glyph-name="T.ss01" horiz-adv-x="830" 
d="M50 360l730 370v-740z" />
    <glyph glyph-name="U.ss01" horiz-adv-x="830" 
d="M780 360l-730 -370v740z" />
    <glyph glyph-name="V.ss01" horiz-adv-x="820" 
d="M261 0l-211 211v298l211 211h298l211 -211v-298l-211 -211h-298zM687 245v230l-162 162h-230l-162 -162v-230l162 -162h230z" />
    <glyph glyph-name="W.ss01" horiz-adv-x="820" 
d="M261 0l-211 211v298l211 211h298l211 -211v-298l-211 -211h-298z" />
    <glyph glyph-name="X.ss01" horiz-adv-x="840" 
d="M420 -10q-154 0 -262 108.5t-108 261.5t108 261.5t262 108.5q153 0 261.5 -108.5t108.5 -261.5t-108.5 -261.5t-261.5 -108.5zM420 73q118 0 202.5 84.5t84.5 202.5h-287v287q-119 0 -203 -84t-84 -203t84 -203t203 -84z" />
    <glyph glyph-name="Y.ss01" horiz-adv-x="840" 
d="M420 -10q-154 0 -262 108.5t-108 261.5t108 261.5t262 108.5q153 0 261.5 -108.5t108.5 -261.5t-108.5 -261.5t-261.5 -108.5zM420 73v574q-119 0 -203 -84t-84 -203t84 -203t203 -84z" />
    <glyph glyph-name="Z.ss01" horiz-adv-x="840" 
d="M420 -10q-154 0 -262 108.5t-108 261.5t108 261.5t262 108.5q153 0 261.5 -108.5t108.5 -261.5t-108.5 -261.5t-261.5 -108.5zM420 360v287q-119 0 -203 -84t-84 -203h287z" />
    <glyph glyph-name="zero.lf" horiz-adv-x="587" 
d="M293 -10q-131 0 -188 98t-57 277q0 177 57 271t188 94t188.5 -94.5t57.5 -270.5q0 -375 -246 -375zM293 664q-91 0 -127.5 -74.5t-36.5 -224.5q0 -152 37 -230.5t127 -78.5q62 0 99 39t51.5 104.5t14.5 165.5q0 150 -37 224.5t-128 74.5z" />
    <glyph glyph-name="one.lf" horiz-adv-x="343" 
d="M221 725v-621q0 -22 4 -30t25 -13t71 -5v-56h-280v56q50 0 71 5t25 13t4 30v544h-100v52l140 25h40z" />
    <glyph glyph-name="two.lf" horiz-adv-x="520" 
d="M135 68h338l-10 -68h-430v68q146 117 226 201.5t106 140t26 115.5q0 41 -14 70t-37.5 43t-47 20t-51.5 6q-56 0 -90.5 -17t-34.5 -66h-50v103q79 46 183 46q224 0 224 -207q0 -109 -75 -207t-263 -244v-4z" />
    <glyph glyph-name="three.lf" horiz-adv-x="516" 
d="M389 194q0 70 -54 105t-146 35h-55v62h55q47 0 87 12.5t69.5 47.5t29.5 88q0 120 -142 120q-23 0 -40 -2t-38.5 -9.5t-33 -25.5t-11.5 -46h-50v103q81 46 182 46q105 0 159 -51t54 -127q0 -75 -39.5 -120t-109.5 -61v-3q73 -12 119 -57.5t46 -119.5q0 -97 -62 -149
t-174 -52q-92 0 -191 44v72q93 -50 183 -50q75 0 118.5 34.5t43.5 103.5z" />
    <glyph glyph-name="four.lf" horiz-adv-x="526" 
d="M490 164h-70v-164h-80v164h-315v70l332 491h63v-494h70v-67zM340 231v341l-232 -341h232z" />
    <glyph glyph-name="five.lf" horiz-adv-x="507" 
d="M136 652v-213q36 9 88 9q107 0 176 -53.5t69 -170.5q0 -105 -63 -169.5t-175 -64.5q-97 0 -185 44v72q37 -19 53 -26t50.5 -15.5t70.5 -8.5q83 0 125.5 46t42.5 117q0 162 -182 162q-63 0 -135 -18v357h373v-68h-308z" />
    <glyph glyph-name="six.lf" horiz-adv-x="558" 
d="M310 730q98 0 179 -46v-103h-50q0 46 -31 64.5t-93 18.5q-102 0 -144 -83.5t-42 -248.5q0 -132 37 -204t127 -72q146 0 146 177q0 171 -166 171q-50 0 -102 -23l6 56q45 26 111 26q123 0 177.5 -65t54.5 -165q0 -47 -12.5 -88.5t-38 -77t-71 -56.5t-104.5 -21
q-248 0 -248 340q0 400 264 400z" />
    <glyph glyph-name="seven.lf" horiz-adv-x="472" 
d="M456 720v-62q-104 -137 -168.5 -317t-64.5 -341h-92q0 160 67.5 332.5t183.5 319.5h-251q-33 0 -42.5 -10.5t-9.5 -60.5h-50v139h427z" />
    <glyph glyph-name="eight.lf" horiz-adv-x="550" 
d="M272 730q105 0 160 -46.5t55 -112.5q0 -98 -100 -165l-50 28q70 52 70 130q0 47 -38.5 74t-90.5 27q-59 0 -93 -28.5t-34 -80.5q0 -46 37 -82t89.5 -61.5t104.5 -53.5t89 -73.5t37 -106.5q0 -90 -65.5 -139.5t-170.5 -49.5q-114 0 -172.5 46.5t-58.5 124.5q0 111 116 173
l50 -27q-49 -35 -67.5 -66t-18.5 -73q0 -49 39.5 -81t109.5 -32q67 0 108 32.5t41 88.5q0 33 -19.5 60.5t-51 47.5t-69.5 39.5l-76.5 40.5t-70 46t-51 62t-19.5 82q0 81 57 128.5t153 47.5z" />
    <glyph glyph-name="nine.lf" horiz-adv-x="558" 
d="M248 -10q-98 0 -179 46v103h50q0 -46 30.5 -64.5t92.5 -18.5q102 0 144.5 83.5t42.5 248.5q0 132 -37.5 204t-127.5 72q-145 0 -145 -177q0 -171 165 -171q51 0 103 23l-7 -56q-43 -26 -111 -26q-64 0 -110.5 19t-72 52.5t-37.5 72.5t-12 86t12.5 88.5t38.5 77t71.5 56.5
t104.5 21q248 0 248 -340q0 -400 -264 -400z" />
    <glyph glyph-name="zero.osf" horiz-adv-x="579" 
d="M292 -10q-130 0 -188 77.5t-58 207.5q0 275 246 275q130 0 188 -74t58 -201q0 -130 -58.5 -207.5t-187.5 -77.5zM292 484q-90 0 -127 -54t-37 -155q0 -219 164 -219t164 219q0 101 -37 155t-127 54z" />
    <glyph glyph-name="one.osf" horiz-adv-x="347" 
d="M223 545v-441q0 -22 4 -30t25 -13t71 -5v-56h-280v56q50 0 71 5t25 13t4 30v364h-100v52l140 25h40z" />
    <glyph glyph-name="two.osf" horiz-adv-x="523" 
d="M158 68h319l-10 -68h-430v68q209 111 283 175.5t74 130.5q0 57 -43.5 83.5t-102.5 26.5q-129 0 -129 -83h-50v103q79 46 187 46q98 0 159.5 -43.5t61.5 -124.5q0 -85 -70.5 -150.5t-248.5 -159.5v-4z" />
    <glyph glyph-name="three.osf" horiz-adv-x="500" 
d="M384 14q0 70 -54 105t-146 35h-55v62h55q47 0 87 12.5t69.5 47.5t29.5 88q0 120 -142 120q-23 0 -40 -2t-38.5 -9.5t-33 -25.5t-11.5 -46h-50v103q81 46 182 46q105 0 159 -51t54 -127q0 -75 -39.5 -120t-109.5 -61v-3q73 -12 119 -57.5t46 -119.5q0 -97 -62 -149
t-174 -52q-92 0 -191 44v72q93 -50 183 -50q75 0 118.5 34.5t43.5 103.5z" />
    <glyph glyph-name="four.osf" horiz-adv-x="513" 
d="M483 0h-69v-170h-80v170h-315v71l332 470h63v-473h69v-68zM334 68v321l-228 -321h228z" />
    <glyph glyph-name="five.osf" horiz-adv-x="497" 
d="M134 482v-213q37 9 88 9q107 0 176.5 -53.5t69.5 -170.5q0 -105 -63 -169.5t-175 -64.5q-97 0 -185 44v72q36 -18 52.5 -25.5t50.5 -16t70 -8.5q83 0 125.5 46t42.5 117q0 162 -182 162q-62 0 -134 -18v357h373v-68h-309z" />
    <glyph glyph-name="six.osf" horiz-adv-x="558" 
d="M310 730q98 0 179 -46v-103h-50q0 46 -31 64.5t-93 18.5q-102 0 -144 -83.5t-42 -248.5q0 -132 37 -204t127 -72q146 0 146 177q0 171 -166 171q-50 0 -102 -23l6 56q45 26 111 26q123 0 177.5 -65t54.5 -165q0 -47 -12.5 -88.5t-38 -77t-71 -56.5t-104.5 -21
q-248 0 -248 340q0 400 264 400z" />
    <glyph glyph-name="seven.osf" horiz-adv-x="465" 
d="M453 550v-62q-105 -137 -169.5 -317t-64.5 -341h-91q0 160 67.5 332.5t183.5 319.5h-252q-33 0 -42 -10.5t-9 -60.5h-50v139h427z" />
    <glyph glyph-name="eight.osf" horiz-adv-x="550" 
d="M271 730q105 0 160 -46.5t55 -112.5q0 -98 -100 -165l-50 28q71 53 71 130q0 47 -39 74t-90 27q-59 0 -93.5 -28.5t-34.5 -80.5q0 -46 37 -82t89 -61.5l104.5 -53.5t89.5 -73.5t37 -106.5q0 -90 -65 -139.5t-170 -49.5q-114 0 -173 47t-59 124q0 111 117 173l50 -27
q-49 -35 -67.5 -66t-18.5 -73q0 -49 39 -81t109 -32q67 0 108.5 32.5t41.5 88.5q0 33 -19.5 60.5t-51 47.5t-69.5 39.5l-76.5 40.5t-70 46t-51 62t-19.5 82q0 81 56.5 128.5t152.5 47.5z" />
    <glyph glyph-name="nine.osf" horiz-adv-x="547" 
d="M246 -190q-97 0 -180 46v103h50q0 -46 31 -64.5t93 -18.5q102 0 144 83.5t42 248.5q0 132 -37 204t-127 72q-146 0 -146 -177q0 -171 166 -171q50 0 102 23l-6 -56q-45 -26 -111 -26q-64 0 -110.5 19t-72 52.5t-37.5 72.5t-12 86t12.5 88.5t38 77t71 56.5t104.5 21
q248 0 248 -340q0 -400 -263 -400z" />
    <glyph glyph-name="zero.subs" horiz-adv-x="374" 
d="M185 -106q-148 0 -148 225q0 106 34.5 162.5t113.5 56.5q148 0 148 -219q0 -225 -148 -225zM185 297q-54 0 -76 -44t-22 -134q0 -91 22 -137.5t76 -46.5t76 46.5t22 137.5q0 90 -22 134t-76 44z" />
    <glyph glyph-name="one.subs" horiz-adv-x="193" 
d="M83 -100v387h-60v33l84 15h24v-435h-48z" />
    <glyph glyph-name="two.subs" horiz-adv-x="326" 
d="M87 -59h204l-6 -41h-258v41q127 101 170.5 160.5t43.5 113.5q0 82 -92 82q-53 0 -102 -29v43q52 27 109 27q136 0 136 -124q0 -67 -45.5 -124.5t-159.5 -146.5v-2z" />
    <glyph glyph-name="three.subs" horiz-adv-x="328" 
d="M151 338q63 0 96.5 -30.5t33.5 -76.5q0 -87 -89 -109v-1q44 -7 71 -34t27 -72q0 -59 -37.5 -90t-104.5 -31q-56 0 -114 27v44q53 -30 109 -30q45 0 71.5 20.5t26.5 61.5q0 42 -32.5 62.5t-87.5 20.5h-33v38h33q45 0 78 21t33 67q0 71 -86 71q-50 0 -103 -29v43
q50 27 108 27z" />
    <glyph glyph-name="four.subs" horiz-adv-x="334" 
d="M301 -2h-42v-98h-49v98h-189v43l200 294h38v-296h42v-41zM210 39v203l-139 -203h139z" />
    <glyph glyph-name="five.subs" horiz-adv-x="323" 
d="M91 291v-127q30 5 54 5q64 0 105.5 -32.5t41.5 -102.5q0 -63 -37.5 -101.5t-105.5 -38.5q-59 0 -112 27v44q58 -30 105 -30q50 0 75 27t25 70q0 97 -109 97q-31 0 -81 -11v214h225v-41h-186z" />
    <glyph glyph-name="six.subs" horiz-adv-x="356" 
d="M197 338q61 0 107 -27v-43q-47 29 -104 29q-62 0 -87.5 -50t-25.5 -148q0 -164 98 -164q87 0 87 104q0 103 -99 103q-31 0 -61 -14l5 34q23 15 66 15q74 0 106.5 -39t32.5 -99t-33.5 -102.5t-102.5 -42.5q-149 0 -149 204q0 240 160 240z" />
    <glyph glyph-name="seven.subs" horiz-adv-x="296" 
d="M142 -100h-56q0 98 40.5 200t110.5 191h-212v41h257v-38q-64 -82 -102 -188.5t-38 -205.5z" />
    <glyph glyph-name="eight.subs" horiz-adv-x="353" 
d="M173 338q63 0 96 -27.5t33 -67.5q0 -59 -60 -99l-30 16q42 32 42 79q0 28 -23 44t-54 16q-35 0 -55.5 -17.5t-20.5 -47.5q0 -28 22 -49.5t53.5 -37l63 -32t53.5 -44t22 -63.5q0 -55 -39 -84.5t-103 -29.5q-68 0 -103.5 28t-35.5 75q0 65 70 103l31 -16q-30 -21 -41 -39.5
t-11 -43.5q0 -29 23.5 -48t65.5 -19q40 0 64.5 19.5t24.5 52.5q0 27 -22 48t-53.5 36.5l-63 32.5t-53.5 44.5t-22 64.5q0 49 34 77.5t92 28.5z" />
    <glyph glyph-name="nine.subs" horiz-adv-x="356" 
d="M158 -106q-63 0 -107 27v43q45 -29 104 -29q61 0 86.5 50t25.5 148q0 164 -98 164q-87 0 -87 -104q0 -103 99 -103q33 0 61 14l-4 -34q-23 -15 -66 -15q-74 0 -106.5 39t-32.5 99t33.5 102.5t102.5 42.5q149 0 149 -204q0 -240 -160 -240z" />
    <glyph glyph-name="zero.sups" horiz-adv-x="374" 
d="M185 381q-148 0 -148 225q0 106 34.5 162.5t113.5 56.5q148 0 148 -219q0 -225 -148 -225zM185 784q-54 0 -76 -44t-22 -134q0 -91 22 -137.5t76 -46.5t76 46.5t22 137.5q0 90 -22 134t-76 44z" />
    <glyph glyph-name="four.sups" horiz-adv-x="334" 
d="M301 488h-42v-98h-49v98h-189v43l200 294h38v-296h42v-41zM210 529v203l-139 -203h139z" />
    <glyph glyph-name="five.sups" horiz-adv-x="323" 
d="M91 779v-127q30 5 54 5q64 0 105.5 -32.5t41.5 -102.5q0 -63 -37.5 -101.5t-105.5 -38.5q-59 0 -112 27v44q58 -30 105 -30q50 0 75 27t25 70q0 97 -109 97q-31 0 -81 -11v214h225v-41h-186z" />
    <glyph glyph-name="six.sups" horiz-adv-x="356" 
d="M197 825q61 0 107 -27v-43q-47 29 -104 29q-62 0 -87.5 -50t-25.5 -148q0 -164 98 -164q87 0 87 104q0 103 -99 103q-31 0 -61 -14l5 34q23 15 66 15q74 0 106.5 -39t32.5 -99t-33.5 -102.5t-102.5 -42.5q-149 0 -149 204q0 240 160 240z" />
    <glyph glyph-name="seven.sups" horiz-adv-x="296" 
d="M142 389h-56q0 99 40.5 201t110.5 190h-212v41h257v-37q-64 -83 -102 -189.5t-38 -205.5z" />
    <glyph glyph-name="eight.sups" horiz-adv-x="353" 
d="M173 825q63 0 96 -27.5t33 -67.5q0 -59 -60 -99l-30 16q42 32 42 79q0 28 -23 44t-54 16q-35 0 -55.5 -17.5t-20.5 -47.5q0 -28 22 -49.5t53.5 -37l63 -32t53.5 -44t22 -63.5q0 -55 -39 -84.5t-103 -29.5q-68 0 -103.5 28t-35.5 75q0 65 70 103l31 -16q-30 -21 -41 -39.5
t-11 -43.5q0 -29 23.5 -48t65.5 -19q40 0 64.5 19.5t24.5 52.5q0 27 -22 48t-53.5 36.5l-63 32.5t-53.5 44.5t-22 64.5q0 49 34 77.5t92 28.5z" />
    <glyph glyph-name="nine.sups" horiz-adv-x="356" 
d="M158 381q-63 0 -107 27v43q45 -29 104 -29q61 0 86.5 50t25.5 148q0 164 -98 164q-87 0 -87 -104q0 -103 99 -103q33 0 61 14l-4 -34q-23 -15 -66 -15q-74 0 -106.5 39t-32.5 99t33.5 102.5t102.5 42.5q149 0 149 -204q0 -240 -160 -240z" />
    <glyph glyph-name="zero.tf" 
d="M281 -10q-237 0 -237 375q0 176 55.5 270.5t181.5 94.5t182 -94.5t56 -270.5q0 -375 -238 -375zM281 664q-85 0 -120 -74.5t-35 -224.5q0 -152 35 -230.5t120 -78.5q58 0 93.5 39t49 104.5t13.5 165.5q0 150 -35 224.5t-121 74.5z" />
    <glyph glyph-name="one.tf" 
d="M334 725v-621q0 -22 7 -30t43 -13t122 -5v-56h-423v56q85 0 121 5t43 13t7 30v544h-171v52l211 25h40z" />
    <glyph glyph-name="two.tf" 
d="M157 68h339l-10 -68h-430v68q146 117 226 201.5t105.5 140t25.5 115.5q0 78 -44 108.5t-106 30.5q-56 0 -90.5 -17t-34.5 -66h-50v103q79 46 184 46q224 0 224 -207q0 -109 -75.5 -207t-263.5 -244v-4z" />
    <glyph glyph-name="three.tf" 
d="M409 194q0 70 -54 105t-146 35h-55v62h55q47 0 87 12.5t69.5 47.5t29.5 88q0 120 -142 120q-23 0 -40 -2t-38.5 -9.5t-33 -25.5t-11.5 -46h-50v103q81 46 182 46q105 0 159 -51t54 -127q0 -75 -39.5 -120t-109.5 -61v-3q73 -12 119 -57.5t46 -119.5q0 -97 -62 -149
t-174 -52q-92 0 -191 44v72q93 -50 183 -50q75 0 118.5 34.5t43.5 103.5z" />
    <glyph glyph-name="four.tf" 
d="M506 164h-69v-164h-80v164h-315v70l332 491h63v-494h69v-67zM357 231v341l-234 -341h234z" />
    <glyph glyph-name="five.tf" 
d="M160 652v-213q37 9 88 9q107 0 176.5 -53.5t69.5 -170.5q0 -105 -63 -169.5t-175 -64.5q-97 0 -185 44v72q36 -18 52.5 -25.5t50.5 -16t70 -8.5q83 0 125.5 46t42.5 117q0 162 -182 162q-62 0 -134 -18v357h373v-68h-309z" />
    <glyph glyph-name="six.tf" 
d="M314 730q97 0 180 -46v-103h-50q0 46 -31 64.5t-93 18.5q-102 0 -144 -83.5t-42 -248.5q0 -132 37 -204t127 -72q146 0 146 177q0 171 -166 171q-50 0 -102 -23l6 56q45 26 111 26q64 0 110.5 -19t72 -52.5t37.5 -72.5t12 -86t-12.5 -88.5t-38 -77t-71 -56.5t-104.5 -21
q-248 0 -248 340q0 400 263 400z" />
    <glyph glyph-name="seven.tf" 
d="M505 720v-62q-105 -137 -169.5 -317t-64.5 -341h-91q0 160 67.5 332.5t182.5 319.5h-251q-33 0 -42 -10.5t-9 -60.5h-50v139h427z" />
    <glyph glyph-name="eight.tf" 
d="M278 730q105 0 160 -46.5t55 -112.5q0 -98 -100 -165l-50 28q71 53 71 130q0 47 -39 74t-91 27q-59 0 -93 -28.5t-34 -80.5q0 -46 37 -82t89.5 -61.5t104.5 -53.5t89 -73.5t37 -106.5q0 -90 -65.5 -139.5t-170.5 -49.5q-114 0 -172.5 46.5t-58.5 124.5q0 111 117 173
l49 -27q-49 -35 -67 -66t-18 -73q0 -49 39 -81t109 -32q67 0 108.5 32.5t41.5 88.5q0 33 -19.5 60.5t-51.5 47.5t-70 39.5l-76 40.5t-70 46t-51.5 62t-19.5 82q0 81 57 128.5t153 47.5z" />
    <glyph glyph-name="nine.tf" 
d="M250 -10q-97 0 -180 46v103h50q0 -46 31 -64.5t93 -18.5q102 0 144 83.5t42 248.5q0 132 -37 204t-127 72q-146 0 -146 -177q0 -171 166 -171q50 0 102 23l-6 -56q-45 -26 -111 -26q-64 0 -110.5 19t-72 52.5t-37.5 72.5t-12 86t12.5 88.5t38 77t71 56.5t104.5 21
q248 0 248 -340q0 -400 -263 -400z" />
    <glyph glyph-name="zero.tosf" 
d="M281 -10q-124 0 -180.5 77.5t-56.5 207.5q0 127 56 201t181 74t181.5 -74.5t56.5 -200.5q0 -84 -22 -145.5t-76.5 -100.5t-139.5 -39zM281 484q-84 0 -119.5 -54.5t-35.5 -154.5q0 -219 155 -219q156 0 156 219q0 100 -35.5 154.5t-120.5 54.5z" />
    <glyph glyph-name="one.tosf" 
d="M334 545v-441q0 -22 7 -30t43 -13t122 -5v-56h-423v56q85 0 121 5t43 13t7 30v364h-171v52l211 25h40z" />
    <glyph glyph-name="two.tosf" 
d="M177 68h319l-10 -68h-430v68q209 111 283 175.5t74 130.5q0 57 -43.5 83.5t-102.5 26.5q-129 0 -129 -83h-50v103q79 46 187 46q98 0 159.5 -43.5t61.5 -124.5q0 -85 -70.5 -150.5t-248.5 -159.5v-4z" />
    <glyph glyph-name="three.tosf" 
d="M414 14q0 69 -54.5 104.5t-145.5 35.5h-56v62h56q75 0 130 35.5t55 112.5q0 120 -142 120q-23 0 -40 -2t-38.5 -9.5t-33 -25.5t-11.5 -46h-50v103q81 46 182 46q105 0 159 -51t54 -127q0 -75 -39.5 -120t-109.5 -61v-3q74 -12 119.5 -57.5t45.5 -119.5q0 -97 -62 -149
t-174 -52q-93 0 -190 44v72q91 -50 182 -50q75 0 119 34.5t44 103.5z" />
    <glyph glyph-name="four.tosf" 
d="M506 0h-69v-170h-80v170h-315v71l332 470h63v-473h69v-68zM357 68v322l-228 -322h228z" />
    <glyph glyph-name="five.tosf" 
d="M160 482v-213q37 9 88 9q107 0 176.5 -53.5t69.5 -170.5q0 -105 -63 -169.5t-175 -64.5q-97 0 -185 44v72q36 -18 52.5 -25.5t50.5 -16t70 -8.5q83 0 125.5 46t42.5 117q0 162 -182 162q-62 0 -134 -18v357h373v-68h-309z" />
    <glyph glyph-name="six.tosf" 
d="M314 730q97 0 180 -46v-103h-50q0 46 -31 64.5t-93 18.5q-102 0 -144 -83.5t-42 -248.5q0 -132 37 -204t127 -72q146 0 146 177q0 171 -166 171q-50 0 -102 -23l6 56q45 26 111 26q64 0 110.5 -19t72 -52.5t37.5 -72.5t12 -86t-12.5 -88.5t-38 -77t-71 -56.5t-104.5 -21
q-248 0 -248 340q0 400 263 400z" />
    <glyph glyph-name="seven.tosf" 
d="M502 550v-62q-105 -137 -169.5 -317t-64.5 -341h-91q0 160 67.5 332.5t182.5 319.5h-251q-33 0 -42.5 -10.5t-9.5 -60.5h-50v139h428z" />
    <glyph glyph-name="eight.tosf" 
d="M278 730q106 0 160.5 -46.5t54.5 -112.5q0 -99 -100 -165l-50 28q71 52 71 130q0 47 -38.5 74t-90.5 27q-59 0 -93 -28.5t-34 -80.5q0 -46 37 -82t89 -61.5l104.5 -53.5t89.5 -73.5t37 -106.5q0 -90 -65.5 -139.5t-170.5 -49.5q-114 0 -172.5 46.5t-58.5 124.5
q0 111 116 173l50 -27q-49 -35 -67.5 -66t-18.5 -73q0 -49 39.5 -81t109.5 -32q66 0 107.5 33t41.5 88q0 45 -37 80t-89 61l-104.5 54t-89.5 74.5t-37 108.5q0 81 57 128.5t152 47.5z" />
    <glyph glyph-name="nine.tosf" 
d="M250 -190q-97 0 -180 46v103h50q0 -46 31 -64.5t93 -18.5q102 0 144 83.5t42 248.5q0 132 -37 204t-127 72q-146 0 -146 -177q0 -171 166 -171q50 0 102 23l-6 -56q-45 -26 -111 -26q-64 0 -110.5 19t-72 52.5t-37.5 72.5t-12 86t12.5 88.5t38 77t71 56.5t104.5 21
q248 0 248 -340q0 -400 -263 -400z" />
    <glyph glyph-name="zero.dnom" horiz-adv-x="374" 
d="M185 -6q-148 0 -148 225q0 106 34.5 162.5t113.5 56.5q148 0 148 -219q0 -225 -148 -225zM185 397q-54 0 -76 -44t-22 -134q0 -91 22 -137.5t76 -46.5t76 46.5t22 137.5q0 90 -22 134t-76 44z" />
    <glyph glyph-name="one.dnom" horiz-adv-x="193" 
d="M83 0v387h-60v33l84 15h24v-435h-48z" />
    <glyph glyph-name="two.dnom" horiz-adv-x="326" 
d="M87 41h204l-6 -41h-258v41q127 101 170.5 160.5t43.5 113.5q0 82 -92 82q-53 0 -102 -29v43q52 27 109 27q136 0 136 -124q0 -67 -45.5 -124.5t-159.5 -146.5v-2z" />
    <glyph glyph-name="three.dnom" horiz-adv-x="328" 
d="M151 438q63 0 96.5 -30.5t33.5 -76.5q0 -87 -89 -109v-1q44 -7 71 -34t27 -72q0 -59 -37.5 -90t-104.5 -31q-56 0 -114 27v44q53 -30 109 -30q45 0 71.5 20.5t26.5 61.5q0 42 -32.5 62.5t-87.5 20.5h-33v38h33q45 0 78 21t33 67q0 71 -86 71q-50 0 -103 -29v43
q50 27 108 27z" />
    <glyph glyph-name="four.dnom" horiz-adv-x="334" 
d="M301 98h-42v-98h-49v98h-189v43l200 294h38v-296h42v-41zM210 139v203l-139 -203h139z" />
    <glyph glyph-name="five.dnom" horiz-adv-x="323" 
d="M91 391v-127q30 5 54 5q64 0 105.5 -32.5t41.5 -102.5q0 -63 -37.5 -101.5t-105.5 -38.5q-59 0 -112 27v44q58 -30 105 -30q50 0 75 27t25 70q0 97 -109 97q-31 0 -81 -11v214h225v-41h-186z" />
    <glyph glyph-name="six.dnom" horiz-adv-x="356" 
d="M197 438q61 0 107 -27v-43q-47 29 -104 29q-62 0 -87.5 -50t-25.5 -148q0 -164 98 -164q87 0 87 104q0 103 -99 103q-31 0 -61 -14l5 34q23 15 66 15q74 0 106.5 -39t32.5 -99t-33.5 -102.5t-102.5 -42.5q-149 0 -149 204q0 240 160 240z" />
    <glyph glyph-name="seven.dnom" horiz-adv-x="296" 
d="M142 0h-56q0 98 40.5 200t110.5 191h-212v41h257v-38q-64 -82 -102 -188.5t-38 -205.5z" />
    <glyph glyph-name="eight.dnom" horiz-adv-x="353" 
d="M173 438q63 0 96 -27.5t33 -67.5q0 -59 -60 -99l-30 16q42 32 42 79q0 28 -23 44t-54 16q-35 0 -55.5 -17.5t-20.5 -47.5q0 -28 22 -49.5t53.5 -37l63 -32t53.5 -44t22 -63.5q0 -55 -39 -84.5t-103 -29.5q-68 0 -103.5 28t-35.5 75q0 65 70 103l31 -16q-30 -21 -41 -39.5
t-11 -43.5q0 -29 23.5 -48t65.5 -19q40 0 64.5 19.5t24.5 52.5q0 27 -22 48t-53.5 36.5l-63 32.5t-53.5 44.5t-22 64.5q0 49 34 77.5t92 28.5z" />
    <glyph glyph-name="nine.dnom" horiz-adv-x="356" 
d="M158 -6q-63 0 -107 27v43q45 -29 104 -29q61 0 86.5 50t25.5 148q0 164 -98 164q-87 0 -87 -104q0 -103 99 -103q33 0 61 14l-4 -34q-23 -15 -66 -15q-74 0 -106.5 39t-32.5 99t33.5 102.5t102.5 42.5q149 0 149 -204q0 -240 -160 -240z" />
    <glyph glyph-name="zero.numr" horiz-adv-x="374" 
d="M185 281q-148 0 -148 225q0 106 34.5 162.5t113.5 56.5q148 0 148 -219q0 -225 -148 -225zM185 684q-54 0 -76 -44t-22 -134q0 -91 22 -137.5t76 -46.5t76 46.5t22 137.5q0 90 -22 134t-76 44z" />
    <glyph glyph-name="one.numr" horiz-adv-x="193" 
d="M83 290v387h-60v33l84 15h24v-435h-48z" />
    <glyph glyph-name="two.numr" horiz-adv-x="326" 
d="M87 328h204l-6 -41h-258v41q127 101 170.5 160.5t43.5 113.5q0 82 -92 82q-53 0 -102 -29v43q52 27 109 27q136 0 136 -124q0 -67 -45.5 -124.5t-159.5 -146.5v-2z" />
    <glyph glyph-name="three.numr" horiz-adv-x="328" 
d="M151 725q63 0 96.5 -30.5t33.5 -76.5q0 -87 -89 -109v-1q44 -7 71 -34.5t27 -71.5q0 -59 -37.5 -90t-104.5 -31q-56 0 -114 27v44q53 -30 109 -30q45 0 71.5 20.5t26.5 61.5q0 42 -32.5 62.5t-87.5 20.5h-33v38h33q45 0 78 21t33 67q0 71 -86 71q-50 0 -103 -29v43
q50 27 108 27z" />
    <glyph glyph-name="four.numr" horiz-adv-x="334" 
d="M301 388h-42v-98h-49v98h-189v43l200 294h38v-296h42v-41zM210 429v203l-139 -203h139z" />
    <glyph glyph-name="five.numr" horiz-adv-x="323" 
d="M91 679v-127q30 5 54 5q64 0 105.5 -32.5t41.5 -102.5q0 -63 -37.5 -101.5t-105.5 -38.5q-59 0 -112 27v44q58 -30 105 -30q50 0 75 27t25 70q0 97 -109 97q-31 0 -81 -11v214h225v-41h-186z" />
    <glyph glyph-name="six.numr" horiz-adv-x="356" 
d="M197 725q61 0 107 -27v-43q-47 29 -104 29q-62 0 -87.5 -50t-25.5 -148q0 -164 98 -164q87 0 87 104q0 103 -99 103q-31 0 -61 -14l5 34q23 15 66 15q74 0 106.5 -39t32.5 -99t-33.5 -102.5t-102.5 -42.5q-149 0 -149 204q0 240 160 240z" />
    <glyph glyph-name="seven.numr" horiz-adv-x="296" 
d="M142 288h-56q0 98 40.5 200t110.5 191h-212v41h257v-38q-64 -82 -102 -188.5t-38 -205.5z" />
    <glyph glyph-name="eight.numr" horiz-adv-x="353" 
d="M173 725q63 0 96 -27.5t33 -67.5q0 -59 -60 -99l-30 16q42 32 42 79q0 28 -23 44t-54 16q-35 0 -55.5 -17.5t-20.5 -47.5q0 -28 22 -49.5t53.5 -37l63 -32t53.5 -44t22 -63.5q0 -55 -39 -84.5t-103 -29.5q-68 0 -103.5 28t-35.5 75q0 65 70 103l31 -16q-30 -21 -41 -39.5
t-11 -43.5q0 -29 23.5 -48t65.5 -19q40 0 64.5 19.5t24.5 52.5q0 27 -22 48t-53.5 36.5l-63 32.5t-53.5 44.5t-22 64.5q0 49 34 77.5t92 28.5z" />
    <glyph glyph-name="nine.numr" horiz-adv-x="356" 
d="M158 281q-63 0 -107 27v43q45 -29 104 -29q61 0 86.5 50t25.5 148q0 164 -98 164q-87 0 -87 -104q0 -103 99 -103q33 0 61 14l-4 -34q-23 -15 -66 -15q-74 0 -106.5 39t-32.5 99t33.5 102.5t102.5 42.5q149 0 149 -204q0 -240 -160 -240z" />
    <glyph glyph-name="AT" horiz-adv-x="788" 
d="M554 540q-38 -235 -38 -279q0 -23 14 -37.5t39 -14.5q48 0 84.5 53t36.5 160q0 81 -38.5 139t-97.5 83.5t-131 25.5q-143 0 -229.5 -89t-86.5 -237q0 -141 89.5 -218.5t230.5 -77.5q62 0 128.5 19.5t115.5 52.5v-50q-104 -71 -264 -71q-149 0 -253 94.5t-104 252.5
q0 163 102.5 269t271.5 106q143 0 233 -82.5t90 -219.5q0 -108 -54.5 -184t-141.5 -76q-40 0 -66 21t-28 55l-65 -58q-22 -18 -55 -18q-44 0 -71 39.5t-27 99.5q0 261 185 261q61 0 130 -19zM455 278l30 219q-39 14 -80 14q-104 0 -104 -211q0 -88 55 -88q40 0 99 66z" />
    <glyph glyph-name="Exclamdown" horiz-adv-x="234" 
d="M72 683q0 20 12.5 33.5t32.5 13.5q19 0 32 -13.5t13 -33.5q0 -19 -13 -33t-32 -14q-20 0 -32.5 14t-12.5 33zM140 558l18 -558h-83l18 558h47z" />
    <glyph glyph-name="Questiondown" horiz-adv-x="427" 
d="M312 683q0 -19 -12.5 -33t-32.5 -14q-19 0 -32 14t-13 33q0 20 13 33.5t32 13.5q20 0 32.5 -13.5t12.5 -33.5zM234 56q117 0 117 83h49v-103q-73 -46 -169 -46q-99 0 -150 57t-51 157q0 62 19.5 108t52 70t66 35t69.5 11l5 130h49l7 -185q-90 0 -138 -35.5t-48 -129.5
q0 -152 122 -152z" />
    </font>
</defs>
</svg>
